<svg xmlns="http://www.w3.org/2000/svg" xmlns:xlink="http://www.w3.org/1999/xlink" width="179.58" height="125.494" viewBox="0 0 179.58 125.494">
  <defs>
    <clipPath id="clip-path">
      <rect id="Rectángulo_394131" data-name="Rectángulo 394131" width="179.58" height="125.494" fill="none"/>
    </clipPath>
    <filter id="Trazado_846034" x="4.331" y="10.526" width="102.693" height="126.628" filterUnits="userSpaceOnUse">
      <feOffset dy="3" input="SourceAlpha"/>
      <feGaussianBlur stdDeviation="3" result="blur"/>
      <feFlood flood-opacity="0.161"/>
      <feComposite operator="in" in2="blur"/>
      <feComposite in="SourceGraphic"/>
    </filter>
  </defs>
  <g id="_10" data-name="10" transform="translate(-1128.981 -1305.258)">
    <g id="Grupo_1079343" data-name="Grupo 1079343" transform="translate(1128.981 1305.258)">
      <g id="Grupo_1079342" data-name="Grupo 1079342" clip-path="url(#clip-path)">
        <path id="Trazado_845878" data-name="Trazado 845878" d="M166.51,104.666c6.482-7.681,10.251-17.965,8.777-27.906s-8.744-19.158-18.493-21.6c-6.647-1.667-13.627-.227-20.48-.228s-14.577-2.11-17.718-8.2c-2.467-4.786-1.367-10.569-2.267-15.878-1.432-8.443-7.878-15.21-14.992-19.978A64.348,64.348,0,0,0,14.5,25.106C6.278,35.8,1.508,49.61,3.673,62.917s12.1,25.6,25.271,28.5c7.376,1.625,15.032.353,22.558-.29s15.719-.751,21.99,3.46c29.25,19.644,88.36,15.6,93.018,10.08" transform="translate(-1.858 0)" fill="#f9d673"/>
        <path id="Trazado_845879" data-name="Trazado 845879" d="M318.637,60.524A22.88,22.88,0,0,0,330.472,43.6a22.031,22.031,0,0,0-7.3-19.247,18.655,18.655,0,0,0-14.921-4.478,19.775,19.775,0,0,0-12.466,8.275A33.277,33.277,0,0,0,290.425,42.4a25.754,25.754,0,0,0,.284,11.038c3.353,11.714,18.754,11.946,27.928,7.091" transform="translate(-170.929 -11.59)" fill="#f9d673"/>
        <g transform="matrix(1, 0, 0, 1, 0, 0)" filter="url(#Trazado_846034)">
          <path id="Trazado_846034-2" data-name="Trazado 846034" d="M0,0H84.693V108.628H0Z" transform="translate(13.33 16.53)" fill="#fff"/>
        </g>
        <path id="Trazado_845880" data-name="Trazado 845880" d="M71.2,65.772l-9.642-6.823-9.642,6.823V40.254H71.2Z" transform="translate(-30.603 -23.729)" fill="#385b64"/>
        <line id="Línea_450" data-name="Línea 450" x2="39.951" transform="translate(46.282 36.605)" fill="none" stroke="#383138" stroke-miterlimit="10" stroke-width="0.75"/>
        <line id="Línea_451" data-name="Línea 451" x2="39.951" transform="translate(46.282 48.59)" fill="none" stroke="#383138" stroke-miterlimit="10" stroke-width="0.75"/>
        <line id="Línea_452" data-name="Línea 452" x2="30.556" transform="translate(55.677 116.309)" fill="none" stroke="#383138" stroke-miterlimit="10" stroke-width="0.75"/>
        <line id="Línea_453" data-name="Línea 453" x2="63.684" transform="translate(22.549 60.576)" fill="none" stroke="#383138" stroke-miterlimit="10" stroke-width="0.75"/>
        <line id="Línea_454" data-name="Línea 454" x2="63.684" transform="translate(22.549 72.561)" fill="none" stroke="#383138" stroke-miterlimit="10" stroke-width="0.75"/>
        <line id="Línea_455" data-name="Línea 455" x2="63.684" transform="translate(22.549 84.546)" fill="none" stroke="#383138" stroke-miterlimit="10" stroke-width="0.75"/>
        <line id="Línea_456" data-name="Línea 456" x2="63.684" transform="translate(22.549 96.531)" fill="none" stroke="#383138" stroke-miterlimit="10" stroke-width="0.75"/>
        <path id="Trazado_845881" data-name="Trazado 845881" d="M144.815,255.239a9.406,9.406,0,0,0,8.383-5.224,4.884,4.884,0,0,0,.541-2.944,2.555,2.555,0,0,0-1.935-2.1,2.64,2.64,0,0,0-2.666,1.686,5.859,5.859,0,0,0-.174,3.345,7.586,7.586,0,0,0,.672,2.159,6.718,6.718,0,0,0,5.706,3.22,6.957,6.957,0,0,0,3.03-.461,5.379,5.379,0,0,0,2.864-7.1,1.328,1.328,0,0,0-.518-.674.97.97,0,0,0-1.108.226,2,2,0,0,0-.487,1.09,5.655,5.655,0,0,0,3.146,5.638,10.85,10.85,0,0,0,6.738.774" transform="translate(-85.365 -144.387)" fill="none" stroke="#383138" stroke-miterlimit="10" stroke-width="0.75"/>
        <path id="Trazado_845882" data-name="Trazado 845882" d="M219.766,248.491l-6.415.776v15.074l6.415.776a2.057,2.057,0,0,1-.247,4.1H99.1A12.413,12.413,0,0,1,86.69,256.8h0A12.413,12.413,0,0,1,99.1,244.391H219.519a2.057,2.057,0,0,1,.247,4.1" transform="translate(-51.101 -144.062)" fill="#385b64"/>
        <path id="Trazado_845883" data-name="Trazado 845883" d="M125.925,269.216h7.232a12.412,12.412,0,1,1,0-24.825h-7.232a12.412,12.412,0,1,0,0,24.825" transform="translate(-66.912 -144.062)" fill="#383138"/>
        <path id="Trazado_845884" data-name="Trazado 845884" d="M161.107,269.216h7.232a12.412,12.412,0,1,1,0-24.825h-7.232a12.412,12.412,0,0,0,0,24.825" transform="translate(-87.652 -144.062)" fill="#383138"/>
        <path id="Trazado_845885" data-name="Trazado 845885" d="M299.734,254.729H234.106a8.168,8.168,0,0,0,0,16.337h65.628Z" transform="translate(-133.184 -150.156)" fill="#fff"/>
        <path id="Trazado_845886" data-name="Trazado 845886" d="M218.979,278.336a12.422,12.422,0,0,1-4.524-15.983" transform="translate(-125.67 -154.65)" fill="none" stroke="#fff" stroke-linecap="round" stroke-linejoin="round" stroke-width="0.75"/>
        <line id="Línea_457" data-name="Línea 457" x1="27.528" transform="translate(125.198 117.163)" fill="none" stroke="#383138" stroke-linecap="round" stroke-linejoin="round" stroke-width="0.75"/>
        <line id="Línea_458" data-name="Línea 458" x1="27.416" transform="translate(106.564 112.741)" fill="none" stroke="#383138" stroke-linecap="round" stroke-linejoin="round" stroke-width="0.75"/>
        <line id="Línea_459" data-name="Línea 459" x1="9.582" transform="translate(136.532 108.699)" fill="none" stroke="#383138" stroke-linecap="round" stroke-linejoin="round" stroke-width="0.75"/>
        <path id="Trazado_845887" data-name="Trazado 845887" d="M214.3,219.313l-4.074-.493v-9.573l4.074-.493a1.307,1.307,0,0,0-.157-2.6H106.974a7.883,7.883,0,0,0-7.883,7.883h0a7.883,7.883,0,0,0,7.883,7.883H214.147a1.307,1.307,0,0,0,.157-2.6" transform="translate(-58.411 -121.52)" fill="#746f74"/>
        <path id="Trazado_845888" data-name="Trazado 845888" d="M276.717,223.092h-64.28a5.188,5.188,0,1,1,0-10.376h64.28Z" transform="translate(-122.168 -125.39)" fill="#fff"/>
        <path id="Trazado_845889" data-name="Trazado 845889" d="M200.414,227.016a8.542,8.542,0,0,1-2.443-10.764" transform="translate(-116.134 -127.475)" fill="none" stroke="#fff" stroke-linecap="round" stroke-linejoin="round" stroke-width="0.75"/>
        <line id="Línea_460" data-name="Línea 460" x2="38.274" transform="translate(100.042 94.817)" fill="none" stroke="#383138" stroke-linecap="round" stroke-linejoin="round" stroke-width="0.75"/>
        <line id="Línea_461" data-name="Línea 461" x1="20.037" transform="translate(125.197 91.487)" fill="none" stroke="#383138" stroke-linecap="round" stroke-linejoin="round" stroke-width="0.75"/>
        <path id="Trazado_845890" data-name="Trazado 845890" d="M127.669,239.881l-14.811-.31" transform="translate(-66.527 -141.221)" fill="none" stroke="#fff" stroke-linecap="round" stroke-linejoin="round" stroke-width="0.75"/>
        <path id="Trazado_845891" data-name="Trazado 845891" d="M216.079,115.907l2.755-5.619,15,7.353-2.755,5.619-6.257,12.76-15-7.353Z" transform="translate(-123.684 -65.012)" fill="#385b64"/>
        <path id="Trazado_845892" data-name="Trazado 845892" d="M206.22,162.4a.952.952,0,0,0,.436,1.274l12.01,5.889a.953.953,0,0,0,1.275-.436l1.246-2.541-13.72-6.728Z" transform="translate(-121.504 -94.23)" fill="#385b64"/>
        <path id="Trazado_845893" data-name="Trazado 845893" d="M203.428,155.648l.784-1.6a1.1,1.1,0,0,1,1.475-.5l15.9,7.8a1.1,1.1,0,0,1,.5,1.475l-.784,1.6a1.1,1.1,0,0,1-1.475.5l-15.9-7.8a1.1,1.1,0,0,1-.5-1.475" transform="translate(-119.849 -90.444)" fill="#f5b500"/>
        <path id="Trazado_845894" data-name="Trazado 845894" d="M250.248,106.772a.952.952,0,0,0-.436-1.274L237.8,99.608a.952.952,0,0,0-1.274.436l-1.246,2.541L249,109.312Z" transform="translate(-138.692 -58.659)" fill="#385b64"/>
        <path id="Trazado_845895" data-name="Trazado 845895" d="M247.54,110.933l-.784,1.6a1.1,1.1,0,0,1-1.475.5l-15.9-7.8a1.1,1.1,0,0,1-.5-1.475l.784-1.6a1.1,1.1,0,0,1,1.476-.5l15.9,7.8a1.1,1.1,0,0,1,.5,1.475" transform="translate(-134.847 -59.858)" fill="#f5b500"/>
        <path id="Trazado_845896" data-name="Trazado 845896" d="M254.4,144.807l1.953-3.983,2.342,1.148-1.953,3.983-1.953,3.983-2.342-1.148Z" transform="translate(-148.812 -83.012)" fill="#f5b500"/>
        <path id="Trazado_845897" data-name="Trazado 845897" d="M260.1,152.3l1.156-2.358,1.156-2.358L298.6,164.186a3.693,3.693,0,1,1-3.251,6.628Z" transform="translate(-153.32 -86.994)" fill="#f5b500"/>
        <line id="Línea_462" data-name="Línea 462" x2="30.951" y2="14.203" transform="translate(114.326 62.988)" fill="none" stroke="#383138" stroke-miterlimit="10" stroke-width="0.75"/>
        <path id="Trazado_845898" data-name="Trazado 845898" d="M264.192,150.457l1.626-3.315,2.723,1.335-1.626,3.315-1.626,3.316-2.723-1.335Z" transform="translate(-154.775 -86.736)" fill="#f5b500"/>
        <line id="Línea_463" data-name="Línea 463" x1="3.11" y2="6.341" transform="translate(106.776 58.96)" fill="none" stroke="#383138" stroke-miterlimit="10" stroke-width="0.75"/>
        <line id="Línea_464" data-name="Línea 464" x1="2.059" y2="4.198" transform="translate(111.706 61.741)" fill="none" stroke="#383138" stroke-miterlimit="10" stroke-width="0.75"/>
        <line id="Línea_465" data-name="Línea 465" x1="15.063" y1="7.387" transform="translate(96.59 41.95)" fill="none" stroke="#383138" stroke-miterlimit="10" stroke-width="0.75"/>
        <line id="Línea_466" data-name="Línea 466" x1="6.147" y1="3.014" transform="translate(95.292 45.753)" fill="none" stroke="#383138" stroke-miterlimit="10" stroke-width="0.75"/>
        <line id="Línea_467" data-name="Línea 467" x1="6.162" y2="12.566" transform="translate(87.496 48.318)" fill="none" stroke="#383138" stroke-miterlimit="10" stroke-width="0.75"/>
        <line id="Línea_468" data-name="Línea 468" x1="13.079" y1="6.413" transform="translate(87.649 63.989)" fill="none" stroke="#383138" stroke-miterlimit="10" stroke-width="0.75"/>
        <line id="Línea_469" data-name="Línea 469" x1="9.761" y1="4.787" transform="translate(86.138 67.687)" fill="none" stroke="#383138" stroke-miterlimit="10" stroke-width="0.75"/>
        <line id="Línea_470" data-name="Línea 470" x1="10.282" y1="5.042" transform="translate(99.11 40.949)" fill="none" stroke="#383138" stroke-miterlimit="10" stroke-width="0.75"/>
        <rect id="Rectángulo_394123" data-name="Rectángulo 394123" width="42.429" height="2.475" transform="translate(69.892 77.928)" fill="#5a777e"/>
        <rect id="Rectángulo_394124" data-name="Rectángulo 394124" width="52.424" height="4.116" transform="translate(64.894 80.404)" fill="#385b64"/>
        <line id="Línea_471" data-name="Línea 471" x1="45.197" transform="translate(68.508 75.427)" fill="#385b64"/>
        <rect id="Rectángulo_394125" data-name="Rectángulo 394125" width="47.644" height="2.501" transform="translate(67.285 75.427)" fill="#385b64"/>
        <rect id="Rectángulo_394126" data-name="Rectángulo 394126" width="52.424" height="4.116" transform="translate(64.894 80.404)" fill="#385b64"/>
        <line id="Línea_472" data-name="Línea 472" x2="39.026" transform="translate(66.352 84.519)" fill="none" stroke="#383138" stroke-miterlimit="10" stroke-width="0.75"/>
        <line id="Línea_473" data-name="Línea 473" x2="39.026" transform="translate(75.599 80.404)" fill="none" stroke="#383138" stroke-miterlimit="10" stroke-width="0.75"/>
        <line id="Línea_474" data-name="Línea 474" x2="15.764" transform="translate(93.82 77.928)" fill="none" stroke="#383138" stroke-miterlimit="10" stroke-width="0.75"/>
        <line id="Línea_475" data-name="Línea 475" x2="15.764" transform="translate(72.692 75.427)" fill="none" stroke="#383138" stroke-miterlimit="10" stroke-width="0.75"/>
        <path id="Trazado_845899" data-name="Trazado 845899" d="M52.09,286.464l-1.117,6.515,5.21-4.067.313-3.094-.915-.547-.915-.547Z" transform="translate(-30.047 -167.837)" fill="#f5b500"/>
        <rect id="Rectángulo_394127" data-name="Rectángulo 394127" width="9.97" height="4.769" transform="translate(25.129 113.467) rotate(-59.122)" fill="#383138"/>
        <path id="Trazado_845900" data-name="Trazado 845900" d="M89.819,178.6,72.52,208.97l4.572,2.734,18.573-29.613c1.3-2.069,1.034-4.6-.626-5.59s-4.012-.028-5.221,2.094" transform="translate(-42.749 -103.812)" fill="#385b64"/>
        <rect id="Rectángulo_394128" data-name="Rectángulo 394128" width="3.577" height="4.148" transform="matrix(0.513, -0.858, 0.858, 0.513, 23.306, 117.121)" fill="#385b64"/>
        <rect id="Rectángulo_394129" data-name="Rectángulo 394129" width="1.522" height="5.099" transform="translate(24.42 114.329) rotate(-59.118)" fill="#385b64"/>
        <rect id="Rectángulo_394130" data-name="Rectángulo 394130" width="2.232" height="6.814" transform="matrix(0.513, -0.858, 0.858, 0.513, 42.336, 82.698)" fill="#f5b500"/>
        <path id="Trazado_845901" data-name="Trazado 845901" d="M104.343,203.674,98.465,213.5A1.027,1.027,0,0,1,96.7,212.45l5.879-9.831Z" transform="translate(-56.917 -119.438)" fill="#f5b500"/>
        <line id="Línea_476" data-name="Línea 476" x1="2.385" y1="1.426" transform="translate(24.48 117.823)" fill="none" stroke="#383138" stroke-linecap="round" stroke-linejoin="round" stroke-width="0.75"/>
        <line id="Línea_477" data-name="Línea 477" x1="5.211" y2="4.067" transform="translate(20.925 121.075)" fill="none" stroke="#383138" stroke-linecap="round" stroke-linejoin="round" stroke-width="0.75"/>
        <path id="Trazado_845902" data-name="Trazado 845902" d="M72.52,217.559l4.572,2.734L95.665,190.68" transform="translate(-42.749 -112.401)" fill="none" stroke="#383138" stroke-linecap="round" stroke-linejoin="round" stroke-width="0.75"/>
        <line id="Línea_478" data-name="Línea 478" x1="4.83" y2="8.078" transform="translate(39.784 84.934)" fill="none" stroke="#383138" stroke-linecap="round" stroke-linejoin="round" stroke-width="0.75"/>
        <line id="Línea_479" data-name="Línea 479" x2="179.58" transform="translate(0 125.289)" fill="none" stroke="#383138" stroke-miterlimit="10" stroke-width="1"/>
        <text id="Resolución" transform="translate(42.785 31.739)" fill="#385b64" font-size="9" font-family="Arvo"><tspan x="0" y="0">Resolución</tspan></text>
      </g>
    </g>
  </g>
</svg>
