<svg xmlns="http://www.w3.org/2000/svg" xmlns:xlink="http://www.w3.org/1999/xlink" width="505" height="278" viewBox="0 0 505 278">
  <defs>
    <clipPath id="clip-path">
      <rect id="Rectángulo_396490" data-name="Rectángulo 396490" width="505" height="278" transform="translate(180 8531)" fill="#f7df3f" opacity="0.59"/>
    </clipPath>
    <clipPath id="clip-path-2">
      <rect id="Rectángulo_396486" data-name="Rectángulo 396486" width="372" height="288" transform="translate(280 8263)" fill="#fff" opacity="0.64"/>
    </clipPath>
    <clipPath id="clip-path-3">
      <rect id="Rectángulo_396485" data-name="Rectángulo 396485" width="416.972" height="325.808" fill="none"/>
    </clipPath>
    <clipPath id="clip-path-4">
      <rect id="Rectángulo_396489" data-name="Rectángulo 396489" width="381.288" height="359" fill="none"/>
    </clipPath>
    <clipPath id="clip-path-5">
      <path id="Trazado_859982" data-name="Trazado 859982" d="M205.295,49.446,190.644,64.1,175.993,49.446a103.094,103.094,0,0,0-145.8,145.8l14.651,14.651,117.97,117.971a39.355,39.355,0,0,0,55.654,0L336.442,209.894l14.651-14.651a102.778,102.778,0,0,0,30.2-72.555V122A103.095,103.095,0,0,0,205.295,49.446" transform="translate(0 -19.25)" fill="none"/>
    </clipPath>
    <clipPath id="clip-path-7">
      <rect id="Rectángulo_396487" data-name="Rectángulo 396487" width="16.297" height="16.297" fill="none"/>
    </clipPath>
  </defs>
  <g id="_27" data-name="27" transform="translate(-180 -8531)" clip-path="url(#clip-path)">
    <g id="Enmascarar_grupo_1078749" data-name="Enmascarar grupo 1078749" transform="translate(-21 258.816)" clip-path="url(#clip-path-2)">
      <g id="Grupo_1087026" data-name="Grupo 1087026" transform="translate(110.248 8139.95)">
        <path id="Trazado_859926" data-name="Trazado 859926" d="M419.982,455.887c31.075,0,81.556-13.929,87.757-54.746,5.164-33.984-19.508-67.206-57.856-80.357-50.1-17.183-35.051-33.389-18.125-64.44,18.125-33.249-19.353-80.165-71.7-50.246S287.4,251.584,249.3,237c-62.54-23.94-89.943,43.248-47.307,71.3s45.97,67.1,24.543,87.986a53.178,53.178,0,0,0-7.17,8.648c-14.135,21.177-9.682,50.949,52.057,50.949H419.983Z" transform="translate(0 -63.54)" fill="#553392"/>
        <path id="Trazado_859927" data-name="Trazado 859927" d="M329.775,376.341c-24.813-5.749,127.148,17.2,101.193,28.6-35.159,15.437-245.277,19.878-248.874-3.8-5.164-33.984,19.508-67.206,57.856-80.357,50.1-17.183,35.051-33.389,18.125-64.44-18.125-33.249,19.353-80.165,71.7-50.246S402.429,251.584,440.53,237c62.54-23.94,89.943,43.248,47.307,71.3s-45.97,67.1-24.543,87.986a53.177,53.177,0,0,1,7.17,8.648c14.135,21.177,9.682,50.949-52.057,50.949,0,0-29.554-65.86-88.632-79.546Z" transform="translate(26 3.46)" fill="#613e9f"/>
      </g>
      <path id="Trazado_859928" data-name="Trazado 859928" d="M56.807,16.019q-.407-.521-.787-1.063A8.964,8.964,0,0,1,54.194,10.7a3.942,3.942,0,0,1,1.984-3.926c2.369-1.094,5.133.877,7.443,1.3,1.529-3.3,1.429-7.925,6.4-8.069,13.609-.394,3.6,25.845,2.112,25.539a26.4,26.4,0,0,1-15.323-9.525" transform="translate(378.094 8303.771)" fill="#c385c6"/>
      <path id="Trazado_859929" data-name="Trazado 859929" d="M38.639,45.3q-.391-.307-.765-.634a6.737,6.737,0,0,1-2.1-2.778,2.964,2.964,0,0,1,.743-3.223c1.532-1.224,3.9-.282,5.667-.389.522-2.688-.382-6.043,3.219-7.041C55.27,28.5,52.676,49.454,51.537,49.5a19.85,19.85,0,0,1-12.9-4.2" transform="translate(381.522 8298.052)" fill="#c385c6"/>
    </g>
    <g id="Grupo_1087038" data-name="Grupo 1087038" transform="translate(275.658 8528.456)">
      <g id="Grupo_1087037" data-name="Grupo 1087037" transform="translate(-21.303 -42.456)">
        <g id="Grupo_1087036" data-name="Grupo 1087036" clip-path="url(#clip-path-4)">
          <g id="Grupo_1087030" data-name="Grupo 1087030" transform="translate(0 16.834)">
            <g id="Grupo_1087029" data-name="Grupo 1087029" clip-path="url(#clip-path-5)">
              <path id="Trazado_859930" data-name="Trazado 859930" d="M302.628,191.478c5.96-3.072,10.2-8.845,12.612-15.1s3.184-13.015,3.638-19.7c.826-12.2.663-24.561-1.956-36.5s-7.805-23.5-16.1-32.478c-5.891-6.374-13.182-11.3-20.728-15.591-5.419-3.084-11.1-5.9-17.238-7.022a33.1,33.1,0,0,0-35.479,47.486c.908,1.8,4.351,3.67,5.732,5.137a284.232,284.232,0,0,1-4.091,75.868c23.741,5.446,51.965,9.069,73.615-2.091" transform="translate(-28.102 -24.938)" fill="#472948"/>
              <path id="Trazado_859931" data-name="Trazado 859931" d="M318.349,120.169c-2.619-11.943-7.805-23.5-16.1-32.478-5.892-6.375-13.183-11.3-20.729-15.592-5.419-3.083-11.1-5.9-17.238-7.021a33.961,33.961,0,0,0-28.962,8.851,40.079,40.079,0,0,1,15.99-4.564,47.676,47.676,0,0,1,19.111,3c12.761,4.59,23.8,13.427,31.9,24.3s13.339,23.729,16.164,36.993a115.369,115.369,0,0,1,2.191,15.508,118.941,118.941,0,0,0-2.324-29" transform="translate(-29.529 -24.938)" fill="#654059"/>
              <path id="Trazado_859932" data-name="Trazado 859932" d="M268.171,199.112c-14.114,0-28.1-2.63-39.31-5.2a.412.412,0,0,1-.314-.478,285.433,285.433,0,0,0,4.1-75.609,20.535,20.535,0,0,0-2.093-1.7c-1.478-1.1-3.006-2.244-3.608-3.438a33.512,33.512,0,0,1,35.922-48.078c6.408,1.167,12.375,4.229,17.368,7.069,9.129,5.192,15.747,10.171,20.828,15.67,7.753,8.389,13.356,19.686,16.2,32.67,2.318,10.565,2.942,22.2,1.965,36.619-.442,6.512-1.191,13.421-3.664,19.826-2.709,7.017-7.258,12.458-12.808,15.319-10.539,5.432-22.61,7.327-34.586,7.327m-38.739-5.919c20.589,4.7,50.372,9.493,72.946-2.143,5.37-2.769,9.78-8.054,12.416-14.882,2.434-6.3,3.174-13.138,3.611-19.585.972-14.338.352-25.9-1.948-36.387-2.816-12.84-8.35-24-16-32.285-5.022-5.435-11.577-10.365-20.629-15.513-4.932-2.806-10.822-5.83-17.107-6.975a32.687,32.687,0,0,0-35.037,46.893c.515,1.021,2.03,2.15,3.365,3.148a18.941,18.941,0,0,1,2.3,1.892.412.412,0,0,1,.11.247,286.075,286.075,0,0,1-4.023,75.588m73.136-1.775h0Z" transform="translate(-28.041 -24.878)" fill="#472948"/>
              <path id="Trazado_859933" data-name="Trazado 859933" d="M254.957,216.712a44.245,44.245,0,0,0,14.555,1.139c5.373-.322,10.917-1.2,15.4-4.187a24.362,24.362,0,0,0,8.592-11.149,47.532,47.532,0,0,0,2.38-7.821L285.5,191.2l-7.7-32.051-29.637,9.881,2.493,25.562L239.9,199.93a15.769,15.769,0,0,0,3.01,8.9,22.066,22.066,0,0,0,12.042,7.883" transform="translate(-30.105 -36.805)" fill="#bd6c67"/>
              <path id="Trazado_859934" data-name="Trazado 859934" d="M312.327,293.133V206.511L292.4,199.8a47.557,47.557,0,0,1-2.38,7.821,24.362,24.362,0,0,1-8.592,11.149c-4.478,2.986-10.023,3.865-15.4,4.187a44.245,44.245,0,0,1-14.555-1.139,22.07,22.07,0,0,1-12.042-7.883,15.773,15.773,0,0,1-3.01-8.9l-22.841,5.285,4.167,26.089-4.6,17.473a30.109,30.109,0,0,0,3.53,23.535h0a58.19,58.19,0,0,1,7.7,41.608l-12.074,63.11c77.977,0,114.9-39.953,114.9-39.953Z" transform="translate(-26.623 -41.906)" fill="#f4d071"/>
              <path id="Trazado_859935" data-name="Trazado 859935" d="M249.35,169.115l.833,8.547a35.014,35.014,0,0,0,19.406-8.331,34.525,34.525,0,0,0,7.578-9.49Z" transform="translate(-31.29 -36.892)" fill="#472948"/>
              <path id="Trazado_859936" data-name="Trazado 859936" d="M265.351,218.337a38.821,38.821,0,0,1-10.564-1.286,22.479,22.479,0,0,1-12.266-8.038,16.141,16.141,0,0,1-3.089-9.136.416.416,0,0,1,.23-.377l10.5-5.213-2.465-25.279a.413.413,0,0,1,.281-.432l29.636-9.882a.413.413,0,0,1,.533.3l7.645,31.83,10.162,3.424a.411.411,0,0,1,.272.482,47.4,47.4,0,0,1-2.4,7.889,24.7,24.7,0,0,1-8.743,11.335c-4.853,3.234-10.886,3.974-15.6,4.256-1.447.087-2.819.131-4.126.131m-25.085-18.213a15.327,15.327,0,0,0,2.924,8.4,21.657,21.657,0,0,0,11.82,7.728,43.363,43.363,0,0,0,14.418,1.125c4.61-.276,10.5-1,15.19-4.12a23.881,23.881,0,0,0,8.44-10.963,45.839,45.839,0,0,0,2.277-7.39l-10.027-3.378a.414.414,0,0,1-.27-.295l-7.593-31.614-28.9,9.635,2.461,25.234a.412.412,0,0,1-.227.411Z" transform="translate(-30.046 -36.746)" fill="#472948"/>
              <path id="Trazado_859937" data-name="Trazado 859937" d="M212.248,382.486a.414.414,0,0,1-.406-.491l12.075-63.109a57.627,57.627,0,0,0-7.648-41.313,30.644,30.644,0,0,1-3.579-23.858l4.577-17.389-4.154-26a.414.414,0,0,1,.315-.469l22.841-5.285a.409.409,0,0,1,.348.078.413.413,0,0,1,.158.318,15.313,15.313,0,0,0,2.93,8.663,21.659,21.659,0,0,0,11.82,7.727,43.321,43.321,0,0,0,14.418,1.126c4.611-.276,10.5-.994,15.191-4.119a23.885,23.885,0,0,0,8.44-10.964,46.531,46.531,0,0,0,2.358-7.753.414.414,0,0,1,.2-.269.406.406,0,0,1,.334-.031l19.93,6.715a.413.413,0,0,1,.282.392v86.561L327.544,342a.415.415,0,0,1-.092.4c-.093.1-9.5,10.155-28.319,20.062-17.356,9.134-46.518,20.024-86.884,20.024m1.744-171.913,4.107,25.708a.415.415,0,0,1-.009.171l-4.6,17.473a29.817,29.817,0,0,0,3.481,23.212,58.451,58.451,0,0,1,7.758,41.9l-11.982,62.617c73.988-.166,111.184-36.824,113.933-39.65l-14.809-48.814a.443.443,0,0,1-.017-.121V206.748l-19.215-6.474a46.343,46.343,0,0,1-2.3,7.441,24.7,24.7,0,0,1-8.744,11.335c-4.852,3.235-10.886,3.975-15.6,4.257a44.172,44.172,0,0,1-14.691-1.155,22.475,22.475,0,0,1-12.265-8.038,16.181,16.181,0,0,1-3.072-8.625Z" transform="translate(-26.565 -41.847)" fill="#472948"/>
              <path id="Trazado_859938" data-name="Trazado 859938" d="M302.863,246.929l-22.291,58.021,2.524,8.158Z" transform="translate(-35.208 -47.821)" fill="#472948"/>
              <path id="Trazado_859939" data-name="Trazado 859939" d="M282.755,357.03l4.792.845a24.5,24.5,0,0,0,27.845-17.52l7.489-26.748Z" transform="translate(-35.482 -56.188)" fill="#472948"/>
              <path id="Trazado_859940" data-name="Trazado 859940" d="M271.161,230.715a123.628,123.628,0,0,1-13.651-1.01.412.412,0,0,1-.365-.456.406.406,0,0,1,.456-.365c6.832.761,13.9,1.548,20.8.494,7.687-1.175,13.955-4.6,17.65-9.654a.413.413,0,0,1,.667.488c-3.827,5.23-10.287,8.775-18.193,9.983a48.719,48.719,0,0,1-7.363.52" transform="translate(-32.268 -44.385)" fill="#472948"/>
              <path id="Trazado_859941" data-name="Trazado 859941" d="M272.83,236.976a42.1,42.1,0,0,1-8.657-.9.413.413,0,0,1,.17-.809,41.546,41.546,0,0,0,18.562-.362.413.413,0,0,1,.2.8,42.229,42.229,0,0,1-10.276,1.265" transform="translate(-33.109 -46.311)" fill="#472948"/>
              <path id="Trazado_859942" data-name="Trazado 859942" d="M269.878,298.347a58.985,58.985,0,0,1-18.159-2.665,32.7,32.7,0,0,1-25.977-1.025.414.414,0,0,1,.363-.743,31.858,31.858,0,0,0,25.453.944.413.413,0,0,1,.291-.007c8.025,2.845,21.167,3.537,28.7,1.514a.413.413,0,0,1,.214.8,43.632,43.632,0,0,1-10.88,1.185" transform="translate(-28.299 -53.711)" fill="#472948"/>
              <path id="Trazado_859943" data-name="Trazado 859943" d="M267.97,215.972a.407.407,0,0,1-.153-.03.414.414,0,0,1-.231-.537,9.564,9.564,0,0,1,6.914-5.811l17.983-3.8a.413.413,0,0,1,.171.809l-17.984,3.8a8.738,8.738,0,0,0-6.317,5.309.415.415,0,0,1-.384.26" transform="translate(-33.575 -42.658)" fill="#472948"/>
              <path id="Trazado_859944" data-name="Trazado 859944" d="M260.4,216.389a.416.416,0,0,1-.38-.247,5.69,5.69,0,0,0-4.819-3.394l-5.941-.422a.414.414,0,0,1-.384-.442.424.424,0,0,1,.441-.383l5.941.422a6.513,6.513,0,0,1,5.519,3.886.413.413,0,0,1-.213.545.407.407,0,0,1-.165.035" transform="translate(-31.231 -43.375)" fill="#472948"/>
              <path id="Trazado_859945" data-name="Trazado 859945" d="M238.352,86.542a120.12,120.12,0,0,0-18.374,41.966A47.633,47.633,0,0,0,218.544,142a21.747,21.747,0,0,0,4.624,12.566c3.524,4.206,8.905,6.464,14.3,7.494a42.159,42.159,0,0,0,37.649-12.024c6.379,2.1,13.928-.168,17.515-5.847,2.254-3.571,2.893-8.7-1.411-11.443a8.383,8.383,0,0,0-5.24-1.2c-4.668.418-8.2,3.508-11.556,6.492a35.16,35.16,0,0,1-1.831-15.208,31.929,31.929,0,0,1-11.1-5.718,8.622,8.622,0,0,1-3.3-6.672,122.97,122.97,0,0,1,.823-16.123,52.067,52.067,0,0,0-2.709,17.772,46.066,46.066,0,0,1-14.873-11.414A14.459,14.459,0,0,1,238.1,90.32c.1-1.406.2-2.765.256-3.778" transform="translate(-27.416 -27.694)" fill="#bd6c67"/>
              <path id="Trazado_859946" data-name="Trazado 859946" d="M244.769,163.1a39.741,39.741,0,0,1-7.441-.694c-4.421-.844-10.53-2.854-14.534-7.635a22.26,22.26,0,0,1-4.722-12.8,48.182,48.182,0,0,1,1.444-13.61,121.3,121.3,0,0,1,18.437-42.111.413.413,0,0,1,.752.259c-.057,1.014-.154,2.376-.255,3.784a13.958,13.958,0,0,0,3.231,10.056,45.415,45.415,0,0,0,14.12,11,53.083,53.083,0,0,1,2.751-17.216.413.413,0,0,1,.8.173,122.7,122.7,0,0,0-.82,16.067,8.258,8.258,0,0,0,3.141,6.352,31.605,31.605,0,0,0,10.959,5.646.413.413,0,0,1,.3.443,34.61,34.61,0,0,0,1.607,14.444c3.127-2.777,6.682-5.767,11.332-6.184a8.81,8.81,0,0,1,5.5,1.268c4.471,2.845,3.932,8.221,1.538,12.011-3.517,5.569-11.1,8.16-17.746,6.1a42.956,42.956,0,0,1-30.4,12.652m-6.984-75.141a120.528,120.528,0,0,0-17.462,40.579,47.37,47.37,0,0,0-1.425,13.374,21.436,21.436,0,0,0,4.529,12.327c3.849,4.595,9.767,6.535,14.056,7.354a41.936,41.936,0,0,0,37.273-11.9.417.417,0,0,1,.428-.107c6.352,2.094,13.672-.347,17.036-5.676,2.182-3.454,2.71-8.331-1.284-10.873a7.982,7.982,0,0,0-4.98-1.142c-4.609.414-8.174,3.588-11.319,6.389a.413.413,0,0,1-.664-.169,35.456,35.456,0,0,1-1.889-15.041,32.686,32.686,0,0,1-10.911-5.7,9.09,9.09,0,0,1-3.462-6.991c-.064-3.71.063-7.617.369-11.5a47.813,47.813,0,0,0-1.429,13.127.414.414,0,0,1-.6.388,46.488,46.488,0,0,1-15.007-11.518,14.794,14.794,0,0,1-3.424-10.648c.058-.79.113-1.564.161-2.27" transform="translate(-27.357 -27.635)" fill="#472948"/>
              <path id="Trazado_859947" data-name="Trazado 859947" d="M292.4,146.94a7.342,7.342,0,0,1-4.855,6.875,2.269,2.269,0,0,1-2.554-.4,2.394,2.394,0,0,1,.123-2.4A11.506,11.506,0,0,1,301.4,146.11c-2.654-1.018-6.472-.454-9.008.83" transform="translate(-35.727 -34.965)" fill="#a64f5a"/>
              <path id="Trazado_859948" data-name="Trazado 859948" d="M286.33,154.369a2.064,2.064,0,0,1-1.736-.765,2.7,2.7,0,0,1,.082-2.826,11.92,11.92,0,0,1,16.881-5.081.413.413,0,0,1-.425.709,11.095,11.095,0,0,0-15.71,4.729c-.292.61-.556,1.447-.164,1.978.419.564,1.388.488,2.091.252a.413.413,0,0,1,.265.783,4.088,4.088,0,0,1-1.284.222" transform="translate(-35.668 -34.906)" fill="#472948"/>
              <path id="Trazado_859949" data-name="Trazado 859949" d="M256.46,117.618a10.273,10.273,0,0,0-9.1.893l15.308,5.823a10.275,10.275,0,0,0-6.206-6.716" transform="translate(-31.04 -31.509)" fill="#472948"/>
              <path id="Trazado_859950" data-name="Trazado 859950" d="M257.337,130.219a12.214,12.214,0,0,1-11.262-4.925,5.84,5.84,0,0,0,1,3.315,7.131,7.131,0,0,0,7.155,3.13,5.841,5.841,0,0,0,3.111-1.52" transform="translate(-30.879 -32.557)" fill="#472948"/>
              <path id="Trazado_859951" data-name="Trazado 859951" d="M234.482,108.385c-2.006-.693-4.333.2-6.309,2.127L238,113.9c-.282-2.709-1.511-4.827-3.517-5.52" transform="translate(-28.633 -30.406)" fill="#472948"/>
              <path id="Trazado_859952" data-name="Trazado 859952" d="M233.746,120.377a6.2,6.2,0,0,1-4.2-.013,6.567,6.567,0,0,1-2.964-3.093,6.161,6.161,0,0,0,.324,3.015,3.614,3.614,0,0,0,1.842,2.067,3.4,3.4,0,0,0,2.708-.094,5.75,5.75,0,0,0,2.286-1.883" transform="translate(-28.426 -31.55)" fill="#472948"/>
              <path id="Trazado_859953" data-name="Trazado 859953" d="M268.68,146.214a7.939,7.939,0,1,1-7.939-7.939,7.938,7.938,0,0,1,7.939,7.939" transform="translate(-31.723 -34.186)" fill="#a64f5a"/>
              <path id="Trazado_859954" data-name="Trazado 859954" d="M111.46,64.994A24.642,24.642,0,0,0,95.5,88.813c.406,7.877,4.651,15.812,2.187,23.3C94.137,122.9,78.64,126.584,76.133,137.655c-1.342,5.921,1.634,11.9,4.818,17.073s6.8,10.527,6.9,16.6c.172,10.584-10.173,18.458-12.518,28.78-2.652,11.684,6.61,23.952,18.242,26.821s24.217-2.282,32.572-10.868,13.028-20.13,15.9-31.761c5.026-20.327,5.066-41.483,3.045-62.216-1.025-10.5-2.576-20.941-4.3-31.348-.952-5.768-.393-14.909-4.164-19.715-5.467-6.966-17.255-8.812-25.174-6.024" transform="translate(-9.396 -24.834)" fill="#6a3649"/>
              <path id="Trazado_859955" data-name="Trazado 859955" d="M81.352,198.226c2.31-5.871,6.285-10.906,9.47-16.352s5.644-11.773,4.447-17.966c-.973-5.032-4.21-9.27-6.979-13.584s-5.223-9.32-4.345-14.369c1.814-10.439,15.926-14.135,20.027-23.9,3.467-8.258-1.381-17.559-1.2-26.514a23.826,23.826,0,0,1,8.115-17.29,23.5,23.5,0,0,1,7.92-4.478A23.508,23.508,0,0,0,111.46,65,24.64,24.64,0,0,0,95.5,88.816c.4,7.876,4.65,15.811,2.186,23.3-3.546,10.784-19.044,14.468-21.552,25.539-1.341,5.921,1.634,11.9,4.819,17.073s6.8,10.527,6.9,16.6c.173,10.583-10.172,18.458-12.516,28.779-1.479,6.508.743,13.2,5.011,18.341a32.479,32.479,0,0,1,1.007-20.222" transform="translate(-9.396 -24.837)" fill="#8e5a61"/>
              <path id="Trazado_859956" data-name="Trazado 859956" d="M100.085,228.061a27.8,27.8,0,0,1-6.666-.791,25.708,25.708,0,0,1-13.451-8.617q-.391-.472-.758-.96l-.058-.078c-.247-.332-.455-.623-.656-.918l-.1-.142c-.214-.321-.4-.6-.571-.888l-.13-.213q-.254-.424-.49-.854l-.121-.22c-.158-.3-.309-.595-.455-.895l-.1-.2c-.156-.331-.305-.666-.446-1l-.044-.1a22.96,22.96,0,0,1-.814-2.324l-.024-.094q-.148-.521-.271-1.048l-.067-.324c-.06-.276-.116-.554-.164-.833l-.064-.407c-.038-.254-.074-.507-.1-.763-.017-.145-.031-.291-.044-.436-.024-.258-.041-.5-.054-.746-.009-.156-.016-.311-.021-.469-.007-.241-.009-.484-.007-.726,0-.206,0-.339.007-.473.008-.247.024-.493.041-.742l.009-.126c.007-.109.014-.22.024-.33.025-.268.061-.538.1-.805l.017-.137c.01-.084.021-.167.034-.251.064-.4.138-.8.228-1.191,1.043-4.595,3.66-8.73,6.19-12.729,3.3-5.211,6.411-10.133,6.317-15.953-.09-5.509-3.16-10.455-6.129-15.239l-.711-1.147c-3.183-5.169-6.252-11.276-4.869-17.382,1.327-5.857,6.237-9.725,10.985-13.466,4.376-3.447,8.9-7.013,10.577-12.111,1.524-4.635.433-9.385-.722-14.415a51.547,51.547,0,0,1-1.485-8.736,25.154,25.154,0,0,1,16.239-24.23c.518-.182,1.072-.348,1.7-.509.065-.017.129-.031.2-.045l.129-.028c.5-.12,1-.226,1.515-.314l.224-.033c.559-.09,1.141-.164,1.729-.218,8.218-.728,16.1,2.143,20.15,7.3,2.807,3.578,3.273,9.408,3.685,14.553.155,1.941.3,3.774.561,5.35,1.409,8.526,3.17,19.8,4.3,31.374,2.352,24.126,1.354,44.522-3.055,62.355-3.455,13.981-8.691,24.431-16.007,31.95s-17.085,11.773-26.3,11.773m-23.231-16.1q.2.491.431.972l.094.192c.14.29.286.577.438.863l.117.214c.152.276.31.552.473.824l.126.207q.256.415.526.819l.119.178c.2.287.4.568.6.846l.088.12q.355.472.735.93a24.879,24.879,0,0,0,13.012,8.343c10.638,2.624,23.267-1.6,32.177-10.756,7.21-7.411,12.378-17.738,15.8-31.573,4.385-17.74,5.377-38.046,3.034-62.077-1.126-11.553-2.885-22.807-4.291-31.32-.266-1.609-.415-3.46-.571-5.419-.4-5.028-.858-10.727-3.511-14.109-3.181-4.053-10.394-7.788-19.356-7-.636.058-1.2.129-1.742.216l-.216.032c-.495.085-.98.187-1.46.3l-.311.07c-.6.154-1.133.314-1.627.488A24.3,24.3,0,0,0,95.852,88.736a50.664,50.664,0,0,0,1.465,8.593c1.129,4.919,2.3,10.006.7,14.859-1.754,5.335-6.379,8.979-10.852,12.5-4.847,3.82-9.427,7.427-10.689,13-1.317,5.816,1.67,11.739,4.767,16.765l.709,1.146c3.028,4.879,6.158,9.924,6.253,15.661.1,6.067-3.228,11.325-6.444,16.409-2.493,3.941-5.07,8.013-6.082,12.47-.087.38-.157.759-.219,1.139l-.049.37c-.036.257-.07.514-.094.771-.01.1-.016.2-.023.306l-.01.13c-.016.236-.031.473-.039.708,0,.128,0,.254-.005.381,0,.3,0,.536.006.767,0,.15.011.3.019.449.013.235.031.469.052.7l.043.429c.028.245.062.489.1.732l.061.39c.046.269.1.535.158.8l.065.31c.078.337.166.673.261,1.007l-.373.206.4-.115a21.846,21.846,0,0,0,.784,2.238l-.339.257Z" transform="translate(-9.338 -24.776)" fill="#472948"/>
              <path id="Trazado_859957" data-name="Trazado 859957" d="M200.516,228.346c-.4-1.572-.742-3.159-1.025-4.757l-5.815-32.876-25.77-8.748V163.779l-31.177-13.844L135.4,180.1c-11.786,1.662-22.339,10.5-29.051,20.329a62.783,62.783,0,0,0-9.713,25.536,471.953,471.953,0,0,0,103.885,2.376" transform="translate(-12.126 -35.649)" fill="#f2c9ad"/>
              <path id="Trazado_859958" data-name="Trazado 859958" d="M195.925,304.409l.144-1.684a25.292,25.292,0,0,1,6.327-14.661l1.848-2.071a24.129,24.129,0,0,0,4.208-25.492l-4.772-11.242a68.235,68.235,0,0,1-3.353-10A472.051,472.051,0,0,1,96.442,236.88c-.433,2.688-.733,5.4-.9,8.108-.728,11.88.874,23.783,3.042,35.488,1.913,10.324,4.279,20.661,4.22,31.161s-1.076,30.556-7.683,42.635c31.824,40.5,107.046,35.958,116.965,30.585L201.04,350.207a117.458,117.458,0,0,1-5.115-45.8" transform="translate(-11.937 -46.559)" fill="#6ca8bf"/>
              <path id="Trazado_859959" data-name="Trazado 859959" d="M141.883,224.606l23.2,64.482-5.614,7.158Z" transform="translate(-17.805 -45.019)" fill="#472948"/>
              <path id="Trazado_859960" data-name="Trazado 859960" d="M101.626,243.549l12.319,56.465a51.534,51.534,0,0,0,15.533,27.011l6.34,5.81Z" transform="translate(-12.753 -47.396)" fill="#472948"/>
              <path id="Trazado_859961" data-name="Trazado 859961" d="M159.27,230.5a472.446,472.446,0,0,1-62.753-4.182.414.414,0,0,1-.353-.475,62.887,62.887,0,0,1,9.78-25.7c7.662-11.219,18.478-18.841,29-20.455l1.318-29.829a.413.413,0,0,1,.581-.359l31.178,13.844a.412.412,0,0,1,.246.378v17.889l25.49,8.653a.414.414,0,0,1,.273.319l5.815,32.876c.268,1.518.611,3.109,1.02,4.728a.421.421,0,0,1-.064.341.414.414,0,0,1-.3.172c-13.695,1.2-27.46,1.8-41.223,1.8m-62.222-4.945a471.811,471.811,0,0,0,102.891,2.359c-.361-1.475-.668-2.925-.914-4.316l-5.772-32.634-25.539-8.67a.412.412,0,0,1-.28-.391V163.989L137.056,150.5l-1.307,29.565a.413.413,0,0,1-.355.391c-10.4,1.467-21.153,9-28.768,20.153a61.843,61.843,0,0,0-9.578,24.949" transform="translate(-12.067 -35.59)" fill="#472948"/>
              <path id="Trazado_859962" data-name="Trazado 859962" d="M184.826,388.666a173.939,173.939,0,0,1-23.123-1.549c-21.092-2.857-49.832-10.841-66.967-32.65a.413.413,0,0,1-.038-.454c6.5-11.882,7.572-31.69,7.634-42.439.049-8.83-1.654-17.7-3.3-26.275-.308-1.6-.616-3.206-.912-4.809C96.176,270,94.295,257.574,95.071,244.9c.166-2.719.47-5.46.9-8.148a.405.405,0,0,1,.463-.344,472.071,472.071,0,0,0,103.794,2.373.417.417,0,0,1,.437.31A67.981,67.981,0,0,0,204,249.037l4.772,11.242a24.645,24.645,0,0,1-4.279,25.929l-1.848,2.071a25.027,25.027,0,0,0-6.223,14.421l-.146,1.684a116.472,116.472,0,0,0,5.1,45.637l11.048,34.649a.414.414,0,0,1-.2.49c-3.539,1.917-14.06,3.506-27.4,3.506m-89.272-34.5c16.984,21.431,45.388,29.3,66.26,32.13,24.294,3.291,44.584.727,49.713-1.712l-10.941-34.313a117.279,117.279,0,0,1-5.133-45.959l.145-1.685a25.867,25.867,0,0,1,6.43-14.9l1.848-2.07a23.817,23.817,0,0,0,4.136-25.057l-4.773-11.241a68.874,68.874,0,0,1-3.286-9.723,472.8,472.8,0,0,1-103.226-2.354c-.4,2.533-.675,5.112-.832,7.669-.77,12.583,1.1,24.95,3.035,35.387.3,1.6.6,3.2.912,4.8,1.655,8.616,3.365,17.524,3.315,26.436-.061,10.756-1.133,30.525-7.6,42.59" transform="translate(-11.877 -46.5)" fill="#472948"/>
              <path id="Trazado_859963" data-name="Trazado 859963" d="M157.633,287.356a.413.413,0,0,1-.06-.822,23.127,23.127,0,0,0,18.437-13.69.414.414,0,0,1,.752.345,23.921,23.921,0,0,1-19.067,14.161.371.371,0,0,1-.061.005" transform="translate(-19.729 -51.042)" fill="#472948"/>
              <path id="Trazado_859964" data-name="Trazado 859964" d="M179.9,239.748a.414.414,0,0,1-.4-.319,76.89,76.89,0,0,0-5.177-14.709.414.414,0,0,1,.751-.347A77.871,77.871,0,0,1,180.3,239.24a.413.413,0,0,1-.308.5.4.4,0,0,1-.1.011" transform="translate(-21.87 -44.96)" fill="#472948"/>
              <path id="Trazado_859965" data-name="Trazado 859965" d="M177.689,231.257a.352.352,0,0,1-.052,0,.413.413,0,0,1-.358-.462,44.17,44.17,0,0,1,1.227-6.361.413.413,0,1,1,.792.233,44.422,44.422,0,0,0-1.2,6.232.413.413,0,0,1-.409.361" transform="translate(-22.246 -44.96)" fill="#472948"/>
              <path id="Trazado_859966" data-name="Trazado 859966" d="M166.087,206.849a.413.413,0,0,1-.366-.221,8.737,8.737,0,0,0-6.822-4.643l-18.276-1.958a.413.413,0,0,1-.367-.455.409.409,0,0,1,.455-.367l18.276,1.959a9.558,9.558,0,0,1,7.467,5.08.414.414,0,0,1-.174.558.419.419,0,0,1-.192.047" transform="translate(-17.6 -41.831)" fill="#472948"/>
              <path id="Trazado_859967" data-name="Trazado 859967" d="M175.642,206.141a.4.4,0,0,1-.127-.02.413.413,0,0,1-.267-.52,6.519,6.519,0,0,1,5.1-4.426l5.868-1.021a.413.413,0,0,1,.142.814l-5.869,1.021a5.694,5.694,0,0,0-4.452,3.866.412.412,0,0,1-.393.286" transform="translate(-21.989 -41.95)" fill="#472948"/>
              <path id="Trazado_859968" data-name="Trazado 859968" d="M167.237,171.373a44.743,44.743,0,0,0,7.281,1.951V164.16l-25.209-11.194a32.014,32.014,0,0,0,4.4,8.78,29.256,29.256,0,0,0,13.528,9.627" transform="translate(-18.737 -36.029)" fill="#472948"/>
              <path id="Trazado_859969" data-name="Trazado 859969" d="M196.749,104.825c4.466-10.665,2.165-23.808-5-32.882s-18.874-14.157-30.433-13.927-22.792,5.55-30.852,13.839a54.912,54.912,0,0,0-14.557,30.839c-1.194,8.811-.408,18.007,3.171,26.146s11.317,15.986,19.576,19.278l.429-9.719,15.094-3.622Z" transform="translate(-14.48 -24.114)" fill="#6a3649"/>
              <path id="Trazado_859970" data-name="Trazado 859970" d="M204.7,137.053a152.013,152.013,0,0,0-4.555-28.679c-.3-1.175-.616-2.438-.944-3.755A26.106,26.106,0,0,1,185.845,86.3a33.741,33.741,0,0,1-26.026,34.768,22.111,22.111,0,0,1-2.241,17.259c-4.965,1.19-10.068,2.415-15.094,3.621.753.8,1.522,1.576,2.324,2.318,9.583,8.877,22.33,13.99,35.319,15.372,7.919.843,17.145-.248,21.707-6.775,3.131-4.478,3.208-10.359,2.872-15.811" transform="translate(-17.88 -27.664)" fill="#f2c9ad"/>
              <path id="Trazado_859971" data-name="Trazado 859971" d="M184.292,142.748a7.939,7.939,0,1,1-7.939-7.939,7.938,7.938,0,0,1,7.939,7.939" transform="translate(-21.134 -33.751)" fill="#eba58e"/>
              <path id="Trazado_859972" data-name="Trazado 859972" d="M153.591,131.979a11.9,11.9,0,0,0-6.77-4.83,7.252,7.252,0,0,0-7.534,2.682,7.643,7.643,0,0,0-.883,5.756,17.29,17.29,0,0,0,2.41,5.439,22.41,22.41,0,0,0,4.246,5.272,10.866,10.866,0,0,0,6.087,2.757,7.222,7.222,0,0,0,6.1-2.356,6.549,6.549,0,0,0,.515-7.08,57.538,57.538,0,0,0-4.17-7.641" transform="translate(-17.343 -32.767)" fill="#f2c9ad"/>
              <path id="Trazado_859973" data-name="Trazado 859973" d="M148.478,137.446a7.343,7.343,0,0,0,.984,8.359,2.268,2.268,0,0,0,2.435.87,2.394,2.394,0,0,0,1.038-2.169,11.507,11.507,0,0,0-11.976-12.09c2.819.372,5.9,2.691,7.519,5.03" transform="translate(-17.689 -33.449)" fill="#eba58e"/>
              <path id="Trazado_859974" data-name="Trazado 859974" d="M184.589,160.24a43.437,43.437,0,0,1-4.567-.247c-13.731-1.461-26.358-6.959-35.556-15.481-.726-.673-1.47-1.415-2.344-2.338a.413.413,0,1,1,.6-.568c.861.909,1.592,1.639,2.3,2.3,9.069,8.4,21.528,13.822,35.082,15.265,5.809.617,16.3.582,21.325-6.6,3.033-4.338,3.137-10.037,2.8-15.549a151.929,151.929,0,0,0-4.542-28.6c-.251-.967-.506-1.993-.772-3.06l-.129-.522a26.6,26.6,0,0,1-12.595-15.193A34.059,34.059,0,0,1,160.269,121.3a22.468,22.468,0,0,1-1.006,14.424.414.414,0,0,1-.763-.319,21.607,21.607,0,0,0,.861-14.283.42.42,0,0,1,.038-.319.414.414,0,0,1,.254-.2,33.323,33.323,0,0,0,25.718-34.348.413.413,0,0,1,.82-.091A25.623,25.623,0,0,0,199.341,104.2a.415.415,0,0,1,.206.264l.174.7c.265,1.064.519,2.087.769,3.052a152.658,152.658,0,0,1,4.568,28.757c.348,5.662.233,11.528-2.945,16.074-4.1,5.867-11.586,7.2-17.523,7.2" transform="translate(-17.821 -27.605)" fill="#472948"/>
              <path id="Trazado_859975" data-name="Trazado 859975" d="M151.089,149.408h-.034a11.308,11.308,0,0,1-6.324-2.858,22.321,22.321,0,0,1-4.327-5.366,17.778,17.778,0,0,1-2.463-5.572,8.052,8.052,0,0,1,.944-6.07,7.646,7.646,0,0,1,7.968-2.858,12.289,12.289,0,0,1,7.014,4.991,53.546,53.546,0,0,1,3.913,6.961c.33.657.643,1.28.933,1.842a.413.413,0,0,1-.734.38c-.292-.563-.607-1.19-.937-1.85a53.1,53.1,0,0,0-3.842-6.845,11.473,11.473,0,0,0-6.526-4.67,6.8,6.8,0,0,0-7.1,2.507,7.227,7.227,0,0,0-.824,5.443,17.039,17.039,0,0,0,2.357,5.307,21.58,21.58,0,0,0,4.164,5.176,10.487,10.487,0,0,0,5.85,2.658.413.413,0,0,1-.033.826" transform="translate(-17.284 -32.707)" fill="#472948"/>
              <path id="Trazado_859976" data-name="Trazado 859976" d="M151.265,147.155a3.183,3.183,0,0,1-2.166-1.128.414.414,0,0,1,.607-.562c.5.544,1.321,1.071,1.956.777.6-.278.765-1.141.8-1.815a11.095,11.095,0,0,0-11.545-11.656.413.413,0,1,1-.035-.826,11.919,11.919,0,0,1,12.406,12.525,2.7,2.7,0,0,1-1.277,2.522,1.755,1.755,0,0,1-.746.164" transform="translate(-17.63 -33.39)" fill="#472948"/>
              <path id="Trazado_859977" data-name="Trazado 859977" d="M187.471,116.857a10.193,10.193,0,0,1-11.139,6.535,5.8,5.8,0,0,0,3.458,1.669,7.028,7.028,0,0,0,7.45-4.372,5.8,5.8,0,0,0,.231-3.832" transform="translate(-22.128 -31.498)" fill="#472948"/>
              <path id="Trazado_859978" data-name="Trazado 859978" d="M203.89,115.754a12.643,12.643,0,0,0,2.2,5.257,3.409,3.409,0,0,0,3.368,1.279,2.9,2.9,0,0,1-1.729,1.669,2.205,2.205,0,0,1-2.238-.906,7.881,7.881,0,0,1-1.487-3.466,11.318,11.318,0,0,1-.115-3.832" transform="translate(-25.572 -31.36)" fill="#472948"/>
              <path id="Trazado_859979" data-name="Trazado 859979" d="M120.754,111.976c1.24-13.5,6.972-26.81,17.015-35.917s24.553-13.541,37.69-10.191a35.111,35.111,0,0,1,22.25,17.855,34.053,34.053,0,0,0-5.961-11.781c-7.165-9.074-18.874-14.157-30.433-13.927s-22.792,5.55-30.852,13.839a54.912,54.912,0,0,0-14.557,30.839c-1.194,8.811-.408,18.007,3.171,26.146a36.738,36.738,0,0,0,5.508,8.707,51.726,51.726,0,0,1-3.831-25.571" transform="translate(-14.48 -24.114)" fill="#8e5a61"/>
              <path id="Trazado_859980" data-name="Trazado 859980" d="M196.751,140.181c-.332,0-.664-.005-.992-.01a.413.413,0,0,1,.007-.826h.006a13.91,13.91,0,0,0,4.282-.375,4.389,4.389,0,0,0,2.97-2.546,6.8,6.8,0,0,0-.292-3.96l-3.266-11.9a.413.413,0,1,1,.8-.219l3.265,11.9a7.532,7.532,0,0,1,.276,4.45,5.206,5.206,0,0,1-3.507,3.065,11.976,11.976,0,0,1-3.547.422" transform="translate(-24.514 -31.898)" fill="#472948"/>
              <path id="Trazado_859981" data-name="Trazado 859981" d="M138.594,148.472a.4.4,0,0,1-.153-.03c-8.143-3.245-16.1-11.079-19.8-19.495-3.389-7.705-4.5-16.823-3.2-26.367a55.316,55.316,0,0,1,14.67-31.072,45.28,45.28,0,0,1,31.141-13.964c11.911-.233,23.718,5.159,30.765,14.084,7.427,9.405,9.46,22.786,5.057,33.3a.413.413,0,1,1-.763-.319c4.29-10.242,2.3-23.289-4.944-32.465-6.89-8.727-18.429-14.008-30.1-13.77A44.446,44.446,0,0,0,130.7,72.084a54.479,54.479,0,0,0-14.443,30.606,48.327,48.327,0,0,0,3.14,25.924c3.537,8.044,11.045,15.543,18.81,18.838l.4-9.131a.42.42,0,0,1,.431-.4.413.413,0,0,1,.394.431l-.429,9.719a.414.414,0,0,1-.188.329.409.409,0,0,1-.225.066" transform="translate(-14.42 -24.054)" fill="#472948"/>
            </g>
          </g>
          <g id="Grupo_1087035" data-name="Grupo 1087035">
            <g id="Grupo_1087034" data-name="Grupo 1087034" clip-path="url(#clip-path-4)">
              <path id="Trazado_859983" data-name="Trazado 859983" d="M190.227,164.954l2.206,2.206,5.14,5.14H231.2l5.14-5.14,2.206-2.206c.359-.359.693-.733,1.008-1.116h-50.34c.317.383.651.757,1.009,1.116" transform="translate(-23.744 -20.559)" fill="#62b292"/>
              <path id="Trazado_859984" data-name="Trazado 859984" d="M207.234,181.975H223.94l8.462-8.462h-33.63Z" transform="translate(-24.943 -21.773)" fill="#7dd3e9"/>
              <path id="Trazado_859985" data-name="Trazado 859985" d="M216.8,191.543l8.353-8.353H208.448Z" transform="translate(-26.157 -22.988)" fill="#6c6fc3"/>
              <path id="Trazado_859986" data-name="Trazado 859986" d="M238.286,139.357a15.524,15.524,0,0,0-21.955,0l-2.206,2.206-2.206-2.206a15.524,15.524,0,0,0-21.955,0h0a15.5,15.5,0,0,0-2.843,3.915H241.13a15.5,15.5,0,0,0-2.844-3.915" transform="translate(-23.481 -16.917)" fill="#cc6164"/>
              <path id="Trazado_859987" data-name="Trazado 859987" d="M185.249,154.161a15.448,15.448,0,0,0,3.471,8.462h50.34a15.456,15.456,0,0,0,3.472-8.462Z" transform="translate(-23.246 -19.345)" fill="#f4d071"/>
              <path id="Trazado_859988" data-name="Trazado 859988" d="M240.885,144.485H186.876a15.534,15.534,0,0,0-1.636,8.462h57.282a15.534,15.534,0,0,0-1.636-8.462" transform="translate(-23.237 -18.131)" fill="#e8916a"/>
              <g id="Grupo_1087033" data-name="Grupo 1087033" transform="translate(166.569 122.988)" opacity="0.3">
                <g id="Grupo_1087032" data-name="Grupo 1087032">
                  <g id="Grupo_1087031" data-name="Grupo 1087031" clip-path="url(#clip-path-7)">
                    <path id="Trazado_859989" data-name="Trazado 859989" d="M206.768,148.784a8.148,8.148,0,1,1-8.149-8.149,8.149,8.149,0,0,1,8.149,8.149" transform="translate(-190.47 -140.636)" fill="#fff"/>
                  </g>
                </g>
              </g>
              <path id="Trazado_859990" data-name="Trazado 859990" d="M213.821,185.826a.412.412,0,0,1-.292-.121l-24.161-24.161a15.938,15.938,0,0,1,22.54-22.539l1.913,1.913,1.914-1.913a15.937,15.937,0,1,1,22.539,22.539l-24.161,24.161a.412.412,0,0,1-.292.121m-13.183-50.662a15.111,15.111,0,0,0-10.685,25.8l23.868,23.868L237.69,160.96a15.111,15.111,0,0,0-21.371-21.371l-2.206,2.206a.412.412,0,0,1-.584,0l-2.206-2.206a15.015,15.015,0,0,0-10.685-4.426" transform="translate(-23.177 -16.857)" fill="#472948"/>
              <path id="Trazado_859991" data-name="Trazado 859991" d="M238.791,211.609l16.119,28.932,21.078,68.137,8.68-28.459,4.239.821a65.825,65.825,0,0,1,29.033,13.576l-12.458,31.637a28.7,28.7,0,0,1-55.136-6.673l-9.9-73.3c-10.127-4.843-16.506-18.069-16.506-18.069,1.213-11.779,14.852-16.6,14.852-16.6" transform="translate(-28.101 -26.554)" fill="#bd6c67"/>
              <path id="Trazado_859992" data-name="Trazado 859992" d="M332.758,298.718l-6.1-4.97a65.825,65.825,0,0,0-29.033-13.576l-4.239-.821L315.326,204.7l9.536,3.213a27.816,27.816,0,0,1,18.5,31.237Z" transform="translate(-36.815 -25.687)" fill="#f4d071"/>
              <path id="Trazado_859993" data-name="Trazado 859993" d="M337.336,311.5l-7.471-1.5,1.367-3.469Z" transform="translate(-41.393 -38.465)" fill="#472948"/>
              <path id="Trazado_859994" data-name="Trazado 859994" d="M283.457,322.4l4.771,15.425c3.082-10.819-.293-13.351-4.34-16.838Z" transform="translate(-35.57 -40.28)" fill="#a64f5a"/>
              <path id="Trazado_859995" data-name="Trazado 859995" d="M297.491,290.884l-4.239-.821-.9,2.961a76,76,0,0,1,31.736,17.628l2.439-6.193a65.819,65.819,0,0,0-29.033-13.575" transform="translate(-36.686 -36.399)" fill="#472948"/>
              <path id="Trazado_859996" data-name="Trazado 859996" d="M235.146,223.106a29.879,29.879,0,0,1,6.753-5.919l-3.108-5.579s-13.64,4.822-14.852,16.6a51.535,51.535,0,0,0,9.635,13.184,27.351,27.351,0,0,0,1.572-18.288" transform="translate(-28.101 -26.554)" fill="#472948"/>
              <path id="Trazado_859997" data-name="Trazado 859997" d="M278.656,344.783a28.658,28.658,0,0,1-4.631-.377,28.951,28.951,0,0,1-24.148-24.83L240,246.5c-10.024-4.929-16.433-18.032-16.5-18.165a.4.4,0,0,1-.038-.221c1.224-11.9,14.986-16.9,15.124-16.949a.414.414,0,0,1,.5.189l16.119,28.932a.386.386,0,0,1,.033.079l20.682,66.851,8.286-27.172a.414.414,0,0,1,.474-.286l4.239.822a66.454,66.454,0,0,1,29.215,13.661.413.413,0,0,1,.123.472l-12.458,31.637a29.3,29.3,0,0,1-27.15,18.438M224.3,228.074c.625,1.246,6.854,13.273,16.26,17.772a.415.415,0,0,1,.231.317l9.9,73.3a28.13,28.13,0,0,0,23.463,24.126,28.449,28.449,0,0,0,30.879-17.55l12.347-31.355a65.628,65.628,0,0,0-28.615-13.3l-3.874-.752-8.57,28.1a.414.414,0,0,1-.4.293h0a.414.414,0,0,1-.394-.291l-21.066-68.095-15.923-28.58c-2.047.82-13.1,5.717-14.241,16.01" transform="translate(-28.042 -26.495)" fill="#472948"/>
              <path id="Trazado_859998" data-name="Trazado 859998" d="M332.7,299.073a.41.41,0,0,1-.261-.093l-6.1-4.971a65.619,65.619,0,0,0-28.849-13.489l-4.239-.822a.413.413,0,0,1-.318-.522l12.232-41.611a.413.413,0,0,1,.793.233l-12.1,41.176,3.793.735a66.445,66.445,0,0,1,29.215,13.662l5.559,4.526L342.9,239.02a27.238,27.238,0,0,0-18.229-30.773l-9.535-3.213a.413.413,0,1,1,.263-.783l9.535,3.213a28.057,28.057,0,0,1,18.779,31.7l-10.608,59.568a.415.415,0,0,1-.407.34" transform="translate(-36.756 -25.628)" fill="#472948"/>
              <path id="Trazado_859999" data-name="Trazado 859999" d="M337.277,311.85a.434.434,0,0,1-.081-.008l-7.471-1.5a.417.417,0,0,1-.282-.207.412.412,0,0,1-.021-.35l1.366-3.469a.413.413,0,0,1,.645-.169l6.1,4.97a.413.413,0,0,1-.261.734m-6.905-2.222,5.349,1.075-4.37-3.558Z" transform="translate(-41.334 -38.405)" fill="#472948"/>
              <path id="Trazado_860000" data-name="Trazado 860000" d="M288.169,338.384a.412.412,0,0,1-.394-.291L283,322.669a.413.413,0,1,1,.79-.244l4.771,15.424a.412.412,0,0,1-.273.517.418.418,0,0,1-.122.018" transform="translate(-35.51 -40.423)" fill="#472948"/>
              <path id="Trazado_860001" data-name="Trazado 860001" d="M331.738,299.219a.416.416,0,0,1-.236-.074,100.861,100.861,0,0,0-16.247-9.663,57.194,57.194,0,0,0-15.505-4.41.413.413,0,0,1-.353-.465.407.407,0,0,1,.465-.353,58.024,58.024,0,0,1,15.729,4.473,101.533,101.533,0,0,1,16.383,9.741.413.413,0,0,1-.236.752" transform="translate(-37.569 -35.669)" fill="#472948"/>
              <path id="Trazado_860002" data-name="Trazado 860002" d="M330.3,292.028a.41.41,0,0,1-.254-.087,41.677,41.677,0,0,0-15.753-7.588.414.414,0,0,1,.194-.8,42.538,42.538,0,0,1,16.067,7.74.414.414,0,0,1-.254.74" transform="translate(-39.399 -35.58)" fill="#472948"/>
              <path id="Trazado_860003" data-name="Trazado 860003" d="M209.005,250.71l-30.612,66a27.409,27.409,0,0,1-50.813-2.7L99.855,232.542a34.37,34.37,0,0,1,22.005-43.79l6.379-2.053,25.728,104.791,36.3-46.29c-5.718-10.058-6.338-33.409-6.338-33.409,2.076-13.4,10.874-20.4,18.208-24.117a3.4,3.4,0,0,1,3.83,5.55c-4.351,3.948-7.79,8.173-9.226,13.918,4.108-7.8,8.75-11.869,15.023-13.276a6.386,6.386,0,0,1,6.976,3.214l.526.969c4.649,0,5.993,4.753,5.373,5.993a4.181,4.181,0,0,1,3.767,2.091,3.576,3.576,0,0,1-.386,3.941,8.269,8.269,0,0,1-3.648,1.979,23.485,23.485,0,0,0-9.616,6.73c6.784,25.66-5.753,31.929-5.753,31.929" transform="translate(-12.299 -23.428)" fill="#f2c9ad"/>
              <path id="Trazado_860004" data-name="Trazado 860004" d="M149.172,320.265,160.2,306.2l-.553-2.254c-17.775,1.654-10.475,16.317-10.475,16.317" transform="translate(-18.533 -38.141)" fill="#eba58e"/>
              <path id="Trazado_860005" data-name="Trazado 860005" d="M149.325,320.943a.413.413,0,0,1-.324-.668l11.028-14.062a.413.413,0,0,1,.651.51l-11.028,14.062a.415.415,0,0,1-.326.158" transform="translate(-18.686 -38.405)" fill="#472948"/>
              <path id="Trazado_860006" data-name="Trazado 860006" d="M218.492,211.568a.412.412,0,0,1-.345-.64c.138-.211.289-.45.455-.714,1.9-3.017,5.86-9.3,15.663-11a.413.413,0,0,1,.142.814c-9.44,1.646-13.266,7.715-15.1,10.631-.17.268-.323.512-.464.727a.411.411,0,0,1-.345.186" transform="translate(-27.366 -24.997)" fill="#472948"/>
              <path id="Trazado_860007" data-name="Trazado 860007" d="M225.266,216.147a.413.413,0,0,1-.322-.672c4.628-5.746,8.987-8.387,15.551-9.414a.419.419,0,0,1,.472.345.413.413,0,0,1-.345.472c-6.336.993-10.551,3.548-15.035,9.116a.411.411,0,0,1-.322.154" transform="translate(-28.216 -25.857)" fill="#472948"/>
              <path id="Trazado_860008" data-name="Trazado 860008" d="M153.477,332.941a27.832,27.832,0,0,1-26.349-18.86L99.4,232.615a34.782,34.782,0,0,1,22.27-44.318l6.38-2.053a.413.413,0,0,1,.253.787l-6.379,2.053a33.957,33.957,0,0,0-21.741,43.264l27.726,81.467a27,27,0,0,0,50.048,2.661l30.611-66a.409.409,0,0,1,.19-.2c.122-.062,12.145-6.466,5.54-31.454a.412.412,0,0,1,.085-.374,23.839,23.839,0,0,1,9.786-6.849l.472-.173a6.833,6.833,0,0,0,3.006-1.685,3.173,3.173,0,0,0,.339-3.474,3.768,3.768,0,0,0-3.347-1.882.42.42,0,0,1-.394-.167.411.411,0,0,1-.035-.427,3.97,3.97,0,0,0-.677-3.035,4.9,4.9,0,0,0-4.326-2.36.414.414,0,0,1-.364-.216l-.526-.969a5.981,5.981,0,0,0-6.523-3.007c-6.167,1.383-10.715,5.412-14.748,13.064a.413.413,0,0,1-.766-.292c1.279-5.113,4.074-9.337,9.349-14.124a3.023,3.023,0,0,0,1-2.323,2.97,2.97,0,0,0-1.1-2.225,3.015,3.015,0,0,0-3.262-.328c-10.3,5.226-16.348,13.238-17.987,23.812.011.158.688,23.29,6.289,33.142a.413.413,0,0,1-.034.459l-36.3,46.291a.419.419,0,0,1-.413.149.413.413,0,0,1-.314-.305l-18.4-74.933a.413.413,0,1,1,.8-.2L154.1,290.506,189.712,245.1c-5.578-10.149-6.23-32.41-6.255-33.359,1.685-10.927,7.886-19.144,18.434-24.5a3.847,3.847,0,0,1,4.157.423,3.793,3.793,0,0,1,1.4,2.843,3.847,3.847,0,0,1-1.265,2.958,31.1,31.1,0,0,0-7.673,9.681c3.629-5.5,7.78-8.554,13.1-9.748a6.814,6.814,0,0,1,7.43,3.42l.411.757a5.686,5.686,0,0,1,4.782,2.749,5.472,5.472,0,0,1,.883,3.222,4.85,4.85,0,0,1,3.589,2.322,3.97,3.97,0,0,1-.432,4.407,7.423,7.423,0,0,1-3.355,1.93l-.465.171a23.01,23.01,0,0,0-9.3,6.448c6.378,24.4-4.478,31.337-5.892,32.124l-30.554,65.875a27.83,27.83,0,0,1-25.23,16.117" transform="translate(-12.238 -23.369)" fill="#472948"/>
              <path id="Trazado_860009" data-name="Trazado 860009" d="M31.129,209.389a24.325,24.325,0,0,1-11.587,16.834,24.325,24.325,0,0,1,11.587,16.834,24.325,24.325,0,0,1,11.587-16.834,24.325,24.325,0,0,1-11.587-16.834" transform="translate(-2.452 -26.275)" fill="#fff"/>
              <path id="Trazado_860010" data-name="Trazado 860010" d="M381.129,159.1a24.325,24.325,0,0,1-11.587,16.834,24.325,24.325,0,0,1,11.587,16.834,24.325,24.325,0,0,1,11.587-16.834A24.325,24.325,0,0,1,381.129,159.1" transform="translate(-46.372 -19.965)" fill="#fff"/>
              <path id="Trazado_860011" data-name="Trazado 860011" d="M297.761,0a24.325,24.325,0,0,1-11.587,16.834,24.325,24.325,0,0,1,11.587,16.834,24.324,24.324,0,0,1,11.587-16.834A24.324,24.324,0,0,1,297.761,0" transform="translate(-35.911)" fill="#fff"/>
              <path id="Trazado_860012" data-name="Trazado 860012" d="M57.629,14.557A24.325,24.325,0,0,1,46.042,31.391,24.325,24.325,0,0,1,57.629,48.226,24.325,24.325,0,0,1,69.217,31.391,24.325,24.325,0,0,1,57.629,14.557" transform="translate(-5.778 -1.827)" fill="#fff"/>
              <path id="Trazado_860013" data-name="Trazado 860013" d="M62.336,247.889a12.162,12.162,0,0,1-5.794,8.417,12.162,12.162,0,0,1,5.794,8.417,12.162,12.162,0,0,1,5.794-8.417,12.162,12.162,0,0,1-5.794-8.417" transform="translate(-7.095 -31.107)" fill="#fff"/>
              <path id="Trazado_860014" data-name="Trazado 860014" d="M25.3,87.734a12.162,12.162,0,0,1-5.794,8.417,12.162,12.162,0,0,1,5.794,8.417A12.162,12.162,0,0,1,31.1,96.151,12.162,12.162,0,0,1,25.3,87.734" transform="translate(-2.448 -11.009)" fill="#fff"/>
              <path id="Trazado_860015" data-name="Trazado 860015" d="M25.057,262.139a15.777,15.777,0,0,1-7.515,10.918,15.78,15.78,0,0,1,7.515,10.919,15.778,15.778,0,0,1,7.516-10.919,15.775,15.775,0,0,1-7.516-10.918" transform="translate(-2.201 -32.895)" fill="#fff"/>
              <path id="Trazado_860016" data-name="Trazado 860016" d="M365.453,205.11a15.775,15.775,0,0,1-7.516,10.918,15.779,15.779,0,0,1,7.516,10.919,15.778,15.778,0,0,1,7.516-10.919,15.775,15.775,0,0,1-7.516-10.918" transform="translate(-44.916 -25.738)" fill="#fff"/>
              <path id="Trazado_860017" data-name="Trazado 860017" d="M351.341,28.086A15.775,15.775,0,0,1,343.825,39a15.779,15.779,0,0,1,7.516,10.919A15.778,15.778,0,0,1,358.856,39a15.775,15.775,0,0,1-7.516-10.918" transform="translate(-43.145 -3.524)" fill="#fff"/>
              <path id="Trazado_860018" data-name="Trazado 860018" d="M412.163,148.844a10.273,10.273,0,0,1-4.893,7.107,10.273,10.273,0,0,1,4.893,7.107,10.265,10.265,0,0,1,4.891-7.107,10.265,10.265,0,0,1-4.891-7.107" transform="translate(-51.107 -18.678)" fill="#fff"/>
              <path id="Trazado_860019" data-name="Trazado 860019" d="M98.318,6.765A15.775,15.775,0,0,1,90.8,17.683,15.778,15.778,0,0,1,98.318,28.6a15.778,15.778,0,0,1,7.516-10.919A15.775,15.775,0,0,1,98.318,6.765" transform="translate(-11.394 -0.849)" fill="#fff"/>
            </g>
          </g>
        </g>
      </g>
    </g>
    <g id="Grupo_1087053" data-name="Grupo 1087053" transform="translate(2 8.886)">
      <g id="Grupo_1087039" data-name="Grupo 1087039" transform="translate(531.503 8649.27)">
        <path id="Trazado_860020" data-name="Trazado 860020" d="M407.363,243.19a25.147,25.147,0,0,0-2.971-7.855c-.876-1.657-1.853-3.261-2.883-4.824-.61-.929-1.243-1.841-1.888-2.746-.882-1.237-1.782-2.456-2.681-3.676a24.639,24.639,0,0,0-2.782-3.332c-2.214-2.072-5.641-3.386-8.435-1.6A5.6,5.6,0,0,0,384.089,227c1.462,3.386,2.948,6.777,4.67,10.039a59.817,59.817,0,0,0,3.113,5.274,25.714,25.714,0,0,0,5.7,6.623c2.089,1.545,5.15,2.237,7.476.758,2.22-1.415,2.675-4.072,2.326-6.505Z" transform="translate(-381.355 -217.38)" fill="#ffe9e9"/>
        <path id="Trazado_860021" data-name="Trazado 860021" d="M404.363,249.19a25.147,25.147,0,0,0-2.971-7.855c-.876-1.657-1.853-3.261-2.883-4.824-.61-.929-1.243-1.841-1.888-2.746-.882-1.237-1.782-2.456-2.681-3.676a24.641,24.641,0,0,0-2.782-3.332c-2.214-2.072-5.641-3.386-8.435-1.6A5.6,5.6,0,0,0,381.089,233c1.462,3.386,2.948,6.777,4.67,10.039a59.817,59.817,0,0,0,3.113,5.274,25.715,25.715,0,0,0,5.7,6.623c2.089,1.545,5.15,2.237,7.476.758,2.22-1.415,2.675-4.072,2.326-6.505Z" transform="translate(-380.131 -219.829)" fill="#f3c012"/>
        <path id="Trazado_860022" data-name="Trazado 860022" d="M401.115,250.672a6.21,6.21,0,0,1-1.545-.2c-3.551-.888-6.836-4.67-11.341-13.04-3.113-5.795-5.061-9.494-5.736-12.513-.74-3.321.207-5.564,3.078-7.286h0a5.846,5.846,0,0,1,6.008-.142c2.279,1.166,4.611,3.717,6.943,7.576.58.965,1.2,1.965,1.859,3.019,2.374,3.812,5.061,8.133,6.481,11.891,1.693,4.487,1.314,7.464-1.16,9.1a8.274,8.274,0,0,1-4.587,1.58ZM386,218.36c-2.575,1.545-3.356,3.392-2.687,6.381.651,2.912,2.575,6.57,5.653,12.3,4.321,8.032,7.547,11.8,10.8,12.619a6.71,6.71,0,0,0,5.463-1.273c4.794-3.184-.953-12.424-5.57-19.846-.657-1.06-1.284-2.06-1.865-3.031-4.179-6.925-8.145-9.334-11.791-7.144h0Z" transform="translate(-380.997 -216.735)" fill="#433600"/>
        <path id="Trazado_860023" data-name="Trazado 860023" d="M405.28,239.071a.359.359,0,0,0-.5,0,29.336,29.336,0,0,1-12.448,6.245c-.444.1-.255.781.189.681a30.121,30.121,0,0,0,10.2-4.475,31.285,31.285,0,0,0,2.551-1.953A.359.359,0,0,0,405.28,239.071Z" transform="translate(-385.008 -225.809)" fill="#433600"/>
      </g>
      <g id="Grupo_1087040" data-name="Grupo 1087040" transform="translate(548.759 8621.438)">
        <path id="Trazado_860024" data-name="Trazado 860024" d="M446.041,213.482a25.125,25.125,0,0,0,.26-8.393c-.172-1.864-.462-3.723-.817-5.558q-.32-1.634-.693-3.261c-.337-1.48-.7-2.948-1.071-4.422a24.031,24.031,0,0,0-1.3-4.143c-1.249-2.764-3.918-5.286-7.18-4.712a5.6,5.6,0,0,0-4.516,6.617c.053,3.688.124,7.387.468,11.063a59.943,59.943,0,0,0,.852,6.061,25.719,25.719,0,0,0,2.729,8.3c1.338,2.226,3.9,4.037,6.617,3.563,2.593-.456,4.031-2.735,4.641-5.114Z" transform="translate(-427.617 -182.182)" fill="#ffe9e9"/>
        <path id="Trazado_860025" data-name="Trazado 860025" d="M440.981,217.872a24.971,24.971,0,0,0,.26-8.393c-.172-1.865-.462-3.723-.817-5.558q-.32-1.634-.693-3.261c-.337-1.48-.7-2.948-1.071-4.422a24.028,24.028,0,0,0-1.3-4.143c-1.249-2.764-3.918-5.286-7.18-4.712A5.6,5.6,0,0,0,425.669,194c.053,3.688.124,7.387.468,11.063a59.944,59.944,0,0,0,.852,6.061,25.719,25.719,0,0,0,2.729,8.3c1.338,2.226,3.9,4.037,6.617,3.563,2.593-.456,4.031-2.735,4.64-5.114Z" transform="translate(-425.552 -183.973)" fill="#f3c012"/>
        <path id="Trazado_860026" data-name="Trazado 860026" d="M437,218.224a6.546,6.546,0,0,1-1.355-.769c-2.942-2.184-4.528-6.931-5.481-16.39-.657-6.546-1.036-10.708-.5-13.756.586-3.35,2.32-5.061,5.635-5.552h0a5.855,5.855,0,0,1,5.605,2.166c1.657,1.947,2.835,5.2,3.51,9.66.166,1.113.361,2.273.562,3.5.728,4.433,1.557,9.453,1.432,13.466-.154,4.788-1.645,7.4-4.558,7.967a8.275,8.275,0,0,1-4.842-.3Zm-1.58-35.633c-2.971.438-4.4,1.847-4.925,4.86-.515,2.936-.142,7.055.509,13.525.912,9.074,2.45,13.8,5.144,15.792a6.706,6.706,0,0,0,5.534.917c5.647-1.107,3.877-11.838,2.456-20.468-.2-1.231-.4-2.4-.562-3.516-1.207-8-3.948-11.743-8.156-11.116h0Z" transform="translate(-427.124 -181.679)" fill="#433600"/>
        <path id="Trazado_860027" data-name="Trazado 860027" d="M445.7,211.114a.358.358,0,0,0-.462-.189,29.358,29.358,0,0,1-10.79,1.355,30.137,30.137,0,0,1-3.1-.355c-.45-.077-.533.622-.089.7a30.011,30.011,0,0,0,14.253-1.054.353.353,0,0,0,.189-.462Z" transform="translate(-427.76 -193.605)" fill="#433600"/>
      </g>
      <g id="Grupo_1087042" data-name="Grupo 1087042" transform="translate(531.503 8556.461)">
        <g id="Grupo_1087041" data-name="Grupo 1087041" transform="translate(0 0.977)">
          <path id="Trazado_860028" data-name="Trazado 860028" d="M402.218,130.014c.284-1.468.568-2.942.852-4.41a.3.3,0,0,0-.2-.361.3.3,0,0,0-.361.2c-.284,1.468-.568,2.942-.852,4.41a.3.3,0,0,0,.2.361A.3.3,0,0,0,402.218,130.014Z" transform="translate(-347.662 -115.234)" fill="#433600"/>
          <path id="Trazado_860029" data-name="Trazado 860029" d="M397.278,155.343q.586-3.107,1.172-6.209a.3.3,0,0,0-.2-.361.3.3,0,0,0-.361.2l-1.172,6.209a.3.3,0,0,0,.2.361A.3.3,0,0,0,397.278,155.343Z" transform="translate(-345.646 -124.836)" fill="#433600"/>
          <path id="Trazado_860030" data-name="Trazado 860030" d="M363.853,143.339a.3.3,0,0,1,.2.361c-.148.8-.3,1.592-.45,2.391q-.781,4.182-1.569,8.364l8.216,1.415-3.841-8.15,5.949-3.113-4.155-7.653,6.742-3.326-4.854-6.452,5.664-7.263-45.772-9.672c-.16.947-.32,1.9-.479,2.847q-.906,5.416-1.764,10.844a.29.29,0,0,1-.361.2.3.3,0,0,1-.2-.361c.16-1.018.326-2.036.485-3.06q.852-5.3,1.746-10.589l-8.423-1.782,3.741,8.239-6.416,3.9,4.516,7.3-6.369,4.729,4.676,9.021-4.339,5.138,6.73,1.16c.172-1.231.349-2.462.521-3.693l.941-6.694.941-6.694a.3.3,0,0,1,.3-.29.3.3,0,0,1,.29.3q-.266,1.882-.533,3.77l-.941,6.694-.941,6.694v.012l37.367,6.428c.148-.793.3-1.586.444-2.385l1.58-8.435a.3.3,0,0,1,.361-.2Z" transform="translate(-312.897 -108.34)" fill="#ffe9e9"/>
          <path id="Trazado_860031" data-name="Trazado 860031" d="M357.833,145.529a.3.3,0,0,1,.2.361c-.148.8-.3,1.592-.45,2.391q-.781,4.182-1.569,8.364l8.216,1.415-3.841-8.15,5.949-3.113-4.155-7.653,6.742-3.327-4.854-6.452,5.664-7.263-45.772-9.672c-.16.947-.32,1.9-.479,2.847q-.906,5.416-1.764,10.844a.29.29,0,0,1-.361.2.3.3,0,0,1-.2-.361c.16-1.018.326-2.036.485-3.06q.852-5.3,1.746-10.589l-8.423-1.782,3.741,8.239-6.416,3.9,4.516,7.3L310.44,134.7l4.676,9.021-4.339,5.138,6.73,1.16c.172-1.231.349-2.462.521-3.693l.941-6.694.941-6.694a.3.3,0,0,1,.3-.29.3.3,0,0,1,.29.3q-.266,1.882-.533,3.77l-.941,6.694-.941,6.694v.012l37.367,6.428c.148-.793.3-1.586.444-2.385l1.58-8.435a.3.3,0,0,1,.361-.2Z" transform="translate(-310.44 -109.234)" fill="#f3c012"/>
        </g>
        <path id="Trazado_860032" data-name="Trazado 860032" d="M366.664,147.36l5.984-3.137-4.149-7.636,6.842-3.38-5.037-6.7,6.026-7.724L319.1,106.69l4.06,8.938-6.493,3.942,4.552,7.357-6.333,4.706,4.735,9.133-4.83,5.718L370.127,156l.663.112-4.126-8.76Zm-5.3,6.422q.781-4.182,1.569-8.364c.148-.8.3-1.592.45-2.391a.3.3,0,0,0-.2-.361.3.3,0,0,0-.361.2l-1.58,8.435c-.148.793-.3,1.586-.444,2.385l-37.367-6.428v-.012l.941-6.694.941-6.694q.266-1.882.533-3.77a.292.292,0,0,0-.29-.3.3.3,0,0,0-.3.29l-.941,6.694-.941,6.694c-.172,1.231-.349,2.462-.521,3.693l-6.73-1.16,4.339-5.138-4.676-9.021,6.369-4.729-4.516-7.3,6.416-3.9-3.741-8.239,8.423,1.782q-.9,5.292-1.746,10.589-.249,1.527-.485,3.06a.3.3,0,0,0,.2.361.29.29,0,0,0,.361-.2q.861-5.425,1.764-10.844c.16-.947.32-1.9.479-2.847l45.772,9.672-5.664,7.263,4.854,6.452-6.742,3.326,4.155,7.653-5.949,3.113,3.841,8.15-8.216-1.415Z" transform="translate(-312.215 -106.69)" fill="#433600"/>
        <path id="Trazado_860033" data-name="Trazado 860033" d="M402.218,130.014c.284-1.468.568-2.942.852-4.41a.3.3,0,0,0-.2-.361.3.3,0,0,0-.361.2c-.284,1.468-.568,2.942-.852,4.41a.3.3,0,0,0,.2.361A.3.3,0,0,0,402.218,130.014Z" transform="translate(-347.662 -114.257)" fill="#433600"/>
        <path id="Trazado_860034" data-name="Trazado 860034" d="M397.278,155.343q.586-3.107,1.172-6.209a.3.3,0,0,0-.2-.361.3.3,0,0,0-.361.2l-1.172,6.209a.3.3,0,0,0,.2.361A.3.3,0,0,0,397.278,155.343Z" transform="translate(-345.646 -123.86)" fill="#433600"/>
        <path id="Trazado_860035" data-name="Trazado 860035" d="M350.3,151.152a14.661,14.661,0,1,1,20.148-4.9A14.684,14.684,0,0,1,350.3,151.152Zm14.892-24.44a13.959,13.959,0,1,0,4.658,19.184A13.971,13.971,0,0,0,365.2,126.712Z" transform="translate(-323.84 -113.744)" fill="#433600"/>
        <path id="Trazado_860036" data-name="Trazado 860036" d="M354.827,150.534a10.927,10.927,0,1,1,15.016-3.646A10.94,10.94,0,0,1,354.827,150.534Zm11-18.059a10.22,10.22,0,1,0,3.409,14.046A10.234,10.234,0,0,0,365.831,132.475Z" transform="translate(-326.416 -116.316)" fill="#433600"/>
      </g>
      <g id="Grupo_1087043" data-name="Grupo 1087043" transform="translate(515.771 8736.936)">
        <path id="Trazado_860037" data-name="Trazado 860037" d="M389.4,430.8a4.321,4.321,0,0,0,.746-1.734,2.848,2.848,0,0,0,.089-.947.92.92,0,0,0-.355-.6h.006l-1.379-1.131c1.716-2.2,21.563-27.666,23.457-30.323a20.108,20.108,0,0,0,3.8-8.488,11.887,11.887,0,0,0-3.1-9.9c1.219-1.64,2.557-3.534,2.462-5.67a2.552,2.552,0,0,0-.545-1.557,2.4,2.4,0,0,0-1.462-.775,3.876,3.876,0,0,0-2.936.906,8.429,8.429,0,0,0-1.468,1.574c-.361.474-.71.953-1.065,1.432a14.129,14.129,0,0,0-12.513-1.361,15.8,15.8,0,0,0-5.771,3.753l-25.446,30.365-2.415-1.971-.095.118a2.19,2.19,0,0,0-1.279-.041,2.643,2.643,0,0,0-1.409,1.125,6.191,6.191,0,0,0-.752,1.492,2.323,2.323,0,0,0-.03,1.563,3.677,3.677,0,0,0,.4.752h0l.012.018c.018.03.041.059.059.089a.9.9,0,0,0,.462.337l27.535,22.439a.343.343,0,0,0,.213.189h.024l.071.059.03-.036a1.769,1.769,0,0,0,1.373-.385,6.09,6.09,0,0,0,1.284-1.3Z" transform="translate(-353.055 -369.642)" fill="#ffe9e9"/>
        <path id="Trazado_860038" data-name="Trazado 860038" d="M381.355,431.322a4.321,4.321,0,0,0,.746-1.734,2.848,2.848,0,0,0,.089-.947.92.92,0,0,0-.355-.6h.006l-1.379-1.131c1.716-2.2,21.563-27.665,23.457-30.323a20.108,20.108,0,0,0,3.8-8.488,11.887,11.887,0,0,0-3.1-9.9c1.219-1.64,2.557-3.534,2.462-5.67a2.552,2.552,0,0,0-.545-1.557,2.4,2.4,0,0,0-1.462-.775,3.876,3.876,0,0,0-2.936.906,8.425,8.425,0,0,0-1.468,1.574c-.361.474-.71.953-1.065,1.432a14.128,14.128,0,0,0-12.513-1.361,15.732,15.732,0,0,0-5.771,3.753l-25.446,30.365-2.415-1.971-.095.118a2.19,2.19,0,0,0-1.279-.041,2.643,2.643,0,0,0-1.409,1.125,6.192,6.192,0,0,0-.752,1.492,2.324,2.324,0,0,0-.03,1.563,3.408,3.408,0,0,0,.4.752h0l.012.018a.761.761,0,0,1,.059.089.9.9,0,0,0,.462.337l27.535,22.439a.342.342,0,0,0,.213.189h.024l.071.059.03-.036a1.769,1.769,0,0,0,1.373-.385,6.09,6.09,0,0,0,1.284-1.3Z" transform="translate(-349.774 -369.854)" fill="#f3c012"/>
        <path id="Trazado_860039" data-name="Trazado 860039" d="M389.4,454.753a4.322,4.322,0,0,0,.746-1.734,2.847,2.847,0,0,0,.089-.947.921.921,0,0,0-.355-.6h.006L361.5,428.33l-.095.118a2.19,2.19,0,0,0-1.279-.041,2.643,2.643,0,0,0-1.409,1.125,6.192,6.192,0,0,0-.752,1.492,2.323,2.323,0,0,0-.03,1.563,3.677,3.677,0,0,0,.4.752h0l.012.018c.018.03.041.059.059.089a.9.9,0,0,0,.462.337l27.535,22.439a.343.343,0,0,0,.213.189h.024l.071.059.03-.035a1.769,1.769,0,0,0,1.373-.385,6.09,6.09,0,0,0,1.284-1.3Zm-1.628.687a1.49,1.49,0,0,1-.6.3L358.871,432.68l-.065.077-.053-.089a1.514,1.514,0,0,1-.237-.687,2.817,2.817,0,0,1,.391-1.391,3.1,3.1,0,0,1,1.1-1.379,1.439,1.439,0,0,1,1.083-.13l28.257,23.031.089-.107a.085.085,0,0,1,.024.012c.124.047.083.331.071.42a6.605,6.605,0,0,1-.154.758,3.493,3.493,0,0,1-.651,1.279,5.315,5.315,0,0,1-.965.965Z" transform="translate(-353.055 -393.592)" fill="#433600"/>
        <path id="Trazado_860040" data-name="Trazado 860040" d="M415.981,396.063a20.108,20.108,0,0,0,3.8-8.488,11.887,11.887,0,0,0-3.1-9.9c1.219-1.64,2.557-3.534,2.462-5.67a2.552,2.552,0,0,0-.545-1.557,2.4,2.4,0,0,0-1.462-.775,3.876,3.876,0,0,0-2.936.906,8.428,8.428,0,0,0-1.468,1.574c-.361.474-.71.953-1.065,1.432a14.129,14.129,0,0,0-12.513-1.361,15.8,15.8,0,0,0-5.771,3.753L367.67,406.664l.645.545,25.694-30.666a15.291,15.291,0,0,1,5.469-3.534,13.241,13.241,0,0,1,11.968,1.432.1.1,0,0,1,.024-.03.327.327,0,0,0,.053.041.361.361,0,0,0,.479-.13,23.587,23.587,0,0,1,2.184-2.776,3.667,3.667,0,0,1,2.474-1.2,1.953,1.953,0,0,1,1.231.4,1.64,1.64,0,0,1,.545,1.213,5.568,5.568,0,0,1-.645,2.711,18.02,18.02,0,0,1-1.823,2.8.34.34,0,0,0,.03.391.85.85,0,0,1-.13.178h0c4.451,4.889,4.262,10.773-.574,17.544-1.959,2.746-23.339,30.163-23.552,30.442l.669.521c.213-.278,21.6-27.713,23.575-30.471Z" transform="translate(-357.077 -369.642)" fill="#433600"/>
      </g>
      <g id="Grupo_1087046" data-name="Grupo 1087046" transform="translate(536.979 8685.948)">
        <path id="Trazado_860041" data-name="Trazado 860041" d="M416.437,295.611a.44.44,0,0,0-.314-.3.385.385,0,0,0-.006-.184,54.218,54.218,0,0,0-4.232-9.044q-.71-1.216-1.486-2.4a.431.431,0,0,0-.775.166.49.49,0,0,0-.272.041q-4.191,2.015-8.411,3.972t-8.458,3.877q-4.244,1.909-8.506,3.77-4.279,1.873-8.588,3.688-4.271,1.8-8.571,3.563c-.16.065-.32.13-.485.2a.416.416,0,0,0-.491-.255.41.41,0,0,0-.284.5l.036.089a.379.379,0,0,0-.124.4.439.439,0,0,0,.385.308q1.5,4.1,2.995,8.2c.308.846.616,1.693.929,2.539a.417.417,0,0,0,.5.284.4.4,0,0,0,.166-.1.344.344,0,0,0,.432.012,13.223,13.223,0,0,1,10.092-1.675,16.642,16.642,0,0,1,8.689,5.3,21.819,21.819,0,0,1,3.238,4.818.335.335,0,0,0,.367.2l.036.018a.344.344,0,0,0,.361.219,25.936,25.936,0,0,0,15.969-6.4.42.42,0,0,0,.065-.5c-1.586-3.35-3.285-7.008-2.894-10.814a11,11,0,0,1,4.747-7.553,19.368,19.368,0,0,1,4.6-2.462.417.417,0,0,0,.284-.5Z" transform="translate(-363.292 -283.503)" fill="#fffdfd"/>
        <path id="Trazado_860042" data-name="Trazado 860042" d="M412.787,301.691a.44.44,0,0,0-.314-.3.385.385,0,0,0-.006-.183,54.217,54.217,0,0,0-4.232-9.044q-.71-1.216-1.486-2.4a.431.431,0,0,0-.775.166.49.49,0,0,0-.272.041q-4.191,2.015-8.411,3.972t-8.458,3.877q-4.244,1.918-8.506,3.77-4.279,1.873-8.588,3.688-4.271,1.8-8.571,3.563c-.16.065-.32.13-.485.2a.416.416,0,0,0-.491-.254.41.41,0,0,0-.284.5l.036.089a.379.379,0,0,0-.124.4.439.439,0,0,0,.385.308q1.5,4.1,2.995,8.2c.308.846.616,1.693.929,2.539a.417.417,0,0,0,.5.284.4.4,0,0,0,.166-.1.344.344,0,0,0,.432.012,13.222,13.222,0,0,1,10.092-1.675,16.641,16.641,0,0,1,8.689,5.3,21.817,21.817,0,0,1,3.238,4.818.336.336,0,0,0,.367.2l.036.018a.344.344,0,0,0,.361.219,25.936,25.936,0,0,0,15.969-6.4.42.42,0,0,0,.065-.5c-1.586-3.35-3.285-7.008-2.894-10.814a11,11,0,0,1,4.747-7.553,19.368,19.368,0,0,1,4.6-2.462.417.417,0,0,0,.284-.5Z" transform="translate(-361.802 -285.984)" fill="#f3c012"/>
        <g id="Grupo_1087045" data-name="Grupo 1087045" transform="translate(2.16 0)">
          <g id="Grupo_1087044" data-name="Grupo 1087044">
            <path id="Trazado_860043" data-name="Trazado 860043" d="M404.64,338.54v.03a.1.1,0,0,1,.006-.03h0Z" transform="translate(-381.445 -305.963)" fill="#433600"/>
            <path id="Trazado_860044" data-name="Trazado 860044" d="M416.437,295.611a.44.44,0,0,0-.314-.3.385.385,0,0,0-.006-.184,54.218,54.218,0,0,0-4.232-9.044q-.71-1.216-1.486-2.4a.431.431,0,0,0-.775.166.49.49,0,0,0-.272.041q-4.191,2.015-8.411,3.972t-8.458,3.877q-4.244,1.909-8.506,3.77-4.279,1.873-8.588,3.688-4.271,1.8-8.571,3.563c-.16.065-.32.13-.485.2a.416.416,0,0,0-.491-.255.41.41,0,0,0-.284.5l.036.089a.379.379,0,0,0-.124.4.439.439,0,0,0,.385.308q1.5,4.1,2.995,8.2c.308.846.616,1.693.929,2.539a.417.417,0,0,0,.5.284.4.4,0,0,0,.166-.1.344.344,0,0,0,.432.012,13.223,13.223,0,0,1,10.092-1.675,16.642,16.642,0,0,1,8.689,5.3,21.819,21.819,0,0,1,3.238,4.818.335.335,0,0,0,.367.2l.036.018a.344.344,0,0,0,.361.219,25.936,25.936,0,0,0,15.969-6.4.42.42,0,0,0,.065-.5c-1.586-3.35-3.285-7.008-2.894-10.814a11,11,0,0,1,4.747-7.553,19.368,19.368,0,0,1,4.6-2.462.417.417,0,0,0,.284-.5ZM408.725,285.1l1.042-.5a.312.312,0,0,0,.148-.154q.746,1.154,1.438,2.356a4.337,4.337,0,0,1-3.125-1.468c.166-.077.337-.16.5-.237Zm-1.3.616a3.432,3.432,0,0,1-.183,3.315,2.028,2.028,0,0,1-1.261.781,1.814,1.814,0,0,1-1.421-.5,5.053,5.053,0,0,1-1.083-1.5.923.923,0,0,0-.024-.124.2.2,0,0,0-.03-.083q2.007-.941,4-1.888Zm-7.162,3.368c.793-.367,1.58-.74,2.368-1.107.018.036.041.077.059.112a4.4,4.4,0,0,1-.7,3.575,2.791,2.791,0,0,1-1.45.9,2.037,2.037,0,0,1-1.628-.326,8.9,8.9,0,0,1-1.776-1.722c1.042-.479,2.083-.953,3.119-1.432Zm-8.5,3.877q2.229-1,4.445-2.012a5.542,5.542,0,0,1-1.012,3.776,2.442,2.442,0,0,1-1.515.852,3.166,3.166,0,0,1-1.894-.4,6.392,6.392,0,0,1-1.717-1.474c.562-.249,1.131-.5,1.693-.752Zm-2.658,1.184v.024a3.691,3.691,0,0,1-.243,1.841,2.5,2.5,0,0,1-1.225,1.4c-1.2.491-2.391-.426-3.273-1.172Q386.747,295.194,389.109,294.143Zm-5.889,2.593c.112-.047.225-.1.337-.148a3.273,3.273,0,0,1-.4,3.285,2.147,2.147,0,0,1-1.326.71,1.944,1.944,0,0,1-1.4-.474,6.634,6.634,0,0,1-1.219-1.444.559.559,0,0,0-.148-.142q2.078-.888,4.155-1.788Zm-8.612,3.682q1.669-.7,3.338-1.415a3.854,3.854,0,0,1-.556,3,2.462,2.462,0,0,1-4.35-.923C373.56,300.856,374.087,300.643,374.608,300.418Zm-2.4,1a4.435,4.435,0,0,1-1.279,2.906,2.506,2.506,0,0,1-2.681.474,1.789,1.789,0,0,1-1.006-1.006.444.444,0,0,0-.189-.237q2.584-1.057,5.155-2.131ZM370.683,314.1a5.632,5.632,0,0,1,.343-1.492c.148-.391.349-.912.775-1.071.87-.326,1.574.5,1.989,1.166A12.632,12.632,0,0,0,370.683,314.1Zm5.57-1.9a14,14,0,0,0-1.492.249,3.515,3.515,0,0,1,2.007-1.859,1.576,1.576,0,0,1,1.332.189,1.174,1.174,0,0,1,.515,1.054.356.356,0,0,0,.136.3,14.7,14.7,0,0,0-2.5.059Zm7.4,1.036s0,.024-.006.03a15.58,15.58,0,0,0-4-1.036v-.053a1.9,1.9,0,0,1,1.87-1.711,2.056,2.056,0,0,1,2.054,1.279,2.125,2.125,0,0,1,.071,1.492Zm2.983,1.616a16.285,16.285,0,0,0-2.261-1.273c.006-.012.018-.024.024-.036a1.816,1.816,0,0,1,2.681-.651,2.038,2.038,0,0,1,.533,2.664C387.3,315.316,386.978,315.079,386.641,314.854Zm1.894,1.462a.393.393,0,0,0,.112-.207c-.012.018-.018-.024,0-.03a.13.13,0,0,1,.006-.047v.047h.012c.03.006.136-.077.16-.095a3.938,3.938,0,0,1,.391-.184,2.764,2.764,0,0,1,.781-.2,1.466,1.466,0,0,1,1.314.527,1.757,1.757,0,0,1-.432,2.468.253.253,0,0,0-.071.065,19.77,19.77,0,0,0-2.273-2.344Zm2.776,2.977a2.415,2.415,0,0,1,1.728-.361,1.682,1.682,0,0,1,1.13.994,2.573,2.573,0,0,1-.71,2.77A22.578,22.578,0,0,0,391.311,319.293Zm6.037,3.3a23.06,23.06,0,0,1-3.054.4,3.462,3.462,0,0,0,.823-2.646,2.57,2.57,0,0,0-2.208-2.255,2.761,2.761,0,0,0-.663.012,2.376,2.376,0,0,0,.053-1.847,2.351,2.351,0,0,0-1.042-1.213,2.585,2.585,0,0,0-1.835-.172,4.669,4.669,0,0,0-.8.3,2.724,2.724,0,0,0-3.445-3.3,2.828,2.828,0,0,0-.639.326,3.079,3.079,0,0,0-1.19-2.024,3,3,0,0,0-3.4,0,2.862,2.862,0,0,0-.716.722,2.063,2.063,0,0,0-.55-.687,2.309,2.309,0,0,0-1.882-.462,3.953,3.953,0,0,0-2.622,2.078,3.409,3.409,0,0,0-.87-.829,2.087,2.087,0,0,0-1.734-.249,2.244,2.244,0,0,0-1.249,1.409,6.33,6.33,0,0,0-.3.912q-1.376-3.765-2.752-7.535l-.2-.55a3.149,3.149,0,0,0,2.3.829,3.689,3.689,0,0,0,3.107-2.279,5.849,5.849,0,0,0,.361-1.024,3.265,3.265,0,0,0,2.788,1.267,3.348,3.348,0,0,0,2.119-.947,3.756,3.756,0,0,0,.988-1.93,5.5,5.5,0,0,0,.089-1.355,3.691,3.691,0,0,0,2.823,1.87,3.116,3.116,0,0,0,2.894-2.557,4.43,4.43,0,0,0,.047-1.4,4.137,4.137,0,0,0,2.332.9,2.525,2.525,0,0,0,1.734-.633,3.85,3.85,0,0,0,1.006-1.515,4.127,4.127,0,0,0,.284-1.415,4.756,4.756,0,0,0,3.575,1.628,3.685,3.685,0,0,0,3.143-2.664,7.274,7.274,0,0,0,.349-2.137,9.844,9.844,0,0,0,1.373,1.255,2.847,2.847,0,0,0,2.149.533,3.726,3.726,0,0,0,2.93-2.983,4.992,4.992,0,0,0,.118-.935,2.762,2.762,0,0,0,2.267,1.166,3.029,3.029,0,0,0,2.681-2.752,4.447,4.447,0,0,0-.018-1.19,5.173,5.173,0,0,0,2.871.923.389.389,0,0,0,.331-.166,52.137,52.137,0,0,1,2.587,5.3c.178.426.355.858.521,1.29a3,3,0,0,0-2.439.255,3.635,3.635,0,0,0-1.663,2.6,2.338,2.338,0,0,0-2.054-.255,2.8,2.8,0,0,0-1.77,2.593,3.434,3.434,0,0,0,.32,1.456,2.043,2.043,0,0,0-.71-.018,1.985,1.985,0,0,0-1.409,1.03,2.552,2.552,0,0,0,.432,2.894c-.941.385-1.847,1-1.87,2.107a3.151,3.151,0,0,0,.835,1.977,4.787,4.787,0,0,0,.888.841,2.33,2.33,0,0,0-.03,3.93,2.942,2.942,0,0,0,1.213.42,2.131,2.131,0,0,0-.556,2.066,2.939,2.939,0,0,0,2.107,1.681,25.274,25.274,0,0,1-10.784,4.966Zm8.707-13.614a4.177,4.177,0,0,1-.835-.716,2.5,2.5,0,0,1-.716-1.48c-.018-.852.87-1.261,1.6-1.515A12.008,12.008,0,0,0,406.055,308.977Zm2.746,7.991h-.012c-.722-.2-1.687-.444-1.977-1.237-.231-.633.249-1.213.693-1.657.4.983.841,1.947,1.29,2.9Zm-1.657-3.847a2.913,2.913,0,0,1-1.249-.3,1.547,1.547,0,0,1-.728-.988,1.521,1.521,0,0,1,1.071-1.788c.071.337.148.681.243,1.012C406.671,311.758,406.9,312.439,407.144,313.12Zm-.8-8.855a1.827,1.827,0,0,1-.539-2.089,1.171,1.171,0,0,1,.888-.693,1.048,1.048,0,0,1,.8.213,10.447,10.447,0,0,0-1.154,2.569Zm1.835-3.551a2.3,2.3,0,0,1,.189-2.93,1.521,1.521,0,0,1,2.368.266.38.38,0,0,0,.059.077A14.623,14.623,0,0,0,408.174,300.714Zm3.321-3.1a3.022,3.022,0,0,1,1.16-2.5A2.229,2.229,0,0,1,414,294.7a1.046,1.046,0,0,1,1.006.6.383.383,0,0,0,.29.278,20.232,20.232,0,0,0-3.8,2.036Z" transform="translate(-365.452 -283.503)" fill="#433600"/>
          </g>
          <path id="Trazado_860045" data-name="Trazado 860045" d="M415.466,317.73a3.982,3.982,0,0,0-.888-2.368,1.579,1.579,0,0,0-2.332.083,3.379,3.379,0,0,0-.7,1.492,5.54,5.54,0,0,0-.154.876c-.172-.124-.343-.237-.521-.343a4.046,4.046,0,0,0-1.4-.568,1.78,1.78,0,0,0-1.427.343,1.9,1.9,0,0,0-.645,1.1,3.068,3.068,0,0,0,.959,2.634,7.591,7.591,0,0,0,2.243,1.616,21.894,21.894,0,0,0,2.948,1.125.352.352,0,0,0,.414-.124.365.365,0,0,0,.379-.2,9.317,9.317,0,0,0,1.131-5.653Zm-.9,2.646a8.553,8.553,0,0,1-.894,2.5,12.263,12.263,0,0,1-4.155-1.941,3.47,3.47,0,0,1-1.326-1.876,1.091,1.091,0,0,1,.87-1.373,2.518,2.518,0,0,1,1.273.414,6.653,6.653,0,0,1,1.2.864.414.414,0,0,0,.687-.4,3.343,3.343,0,0,1,.095-1.3,3.284,3.284,0,0,1,.42-1.119.94.94,0,0,1,.769-.456.824.824,0,0,1,.586.349,3.7,3.7,0,0,1,.586,1.935,8.388,8.388,0,0,1-.107,2.4Z" transform="translate(-382.551 -296.311)" fill="#433600"/>
        </g>
      </g>
      <g id="Grupo_1087047" data-name="Grupo 1087047" transform="translate(247.24 8675.601)">
        <path id="Trazado_860046" data-name="Trazado 860046" d="M54.753,291.729a89.6,89.6,0,0,1-13.512-6.094,1.238,1.238,0,0,0-1.675.3c0,.007-.013.02-.013.027a1.324,1.324,0,0,0-.229.3q-3.027,5.3-6.053,10.586a1.258,1.258,0,0,0-.168.525,4.248,4.248,0,0,0-.5.531c-.948,1.224,1.029,2.589,1.971,1.372.552-.713,1.924-.915,2.731-1.184.5-.168.989-.336,1.486-.5a90.046,90.046,0,0,1,4.755,18.449c-6.517,4.681-10.291,12.94-8.569,20.951,1.809,8.421,8.939,15.12,17.669,15.537a19.448,19.448,0,0,0,5.334-.478,1.341,1.341,0,0,0,.464,0,19.342,19.342,0,0,0,1.426-37.766,14.779,14.779,0,0,0-5.186-.915h-.087q-2.462-9-4.923-18.005a41.6,41.6,0,0,1,4.372-1,1.143,1.143,0,0,0,.673-.356,1.217,1.217,0,0,0,.04-2.273ZM40.729,331.082a1.29,1.29,0,0,0,.652-1.278c-.2-2.764,1.816-5.192,3.74-6.934.787-.706,1.607-1.379,2.428-2.058a1.113,1.113,0,0,0,.874-.047,13.585,13.585,0,1,1-3.275,22.525A13.709,13.709,0,0,1,40.729,331.082Z" transform="translate(-31.055 -284.778)" fill="#ffe9e9"/>
        <path id="Trazado_860047" data-name="Trazado 860047" d="M52.833,297.239a89.6,89.6,0,0,1-13.512-6.094,1.238,1.238,0,0,0-1.675.3c0,.007-.013.02-.013.027a1.324,1.324,0,0,0-.229.3q-3.027,5.3-6.053,10.586a1.259,1.259,0,0,0-.168.525,4.248,4.248,0,0,0-.5.531c-.948,1.224,1.029,2.589,1.971,1.372.552-.706,1.924-.915,2.731-1.184.5-.168.989-.336,1.486-.5a90.046,90.046,0,0,1,4.755,18.449c-6.517,4.681-10.291,12.94-8.569,20.951,1.809,8.421,8.939,15.12,17.669,15.537a19.448,19.448,0,0,0,5.334-.478,1.341,1.341,0,0,0,.464,0A19.342,19.342,0,0,0,57.944,319.8a14.779,14.779,0,0,0-5.186-.915h-.087q-2.462-9-4.923-18.005a41.6,41.6,0,0,1,4.372-1,1.143,1.143,0,0,0,.673-.356,1.217,1.217,0,0,0,.04-2.273ZM38.809,336.592a1.29,1.29,0,0,0,.652-1.278c-.2-2.764,1.816-5.192,3.74-6.934.787-.713,1.607-1.379,2.428-2.058a1.113,1.113,0,0,0,.874-.047A13.585,13.585,0,1,1,43.228,348.8a13.709,13.709,0,0,1-4.419-12.207Z" transform="translate(-30.427 -286.582)" fill="#f3c012"/>
        <path id="Trazado_860048" data-name="Trazado 860048" d="M55.323,291.991c-.282-.168-.565-.33-.847-.491-1.137-.659-2.294-1.3-3.457-1.91-2.334-1.231-4.722-2.381-7.143-3.43-1.359-.585-2.724-1.15-4.109-1.675a.359.359,0,0,0-.41.087.346.346,0,0,0-.424.155,108.371,108.371,0,0,0-6.39,11.373c-.538,1.1-1.049,2.22-1.547,3.343a.4.4,0,0,0,.444.531,43.1,43.1,0,0,0,6.625-2.105l3.592,13.943.969,3.753a21.81,21.81,0,0,0-1.829,1.359A20.472,20.472,0,1,0,54.2,312.2l-3.457-13.324c-.309-1.177-.612-2.361-.921-3.538l4.9-1.412a.435.435,0,0,0,.336-.37.706.706,0,0,0,.915-.794,1.192,1.192,0,0,0-.659-.76Zm-.531,1.143a.36.36,0,0,0-.188-.013c-1.675.484-3.343.962-5.017,1.446a.5.5,0,0,0-.2.108H49.3a.4.4,0,0,0-.33.464l3.545,13.66c.336,1.285.666,2.576,1,3.861a.422.422,0,0,0,.309.323c.007.054.02.108.027.161a19.48,19.48,0,1,1-12.429,4.513c.525-.437,1.069-.841,1.621-1.217a.848.848,0,0,1-.074-.087.346.346,0,0,0,.262.047.4.4,0,0,0,.33-.464l-3.888-15.113c-.282-1.1-.565-2.2-.847-3.3a.409.409,0,0,0-.471-.632,42.178,42.178,0,0,1-6.255,2.1,105.208,105.208,0,0,1,5.6-10.714c.605-1.016,1.238-2.025,1.877-3.027a102.017,102.017,0,0,1,12.867,5.993c.572.316,1.137.639,1.7.962.282.161.565.323.841.491l.121.081a.44.44,0,0,0-.289.35Z" transform="translate(-30.604 -284.456)" fill="#433600"/>
        <path id="Trazado_860049" data-name="Trazado 860049" d="M67.2,360.015a14.011,14.011,0,1,1,1.789-19.734A14.026,14.026,0,0,1,67.2,360.015Zm-17.326-20.79a13.051,13.051,0,1,0,18.382,1.668A13.066,13.066,0,0,0,49.879,339.225Z" transform="translate(-34.945 -301.087)" fill="#433600"/>
      </g>
      <g id="Grupo_1087048" data-name="Grupo 1087048" transform="translate(282.61 8547.474)">
        <path id="Trazado_860050" data-name="Trazado 860050" d="M143.041,152.077s-.02-.061-.034-.094a2.267,2.267,0,0,1-.182-.72.423.423,0,0,0-.4-.4,20.549,20.549,0,0,0-5.28.518c-.437.061-.881.1-1.325.121l-.626.02h-.41v-.081c-.007-.114-.02-.229-.034-.343-.027-.229-.054-.457-.081-.679-.061-.451-.128-.9-.208-1.352-.148-.847-.343-1.688-.572-2.515a20.444,20.444,0,1,0-10.27,1.117c.2,1.829.33,3.659.39,5.495a71.143,71.143,0,0,0-7.715,1.251.414.414,0,0,0-.282.491q.545,3.107,1.09,6.2c.081.457.094,1.043.646,1.17a1.855,1.855,0,0,0,.693-.04c.262-.04.525-.074.787-.114l3.1-.444c1.1-.155,2.193-.316,3.289-.471q.636,3.733,1.278,7.459l.161.942a1.687,1.687,0,0,0,.242.767c.383.531,1.09.323,1.628.235l3.76-.626,4.231-.706a.4.4,0,0,0,.3-.383q-.5-4.106-1.016-8.219a68.774,68.774,0,0,0,7.486-1.278.41.41,0,0,0,.3-.383,29.527,29.527,0,0,0-.841-6.733.422.422,0,0,0-.108-.2Zm-16.411-10.64a14.01,14.01,0,1,1,14.01-14.01A14.026,14.026,0,0,1,126.63,141.436Z" transform="translate(-103.48 -106.98)" fill="#ffe9e9"/>
        <path id="Trazado_860051" data-name="Trazado 860051" d="M139.041,158.077s-.02-.061-.034-.094a2.267,2.267,0,0,1-.182-.72.423.423,0,0,0-.4-.4,20.549,20.549,0,0,0-5.28.518c-.437.061-.881.1-1.325.121l-.626.02h-.41v-.081c-.007-.114-.02-.229-.034-.343-.027-.229-.054-.457-.081-.679-.061-.451-.128-.9-.208-1.352-.148-.847-.343-1.688-.572-2.515a20.444,20.444,0,1,0-10.27,1.117c.2,1.829.33,3.659.39,5.495a71.143,71.143,0,0,0-7.715,1.251.414.414,0,0,0-.282.491q.545,3.107,1.09,6.2c.081.457.094,1.043.646,1.17a1.855,1.855,0,0,0,.693-.04c.262-.04.525-.074.787-.114l3.1-.444c1.1-.155,2.193-.316,3.289-.471q.636,3.733,1.278,7.459l.161.942a1.687,1.687,0,0,0,.242.767c.383.531,1.09.323,1.628.235l3.76-.626,4.231-.706a.4.4,0,0,0,.3-.383q-.5-4.106-1.016-8.219a68.771,68.771,0,0,0,7.486-1.278.41.41,0,0,0,.3-.383,29.527,29.527,0,0,0-.841-6.733.422.422,0,0,0-.108-.2Zm-16.411-10.64a14.01,14.01,0,1,1,14.01-14.01A14.026,14.026,0,0,1,122.63,147.436Z" transform="translate(-102.17 -108.944)" fill="#f3c012"/>
        <path id="Trazado_860052" data-name="Trazado 860052" d="M143.041,152.077s-.02-.061-.034-.094a2.267,2.267,0,0,1-.182-.72.423.423,0,0,0-.4-.4,20.549,20.549,0,0,0-5.28.518c-.437.061-.881.1-1.325.121l-.626.02h-.41v-.081c-.007-.114-.02-.229-.034-.343-.027-.229-.054-.457-.081-.679-.061-.451-.128-.9-.208-1.352-.148-.847-.343-1.688-.572-2.515a20.444,20.444,0,1,0-10.27,1.117c.2,1.829.33,3.659.39,5.495a71.143,71.143,0,0,0-7.715,1.251.414.414,0,0,0-.282.491q.545,3.107,1.09,6.2c.081.457.094,1.043.646,1.17a1.855,1.855,0,0,0,.693-.04c.262-.04.525-.074.787-.114l3.1-.444c1.1-.155,2.193-.316,3.289-.471q.636,3.733,1.278,7.459l.161.942a1.687,1.687,0,0,0,.242.767c.383.531,1.09.323,1.628.235l3.76-.626,4.231-.706a.4.4,0,0,0,.3-.383q-.5-4.106-1.016-8.219a68.774,68.774,0,0,0,7.486-1.278.41.41,0,0,0,.3-.383,29.527,29.527,0,0,0-.841-6.733.422.422,0,0,0-.108-.2Zm-7.277,7.842c-.2.02-.43.168-.4.4q.5,4.116,1.016,8.239c-2.28.377-4.56.76-6.84,1.137-.276.047-.552.094-.821.135a3.291,3.291,0,0,1-.72.087.085.085,0,0,1-.04-.007.343.343,0,0,1-.047-.114,2.83,2.83,0,0,1-.061-.33c-.054-.316-.108-.626-.161-.942-.2-1.19-.4-2.374-.612-3.565l-.693-4.036a.378.378,0,0,0-.289-.276.42.42,0,0,0-.484-.256l-5.8.834c-.5.074-1,.141-1.493.215l-.262.04h-.061a.125.125,0,0,0-.013-.047,1.5,1.5,0,0,1-.027-.155c-.02-.128-.047-.262-.067-.39l-.511-2.906c-.168-.962-.336-1.924-.5-2.879a68.363,68.363,0,0,1,7.567-1.2.414.414,0,0,0,.4-.4c-.061-2.152-.222-4.3-.464-6.437a.419.419,0,0,0-.4-.4.358.358,0,0,0-.161.04,19.482,19.482,0,1,1,9.537-.982v.161a.372.372,0,0,0-.323.484,27.226,27.226,0,0,1,.646,2.751c.081.437.148.881.208,1.325.027.229.054.457.081.679a3.3,3.3,0,0,0,.087.679c.155.484.652.518,1.09.511.471,0,.935-.027,1.4-.067.942-.087,1.87-.269,2.8-.43a11.523,11.523,0,0,1,2.758-.2,3.483,3.483,0,0,0,.235.753.184.184,0,0,0,.061.081v.013a28.748,28.748,0,0,1,.8,6.2,69.248,69.248,0,0,1-7.412,1.238Z" transform="translate(-103.48 -106.98)" fill="#433600"/>
        <path id="Trazado_860053" data-name="Trazado 860053" d="M129.77,144.57a14.01,14.01,0,1,1,14.01-14.01A14.026,14.026,0,0,1,129.77,144.57Zm0-27.058a13.048,13.048,0,1,0,13.048,13.048A13.06,13.06,0,0,0,129.77,117.512Z" transform="translate(-106.62 -110.113)" fill="#433600"/>
      </g>
      <g id="Grupo_1087049" data-name="Grupo 1087049" transform="translate(241.145 8600.667)">
        <path id="Trazado_860054" data-name="Trazado 860054" d="M53.6,161.58a5.662,5.662,0,0,0-3.309.928c-2.327,1.628-2.583,5.152-.693,9.436,4.506,10.19,20.447,20.373,23.325,22.155a91.186,91.186,0,0,0,6.121-17.958c1.729-7.674,1.8-13.579.208-16.64a4.362,4.362,0,0,0-3.343-2.5,7.033,7.033,0,0,0-5.9,1.392c-3.4,2.906-3.444,9.066-3.444,9.127v1.13l-.814-.78a23.453,23.453,0,0,0-9.12-5.8,10.64,10.64,0,0,0-3.033-.484Z" transform="translate(-45.654 -155.923)" fill="#ffe9e9"/>
        <path id="Trazado_860055" data-name="Trazado 860055" d="M49.6,166.58a5.662,5.662,0,0,0-3.309.928c-2.327,1.628-2.583,5.152-.693,9.436,4.506,10.19,20.447,20.373,23.325,22.155a91.186,91.186,0,0,0,6.121-17.958c1.729-7.674,1.8-13.579.208-16.64a4.362,4.362,0,0,0-3.343-2.5,7.033,7.033,0,0,0-5.9,1.392c-3.4,2.906-3.444,9.066-3.444,9.127v1.13l-.814-.78a23.453,23.453,0,0,0-9.12-5.8,10.64,10.64,0,0,0-3.033-.484Z" transform="translate(-44.344 -157.56)" fill="#f3c012"/>
        <path id="Trazado_860056" data-name="Trazado 860056" d="M72.86,194.994l-.451-.262a103.767,103.767,0,0,1-10.136-7.069C55.1,182,50.382,176.686,48.25,171.87c-2.092-4.728-1.708-8.7,1.022-10.607,3.06-2.139,9.107-1.453,15.92,4.742a19.151,19.151,0,0,1,.41-2.637,11.261,11.261,0,0,1,3.316-6.161,7.941,7.941,0,0,1,6.672-1.614,5.313,5.313,0,0,1,4.042,3.006c2.179,4.177,1.137,11.71-.128,17.3a91.091,91.091,0,0,1-6.423,18.644l-.229.464ZM53.133,161.116a5.662,5.662,0,0,0-3.309.928c-2.327,1.628-2.583,5.152-.693,9.436,4.506,10.19,20.447,20.373,23.325,22.155a91.186,91.186,0,0,0,6.121-17.958c1.729-7.674,1.8-13.579.209-16.64a4.362,4.362,0,0,0-3.343-2.5,7.033,7.033,0,0,0-5.9,1.392c-3.4,2.906-3.444,9.066-3.444,9.127v1.13l-.814-.78a23.453,23.453,0,0,0-9.12-5.8,10.64,10.64,0,0,0-3.033-.484Z" transform="translate(-45.186 -155.458)" fill="#433600"/>
      </g>
      <g id="Grupo_1087051" data-name="Grupo 1087051" transform="translate(282.61 8630.599)">
        <path id="Trazado_860057" data-name="Trazado 860057" d="M106.817,264.461s.027-.054.04-.087a2.144,2.144,0,0,1,.343-.619.4.4,0,0,0-.02-.538,19.847,19.847,0,0,0-4.036-3.08c-.35-.242-.679-.5-1.009-.78-.155-.128-.3-.262-.451-.4-.074-.067-.148-.135-.215-.2a.631.631,0,0,1-.067-.067h0c.013-.02.034-.04.047-.061l.2-.262c.135-.175.262-.35.39-.531.256-.356.5-.713.74-1.083.451-.693.861-1.406,1.244-2.132a19.55,19.55,0,1,0-7.91-5.9c-1.056,1.406-2.159,2.778-3.309,4.1a66.236,66.236,0,0,0-6.221-4.15.4.4,0,0,0-.518.161q-1.644,2.532-3.282,5.058c-.242.37-.619.794-.309,1.238a1.953,1.953,0,0,0,.511.424c.209.141.417.289.626.43.821.572,1.641,1.137,2.462,1.708.874.605,1.742,1.211,2.616,1.816q-1.977,3.027-3.962,6.053c-.646-.43-1.3-.861-1.944-1.285a.308.308,0,0,0-.3-.02.4.4,0,0,0-.289-.034.393.393,0,0,0-.256.478q.726,4.066,1.338,8.145c.114.767.229,1.54.336,2.307a.382.382,0,0,0,.047.148.357.357,0,0,0,.37.471,45.872,45.872,0,0,0,8.69-1.486c.794-.215,1.587-.457,2.367-.72a.377.377,0,0,0,.215-.545.362.362,0,0,0,.047-.087.351.351,0,0,0,.027-.141.313.313,0,0,0-.034-.141.394.394,0,0,0-.087-.128l-.081-.061-.047-.02a.389.389,0,0,0-.141-.135,12.959,12.959,0,0,1-2.065-1.4q1.766-2.441,3.531-4.876a66.064,66.064,0,0,0,6.08,3.982.39.39,0,0,0,.457-.081,28.676,28.676,0,0,0,3.8-5.26.35.35,0,0,0,.047-.208ZM96.446,235.392a13.089,13.089,0,0,1,14.266-12.059,2.59,2.59,0,0,1,.33.047,5.49,5.49,0,0,1,4.479,2.28,10.648,10.648,0,0,1,4.533,4.789,12.716,12.716,0,0,1-9.631,18.261c-7.634,1-14.494-5.757-13.976-13.317Z" transform="translate(-76.837 -215.88)" fill="#fffdfd"/>
        <path id="Trazado_860058" data-name="Trazado 860058" d="M99.237,262.871s.027-.054.04-.087a2.144,2.144,0,0,1,.343-.619.4.4,0,0,0-.02-.538,19.847,19.847,0,0,0-4.036-3.08c-.35-.242-.679-.5-1.009-.78-.155-.128-.3-.262-.451-.4-.074-.067-.148-.135-.215-.2a.64.64,0,0,1-.067-.067h0c.013-.02.034-.04.047-.061l.2-.262c.135-.175.262-.35.39-.531.256-.356.5-.713.74-1.083.451-.693.861-1.406,1.244-2.132a19.55,19.55,0,1,0-7.91-5.9c-1.056,1.406-2.159,2.778-3.309,4.1a66.235,66.235,0,0,0-6.221-4.15.4.4,0,0,0-.518.161q-1.644,2.532-3.282,5.058c-.242.37-.619.794-.309,1.238a1.954,1.954,0,0,0,.511.424c.209.141.417.289.626.43.821.572,1.641,1.137,2.462,1.708.874.605,1.742,1.211,2.616,1.816q-1.977,3.027-3.962,6.053c-.646-.43-1.3-.861-1.944-1.285a.308.308,0,0,0-.3-.02.4.4,0,0,0-.289-.034.393.393,0,0,0-.256.478q.726,4.066,1.338,8.145c.114.767.229,1.54.336,2.307a.382.382,0,0,0,.047.148.357.357,0,0,0,.37.471,45.867,45.867,0,0,0,8.69-1.486c.794-.215,1.587-.457,2.367-.72a.377.377,0,0,0,.215-.545.362.362,0,0,0,.047-.087.351.351,0,0,0,.027-.141.312.312,0,0,0-.034-.141.394.394,0,0,0-.087-.128l-.081-.061-.047-.02a.389.389,0,0,0-.141-.135,12.959,12.959,0,0,1-2.065-1.4q1.766-2.441,3.531-4.876a66.058,66.058,0,0,0,6.08,3.982.39.39,0,0,0,.457-.081,28.676,28.676,0,0,0,3.8-5.26.35.35,0,0,0,.047-.208Zm-5.273-28a13.089,13.089,0,0,1,14.266-12.059,2.588,2.588,0,0,1,.33.047,5.49,5.49,0,0,1,4.479,2.28,10.648,10.648,0,0,1,4.533,4.789,12.716,12.716,0,0,1-9.631,18.261c-7.634,1-14.494-5.757-13.976-13.317Z" transform="translate(-74.355 -215.36)" fill="#f3c012"/>
        <g id="Grupo_1087050" data-name="Grupo 1087050" transform="translate(5.098 1.069)">
          <path id="Trazado_860059" data-name="Trazado 860059" d="M106.817,264.461s.027-.054.04-.087a2.144,2.144,0,0,1,.343-.619.4.4,0,0,0-.02-.538,19.847,19.847,0,0,0-4.036-3.08c-.35-.242-.679-.5-1.009-.78-.155-.128-.3-.262-.451-.4-.074-.067-.148-.135-.215-.2a.631.631,0,0,1-.067-.067h0c.013-.02.034-.04.047-.061l.2-.262c.135-.175.262-.35.39-.531.256-.356.5-.713.74-1.083.451-.693.861-1.406,1.244-2.132a19.55,19.55,0,1,0-7.91-5.9c-1.056,1.406-2.159,2.778-3.309,4.1a66.236,66.236,0,0,0-6.221-4.15.4.4,0,0,0-.518.161q-1.644,2.532-3.282,5.058c-.242.37-.619.794-.309,1.238a1.953,1.953,0,0,0,.511.424c.209.141.417.289.626.43.821.572,1.641,1.137,2.462,1.708.874.605,1.742,1.211,2.616,1.816q-1.977,3.027-3.962,6.053c-.646-.43-1.3-.861-1.944-1.285a.308.308,0,0,0-.3-.02.4.4,0,0,0-.289-.034.393.393,0,0,0-.256.478q.726,4.066,1.338,8.145c.114.767.229,1.54.336,2.307a.382.382,0,0,0,.047.148.357.357,0,0,0,.37.471,45.872,45.872,0,0,0,8.69-1.486c.794-.215,1.587-.457,2.367-.72a.377.377,0,0,0,.215-.545.362.362,0,0,0,.047-.087.351.351,0,0,0,.027-.141.313.313,0,0,0-.034-.141.394.394,0,0,0-.087-.128l-.081-.061-.047-.02a.389.389,0,0,0-.141-.135,12.959,12.959,0,0,1-2.065-1.4q1.766-2.441,3.531-4.876a66.064,66.064,0,0,0,6.08,3.982.39.39,0,0,0,.457-.081,28.676,28.676,0,0,0,3.8-5.26.35.35,0,0,0,.047-.208Zm-10.2.753a.382.382,0,0,0-.538.02q-2.028,2.795-4.056,5.6c.02.02.047.04.067.061a.377.377,0,0,0,.1.41,13.681,13.681,0,0,0,2.334,1.628,44.769,44.769,0,0,1-8.071,1.816c-.7.087-1.4.161-2.105.215q-.585-4.086-1.278-8.158l-.282-1.614,1.8,1.19a.292.292,0,0,0,.2.047l.2.121.37-.565c.632-.962,1.264-1.93,1.9-2.892l2.146-3.275a.36.36,0,0,0-.02-.383.388.388,0,0,0-.175-.491l-4.614-3.2-1.184-.821c-.067-.047-.141-.094-.209-.141a.489.489,0,0,0-.047-.04.14.14,0,0,1,.027-.04c.027-.04.054-.087.081-.128.067-.108.141-.215.208-.323L85,251.877c.511-.78,1.016-1.567,1.527-2.347a64.838,64.838,0,0,1,6.073,4.1.388.388,0,0,0,.538-.02q2.038-2.32,3.867-4.816a.394.394,0,0,0-.02-.538.484.484,0,0,0-.141-.081,18.645,18.645,0,1,1,7.318,5.522c-.034.04-.074.074-.108.114a.362.362,0,0,0-.545.128c-.4.8-.854,1.587-1.338,2.347-.229.363-.471.72-.72,1.063-.128.175-.256.356-.39.531a3.334,3.334,0,0,0-.383.531c-.209.444.121.787.424,1.069.33.3.673.592,1.022.868.72.552,1.486,1.029,2.24,1.527a11.138,11.138,0,0,1,2.058,1.661,3.4,3.4,0,0,0-.33.686.229.229,0,0,0-.013.094v.007a27.834,27.834,0,0,1-3.477,4.863,64.7,64.7,0,0,1-6-3.968Z" transform="translate(-81.935 -216.95)" fill="#433600"/>
          <path id="Trazado_860060" data-name="Trazado 860060" d="M110.072,249.309a13.406,13.406,0,1,1,18.947-.679,13.417,13.417,0,0,1-18.947.679Zm17.635-18.953A12.487,12.487,0,1,0,128.34,248a12.507,12.507,0,0,0-.632-17.649Z" transform="translate(-89.75 -219.944)" fill="#433600"/>
        </g>
        <path id="Trazado_860061" data-name="Trazado 860061" d="M110.072,249.309a13.406,13.406,0,1,1,18.947-.679,13.417,13.417,0,0,1-18.947.679Zm17.635-18.953A12.487,12.487,0,1,0,128.34,248a12.507,12.507,0,0,0-.632-17.649Z" transform="translate(-84.652 -218.874)" fill="#433600"/>
      </g>
      <g id="Grupo_1087052" data-name="Grupo 1087052" transform="translate(298.604 8711.341)">
        <path id="Trazado_860062" data-name="Trazado 860062" d="M128.319,435.112q-3.239-2.946-6.3-6.094t-5.905-6.477c-1.009-1.177-1.991-2.374-2.959-3.578a69.218,69.218,0,0,0,2.287-9.934,27.535,27.535,0,0,0-.578-11.965,24.049,24.049,0,0,0-6.437-9.847,13.734,13.734,0,0,0-4.641-3.457l-.356-.121a.309.309,0,0,0-.43-.114,12.362,12.362,0,0,0-5.408.283,24.056,24.056,0,0,0-3.336,1,.279.279,0,0,0-.148.061,13.985,13.985,0,0,0-6.073,4.372,16.077,16.077,0,0,0-3.094,9.214,22.068,22.068,0,0,0,2.334,10.338,46.6,46.6,0,0,0,6.679,9.779c.632.747,1.271,1.48,1.917,2.213a.329.329,0,0,0,.175.108c.578.78,1.157,1.554,1.742,2.334l-3.128,9.06-4.257,12.349c-.175.511-.35,1.022-.525,1.527a.318.318,0,0,0,.013.262.407.407,0,0,0,.356.377,78.659,78.659,0,0,0,12.517.572.381.381,0,0,0,.363-.276q2.4-6.467,4.809-12.94c.04-.1.074-.2.114-.3l8.152,7.95c.336.33.679.659,1.016,1a9.529,9.529,0,0,0,.942.861,2.011,2.011,0,0,0,1.116.444,2.121,2.121,0,0,0,1.184-.35,6.827,6.827,0,0,0,.969-.78c.33-.3.652-.605.975-.908q.979-.928,1.917-1.9,2.109-2.169,4.022-4.526a.386.386,0,0,0,0-.531Z" transform="translate(-82.913 -383.329)" fill="#fffdfd"/>
        <path id="Trazado_860063" data-name="Trazado 860063" d="M125.319,439.112q-3.239-2.946-6.3-6.094t-5.905-6.477c-1.009-1.177-1.991-2.374-2.959-3.578a69.218,69.218,0,0,0,2.287-9.934,27.535,27.535,0,0,0-.578-11.965,24.049,24.049,0,0,0-6.437-9.847,13.734,13.734,0,0,0-4.641-3.457l-.356-.121a.309.309,0,0,0-.43-.114,12.362,12.362,0,0,0-5.408.282,24.056,24.056,0,0,0-3.336,1,.279.279,0,0,0-.148.061,13.984,13.984,0,0,0-6.073,4.372,16.077,16.077,0,0,0-3.094,9.214,22.068,22.068,0,0,0,2.334,10.338,46.6,46.6,0,0,0,6.679,9.779c.632.747,1.271,1.48,1.917,2.213a.329.329,0,0,0,.175.108c.578.78,1.157,1.554,1.742,2.334l-3.128,9.06-4.257,12.349c-.175.511-.35,1.022-.525,1.527a.318.318,0,0,0,.013.262.407.407,0,0,0,.356.377,78.659,78.659,0,0,0,12.517.572.381.381,0,0,0,.363-.276q2.4-6.467,4.809-12.94c.04-.1.074-.2.114-.3l8.152,7.95c.336.33.679.659,1.016,1a9.537,9.537,0,0,0,.942.861,2.012,2.012,0,0,0,1.116.444,2.121,2.121,0,0,0,1.184-.35,6.832,6.832,0,0,0,.969-.78c.33-.3.652-.605.975-.908q.979-.928,1.917-1.9,2.109-2.169,4.022-4.526a.386.386,0,0,0,0-.531Z" transform="translate(-81.931 -384.638)" fill="#f3c012"/>
        <path id="Trazado_860064" data-name="Trazado 860064" d="M128.319,435.112q-3.239-2.946-6.3-6.094t-5.905-6.477c-1.009-1.177-1.991-2.374-2.959-3.578a69.218,69.218,0,0,0,2.287-9.934,27.535,27.535,0,0,0-.578-11.965,24.049,24.049,0,0,0-6.437-9.847,13.734,13.734,0,0,0-4.641-3.457l-.356-.121a.309.309,0,0,0-.43-.114,12.362,12.362,0,0,0-5.408.283,24.056,24.056,0,0,0-3.336,1,.279.279,0,0,0-.148.061,13.985,13.985,0,0,0-6.073,4.372,16.077,16.077,0,0,0-3.094,9.214,22.068,22.068,0,0,0,2.334,10.338,46.6,46.6,0,0,0,6.679,9.779c.632.747,1.271,1.48,1.917,2.213a.329.329,0,0,0,.175.108c.578.78,1.157,1.554,1.742,2.334l-3.128,9.06-4.257,12.349c-.175.511-.35,1.022-.525,1.527a.318.318,0,0,0,.013.262.407.407,0,0,0,.356.377,78.659,78.659,0,0,0,12.517.572.388.388,0,0,0,.363-.276q2.4-6.467,4.809-12.94c.04-.1.074-.2.114-.3l8.152,7.95c.336.33.679.659,1.016,1a9.529,9.529,0,0,0,.942.861,2.011,2.011,0,0,0,1.116.444,2.121,2.121,0,0,0,1.184-.35,6.827,6.827,0,0,0,.969-.78c.33-.3.652-.605.975-.908q.979-.928,1.917-1.9,2.109-2.169,4.022-4.526a.386.386,0,0,0,0-.531ZM94.535,385.475c.276-.108.558-.2.841-.3a18.826,18.826,0,0,1,5.865-1.1,7.194,7.194,0,0,1,1.661.2,26.825,26.825,0,0,1,1.957,10.21.131.131,0,0,1-.047-.007,17.459,17.459,0,0,0-8.925,1.184,18.572,18.572,0,0,0-2.011.989,17.7,17.7,0,0,1-.942-6.006c.047-1.776.33-3.827,1.6-5.172Zm10.365,9.887a37.6,37.6,0,0,1-.074,6.215,31.083,31.083,0,0,1-1.675,6.053c-.262.767-.525,1.527-.794,2.294a60.926,60.926,0,0,1-6.551-8.945,25.066,25.066,0,0,1-1.675-3.605,16.834,16.834,0,0,1,8.165-2.294,16.653,16.653,0,0,1,2.522.148h.074v.135Zm-8.535,24.711a.413.413,0,0,0-.276-.175,61.567,61.567,0,0,1-6.746-8.858,24.1,24.1,0,0,1-3.6-10.136,16.966,16.966,0,0,1,1.675-9.342,12.52,12.52,0,0,1,2.9-3.679A12.982,12.982,0,0,1,93.2,386.04a9.459,9.459,0,0,0-.975,3.74,17.236,17.236,0,0,0,.484,5.535A28.955,28.955,0,0,0,97.79,405.4c1.278,1.742,2.663,3.41,4.042,5.071a.336.336,0,0,0,.289.108q-1.624,4.7-3.242,9.4c-.276.794-.545,1.587-.821,2.374-.565-.76-1.137-1.52-1.7-2.287Zm7.156,23.762c-.343.928-.686,1.85-1.029,2.778a78.66,78.66,0,0,1-11.8-.531l4.21-12.207,4.3-12.47,4.3-12.47a47.22,47.22,0,0,0,1.877-6.094,27.348,27.348,0,0,0,.316-6.376c-.128-3.867-.249-7.862-1.675-11.515-.047-.128-.1-.249-.155-.377.087.04.182.074.269.121a10.553,10.553,0,0,1,2.334,1.668,27.031,27.031,0,0,1,7,9.026,23.637,23.637,0,0,1,1.48,11.528,62.151,62.151,0,0,1-2.5,11.811.328.328,0,0,0-.087.3c-1.231,4.143-2.684,8.219-4.177,12.281q-2.31,6.265-4.648,12.51Zm17.111-1.17c-.511.457-1.164.928-1.843.525a4.758,4.758,0,0,1-.841-.72c-.336-.33-.679-.659-1.016-1l-3.968-3.867q-2.25-2.2-4.506-4.392a.345.345,0,0,0-.155-.094c1.426-3.834,2.825-7.681,4.062-11.575.182-.572.356-1.143.538-1.722q2.522,3.128,5.219,6.121,2.936,3.249,6.08,6.316,1.644,1.6,3.343,3.154a65.167,65.167,0,0,1-6.907,7.25Z" transform="translate(-82.913 -383.329)" fill="#433600"/>
      </g>
    </g>
  </g>
</svg>
