<svg xmlns="http://www.w3.org/2000/svg" xmlns:xlink="http://www.w3.org/1999/xlink" width="505" height="268.93" viewBox="0 0 505 268.93">
  <defs>
    <clipPath id="clip-path">
      <rect id="Rectángulo_399081" data-name="Rectángulo 399081" width="505" height="268.93" fill="#fff" opacity="0.59"/>
    </clipPath>
    <clipPath id="clip-path-2">
      <path id="Unión_10" data-name="Unión 10" d="M264.106,295.088v-3.553h-34.43v3.553h-.3v-3.553H194.947v3.553h-.3v-3.553H139.533v3.553h-.3v-3.553H104.8v3.553h-.3v-3.553H70.074v3.553h-.3v-3.553H39.606c-.273-.1-.548-.195-.821-.3H52.4V281.25H21.644c-.121-.1-.24-.208-.361-.3H35.036v-9.987h-23.2c-.077-.1-.145-.207-.223-.308h6.06v-9.988H5.606c-.052-.1-.094-.2-.146-.308H35.036v-9.987H1.823c-.026-.1-.061-.207-.086-.3H17.673v-9.988H.024c0-.1-.016-.2-.024-.307H.308v-9.988H.041c.008-.1.019-.2.027-.308h17.6v-9.987H1.856a3,3,0,0,1,.087-.3h33.1v-9.988H5.674c.05-.1.094-.206.146-.3H17.682v-9.988H11.938l.231-.307H35.036v-9.988H21.8c.119-.1.248-.206.376-.308H52.4v-9.987H39.975q.436-.156.872-.307H69.766v-5.128c.1-.044.206-.085.3-.137v5.255H104.5v-9.988H77.213c.111-.1.213-.195.317-.3h9.592v-9.986H83.9c.033-.1.068-.208.1-.309h20.487v-9.987H85.2c0-.1-.019-.206-.027-.308h1.951v-9.988H82.056c-.061-.1-.113-.2-.171-.307h22.6v-9.987H71.376c-.206-.1-.413-.207-.616-.308H87.114v-9.987H52.692v7.189c-.1-.018-.2-.035-.308-.051v-7.138H38.443c-.1-.1-.205-.206-.308-.3H69.757v-9.988H35.327v6.658c-.1-.144-.206-.29-.308-.435v-6.222H31.888c-.036-.1-.069-.2-.1-.3h20.6V95.981H30.492c0-.1.009-.207.016-.309h4.511V85.686H33.325a3.254,3.254,0,0,1,.162-.3h18.9V75.4h-9.7c.162-.1.327-.2.49-.309H69.749v-4.5c.1-.042.206-.077.3-.119v4.62h34.43V65.1H75.526c.044-.1.085-.207.128-.309H87.114V54.808H74.344c-.077-.1-.154-.208-.24-.311h30.374V44.511H70.049V51.46c-.1-.044-.207-.085-.3-.118v-6.83H52.274c-.017-.1-.027-.2-.036-.3h.146V42.021a6.318,6.318,0,0,1,.308-.993v3.182H87.114V36.493h.3v7.718h34.422V34.224H111.821c.128-.1.257-.2.385-.3H139.2V23.938H116.17a2.8,2.8,0,0,0-.044-.3h5.71V13.649H88.7c-.223-.093-.429-.2-.642-.307h16.407V3.354H85.377c.068-.1.127-.206.2-.3H87.1V1.463l.3-.224V3.054h34.42V0h.308V3.054h34.43V0h.309l.033.009V3.062h20.388V.009L177.318,0h.308V3.054h34.429V0h.309V3.054h34.421V1.239c.1.078.2.147.3.224V3.054h1.523c.07.094.127.2.2.3H229.72v9.987h16.4c-.212.112-.419.214-.642.307H212.347v9.988h5.708c-.016.094-.036.2-.045.3H194.982v9.987h26.993c.127.1.256.2.383.3H212.347v9.987h34.42V36.493h.3v7.718h34.421V41.028a6.219,6.219,0,0,1,.309.993v2.189h.145c-.008.1-.017.2-.036.3H264.431v6.83c-.093.033-.2.075-.3.118V44.511H229.7V54.5h30.373c-.085.1-.163.207-.24.311H247.066v9.986h11.459c.043.1.085.207.129.309H229.7v9.986h34.431v-4.62c.092.043.2.078.3.119v4.5h26.574c.163.1.325.208.488.309h-9.7v9.988h18.9a2.849,2.849,0,0,1,.162.3h-1.693v9.986h4.51c.008.1.017.208.017.309H281.8v9.987h20.6c-.036.1-.069.2-.1.3h-3.133v6.222c-.1.145-.207.292-.308.435v-6.658h-34.43v9.988h31.624c-.1.094-.207.2-.308.3H281.8v7.138c-.1.016-.2.033-.309.051v-7.189H247.066v9.987h16.354c-.2.1-.41.2-.617.308H229.693v9.987h22.6c-.06.1-.112.206-.171.307h-5.068v9.988h1.953c-.009.1-.026.2-.026.308H229.693v9.987h20.49c.033.1.069.207.1.309h-3.228v9.986h9.595c.1.1.2.2.317.3H229.685v9.988h34.429v-5.255c.1.051.2.093.3.137v5.128h28.918q.438.153.873.307H281.78v9.987h30.226c.128.1.258.207.376.308H299.144v9.988H322.01l.232.307H316.5v9.988h11.861c.05.094.094.2.146.3H299.136v9.988h33.1c.034.093.06.2.086.3H316.509v9.987h17.6c.01.1.019.207.026.308h-.264v9.988h.306c-.009.1-.025.2-.025.307H316.509v9.988h15.932c-.024.093-.057.2-.084.3H299.144v9.987H328.72c-.049.1-.093.207-.145.308H316.509v9.988h6.057c-.078.1-.145.2-.221.306h-23.2v9.988H312.9c-.121.093-.24.2-.361.3H281.78v9.986H295.4c-.273.1-.548.2-.821.3H264.406v3.553Zm-86.821-3.852V281.25H156.9v9.986h20.388Zm69.765-.049h34.421V281.2H247.05Zm-34.73,0h34.422V281.2H212.32Zm-34.727,0h34.43V281.2h-34.43Zm-55.432,0h34.43V281.2H122.16Zm-34.721,0H121.86V281.2H87.439Zm-34.73,0H87.13V281.2H52.709Zm141.939-10.237v-9.988H167.092v0H139.533v9.987h55.115Zm69.766-.051h34.43V270.91h-34.43Zm-34.729,0h34.429V270.91H229.685Zm-34.731,0h34.431V270.91H194.954Zm-90.158,0h34.429V270.91H104.8Zm-34.731,0H104.5V270.91H70.065Zm-34.729,0h34.43V270.91H35.336Zm141.949-10.243v-9.988H156.9v9.988h20.388Zm104.5-.044h34.429v-9.987H281.78Zm-34.73,0h34.421v-9.987H247.05Zm-34.73,0h34.422v-9.987H212.32Zm-34.727,0h34.43v-9.987h-34.43Zm-55.432,0h34.43v-9.987H122.16Zm-34.721,0H121.86v-9.987H87.439Zm-34.73,0H87.13v-9.987H52.709Zm-34.737,0H52.4v-9.987H17.973Zm176.676-10.253v-9.987H139.533v9.987h55.115Zm69.766-.033h34.43v-9.988h-34.43Zm-34.729,0h34.429v-9.988H229.685Zm-34.731,0h34.431v-9.988H194.954Zm-90.158,0h34.429v-9.987H104.8Zm-34.731,0H104.5v-9.987H70.065Zm-34.729,0h34.43v-9.987H35.336Zm141.949-10.253v-9.988H156.9v9.988h20.388Zm104.5-.034h34.429v-9.988H281.78Zm-34.73,0h34.421v-9.988H247.05Zm-34.73,0h34.422v-9.988H212.32Zm-34.727,0h34.43v-9.988h-34.43Zm-55.432,0h34.43v-9.988H122.16Zm-34.721,0H121.86v-9.988H87.439Zm-34.73,0H87.13v-9.988H52.709Zm-34.739,0H52.4v-9.988H17.97Zm176.678-10.261v-9.988H139.533v9.988h55.115Zm104.488-.025h34.43v-9.988h-34.43Zm-34.722,0h34.43v-9.988h-34.43Zm-34.729,0h34.429v-9.988H229.685Zm-34.731,0h34.431v-9.988H194.954Zm-90.158,0h34.429v-9.988H104.8Zm-34.731,0H104.5v-9.988H70.065Zm-34.729,0h34.43v-9.988H35.336Zm-34.72,0h34.43v-9.988H.616ZM177.285,229.48v-9.987H156.9v9.987h20.388Zm104.5-.025h34.429v-9.987H281.78Zm-34.73,0h34.421v-9.987H247.05Zm-34.73,0h34.422v-9.987H212.32Zm-34.727,0h34.43v-9.987h-34.43Zm-55.432,0h34.43v-9.987H122.16Zm-34.721,0H121.86v-9.987H87.439Zm-34.73,0H87.13v-9.987H52.709Zm-34.739,0H52.4v-9.987H17.97Zm176.678-10.261v-9.988H139.533v9.988h55.115Zm69.766-.026h34.43v-9.988h-34.43Zm-34.729,0h34.429v-9.988H229.685Zm-34.731,0h34.431v-9.988H194.954Zm-90.158,0h34.429v-9.988H104.8Zm-34.731,0H104.5v-9.988H70.065Zm-34.729,0h34.43v-9.988H35.336Zm141.949-10.261v-9.988H156.9v9.988h20.388Zm104.5-.025h34.429v-9.988H281.78Zm-34.73,0h34.421v-9.988H247.05Zm-34.73,0h34.422v-9.988H212.32Zm-34.727,0h34.43v-9.988h-34.43Zm-55.432,0h34.43v-9.988H122.16Zm-34.721,0H121.86v-9.988H87.439Zm-34.73,0H87.13v-9.988H52.709Zm-34.739,0H52.4v-9.988H17.97Zm176.678-10.271v-9.988H139.533v9.988h55.115Zm69.766-.016h34.43v-9.987h-34.43Zm-34.729,0h34.429v-9.987H229.685Zm-34.731,0h34.431v-9.987H194.954Zm-90.158,0h34.429v-9.987H104.8Zm-34.731,0H104.5v-9.987H70.065Zm-34.729,0h34.43v-9.987H35.336Zm141.949-10.279v-9.987H156.9v9.987h20.388Zm69.765-.008h34.421v-9.988H247.05Zm-34.73,0h34.422v-9.988H212.32Zm-34.727,0h34.43v-9.988h-34.43Zm-55.432,0h34.43v-9.988H122.16Zm-34.721,0H121.86v-9.988H87.439Zm-34.73,0H87.13v-9.988H52.709Zm141.939-10.286v-9.989H139.533v9.989h55.115Zm.305-.01h34.431v-9.988H194.954Zm-90.158,0h34.429v-9.988H104.8Zm72.489-10.279v-9.987H156.9v9.987h20.388Zm35.035-.009h34.422v-9.986H212.32Zm-34.727,0h34.43v-9.986h-34.43Zm-55.432,0h34.43v-9.986H122.16Zm-34.721,0H121.86v-9.986H87.439Zm107.515-10.286h34.431V147.45H194.954Zm-.305,0V147.45H139.533v9.987h55.115Zm-89.853,0h34.429V147.45H104.8ZM212.32,147.15h34.422v-9.988H212.32Zm-34.727,0h34.43v-9.988h-34.43Zm-55.432,0h34.43v-9.988H122.16Zm-34.721,0H121.86v-9.988H87.439Zm89.846-.008v-9.988H156.9v9.988h20.388Zm17.669-10.278h34.431v-9.988H194.954Zm-90.158,0h34.429v-9.988H104.8Zm89.853-.018v-9.987H139.533v9.987h55.115Zm17.671-10.271h34.422v-9.986H212.32Zm-34.727,0h34.43v-9.986h-34.43Zm-55.432,0h34.43v-9.986H122.16Zm-34.721,0H121.86v-9.986H87.439Zm89.846-.024v-9.988H156.9v9.988h20.388Zm52.4-10.262h34.429V106.3H229.685Zm-34.731,0h34.431V106.3H194.954Zm-90.158,0h34.429V106.3H104.8Zm-34.731,0H104.5V106.3H70.065Zm124.583-.024v-9.988H139.533v9.988h55.115ZM247.05,106h34.421V96.014H247.05Zm-34.73,0h34.422V96.014H212.32Zm-34.727,0h34.43V96.014h-34.43Zm-55.432,0h34.43V96.014H122.16Zm-34.721,0H121.86V96.014H87.439Zm-34.73,0H87.13V96.014H52.709Zm124.576-.025V95.989H156.9v9.988h20.388Zm87.13-10.263h34.43V85.728h-34.43Zm-34.729,0h34.429V85.728H229.685Zm-34.731,0h34.431V85.728H194.954Zm-90.158,0h34.429V85.728H104.8Zm-34.731,0H104.5V85.728H70.065Zm-34.729,0h34.43V85.728H35.336Zm159.313-.033V85.694H139.533v9.987h55.115Zm52.4-10.253h34.421V75.44H247.05Zm-34.73,0h34.422V75.44H212.32Zm-34.727,0h34.43V75.44h-34.43Zm-55.432,0h34.43V75.44H122.16Zm-34.721,0H121.86V75.44H87.439Zm-34.73,0H87.13V75.44H52.709Zm124.576-.034V75.406H156.9v9.988h20.388Zm17.669-10.253h34.431V65.154H194.954Zm-90.158,0h34.429V65.154H104.8Zm89.853-.044V65.111H139.533V75.1h55.115ZM212.32,64.854h34.422V54.865H212.32Zm-34.727,0h34.43V54.865h-34.43Zm-55.432,0h34.43V54.865H122.16Zm-34.721,0H121.86V54.865H87.439Zm89.846-.051V54.816H156.9V64.8h20.388Zm17.669-10.235h34.431V44.579H194.954Zm-90.158,0h34.429V44.579H104.8Zm89.853-.06V44.519H139.533v9.988h55.115ZM177.592,44.28h34.43V34.293h-34.43Zm-55.432,0h34.43V34.293H122.16Zm55.125-.06V34.232H156.9V44.22h20.388Zm17.364-10.288V23.946H139.533v9.987h55.115ZM177.592,23.7h34.43V13.709h-34.43Zm-55.432,0h34.43V13.709H122.16Zm55.125-.051V13.658H156.9v9.988h20.388Zm17.669-10.237h34.431V3.424H194.954Zm-90.158,0h34.429V3.424H104.8Zm89.853-.058V3.363H139.533v9.988h55.115ZM298.836,44.528h-11.1c-.016-.1-.024-.2-.033-.3H301.84a1.5,1.5,0,0,1-.036.3h-2.661v4.655c-.1.078-.206.154-.307.223Zm-263.8,4.655V44.528H32.375a1.615,1.615,0,0,1-.035-.3H46.478c-.008.1-.017.2-.033.3h-11.1v4.878C35.242,49.337,35.14,49.261,35.036,49.183Zm252.691-4.655h.008Z" fill="#402373"/>
    </clipPath>
    <clipPath id="clip-path-3">
      <rect id="Rectángulo_399078" data-name="Rectángulo 399078" width="306.693" height="287.233" fill="#fff" stroke="#707070" stroke-width="1" opacity="0.72"/>
    </clipPath>
    <clipPath id="clip-path-4">
      <rect id="Rectángulo_399077" data-name="Rectángulo 399077" width="279.387" height="278.872" fill="none"/>
    </clipPath>
    <clipPath id="clip-path-6">
      <rect id="Rectángulo_399070" data-name="Rectángulo 399070" width="10.242" height="40.987" fill="none"/>
    </clipPath>
    <clipPath id="clip-path-7">
      <rect id="Rectángulo_399075" data-name="Rectángulo 399075" width="55.195" height="11.116" fill="none"/>
    </clipPath>
    <clipPath id="clip-path-8">
      <rect id="Rectángulo_399079" data-name="Rectángulo 399079" width="487.452" height="147.753" fill="#ffb6c8"/>
    </clipPath>
    <clipPath id="clip-path-9">
      <rect id="Rectángulo_399137" data-name="Rectángulo 399137" width="69.348" height="59.144" transform="translate(0 0)" fill="none"/>
    </clipPath>
  </defs>
  <g id="_3" data-name="3" clip-path="url(#clip-path)">
    <path id="Trazado_866124" data-name="Trazado 866124" d="M419.982,455.887c31.075,0,81.556-13.929,87.757-54.746,5.164-33.984-19.508-67.206-57.856-80.357-50.1-17.183-35.051-33.389-18.125-64.44,18.125-33.249-19.353-80.165-71.7-50.246S287.4,251.584,249.3,237c-62.54-23.94-89.943,43.248-47.307,71.3s45.97,67.1,24.543,87.986a53.178,53.178,0,0,0-7.17,8.648c-14.135,21.177-9.682,50.949,52.057,50.949H419.983Z" transform="translate(-100.759 -186.957)" fill="#553392"/>
    <path id="Trazado_866125" data-name="Trazado 866125" d="M329.775,376.341c-44.192-10.238-101.431,31.553-130.364,36.23-9.352,1.513-15.754-1.145-17.317-11.431-5.164-33.984,19.508-67.206,57.856-80.357,50.1-17.183,35.051-33.389,18.125-64.44-18.125-33.249,19.353-80.165,71.7-50.246S402.429,251.584,440.53,237c62.54-23.94,89.943,43.248,47.307,71.3s-45.97,67.1-24.543,87.986a53.177,53.177,0,0,1,7.17,8.648c14.135,21.177,9.682,50.949-52.057,50.949,0,0-29.554-65.86-88.632-79.546Z" transform="translate(-74.759 -119.957)" fill="#613e9f"/>
    <g id="Grupo_1091881" data-name="Grupo 1091881" transform="translate(71.339 -7.087)">
      <g id="Grupo_1091880" data-name="Grupo 1091880" transform="translate(0 0)">
        <g id="Enmascarar_grupo_1078815" data-name="Enmascarar grupo 1078815" clip-path="url(#clip-path-2)">
          <path id="Trazado_866126" data-name="Trazado 866126" d="M419.982,455.887c31.075,0,81.556-13.929,87.757-54.746,5.164-33.984-19.508-67.206-57.856-80.357-50.1-17.183-35.051-33.389-18.125-64.44,18.125-33.249-19.353-80.165-71.7-50.246S287.4,251.584,249.3,237c-62.54-23.94-89.943,43.248-47.307,71.3s45.97,67.1,24.543,87.986a53.178,53.178,0,0,0-7.17,8.648c-14.135,21.177-9.682,50.949,52.057,50.949H419.983Z" transform="translate(-172.099 -179.87)" fill="#402373"/>
        </g>
        <g id="Grupo_1091879" data-name="Grupo 1091879" transform="translate(7.168 7.783)">
          <g id="Enmascarar_grupo_1078816" data-name="Enmascarar grupo 1078816" clip-path="url(#clip-path-3)">
            <g id="Grupo_1091878" data-name="Grupo 1091878" transform="translate(7.784 8.361)">
              <g id="Grupo_1091877" data-name="Grupo 1091877" clip-path="url(#clip-path-4)">
                <g id="Grupo_1091876" data-name="Grupo 1091876">
                  <g id="Grupo_1091875" data-name="Grupo 1091875" clip-path="url(#clip-path-4)">
                    <path id="Trazado_866129" data-name="Trazado 866129" d="M273.826,95.012c-8.114-5.494-7.117-12.17-4.632-20.766,1.721-10.568-2.63-15.357-7.159-20.357,3.1-5.187,5.393-10.452,2.83-19.47-8.611-25.536-20.509-22.745-43.381-20.185a16.249,16.249,0,0,0-5.4,1.4c-7.708,1.8-13.281,7.339-17.9,21.048-2.107,7.417-.929,12.293,1.279,16.677-3.9,4.451-7.129,9.276-5.608,18.625,2.486,8.6,3.483,15.272-4.631,20.766-7,7.02-7.675,19.391-1.484,27.132,9.962.093,20.095.279,30.213.456.505.827,1.087,1.7,1.755,2.635,18.342-.171,37.265-.657,55.606-.827,6.191-7.742,5.515-20.113-1.483-27.133" transform="translate(-40.661 -2.8)"/>
                    <path id="Trazado_866130" data-name="Trazado 866130" d="M298.827,331.4H238.38L236.8,312.779,234.909,331.4H174.773q.573-2.973,1.2-5.914.514-2.4,1.059-4.76c.684-2.945,1.4-5.858,2.149-8.716.621-2.364,1.266-4.7,1.918-7q1-3.475,2.038-6.83c.343-1.13.693-2.245,1.043-3.351q.656-2.066,1.321-4.076l.717-2.148c.127-.359.247-.717.366-1.067,1.711-5.007,3.455-9.75,5.158-14.176v-.008c1.656-4.291,3.287-8.286,4.824-11.924q.752-1.779,1.481-3.439v-.008c2.014-4.641,3.845-8.6,5.357-11.773,2.626-5.492,4.291-8.573,4.291-8.573h58.218s.095.175.278.525c.359.684,1.059,2.022,2.015,3.948.557,1.13,1.21,2.468,1.942,3.988,1.791,3.757,4.043,8.652,6.527,14.479,2.213,5.19,4.6,11.112,7,17.622,1.083,2.921,2.173,5.946,3.248,9.082.174.518.358,1.035.533,1.552v.008c1.751,5.19,3.47,10.65,5.078,16.318q.788,2.77,1.544,5.612,1.145,4.263,2.173,8.652.884,3.7,1.672,7.474c.31,1.489.613,2.993.9,4.5" transform="translate(-38.728 -52.66)" fill="#101e2b"/>
                    <path id="Trazado_866131" data-name="Trazado 866131" d="M292.86,123.908l-53.983,33.015-.071-1.689L185.737,123.4a174.9,174.9,0,0,1,14.973-13.142.059.059,0,0,1,.032-.016A97.435,97.435,0,0,1,217.951,99.17a36.883,36.883,0,0,1,8.477-2.97l5.293-21.818H239.3l7.586-3.176L251.541,96.2a39.146,39.146,0,0,1,8.334,2.977,97.86,97.86,0,0,1,17.057,10.841c1.942,1.488,3.789,2.977,5.477,4.4.23.191.469.4.716.6.087.072.175.151.271.231.072.063.151.127.223.191.191.16.382.326.573.494,3.9,3.351,6.806,6.137,8.032,7.339.072.072.151.143.223.215.112.12.231.231.35.342a.486.486,0,0,1,.064.072" transform="translate(-41.158 -15.779)" fill="#d08e82"/>
                    <path id="Trazado_866132" data-name="Trazado 866132" d="M243.538,78.956l16.151-7.75s-3.445,10.695-8.97,11.349c-5.9.7-7.182-3.6-7.182-3.6" transform="translate(-53.966 -15.779)" fill="#c16c61"/>
                    <path id="Trazado_866133" data-name="Trazado 866133" d="M237.308,141.337s4.086,5.106,10.445,5.106a10.232,10.232,0,0,0,8.956-5.106l15.709,32.842L247.261,193.03,223.9,165.107Z" transform="translate(-49.614 -31.319)" fill="#d15a09"/>
                    <path id="Trazado_866134" data-name="Trazado 866134" d="M213.317,31.951A25.021,25.021,0,0,1,219.034,10.6c4.2-4.73,10.692-8.533,20.45-6.9,21.956,3.68,23.46,22.8,21.239,32.635,0,0-1.785,25.937-23.36,27.542-15.47,1.15-21.738-19.913-24.047-31.928" transform="translate(-47.166 -0.735)" fill="#d08e82"/>
                    <path id="Trazado_866135" data-name="Trazado 866135" d="M241.055,68.931a6.2,6.2,0,0,0,5.654-1.734.313.313,0,0,0-.474-.409,5.583,5.583,0,0,1-6.314,1.164.313.313,0,1,0-.227.583,7.77,7.77,0,0,0,1.361.4" transform="translate(-53.07 -14.776)" fill="#c16c61"/>
                    <path id="Trazado_866136" data-name="Trazado 866136" d="M257.928,38.177l.432-.373a1.416,1.416,0,0,0-.079-2.205,12.162,12.162,0,0,0-9.167-2.208,1.411,1.411,0,0,0-1.165,1.734l.134.552a1.419,1.419,0,0,0,1.572,1.066,8.842,8.842,0,0,1,6.518,1.509,1.411,1.411,0,0,0,1.755-.075" transform="translate(-54.934 -7.368)"/>
                    <path id="Trazado_866137" data-name="Trazado 866137" d="M215.821,43.917l-.514-.248a1.416,1.416,0,0,1-.5-2.15,12.165,12.165,0,0,1,8.284-4.507,1.413,1.413,0,0,1,1.575,1.374l.013.568a1.418,1.418,0,0,1-1.243,1.435,8.847,8.847,0,0,0-5.906,3.146,1.409,1.409,0,0,1-1.714.382" transform="translate(-47.533 -8.199)"/>
                    <path id="Trazado_866138" data-name="Trazado 866138" d="M248.044,45.485a12.865,12.865,0,0,1,6.506-.143l.841-2.124a11.615,11.615,0,0,0-7.347,2.267" transform="translate(-54.964 -9.572)"/>
                    <path id="Trazado_866139" data-name="Trazado 866139" d="M246.26,48.957s2.015-3.6,7.884-3.339c0,0-.769-2.116-4.931-.664-3.618,1.263-2.952,4-2.952,4" transform="translate(-54.558 -9.849)"/>
                    <path id="Trazado_866140" data-name="Trazado 866140" d="M227.3,48.649a12.867,12.867,0,0,0-6.114,2.228L219.627,49.2a11.616,11.616,0,0,1,7.67-.555" transform="translate(-48.667 -10.698)"/>
                    <path id="Trazado_866141" data-name="Trazado 866141" d="M230.184,51.179s-3.184-2.62-8.558-.249c0,0-.052-2.252,4.353-2.409,3.83-.137,4.2,2.658,4.2,2.658" transform="translate(-49.11 -10.751)"/>
                    <path id="Trazado_866142" data-name="Trazado 866142" d="M237.767,50.811a16.483,16.483,0,0,1-1.106,6.845,1.875,1.875,0,0,0-.187.763c.031.63.688,1.025,1.285,1.226a7.467,7.467,0,0,0,4.214.152" transform="translate(-52.4 -11.259)" fill="none" stroke="#c16c61" stroke-linecap="round" stroke-miterlimit="10" stroke-width="0.981"/>
                    <path id="Trazado_866143" data-name="Trazado 866143" d="M210.885,31.859c7.976-2.025,14.984-6.338,17.77-14.081,7.852,13.032,21.424,4.177,26.923,15.437.982,2.017,1.369,4.469,3.113,5.881,13.941-18.2-7.713-46.15-29.766-37.465-7.265-.463-10.5,2.751-13.357,5.759-3.99,4.2-6.71,11.677-4.682,24.469" transform="translate(-46.578 0)"/>
                    <path id="Trazado_866144" data-name="Trazado 866144" d="M272.172,35.152c8.491.43,1.783,14.735-4.715,12.857.153.017.6-7.251.628-7.955-.42-2.436,2-4.88,4.087-4.9" transform="translate(-59.266 -7.789)" fill="#d08e82"/>
                    <path id="Trazado_866145" data-name="Trazado 866145" d="M358.293,226.08c.005.181.012.371.017.549q-.009-.3-.017-.549" transform="translate(-79.395 -50.097)" fill="#fff"/>
                    <path id="Trazado_866146" data-name="Trazado 866146" d="M358.315,226.784c.005.167.011.346.017.532-.006-.178-.012-.35-.017-.532" transform="translate(-79.399 -50.253)" fill="#fff"/>
                    <path id="Trazado_866147" data-name="Trazado 866147" d="M358.352,227.967c.009.279.018.576.028.887-.009-.287-.019-.589-.028-.887" transform="translate(-79.408 -50.515)" fill="#fff"/>
                    <path id="Trazado_866148" data-name="Trazado 866148" d="M358.336,227.469c0,.131.009.259.012.388,0-.133-.009-.262-.012-.388" transform="translate(-79.404 -50.405)" fill="#fff"/>
                    <path id="Trazado_866149" data-name="Trazado 866149" d="M358.281,225.714q0,.132.009.285l-.009-.285" transform="translate(-79.392 -50.016)" fill="#fff"/>
                    <path id="Trazado_866150" data-name="Trazado 866150" d="M358.25,224.716l0,.047,0-.047" transform="translate(-79.385 -49.795)" fill="#fff"/>
                    <path id="Trazado_866151" data-name="Trazado 866151" d="M273.593,131.317c-.1-.079-3.588-3.472-5.215-4.924-1.509-1.347-5.006-4.373-5.236-4.564-3.4-2.9-5.445-4.417-5.445-4.417a.085.085,0,0,1-.032.016c-5.237-4.027-14.172-10.033-20.007-12.787l-18.12,59.692L200.773,105.64s-73.445,11.533-94.541,14.2,9.361,34.294,9.361,34.294,42.666,1.677,57.59.011L160.275,275.5H280.067l-7.9-66.673,28.592-10.72c-1.175-37.235-27.163-66.791-27.163-66.791" transform="translate(-21.891 -23.187)" fill="#fff"/>
                    <path id="Trazado_866152" data-name="Trazado 866152" d="M358.388,229.107c0,.142.009.276.013.416,0-.142-.009-.279-.013-.416" transform="translate(-79.415 -50.768)" fill="#fff"/>
                    <path id="Trazado_866153" data-name="Trazado 866153" d="M358.265,225.209c0,.133.008.262.012.394,0-.151-.009-.285-.012-.394" transform="translate(-79.388 -49.904)" fill="#fff"/>
                    <path id="Trazado_866154" data-name="Trazado 866154" d="M358.257,224.943c0,.057,0,.124.006.207,0-.07,0-.136-.006-.207" transform="translate(-79.387 -49.845)" fill="#fff"/>
                    <path id="Trazado_866155" data-name="Trazado 866155" d="M358.251,224.777c0,.044,0,.085,0,.129,0-.057,0-.1,0-.129" transform="translate(-79.385 -49.809)" fill="#fff"/>
                    <path id="Trazado_866156" data-name="Trazado 866156" d="M358.579,235.162c.014.454.028.89.041,1.3-.014-.432-.027-.867-.041-1.3" transform="translate(-79.458 -52.11)" fill="#fff"/>
                    <path id="Trazado_866157" data-name="Trazado 866157" d="M358.844,243.549l.028.88c-.009-.254-.018-.55-.028-.88" transform="translate(-79.517 -53.968)" fill="#fff"/>
                    <path id="Trazado_866158" data-name="Trazado 866158" d="M358.9,245.47c0,.042,0,.082,0,.117,0-.036,0-.074,0-.117" transform="translate(-79.53 -54.394)" fill="#fff"/>
                    <path id="Trazado_866159" data-name="Trazado 866159" d="M358.879,244.68c.008.247.014.454.019.615,0-.155-.012-.359-.019-.615" transform="translate(-79.524 -54.219)" fill="#fff"/>
                    <path id="Trazado_866160" data-name="Trazado 866160" d="M358.909,245.62c0,.066,0,.121.005.164,0-.042,0-.1-.005-.164" transform="translate(-79.531 -54.427)" fill="#fff"/>
                    <path id="Trazado_866161" data-name="Trazado 866161" d="M358.916,245.831c0,.146,0,.138,0,0" transform="translate(-79.533 -54.474)" fill="#fff"/>
                    <path id="Trazado_866162" data-name="Trazado 866162" d="M358.769,241.187c.009.279.017.543.025.787-.008-.251-.016-.515-.025-.787" transform="translate(-79.5 -53.445)" fill="#fff"/>
                    <path id="Trazado_866163" data-name="Trazado 866163" d="M358.66,237.715c.008.241.015.479.023.7q-.012-.348-.023-.7" transform="translate(-79.476 -52.675)" fill="#fff"/>
                    <path id="Trazado_866164" data-name="Trazado 866164" d="M358.632,236.835q.01.346.022.685c-.008-.223-.015-.449-.022-.685" transform="translate(-79.47 -52.48)" fill="#fff"/>
                    <path id="Trazado_866165" data-name="Trazado 866165" d="M358.688,238.62c.022.7.044,1.374.063,2-.019-.587-.04-1.248-.063-2" transform="translate(-79.482 -52.876)" fill="#fff"/>
                    <path id="Trazado_866166" data-name="Trazado 866166" d="M358.8,242.2c.012.379.023.732.033,1.052-.01-.309-.021-.659-.033-1.052" transform="translate(-79.507 -53.669)" fill="#fff"/>
                    <path id="Trazado_866167" data-name="Trazado 866167" d="M358.405,229.641c.041,1.294.088,2.791.135,4.3-.04-1.263-.085-2.691-.135-4.3" transform="translate(-79.419 -50.886)" fill="#fff"/>
                    <path id="Trazado_866168" data-name="Trazado 866168" d="M227.3,105.214l-12.311,13.249,10.065,3.736-.889,4.29,21.12,37.97" transform="translate(-47.641 -23.315)" fill="#fff"/>
                    <path id="Trazado_866169" data-name="Trazado 866169" d="M227.3,105.214l-12.311,13.249,10.065,3.736-.889,4.29,21.12,37.97" transform="translate(-47.641 -23.315)" fill="none" stroke="#a3a3a3" stroke-miterlimit="10" stroke-width="0.981"/>
                    <path id="Trazado_866170" data-name="Trazado 866170" d="M271.987,105.214,284.3,118.464,274.234,122.2l.889,4.29L254,164.459" transform="translate(-56.285 -23.315)" fill="#fff"/>
                    <path id="Trazado_866171" data-name="Trazado 866171" d="M271.987,105.214,284.3,118.464,274.234,122.2l.889,4.29L254,164.459" transform="translate(-56.285 -23.315)" fill="none" stroke="#a3a3a3" stroke-miterlimit="10" stroke-width="0.981"/>
                    <path id="Trazado_866172" data-name="Trazado 866172" d="M255.174,209.685a1.762,1.762,0,1,1-1.762-1.762,1.763,1.763,0,0,1,1.762,1.762" transform="translate(-55.763 -46.074)" fill="#fff"/>
                    <ellipse id="Elipse_5526" data-name="Elipse 5526" cx="1.762" cy="1.762" rx="1.762" ry="1.762" transform="translate(195.528 164.922) rotate(-76.717)" fill="none" stroke="#a3a3a3" stroke-miterlimit="10" stroke-width="0.981"/>
                    <path id="Trazado_866173" data-name="Trazado 866173" d="M255.174,247.335a1.762,1.762,0,1,1-1.762-1.762,1.763,1.763,0,0,1,1.762,1.762" transform="translate(-55.763 -54.417)" fill="#fff"/>
                    <circle id="Elipse_5527" data-name="Elipse 5527" cx="1.762" cy="1.762" r="1.762" transform="translate(195.886 191.156)" fill="none" stroke="#a3a3a3" stroke-miterlimit="10" stroke-width="0.981"/>
                    <path id="Trazado_866174" data-name="Trazado 866174" d="M255.174,285.977a1.762,1.762,0,1,1-1.762-1.762,1.763,1.763,0,0,1,1.762,1.762" transform="translate(-55.763 -62.979)" fill="#fff"/>
                    <circle id="Elipse_5528" data-name="Elipse 5528" cx="1.762" cy="1.762" r="1.762" transform="translate(195.886 221.235)" fill="none" stroke="#a3a3a3" stroke-miterlimit="10" stroke-width="0.981"/>
                    <path id="Trazado_866175" data-name="Trazado 866175" d="M314.051,295.135a17.658,17.658,0,0,0-2.7,2.74c-.045.061-.091.115-.145.176v.008a24.648,24.648,0,0,0-3.122,5.022c-.023.054-.045.1-.068.153a25.7,25.7,0,0,0-1.519,4.206c-.114.4-.214.817-.305,1.236l-15.7-10.06v-.008l2.275-3.931.054-.107,3.053-5.289.13-.222,1.1-1.908Z" transform="translate(-64.369 -63.63)" fill="#d08e82"/>
                    <path id="Trazado_866176" data-name="Trazado 866176" d="M282.93,313.158c-.4-.417-1.395.241-1.879.685-.782.718-1.356,1.179-2.074,1.774a9.948,9.948,0,0,1-2.071,1.333,8.9,8.9,0,0,1-2.423,2.652,3.152,3.152,0,0,1-1.18.611,1.138,1.138,0,0,1-1.186-.425c2.111-5.488,4.881-10.68,9.42-14.744,0,0,5.614-6.538,13.918-4.54,0,0,11.179,1.5,5.662,13.737-4.767,10.571-9.6,15.061-10.828,16.084a.629.629,0,0,1-.987-.712c.882-2.222,4.256-7.566,5.086-9.241l-.188-.144a45.257,45.257,0,0,1-9.038,12.125.669.669,0,0,1-1.094-.7c1.355-4.194,6.96-13.336,6.96-13.336l-.239-.13c-3.23,6.354-9.772,13.339-11.443,15a.652.652,0,0,1-1.066-.7c1.2-3.061,9.142-16.591,9.142-16.591l-.386-.251a86.714,86.714,0,0,1-10.112,13.916.647.647,0,0,1-1.08-.666,89.2,89.2,0,0,1,6.368-13.081c1.3-2.208.962-2.411.721-2.66" transform="translate(-60.298 -66.505)" fill="#d08e82"/>
                    <path id="Trazado_866177" data-name="Trazado 866177" d="M273.919,322.353a1.8,1.8,0,0,1-1.165,1.549.314.314,0,0,1-.21-.022l.919-2.115a.55.55,0,0,1,.163-.212A.935.935,0,0,1,273.919,322.353Z" transform="translate(-60.393 -71.253)" fill="none" stroke="#c16c61" stroke-linecap="round" stroke-miterlimit="10" stroke-width="0.49"/>
                    <path id="Trazado_866178" data-name="Trazado 866178" d="M277.471,337.3h0a.413.413,0,0,0,.564-.148l.258-.441a.412.412,0,0,0-.711-.416l-.258.441A.411.411,0,0,0,277.471,337.3Z" transform="translate(-61.44 -74.474)" fill="none" stroke="#c16c61" stroke-linecap="round" stroke-miterlimit="10" stroke-width="0.49"/>
                    <path id="Trazado_866179" data-name="Trazado 866179" d="M280.541,342.05h0a.412.412,0,0,0,.564-.147l.258-.442a.412.412,0,1,0-.711-.416l-.258.441A.413.413,0,0,0,280.541,342.05Z" transform="translate(-62.12 -75.527)" fill="none" stroke="#c16c61" stroke-linecap="round" stroke-miterlimit="10" stroke-width="0.49"/>
                    <path id="Trazado_866180" data-name="Trazado 866180" d="M287.984,340.963h0a.412.412,0,0,0,.564-.147l.258-.442a.412.412,0,1,0-.711-.416l-.258.441A.413.413,0,0,0,287.984,340.963Z" transform="translate(-63.769 -75.286)" fill="none" stroke="#c16c61" stroke-linecap="round" stroke-miterlimit="10" stroke-width="0.49"/>
                    <path id="Trazado_866181" data-name="Trazado 866181" d="M294.631,338.4h0a.412.412,0,0,0,.575-.09l.3-.413a.412.412,0,0,0-.665-.485l-.3.413A.412.412,0,0,0,294.631,338.4Z" transform="translate(-65.25 -74.73)" fill="none" stroke="#c16c61" stroke-linecap="round" stroke-miterlimit="10" stroke-width="0.49"/>
                    <path id="Trazado_866182" data-name="Trazado 866182" d="M341.317,235.5c-4.893,13.755-13.259,29.893-27.549,43.533a1.677,1.677,0,0,1-.168.16q-2.221,2.13-4.641,4.152l-.321-.175-2.145-1.2-8.175-4.557-4.947-2.756-.122-.069-.251-.137,14.091-60.563,2.511-9.817c11.962-1.153,17.344-8.244,30.626-6.5,0,0,7.266,20.572,1.091,37.923" transform="translate(-64.926 -43.721)" fill="#fff"/>
                    <g id="Grupo_1091871" data-name="Grupo 1091871" transform="translate(227.697 189.831)" opacity="0.3">
                      <g id="Grupo_1091870" data-name="Grupo 1091870">
                        <g id="Grupo_1091869" data-name="Grupo 1091869" clip-path="url(#clip-path-6)">
                          <line id="Línea_651" data-name="Línea 651" x1="9.498" y2="40.814" transform="translate(0.372 0.087)" fill="none" stroke="#101e2b" stroke-miterlimit="10" stroke-width="0.981"/>
                        </g>
                      </g>
                    </g>
                    <path id="Trazado_866183" data-name="Trazado 866183" d="M313.661,299.522q-2.221,2.13-4.641,4.153l-.321-.176c-.023.054-.046.1-.069.153l-1.947-1.091-8.633-4.847-4.672-2.619-.107-.061.038-.114,2.008-5.886.588.335.581.328,15.335,8.771v.008Z" transform="translate(-64.986 -64.047)" fill="#fff"/>
                    <path id="Trazado_866184" data-name="Trazado 866184" d="M314.579,299.384a1.677,1.677,0,0,1-.168.16l-17.755-10.153.076-.259Z" transform="translate(-65.736 -64.069)" fill="#eaeaea"/>
                    <path id="Trazado_866185" data-name="Trazado 866185" d="M312.929,304.3a1.1,1.1,0,1,1,1.4-.687,1.1,1.1,0,0,1-1.4.687" transform="translate(-69.177 -66.955)" fill="#73b7f9"/>
                    <rect id="Rectángulo_399071" data-name="Rectángulo 399071" width="2.861" height="33.478" transform="translate(160.95 198.304)" fill="#73b7f9"/>
                    <rect id="Rectángulo_399072" data-name="Rectángulo 399072" width="4.948" height="8.232" transform="translate(160.03 190.296)"/>
                    <path id="Trazado_866186" data-name="Trazado 866186" d="M203.7,252.7v-8.232l-6.033,3.146a1.1,1.1,0,0,0,0,1.941Z" transform="translate(-43.671 -54.172)" fill="#73b7f9"/>
                    <path id="Trazado_866187" data-name="Trazado 866187" d="M203.744,245.858l-5.9,2.319a.732.732,0,0,0,0,1.43l5.9,2.319" transform="translate(-43.714 -54.48)" fill="none" stroke="#fff" stroke-miterlimit="10" stroke-width="0.227"/>
                    <path id="Trazado_866188" data-name="Trazado 866188" d="M203.744,247.561l-5.9,1.305c-.767.17-.767.635,0,.806l5.9,1.305" transform="translate(-43.714 -54.857)" fill="none" stroke="#fff" stroke-miterlimit="10" stroke-width="0.227"/>
                    <rect id="Rectángulo_399073" data-name="Rectángulo 399073" width="6.19" height="2.237" transform="translate(159.286 207.918)"/>
                    <rect id="Rectángulo_399074" data-name="Rectángulo 399074" width="6.19" height="21.627" transform="translate(159.286 210.154)" fill="#73b7f9"/>
                    <line id="Línea_652" data-name="Línea 652" y2="9.389" transform="translate(163.379 198.528)" fill="none" stroke="#fff" stroke-miterlimit="10" stroke-width="0.227"/>
                    <line id="Línea_653" data-name="Línea 653" y2="9.389" transform="translate(162.713 198.528)" fill="none" stroke="#fff" stroke-miterlimit="10" stroke-width="0.227"/>
                    <line id="Línea_654" data-name="Línea 654" y2="9.389" transform="translate(162.048 198.528)" fill="none" stroke="#fff" stroke-miterlimit="10" stroke-width="0.227"/>
                    <line id="Línea_655" data-name="Línea 655" y2="9.389" transform="translate(161.382 198.528)" fill="none" stroke="#fff" stroke-miterlimit="10" stroke-width="0.227"/>
                    <line id="Línea_656" data-name="Línea 656" x1="6.472" transform="translate(153.558 194.412)" fill="none" stroke="#fff" stroke-miterlimit="10" stroke-width="0.227"/>
                    <path id="Trazado_866189" data-name="Trazado 866189" d="M211.731,253.2h0a.747.747,0,0,0,.747-.747v-8.123a.747.747,0,1,0-1.494,0v8.123a.746.746,0,0,0,.746.747" transform="translate(-46.752 -53.975)" fill="#73b7f9"/>
                    <path id="Trazado_866190" data-name="Trazado 866190" d="M212.9,258.548a4.865,4.865,0,1,1,9.729,0v10.164l-8.12-6.558.01-.005a4.832,4.832,0,0,1-1.62-3.6" transform="translate(-47.178 -56.214)" fill="#a3a3a3"/>
                    <path id="Trazado_866191" data-name="Trazado 866191" d="M224.363,272.426v28.111l-3.654-15.613,1.2-14.482Z" transform="translate(-48.907 -59.927)" fill="#a3a3a3"/>
                    <path id="Trazado_866192" data-name="Trazado 866192" d="M235.133,258.548a4.865,4.865,0,1,0-9.73,0v10.164l8.12-6.558-.011-.005a4.832,4.832,0,0,0,1.621-3.6" transform="translate(-49.947 -56.214)" fill="#a3a3a3"/>
                    <path id="Trazado_866193" data-name="Trazado 866193" d="M225.4,272.426v28.111l3.654-15.613-1.2-14.482Z" transform="translate(-49.947 -59.927)" fill="#a3a3a3"/>
                    <path id="Trazado_866194" data-name="Trazado 866194" d="M227.712,259.159a3.068,3.068,0,1,0,3.068-3.068,3.068,3.068,0,0,0-3.068,3.068" transform="translate(-50.459 -56.747)" fill="#fff"/>
                    <path id="Trazado_866195" data-name="Trazado 866195" d="M215.548,259.159a3.068,3.068,0,1,0,3.068-3.068,3.068,3.068,0,0,0-3.068,3.068" transform="translate(-47.763 -56.747)" fill="#fff"/>
                    <path id="Trazado_866196" data-name="Trazado 866196" d="M213.838,303.068h0a13.8,13.8,0,0,0,13.8-13.8v-13.8h-27.6v13.8a13.8,13.8,0,0,0,13.8,13.8" transform="translate(-44.327 -61.042)" fill="#fff"/>
                    <path id="Trazado_866197" data-name="Trazado 866197" d="M213.838,303.068h0a13.8,13.8,0,0,0,13.8-13.8v-13.8h-27.6v13.8A13.8,13.8,0,0,0,213.838,303.068Z" transform="translate(-44.327 -61.042)" fill="none" stroke="#a3a3a3" stroke-miterlimit="10" stroke-width="0.981"/>
                    <path id="Trazado_866198" data-name="Trazado 866198" d="M233.851,99.207l-.777,3.2c-9.948,3.887-14.619,12.637-14.619,23.89v12.993a1.346,1.346,0,0,1-1.36,1.359,1.363,1.363,0,0,1-1.359-1.359V126.3c0-12.857,6.563-23.148,18.115-27.089" transform="translate(-47.805 -21.983)" fill="#73b7f9"/>
                    <path id="Trazado_866199" data-name="Trazado 866199" d="M286.25,125.779v14.678a1.347,1.347,0,0,1-1.359,1.359,1.363,1.363,0,0,1-1.359-1.359V125.779c0-10.574-4.506-19.163-13.449-23.485l-.669-3.588c10.6,4.431,16.836,14.9,16.836,27.074" transform="translate(-59.7 -21.872)" fill="#73b7f9"/>
                    <path id="Trazado_866200" data-name="Trazado 866200" d="M273.463,177.391v-3.1a12.33,12.33,0,0,1,24.659,0v3.1" transform="translate(-60.597 -35.89)" fill="none" stroke="#a3a3a3" stroke-miterlimit="10" stroke-width="0.873"/>
                    <path id="Trazado_866201" data-name="Trazado 866201" d="M302.311,178.54v12.793a9.94,9.94,0,0,1-9.94,9.94" transform="translate(-64.787 -39.563)" fill="none" stroke="#a3a3a3" stroke-miterlimit="10" stroke-width="1.746"/>
                    <path id="Trazado_866202" data-name="Trazado 866202" d="M294.911,206.927h0a1.417,1.417,0,0,1-.893,1.544l-1.6.613a1.417,1.417,0,0,1-1.907-1.1l-.111-.7a1.418,1.418,0,0,1,1.475-1.637l1.712.09a1.418,1.418,0,0,1,1.326,1.195" transform="translate(-64.346 -45.568)" fill="#131c2d"/>
                    <path id="Trazado_866203" data-name="Trazado 866203" d="M273.463,178.54v12.793a9.94,9.94,0,0,0,9.94,9.94" transform="translate(-60.597 -39.563)" fill="none" stroke="#a3a3a3" stroke-miterlimit="10" stroke-width="1.746"/>
                    <path id="Trazado_866204" data-name="Trazado 866204" d="M282.4,206.927h0a1.417,1.417,0,0,0,.894,1.544l1.6.613a1.418,1.418,0,0,0,1.907-1.1l.111-.7a1.417,1.417,0,0,0-1.474-1.637l-1.713.09a1.418,1.418,0,0,0-1.326,1.195" transform="translate(-62.573 -45.568)" fill="#131c2d"/>
                    <path id="Trazado_866205" data-name="Trazado 866205" d="M285.406,152.356A13.7,13.7,0,0,1,299.1,166.043v9.219a1.359,1.359,0,1,1-2.718,0v-9.219a10.971,10.971,0,0,0-21.942,0v9.219a1.359,1.359,0,1,1-2.718,0v-9.219a13.7,13.7,0,0,1,13.689-13.687" transform="translate(-60.21 -33.761)" fill="#131c2d"/>
                    <path id="Trazado_866206" data-name="Trazado 866206" d="M288.622,141.337h0a2.39,2.39,0,0,1,2.39,2.39V149.9a2.39,2.39,0,0,1-4.779,0v-6.177a2.39,2.39,0,0,1,2.39-2.39" transform="translate(-63.426 -31.319)" fill="#131c2d"/>
                    <path id="Trazado_866207" data-name="Trazado 866207" d="M222.055,148.885a6.378,6.378,0,1,1-6.378-6.378,6.378,6.378,0,0,1,6.378,6.378" transform="translate(-46.379 -31.578)" fill="#131c2d"/>
                    <path id="Trazado_866208" data-name="Trazado 866208" d="M220.265,149.6a3.878,3.878,0,1,1-3.877-3.877,3.878,3.878,0,0,1,3.877,3.877" transform="translate(-47.09 -32.29)" fill="#a3a3a3"/>
                    <path id="Trazado_866209" data-name="Trazado 866209" d="M57.573,136.242s5.9-4.351,8.076-5.766c0,0-6.049-5.953-9.908-3.672Z" transform="translate(-12.352 -27.983)" fill="#d08e82"/>
                    <path id="Trazado_866210" data-name="Trazado 866210" d="M131.383,217.23,90.8,236.8,0,195.8c19.28-44.583,54.43-65.027,54.43-65.027a76.191,76.191,0,0,0,72.729,0,213.287,213.287,0,0,1,39.279,40.7c7.134,9.669-35.056,45.764-35.056,45.764" transform="translate(0 -28.977)" fill="#f32957"/>
                    <path id="Trazado_866211" data-name="Trazado 866211" d="M153.7,134.38H101.74L72.78,134.1l-6.893-.061-14.916-.146a167.792,167.792,0,0,1,14.916-13.03c2.183-1.687,4.5-3.381,6.893-4.969,5.724-3.8,11.808-7.007,17.213-8.084l5.053-20.832.023-.091h13.939l.068.29,5,20.633c16.9,3.656,39.625,26.572,39.625,26.572" transform="translate(-11.295 -19.253)" fill="#eaa298"/>
                    <path id="Trazado_866212" data-name="Trazado 866212" d="M107.534,86.887h14.179a7.417,7.417,0,0,1-7.143,5.177c-4.477,0-7.036-5.177-7.036-5.177" transform="translate(-23.829 -19.253)" fill="#c16c61"/>
                    <path id="Trazado_866213" data-name="Trazado 866213" d="M133.356,39.2a23.042,23.042,0,1,1-23.042-23.042A23.042,23.042,0,0,1,133.356,39.2" transform="translate(-19.339 -3.58)" fill="#eaa298"/>
                    <path id="Trazado_866214" data-name="Trazado 866214" d="M129.81,58.711c0,11.1-8.1,20.1-18.084,20.1s-18.084-9-18.084-20.1,8.1-20.1,18.084-20.1,18.084,9,18.084,20.1" transform="translate(-20.75 -8.557)" fill="#eaa298"/>
                    <path id="Trazado_866215" data-name="Trazado 866215" d="M110.315,80.232S89.709,81.921,87.273,45.04h25.12Z" transform="translate(-19.339 -9.98)" fill="#eaa298"/>
                    <path id="Trazado_866216" data-name="Trazado 866216" d="M116.282,80.232s20.605,1.689,23.042-35.192H114.2Z" transform="translate(-25.307 -9.98)" fill="#eaa298"/>
                    <path id="Trazado_866217" data-name="Trazado 866217" d="M94.981,55.84l-.461-.3a1.357,1.357,0,0,1-.225-2.1A11.673,11.673,0,0,1,102.7,50.1a1.355,1.355,0,0,1,1.343,1.489l-.053.543a1.362,1.362,0,0,1-1.348,1.226,8.484,8.484,0,0,0-5.987,2.32,1.353,1.353,0,0,1-1.677.168" transform="translate(-20.806 -11.101)" fill="#d15a09"/>
                    <path id="Trazado_866218" data-name="Trazado 866218" d="M135.89,55.815l.455-.306a1.358,1.358,0,0,0,.177-2.109,11.674,11.674,0,0,0-8.482-3.154,1.355,1.355,0,0,0-1.308,1.519l.065.542a1.361,1.361,0,0,0,1.375,1.195,8.489,8.489,0,0,1,6.038,2.184,1.353,1.353,0,0,0,1.681.13" transform="translate(-28.08 -11.133)" fill="#d15a09"/>
                    <path id="Trazado_866219" data-name="Trazado 866219" d="M134.786,60.346l-1.831-.341c-4.244,2.334-6.41,1.584-6.41,1.584,2.475,2.271,6.776.812,8.241-1.243" transform="translate(-28.041 -13.297)" fill="#112339"/>
                    <path id="Trazado_866220" data-name="Trazado 866220" d="M101.038,61.186l1.786-.527c4.461,1.887,6.539.919,6.539.919-2.229,2.513-6.657,1.5-8.325-.392" transform="translate(-22.389 -13.441)" fill="#112339"/>
                    <path id="Trazado_866221" data-name="Trazado 866221" d="M118.723,57.753c-.525,3.019-.465,5.851.936,8.317" transform="translate(-26.24 -12.798)" fill="none" stroke="#e58077" stroke-linecap="round" stroke-miterlimit="10" stroke-width="0.82"/>
                    <path id="Trazado_866222" data-name="Trazado 866222" d="M113.781,73.186a1.03,1.03,0,0,1,1.37-.091" transform="translate(-25.213 -16.149)" fill="none" stroke="#e58077" stroke-linecap="round" stroke-miterlimit="10" stroke-width="0.82"/>
                    <path id="Trazado_866223" data-name="Trazado 866223" d="M118.827,73.186a1.029,1.029,0,0,1,1.369-.091" transform="translate(-26.331 -16.149)" fill="none" stroke="#e58077" stroke-linecap="round" stroke-miterlimit="10" stroke-width="0.82"/>
                    <path id="Trazado_866224" data-name="Trazado 866224" d="M113.121,80.621a4.623,4.623,0,0,0,6.029,0" transform="translate(-25.067 -17.865)" fill="none" stroke="#e58077" stroke-linecap="round" stroke-miterlimit="10" stroke-width="0.735"/>
                    <path id="Trazado_866225" data-name="Trazado 866225" d="M134.221,42.694a59.415,59.415,0,0,1-2.875,12.2,1.3,1.3,0,0,1-2.5-.444,5.634,5.634,0,0,1,1.091-2.829c.634-1.045.758-1.451,1.523-2.9a8.171,8.171,0,0,0,.47-2.215c.248-1.979-.974-.529-2.457-1.856-2.006-1.783-1.764-4.946-3.659-6.847-2.365-2.359-5.932-.647-9.421-1.038-1.457-.157-4.149-2.071-6.1-4.345-1.96,2.247-4.652,4.109-6.1,4.345-3.96.653-7.05-1.32-9.415,1.038-1.895,1.9-1.653,5.064-3.659,6.847-1.483,1.326-2.711-.124-2.463,1.856a8.17,8.17,0,0,0,.47,2.215c.764,1.45.888,1.856,1.523,2.9a5.633,5.633,0,0,1,1.091,2.829,1.3,1.3,0,0,1-2.5.444,59.362,59.362,0,0,1-2.875-12.2,25.049,25.049,0,0,1,.692-10.715A22.1,22.1,0,0,1,99.215,17.958,24.879,24.879,0,0,1,110.3,15.547c-.2,0-.392.007-.588.013h1.169c-.2-.006-.385-.013-.581-.013a24.847,24.847,0,0,1,11.074,2.411,22.1,22.1,0,0,1,12.159,14.021,25.049,25.049,0,0,1,.693,10.715" transform="translate(-19.075 -3.445)" fill="#d15a09"/>
                    <path id="Trazado_866226" data-name="Trazado 866226" d="M105.188,29.2c-5,2.253-7.242,3.781-10.014,6.465-2.981,2.889-4.554,8.095-5.571,13.645l1.351,5.138-2.13-.265S86.43,45.2,88.471,37.711A20.139,20.139,0,0,1,98.879,24.544c2.766-1.417,12.344-2.622,12.344.681a19.334,19.334,0,0,1-6.036,3.971" transform="translate(-19.422 -5.121)"/>
                    <path id="Trazado_866227" data-name="Trazado 866227" d="M122.745,29.2c5,2.253,7.243,3.781,10.014,6.465,2.981,2.889,4.554,8.095,5.571,13.645l-1.351,5.138,2.2-.585s2.324-8.662.283-16.147a20.139,20.139,0,0,0-10.408-13.168c-2.766-1.417-12.344-2.622-12.344.681a19.334,19.334,0,0,0,6.036,3.971" transform="translate(-25.862 -5.121)"/>
                    <path id="Trazado_866228" data-name="Trazado 866228" d="M114.881,19.214S104.431,16.32,107.149,0c0,0,1.611,13.678,7.733,19.213" transform="translate(-23.643 0)"/>
                    <path id="Trazado_866229" data-name="Trazado 866229" d="M115.01,19.214C108.888,13.679,107.277,0,107.277,0s7.931,5.275,7.733,19.213" transform="translate(-23.772 0)" fill="#224d82"/>
                    <path id="Trazado_866230" data-name="Trazado 866230" d="M117.114,19.444c8.381-9.931,11.419-18.4,11.419-18.4s4.023,9.763-11.419,18.4" transform="translate(-25.951 -0.23)"/>
                    <path id="Trazado_866231" data-name="Trazado 866231" d="M128.534,1.04s-3.038,8.473-11.419,18.4c0,0,.153-12.771,11.419-18.4" transform="translate(-25.952 -0.23)" fill="#224d82"/>
                    <path id="Trazado_866232" data-name="Trazado 866232" d="M113.645,25.179a16.621,16.621,0,0,1-3.121,2.458,19.389,19.389,0,0,1-1.734.964,9.755,9.755,0,0,1-1.871.719,26.052,26.052,0,0,1,3.2-2.331,20.575,20.575,0,0,1,3.526-1.811" transform="translate(-23.692 -5.579)" fill="#224d82"/>
                    <path id="Trazado_866233" data-name="Trazado 866233" d="M114.35,25.229a5.451,5.451,0,0,1-1.948.868,5.317,5.317,0,0,1-2.121.125,5.941,5.941,0,0,1,4.069-.993" transform="translate(-24.437 -5.577)" fill="#224d82"/>
                    <path id="Trazado_866234" data-name="Trazado 866234" d="M113.578,25a12.812,12.812,0,0,1-3.471.188A11.885,11.885,0,0,1,106.7,24.5a16.823,16.823,0,0,1,3.462-.076,15.623,15.623,0,0,1,3.418.574" transform="translate(-23.643 -5.401)" fill="#224d82"/>
                    <path id="Trazado_866235" data-name="Trazado 866235" d="M118.226,25.036a9.077,9.077,0,0,1,1.892-.645,14.093,14.093,0,0,1,1.965-.313,9.86,9.86,0,0,1,3.961.391c-.67.093-1.316.14-1.963.2l-1.934.17c-1.291.1-2.577.214-3.92.2" transform="translate(-26.198 -5.326)" fill="#224d82"/>
                    <path id="Trazado_866236" data-name="Trazado 866236" d="M118.3,25.245a10.233,10.233,0,0,1,5.488.7,9.111,9.111,0,0,1-2.791.028,9.217,9.217,0,0,1-2.7-.729" transform="translate(-26.214 -5.567)" fill="#224d82"/>
                    <path id="Trazado_866237" data-name="Trazado 866237" d="M118.248,25.329a9.116,9.116,0,0,1,2.825.95,8.806,8.806,0,0,1,2.419,1.742,12.264,12.264,0,0,1-2.767-1.063,12.045,12.045,0,0,1-2.477-1.63" transform="translate(-26.203 -5.613)" fill="#224d82"/>
                    <path id="Trazado_866238" data-name="Trazado 866238" d="M88.221,51.864c-6.4.325-1.344,11.1,3.553,9.689-.114.013-.455-5.464-.473-6a3.438,3.438,0,0,0-3.079-3.694" transform="translate(-18.882 -11.493)" fill="#eaa298"/>
                    <path id="Trazado_866239" data-name="Trazado 866239" d="M144.5,51.864c6.4.325,1.344,11.1-3.553,9.689.114.013.455-5.464.473-6a3.438,3.438,0,0,1,3.079-3.694" transform="translate(-31.233 -11.493)" fill="#eaa298"/>
                    <path id="Trazado_866240" data-name="Trazado 866240" d="M96.859,17.268a7.34,7.34,0,1,1-7.34-7.34,7.34,7.34,0,0,1,7.34,7.34" transform="translate(-18.21 -2.2)" fill="#d15a09"/>
                    <path id="Trazado_866241" data-name="Trazado 866241" d="M148.522,17.268a7.34,7.34,0,1,1-7.34-7.34,7.34,7.34,0,0,1,7.34,7.34" transform="translate(-29.658 -2.2)" fill="#d15a09"/>
                    <path id="Trazado_866242" data-name="Trazado 866242" d="M159.423,332.5H101.455l-1.511-17.862L98.127,332.5H40.457q.549-2.851,1.152-5.671.493-2.3,1.016-4.565c.656-2.825,1.344-5.619,2.06-8.359.6-2.268,1.214-4.512,1.84-6.71q.961-3.332,1.954-6.55c.328-1.084.664-2.152,1-3.214q.629-1.98,1.267-3.908l.687-2.061c.122-.343.237-.687.351-1.023,1.642-4.8,3.313-9.351,4.947-13.595v-.008c1.588-4.115,3.153-7.947,4.626-11.435q.72-1.706,1.42-3.3V262.1c1.931-4.45,3.687-8.252,5.137-11.29,2.519-5.267,4.115-8.221,4.115-8.221h55.831s.091.167.267.5c.343.656,1.015,1.939,1.931,3.786.534,1.084,1.161,2.366,1.863,3.824,1.717,3.6,3.877,8.3,6.259,13.885,2.122,4.976,4.412,10.656,6.717,16.9,1.038,2.8,2.085,5.7,3.114,8.71.168.5.344.992.512,1.488v.008c1.679,4.977,3.328,10.214,4.87,15.648q.755,2.656,1.481,5.382,1.1,4.088,2.084,8.3.847,3.549,1.6,7.168c.3,1.428.588,2.871.862,4.313" transform="translate(-8.965 -53.755)" fill="#2a5381"/>
                    <path id="Trazado_866243" data-name="Trazado 866243" d="M48.6,334.6a356.5,356.5,0,0,1,9.237-35.671c.091-.305.191-.611.283-.916s.191-.6.282-.908c.107-.328.214-.664.321-.992.054-.175.107-.351.168-.534,1.9-5.954,3.824-11.534,5.649-16.58.672-1.87,1.336-3.664,1.977-5.381q.939-2.52,1.809-4.786c2.572-6.648,4.679-11.664,5.862-14.411.656-1.534,1.031-2.359,1.031-2.359" transform="translate(-10.77 -55.854)" fill="none" stroke="#568bba" stroke-miterlimit="10" stroke-width="1.679"/>
                    <path id="Trazado_866244" data-name="Trazado 866244" d="M177.386,334.6a357.794,357.794,0,0,0-9.435-36.312c-5.488-17.564-11.274-32.213-14.534-40.052-.664-1.58-1.214-2.886-1.641-3.885-.649-1.489-1.008-2.29-1.008-2.29" transform="translate(-33.409 -55.854)" fill="none" stroke="#568bba" stroke-miterlimit="10" stroke-width="1.679"/>
                    <path id="Trazado_866245" data-name="Trazado 866245" d="M145.869,236.207a40.857,40.857,0,0,1-59.8,36.2h-.016c-.343-.176-.679-.359-1.015-.55v-.008h-.015a40.858,40.858,0,1,1,60.845-35.64" transform="translate(-14.216 -43.288)" fill="#eaa298"/>
                    <path id="Trazado_866246" data-name="Trazado 866246" d="M115.957,268.705a2.406,2.406,0,1,1,2.406-2.406" transform="translate(-25.162 -58.476)" fill="none" stroke="#e58077" stroke-linecap="round" stroke-miterlimit="10" stroke-width="0.981"/>
                    <path id="Trazado_866247" data-name="Trazado 866247" d="M61.257,225.956s15.8,9.947,39.032,9.947a107.02,107.02,0,0,0,40.588-7.951l10.277-48.8H72.024L42.841,214.619Z" transform="translate(-9.493 -39.699)" fill="#f32957"/>
                    <path id="Trazado_866248" data-name="Trazado 866248" d="M64.76,255.81s12.663,10.944,42.092,10.944,38.68-10.944,38.68-10.944l-2.293,10.944-13.1,34.006H85.621L69.468,278.285Z" transform="translate(-14.35 -56.685)" fill="#2a5381"/>
                    <path id="Trazado_866249" data-name="Trazado 866249" d="M67.748,270.03s8.808,23.543,38.06,23.543c0,0,28.536,1.558,38.093-23.7,0,0-2.858,27.483-38.093,26.456-34.462-1-38.06-26.3-38.06-26.3" transform="translate(-15.012 -59.801)" fill="#1a3f60"/>
                    <path id="Trazado_866250" data-name="Trazado 866250" d="M77.026,124.149V237.581H70.133V129.118c2.183-1.687,4.5-3.381,6.893-4.969" transform="translate(-15.541 -27.51)" fill="#2a5381"/>
                    <path id="Trazado_866251" data-name="Trazado 866251" d="M157.664,126.7V237.116h-6.893V122.051Z" transform="translate(-33.409 -27.045)" fill="#2a5381"/>
                    <g id="Grupo_1091874" data-name="Grupo 1091874" transform="translate(63.198 151.681)" opacity="0.25">
                      <g id="Grupo_1091873" data-name="Grupo 1091873">
                        <g id="Grupo_1091872" data-name="Grupo 1091872" clip-path="url(#clip-path-7)">
                          <path id="Trazado_866252" data-name="Trazado 866252" d="M81.188,205.976a33.3,33.3,0,0,1,5.914-4.744,40.029,40.029,0,0,1,6.771-3.473,37.289,37.289,0,0,1,7.318-2.137,38.247,38.247,0,0,1,15.19,0,37.359,37.359,0,0,1,7.318,2.136,40.121,40.121,0,0,1,6.771,3.474,33.306,33.306,0,0,1,5.914,4.745,36.028,36.028,0,0,0-6.11-4.427,40.008,40.008,0,0,0-6.787-3.245,41.639,41.639,0,0,0-29.4,0,40.051,40.051,0,0,0-6.789,3.245,36.014,36.014,0,0,0-6.109,4.428" transform="translate(-81.188 -194.86)" fill="#fff"/>
                        </g>
                      </g>
                    </g>
                    <path id="Trazado_866253" data-name="Trazado 866253" d="M76.375,282.122A24.176,24.176,0,0,1,89.723,290.3l9.033-16.319-11.265-6.944Z" transform="translate(-16.924 -59.173)" fill="#eaa298"/>
                    <path id="Trazado_866254" data-name="Trazado 866254" d="M110.313,284.562c.156-.559,1.342-.452,1.979-.29,1.03.26,1.754.392,2.669.574a9.933,9.933,0,0,0,2.456.189,8.89,8.89,0,0,0,3.392,1.181,3.156,3.156,0,0,0,1.329-.023,1.138,1.138,0,0,0,.841-.937c-4.466-3.825-9.372-7.076-15.3-8.493,0,0-8.046-3.083-14.4,2.622,0,0-9.118,6.638,1.549,14.777,9.22,7.034,15.609,8.685,17.173,9a.629.629,0,0,0,.529-1.1c-1.832-1.535-7.341-4.633-8.867-5.713l.1-.216a45.28,45.28,0,0,0,13.715,6.37.669.669,0,0,0,.631-1.134c-3.186-3.046-12.462-8.424-12.462-8.424l.148-.228c5.863,4.055,14.939,7.09,17.2,7.756a.652.652,0,0,0,.606-1.121c-2.51-2.124-15.93-10.251-15.93-10.251l.22-.4a86.709,86.709,0,0,0,15.512,7.435.646.646,0,0,0,.634-1.1,89.094,89.094,0,0,0-11.821-8.482c-2.194-1.325-1.992-1.663-1.9-2" transform="translate(-19.865 -61.143)" fill="#eaa298"/>
                    <path id="Trazado_866255" data-name="Trazado 866255" d="M129.152,286.244a1.8,1.8,0,0,0,1.762.809.316.316,0,0,0,.175-.119l-1.815-1.424a.547.547,0,0,0-.244-.108A.936.936,0,0,0,129.152,286.244Z" transform="translate(-28.58 -63.242)" fill="none" stroke="#e58077" stroke-miterlimit="10" stroke-width="0.208"/>
                    <path id="Trazado_866256" data-name="Trazado 866256" d="M133.189,301.007h0a.411.411,0,0,1-.566.138l-.437-.265a.412.412,0,1,1,.427-.7l.437.265A.412.412,0,0,1,133.189,301.007Z" transform="translate(-29.247 -66.503)" fill="none" stroke="#e58077" stroke-miterlimit="10" stroke-width="0.208"/>
                    <path id="Trazado_866257" data-name="Trazado 866257" d="M132.747,306.649h0a.411.411,0,0,1-.566.138l-.437-.265a.412.412,0,1,1,.427-.7l.437.265A.412.412,0,0,1,132.747,306.649Z" transform="translate(-29.149 -67.753)" fill="none" stroke="#e58077" stroke-miterlimit="10" stroke-width="0.208"/>
                    <path id="Trazado_866258" data-name="Trazado 866258" d="M125.682,309.232h0a.411.411,0,0,1-.566.138l-.437-.265a.412.412,0,1,1,.427-.7l.437.265A.412.412,0,0,1,125.682,309.232Z" transform="translate(-27.584 -68.326)" fill="none" stroke="#e58077" stroke-miterlimit="10" stroke-width="0.208"/>
                    <path id="Trazado_866259" data-name="Trazado 866259" d="M118.607,310.145h0a.411.411,0,0,1-.549.194l-.462-.22a.412.412,0,1,1,.355-.743l.462.22A.412.412,0,0,1,118.607,310.145Z" transform="translate(-26.006 -68.546)" fill="none" stroke="#e58077" stroke-miterlimit="10" stroke-width="0.208"/>
                    <path id="Trazado_866260" data-name="Trazado 866260" d="M17.066,245.668c12.01,10.831,29.158,22.2,51.215,26.716L78.1,256.967l-41.19-46.582-6.88-7.443c-11.071,4.672-19.171.994-30.026,8.848,0,0,3.386,21.546,17.066,33.878" transform="translate(0 -44.97)" fill="#f32957"/>
                    <path id="Trazado_866261" data-name="Trazado 866261" d="M134.243,230.222a24.174,24.174,0,0,0-15.653.218l.564-18.644,13.231-.22Z" transform="translate(-26.278 -46.883)" fill="#eaa298"/>
                    <path id="Trazado_866262" data-name="Trazado 866262" d="M98.6,213.819c.15-.56-.923-1.073-1.553-1.26-1.018-.3-1.709-.557-2.588-.869a9.912,9.912,0,0,1-2.208-1.091,8.886,8.886,0,0,1-3.52-.717,3.141,3.141,0,0,1-1.13-.7,1.137,1.137,0,0,1-.245-1.235c5.793-1.009,11.671-1.3,17.489.507,0,0,8.493,1.456,11.046,9.608,0,0,4.453,10.363-8.876,11.915-11.518,1.341-17.854-.5-19.362-1.027a.628.628,0,0,1,.1-1.212c2.359-.385,8.678-.236,10.54-.385l.027-.236a45.289,45.289,0,0,1-15.046-1.524.669.669,0,0,1,.037-1.3c4.294-.992,15.017-.881,15.017-.881l-.011-.272c-7.112.494-16.465-1.531-18.748-2.111a.652.652,0,0,1,.051-1.273c3.242-.545,18.931-.681,18.931-.681l.016-.46a86.669,86.669,0,0,1-17.134-1.526.646.646,0,0,1,.016-1.268,89.128,89.128,0,0,1,14.494-1.257c2.564-.019,2.563-.414,2.653-.749" transform="translate(-17.524 -45.901)" fill="#eaa298"/>
                    <path id="Trazado_866263" data-name="Trazado 866263" d="M92.666,208.419a1.8,1.8,0,0,1-1.927-.2.315.315,0,0,1-.09-.191l2.287-.3a.551.551,0,0,1,.265.032A.934.934,0,0,1,92.666,208.419Z" transform="translate(-20.087 -46.029)" fill="none" stroke="#e58077" stroke-miterlimit="10" stroke-width="0.208"/>
                    <path id="Trazado_866264" data-name="Trazado 866264" d="M81.974,219h0a.411.411,0,0,0,.416.407l.511,0a.412.412,0,0,0-.009-.824l-.511,0A.413.413,0,0,0,81.974,219Z" transform="translate(-18.165 -48.434)" fill="none" stroke="#e58077" stroke-miterlimit="10" stroke-width="0.208"/>
                    <path id="Trazado_866265" data-name="Trazado 866265" d="M79.473,224.072h0a.412.412,0,0,0,.416.408l.511-.005a.412.412,0,0,0-.009-.824l-.511,0A.413.413,0,0,0,79.473,224.072Z" transform="translate(-17.61 -49.559)" fill="none" stroke="#e58077" stroke-miterlimit="10" stroke-width="0.208"/>
                    <path id="Trazado_866266" data-name="Trazado 866266" d="M84.23,229.9h0a.411.411,0,0,0,.416.407l.511,0a.412.412,0,0,0-.009-.824l-.512,0A.412.412,0,0,0,84.23,229.9Z" transform="translate(-18.665 -50.85)" fill="none" stroke="#e58077" stroke-miterlimit="10" stroke-width="0.208"/>
                    <path id="Trazado_866267" data-name="Trazado 866267" d="M89.848,234.282h0a.411.411,0,0,0,.373.447l.51.047a.412.412,0,0,0,.074-.82l-.51-.046A.411.411,0,0,0,89.848,234.282Z" transform="translate(-19.909 -51.832)" fill="none" stroke="#e58077" stroke-miterlimit="10" stroke-width="0.208"/>
                    <path id="Trazado_866268" data-name="Trazado 866268" d="M183.532,226.407c-15.856,3.182-36.4,4.2-57.676-3.175l-.569-18.267,59.2-19.025,9.715-2.888a172.7,172.7,0,0,1,18.423,31.087,2.417,2.417,0,0,1-1.167,3.169,122.686,122.686,0,0,1-27.925,9.1" transform="translate(-27.762 -40.563)" fill="#f32957"/>
                    <path id="Trazado_866269" data-name="Trazado 866269" d="M58.738,141.76a5.726,5.726,0,0,1-3.131-2.691A25.867,25.867,0,0,1,54,134.685c-.534-1.508-.93-2.431-1.635-4.408-.177-.485-.369-1.09-.539-1.623a12.579,12.579,0,0,1,2.59-1.584,1.438,1.438,0,0,1,1.741.488,9.562,9.562,0,0,1,1.408,2.415c1.28,6.453,1.371,7.782,1.907,11.09a.609.609,0,0,1-.736.7" transform="translate(-11.484 -28.131)" fill="#d08e82"/>
                    <path id="Trazado_866270" data-name="Trazado 866270" d="M54.207,159.234a1.349,1.349,0,0,1-.441.58c-1.487,1.2-4.744-2.251-8.087-5.173-9.758-8.52-4.311-21.492,5.608-27.146-1.425,4.2.707,11.644,2.777,15.936.876,1.832,1.052,2.886.951,5.753-.012.388-.026.8-.047,1.26-.045,1.038-.116,2.267-.2,3.759l0,.014c-.022.359-.043.718-.056,1.119-.034.553-.058,1.133-.088,1.756a5.7,5.7,0,0,1-.419,2.141" transform="translate(-8.985 -28.252)" fill="#d08e82"/>
                    <path id="Trazado_866271" data-name="Trazado 866271" d="M57.119,153.551l-6.859-11.7.589-.336,6.317,10.776c-.012.388-.026.8-.047,1.26" transform="translate(-11.137 -31.358)" fill="#c16c61"/>
                    <path id="Trazado_866272" data-name="Trazado 866272" d="M56.223,159.384,47.365,146.13l.552-.37,8.365,12.49,0,.014c-.021.359-.043.718-.056,1.119" transform="translate(-10.496 -32.299)" fill="#c16c61"/>
                    <path id="Trazado_866273" data-name="Trazado 866273" d="M54.995,163.979a1.349,1.349,0,0,1-.441.58L44.1,149.3l.556-.4Z" transform="translate(-9.773 -32.997)" fill="#c16c61"/>
                  </g>
                </g>
              </g>
            </g>
          </g>
        </g>
      </g>
    </g>
    <g id="Grupo_1091883" data-name="Grupo 1091883" transform="translate(-66.788 129.369)">
      <g id="Grupo_1091882" data-name="Grupo 1091882" clip-path="url(#clip-path-8)">
        <path id="Trazado_866274" data-name="Trazado 866274" d="M276.023,147.753a17.618,17.618,0,0,1-8.84-2.222c-6.386-3.631-10.8-14.74,4.453-47.046,2.83-6,6.21-12.346,9.925-18.745-8.4,5.541-16.259,9.724-22.306,11.445-15.342,4.364-28.417-2.024-36.686-8.153a66.445,66.445,0,0,1-7.909-6.92,284.829,284.829,0,0,1-39.694,19.052c-11.457,4.572-60.6,15.438-72.006,17.481-1.171.21-.579-.695-.6-.737-.144-.362,61.7-14.07,72.025-18.19a287.35,287.35,0,0,0,39.193-18.736c-4.692-5.025-7.758-9.821-8.866-12.471C199.881,50.953,206.4,38.657,215,32.956c6.823-4.526,17.2-6.216,25.859,2.615A11.9,11.9,0,0,1,244.135,46.8c-1.825,8.659-11.656,18.479-28.091,28.483a64.341,64.341,0,0,0,7.452,6.5c7.987,5.921,20.6,12.1,35.334,7.906,6.958-1.98,15.683-6.887,24.467-12.9,18.327-30.808,43.6-61.645,51.939-58.458a4,4,0,0,1,2.676,4.25c-.473,10.758-28.687,38.23-53.472,55.225-4.158,7.03-8.04,14.241-11.4,21.347-11.5,24.363-13.31,40.354-5.092,45.027,10.365,5.892,25.357-1.99,35.933-11.331q.347-.306.689-.616a24.526,24.526,0,0,1-7.938-5.081c-6.99-6.7-9.817-17.7-6.722-26.161,2.316-6.331,7.369-10.055,14.228-10.486,12.912-.815,17.519,3.553,19.1,7.36,3.687,8.89-4.789,23.156-15.694,33.718,5.587,1.555,13.2,1.551,23.2-2.6,24.517-10.167,36.065-7.621,44.5-5.763,8.949,1.97,13.879,3.058,27.609-13a132,132,0,0,0,19.115-30.739,47.349,47.349,0,0,1-13.583-7.447c-8.6-6.7-13.142-20.791-10.341-32.084,2.3-9.272,8.974-15.339,18.794-17.08,6.514-1.155,11.407.775,14.154,5.578,4.172,7.3,3.347,21.145-2.263,38-1.34,4.026-2.912,8.078-4.67,12.075,15.561,4.771,31.556.318,42.251-6.36,14.471-9.033,21.759-22.754,19.017-35.808-1.288-6.135-4.954-14.132-10.187-19.279-4.533,4.013-11.64,5.9-15.511,3.882-2.008-1.045-2.793-3.005-2.213-5.52.754-3.266,3.27-5.085,6.871-5.083,3.075.03,7,1.532,10.768,4.639.06-.065.12-.129.178-.195,2.518-2.8,4.622-7.484.35-13.944l1.3-.859c5.076,7.676,1.871,13.222-.491,15.845l-.163.177c4.537,4.193,8.685,10.787,10.623,20.018,2.879,13.709-4.675,28.059-19.715,37.448-11.054,6.9-27.612,11.486-43.718,6.475a134.9,134.9,0,0,1-19.381,31.272c-14.334,16.768-19.9,15.542-29.126,13.509-8.232-1.812-19.5-4.3-43.566,5.682-10.918,4.525-19.163,4.291-25.11,2.4q-.654.6-1.317,1.19c-8.286,7.319-19.251,13.738-28.892,13.739m31.143-55.791q-1.4,0-2.928.1a13.9,13.9,0,0,0-12.863,9.468c-2.892,7.9-.227,18.209,6.338,24.5a22.971,22.971,0,0,0,8.145,5.018c12.2-11.519,18.994-25.227,15.943-32.584-1.772-4.275-6.807-6.5-14.635-6.5M420.381,24.1a18.743,18.743,0,0,0-3.273.307c-9.178,1.627-15.412,7.281-17.555,15.922-2.664,10.743,1.635,24.131,9.787,30.48a45.8,45.8,0,0,0,13.266,7.245c8.693-19.741,12.254-39.7,7.033-48.83-1.949-3.409-5.056-5.124-9.258-5.124m-86.588-4.468c-7.35,0-29.552,25.532-47.483,55.049,7.211-5.131,14.328-10.87,20.4-16.207,17.458-15.336,29.371-29.789,29.642-35.963a2.564,2.564,0,0,0-2.562-2.879M226.661,30.744a19.521,19.521,0,0,0-10.8,3.508c-8.072,5.357-14.217,16.871-9.706,27.659,1.142,2.731,4.287,7.445,8.812,12.246,16.213-9.791,25.89-19.337,27.649-27.683a10.274,10.274,0,0,0-2.867-9.815,18.213,18.213,0,0,0-13.083-5.916M464.183,11.915c-2.812,0-4.676,1.375-5.253,3.876-.417,1.809.058,3.084,1.414,3.79,2.941,1.53,9.381.133,13.643-3.562a15.163,15.163,0,0,0-9.719-4.1h-.086" transform="translate(0)" fill="#ffb6c8"/>
      </g>
    </g>
    <g id="Grupo_1092035" data-name="Grupo 1092035" transform="translate(71.339 33.856)" clip-path="url(#clip-path-9)">
      <path id="Trazado_866459" data-name="Trazado 866459" d="M2.247,16.625C8.508,10.5,16.8,8.793,25.575,11.953,39.9,17.111,47.291,12.572,54.965.062,47.983-.529,40.6,2.937,36.807,11.332a21.523,21.523,0,0,0-2.713-4.5c-9.85-12.472-30.153-7.1-31.847,9.79" transform="translate(-2.132 0.002)" fill="#f24452" fill-rule="evenodd"/>
      <path id="Trazado_866460" data-name="Trazado 866460" d="M1.6,27.958c7.952-8.69,19.356-8.717,30.633-6.925A32.055,32.055,0,0,0,64.463,6.885a17.475,17.475,0,0,0-1.5-1.438A18.013,18.013,0,0,0,52.833,1.255c-9.023,12-15.454,16.022-29.776,10.864-8.775-3.16-17.709-1.643-22.942,5.7-.065.643-.1,1.3-.113,1.979a19.289,19.289,0,0,0,.226,3.149A23.5,23.5,0,0,0,1.6,27.958" transform="translate(0 -1.191)" fill="#f27405" fill-rule="evenodd"/>
      <path id="Trazado_866461" data-name="Trazado 866461" d="M35.947,140.913c18.13-18.669,39.645,3.862,62.925-19.208q-.068-.47-.155-.928a18.207,18.207,0,0,0-4.506-9.082c-8.31,9.819-18.794,15.48-32.424,13.314-11.277-1.793-23.388-1.637-30.441,7.76a30.973,30.973,0,0,0,1.667,3.558,41.308,41.308,0,0,0,2.933,4.587" transform="translate(-29.749 -106.001)" fill="#ffed00" fill-rule="evenodd"/>
      <path id="Trazado_866462" data-name="Trazado 866462" d="M129.221,335.821c17.29-13.324,35.148-2.143,49.559-8.9a33.171,33.171,0,0,0,5.128-10.112,20.425,20.425,0,0,0,.817-5.857,22.422,22.422,0,0,0-.224-2.9c-24.372,22.428-45.759-1.131-62.925,19.208q.984,1.346,2.071,2.649a70.9,70.9,0,0,0,5.574,5.916" transform="translate(-115.378 -292.345)" fill="#04bf33" fill-rule="evenodd"/>
      <path id="Trazado_866463" data-name="Trazado 866463" d="M279.474,693.924c10.257-5.9,20.464-3.392,31.927-5.119q.234-.211.467-.425a67.075,67.075,0,0,0,9.224-10.144c-14.6,5.152-33.939-6.286-49.559,8.9.854.813,1.72,1.605,2.589,2.372,1.793,1.581,3.6,3.059,5.351,4.415" transform="translate(-257.692 -643.661)" fill="#004dff" fill-rule="evenodd"/>
      <path id="Trazado_866464" data-name="Trazado 866464" d="M440.181,897.667c-1.032-.663-3.834-2.369-7.426-4.869-1.682-1.172-3.538-2.517-5.466-4.011,8.909-6.925,20.914-4.869,31.927-5.119a137.7,137.7,0,0,1-19.036,14" transform="translate(-405.507 -838.524)" fill="#b674f3" fill-rule="evenodd"/>
    </g>
  </g>
</svg>
