<svg xmlns="http://www.w3.org/2000/svg" width="990" height="631.418" viewBox="0 0 990 631.418">
  <g id="_3" data-name="3" transform="translate(-323 -715)">
    <g id="Grupo_1088330" data-name="Grupo 1088330" transform="translate(0 -13548.654)">
      <g id="Grupo_1088329" data-name="Grupo 1088329" transform="translate(-10.581 -58.359)">
        <g id="Gingerbread_2" data-name="Gingerbread 2" transform="translate(333.594 14478.675)">
          <path id="Trazado_862559" data-name="Trazado 862559" d="M267.44,348.245a152.331,152.331,0,0,0,24.445,82.763h0a38.294,38.294,0,0,0,23.08,16.278A40.694,40.694,0,0,1,334.189,458c18.584,18.584,15.37,51.93-7.179,74.481-3.377,3.376-14.351,11.755-16.341,13.042l-1.393.9a46.584,46.584,0,0,1-64.229-13.758l-35.226-54.429a25.508,25.508,0,0,0-21.414-11.65h0a25.508,25.508,0,0,0-21.414,11.65l-35.226,54.429a46.583,46.583,0,0,1-64.229,13.758l-1.393-.9c-1.988-1.287-12.965-9.666-16.341-13.042C27.254,509.93,24.04,476.583,42.623,458a40.714,40.714,0,0,1,19.224-10.711,38.3,38.3,0,0,0,23.08-16.278h0a152.331,152.331,0,0,0,24.445-82.763h0a21.423,21.423,0,0,0-16.981-20.958l-59.65-12.642A41.309,41.309,0,0,1,.893,265.666h0a41.309,41.309,0,0,1,48.979-31.847l96.338,19.346a1.1,1.1,0,0,0,.791-2.019,79.029,79.029,0,1,1,82.832-.014,1.1,1.1,0,0,0,.786,2.028l96.321-19.341a41.314,41.314,0,0,1,48.979,31.847h0a41.314,41.314,0,0,1-31.847,48.979l-59.65,12.642a21.422,21.422,0,0,0-16.981,20.958Z" transform="translate(0 -80.165)" fill="#d18072"/>
          <path id="Trazado_862560" data-name="Trazado 862560" d="M431.4,29.854c-3.1-3.762-6.353-12.666-11.821-16.306C403.4,2.769,396.8,32.179,395.3,40.391a5.709,5.709,0,0,0-2.984.506,50.615,50.615,0,0,0-14.544,10.391,5.7,5.7,0,0,0-1.6,3.941c-5.468-.925-39.885-6-34.61,14.061,1.607,6.108,8.1,10.5,10.969,15.861,7.348,13.762,13.859,24.963,23.487,21.459,10.073-3.666,13.527-21.756,14.617-30.476a5.752,5.752,0,0,0,4.9.021A50.583,50.583,0,0,0,410.08,65.765a5.7,5.7,0,0,0,1.555-3.278c9.066,1.746,25.713,3.642,32.083-4.247,6.337-7.847-7.014-21.948-12.313-28.389Z" transform="translate(-260.782 -8.581)" fill="#2d4448"/>
          <path id="Trazado_862561" data-name="Trazado 862561" d="M587.829,472.14a15.65,15.65,0,1,1-15.65-15.65A15.65,15.65,0,0,1,587.829,472.14Zm52.337,0a15.65,15.65,0,1,0,15.65-15.65A15.65,15.65,0,0,0,640.166,472.14ZM564.584,629.525v5.654c1.1,14.1,10.487,31.066,36.372,51.739a20.932,20.932,0,0,0,26.085,0c25.887-20.673,35.269-37.636,36.372-51.739v-5.654c-1.362-16.986-12.558-25.85-22.24-26.8q-2.386-.233-4.475-.231c-11.186,0-16.553,4.835-22.7,12.156-6.144-7.323-11.509-12.156-22.7-12.156q-2.093,0-4.475.231c-9.682.946-20.878,9.81-22.243,26.8Z" transform="translate(-425.59 -349.094)" fill="#b91e18"/>
          <path id="Trazado_862562" data-name="Trazado 862562" d="M185.015,233.861a2.692,2.692,0,0,1-2.628-3.28c1.285-5.715,6.2-7.565,10.153-9.052,3.814-1.435,6.184-2.456,6.8-5.2s-1.089-4.675-3.925-7.6c-2.936-3.035-6.591-6.812-5.306-12.525s6.2-7.567,10.153-9.057c3.817-1.438,6.186-2.456,6.8-5.2s-1.089-4.68-3.925-7.612c-2.937-3.035-6.591-6.814-5.306-12.53a2.69,2.69,0,1,1,5.249,1.179c-.616,2.744,1.089,4.68,3.925,7.612,2.937,3.035,6.591,6.814,5.306,12.53s-6.2,7.567-10.153,9.057c-3.817,1.438-6.186,2.456-6.8,5.2s1.089,4.675,3.925,7.6c2.936,3.035,6.591,6.812,5.308,12.525s-6.2,7.565-10.153,9.052c-3.814,1.435-6.184,2.456-6.8,5.2a2.689,2.689,0,0,1-2.621,2.1Zm98.26,187.647a2.685,2.685,0,0,0,0-3.8c-4.433-4.435-9.737-3.609-14-2.948s-6.984.946-9.367-1.435-2.1-5.111-1.438-9.367,1.487-9.562-2.948-14-9.734-3.607-13.991-2.944-6.981.946-9.362-1.433-2.1-5.111-1.435-9.362,1.487-9.56-2.946-13.993a2.689,2.689,0,1,0-3.8,3.8c2.381,2.381,2.1,5.108,1.435,9.362s-1.487,9.56,2.946,13.993,9.734,3.607,13.993,2.944,6.981-.948,9.36,1.431,2.1,5.111,1.438,9.367-1.487,9.562,2.948,14,9.737,3.612,14,2.948,6.984-.946,9.367,1.438a2.687,2.687,0,0,0,3.8,0ZM470.663,233.861a2.692,2.692,0,0,0,2.628-3.28c-1.285-5.715-6.2-7.565-10.153-9.052-3.814-1.435-6.184-2.456-6.8-5.2s1.089-4.675,3.925-7.6c2.937-3.035,6.591-6.812,5.306-12.525s-6.2-7.567-10.153-9.057c-3.817-1.438-6.186-2.456-6.8-5.2s1.089-4.68,3.925-7.612c2.937-3.035,6.591-6.814,5.306-12.53a2.69,2.69,0,0,0-5.25,1.179c.616,2.744-1.089,4.68-3.925,7.612-2.937,3.035-6.591,6.814-5.306,12.53s6.2,7.567,10.153,9.057c3.817,1.438,6.186,2.456,6.8,5.2s-1.089,4.675-3.925,7.6c-2.936,3.035-6.591,6.812-5.308,12.525s6.2,7.565,10.153,9.052c3.814,1.435,6.184,2.456,6.8,5.2a2.689,2.689,0,0,0,2.621,2.1ZM374.3,422.294a2.684,2.684,0,0,0,1.9-.788c2.384-2.384,5.113-2.1,9.367-1.438s9.562,1.487,14-2.948,3.609-9.737,2.948-14-.946-6.984,1.438-9.367,5.108-2.092,9.36-1.431,9.56,1.489,13.993-2.944,3.609-9.734,2.946-13.993-.946-6.984,1.435-9.362a2.689,2.689,0,0,0-3.8-3.8c-4.433,4.433-3.609,9.734-2.946,13.993s.946,6.984-1.435,9.362-5.108,2.092-9.362,1.433-9.558-1.492-13.991,2.944-3.609,9.737-2.948,14,.946,6.984-1.438,9.367-5.111,2.1-9.367,1.435-9.562-1.485-14,2.948a2.689,2.689,0,0,0,1.9,4.591ZM324.426,51.323c-3.052,3.779-8.137,5.988-15.174,6.6a57.838,57.838,0,0,1-9.541-.042c-2.725-.216-5.318-.572-7.607-.958a8.6,8.6,0,0,1-1.456,2.08l-.028.028a53.5,53.5,0,0,1-15.3,10.93,8.571,8.571,0,0,1-2.854.76,8.763,8.763,0,0,1-.962.028c-.391,2.529-.941,5.466-1.72,8.508-3.014,11.765-7.8,18.915-14.217,21.252a13.392,13.392,0,0,1-3.424.781c-10.29.9-17.167-11.984-23.3-23.48a33.455,33.455,0,0,0-4.452-5.826c-2.772-3.153-5.638-6.414-6.741-10.61-1.708-6.489.4-10.487,2.459-12.7,7.214-7.725,25.038-6.141,32.643-5.049a8.476,8.476,0,0,1,1.751-2.753,53.565,53.565,0,0,1,15.327-10.958,8.589,8.589,0,0,1,1.885-.609c1.588-7.951,5.9-24.186,15.181-28.341,2.76-1.235,7.224-1.927,12.81,1.791,4.094,2.727,6.854,7.581,9.289,11.866a39.579,39.579,0,0,0,3.108,4.96c.511.621,1.1,1.315,1.736,2.068,6.614,7.809,17.685,20.883,10.593,29.666ZM266.444,68.93a10.83,10.83,0,0,1-3.565-4.64c-.24-.546-.5-1.078-.767-1.6a2.523,2.523,0,0,1-.327.306,13.546,13.546,0,0,0-4.078,7.358,2.646,2.646,0,0,1-2.346,2.031,2.683,2.683,0,0,1-.84-.061,2.648,2.648,0,0,1-1.969-3.186,19.942,19.942,0,0,1,4.955-9.377,20.055,20.055,0,0,1-3.927.739,21.886,21.886,0,0,1-4.071-.028,2.648,2.648,0,0,1,.518-5.271,15.663,15.663,0,0,0,6.047-.522c-.073-.068-.144-.141-.216-.209a10.733,10.733,0,0,1-3.417-5.515,78.057,78.057,0,0,0-16.913-.708c-4.859.424-9.247,1.586-11.555,4.061-1.7,1.824-2.1,4.353-1.207,7.734.786,2.984,3.122,5.645,5.6,8.459a37.625,37.625,0,0,1,5.146,6.828c7.221,13.525,12.9,22.892,20.245,20.217,7.664-2.788,11.3-16.948,12.687-26.61Zm21.24-15.944a5.311,5.311,0,0,0-1.887-3.574l-.064-.056a34.444,34.444,0,0,1-8.339-11.673c-.012-.026-.023-.052-.033-.078a5.314,5.314,0,0,0-2.767-2.944,3.1,3.1,0,0,0-2.532.059,48.2,48.2,0,0,0-13.753,9.833,3.08,3.08,0,0,0-.849,2.346,5.311,5.311,0,0,0,1.887,3.574l.064.056A34.48,34.48,0,0,1,267.75,62.2c.012.026.024.052.033.078a5.309,5.309,0,0,0,2.767,2.941,3.1,3.1,0,0,0,2.534-.059,48.2,48.2,0,0,0,13.737-9.817,3.11,3.11,0,0,0,.866-2.362ZM309.793,25.08c-.656-.774-1.259-1.487-1.784-2.125a42.439,42.439,0,0,1-3.621-5.708c-2.144-3.772-4.574-8.047-7.621-10.075-2.911-1.939-5.431-2.384-7.711-1.365-6.391,2.861-10.353,15.925-12.064,24.139a10.536,10.536,0,0,1,5.275,5.654c.04.092.087.181.127.273a15.606,15.606,0,0,0,2.454-5.551A2.648,2.648,0,0,1,290,31.541a20.854,20.854,0,0,1-3.271,7.339,19.954,19.954,0,0,1,10.482-1.652A2.648,2.648,0,1,1,296.7,42.5c-5.162-.508-8.162,1.393-8.287,1.475a2.636,2.636,0,0,1-.4.207c.412.426.831.845,1.271,1.247a10.628,10.628,0,0,1,3.581,6.275c9.52,1.6,22.636,2.247,27.44-3.706,4.341-5.377-5.322-16.786-10.513-22.916Zm71.754,172.2a15.3,15.3,0,0,1-2.421,2.887c-.035.033-.071.064-.108.094a15.976,15.976,0,0,1-3.047,1.972,12.907,12.907,0,0,1-6.007,1.381c-.351,0-.706-.012-1.064-.035a15.193,15.193,0,0,1-3.466-.649,14.212,14.212,0,0,1,.153,3.537,15.4,15.4,0,0,1-.654,3.447,13.427,13.427,0,0,1-1.6,3.257A14.245,14.245,0,0,1,360.92,216a16.209,16.209,0,0,1-3.111,2.04,11.754,11.754,0,0,1-3.675,1.191,15.174,15.174,0,0,1-2.558.216c-.32,0-.638-.009-.955-.031a14.988,14.988,0,0,1-6.692-2.36,16.141,16.141,0,0,1-2.671-2.3,15.731,15.731,0,0,1-1.435,3.144,13.87,13.87,0,0,1-23.981-.014,15.732,15.732,0,0,1-1.428-3.122,15.834,15.834,0,0,1-2.621,2.254,14.987,14.987,0,0,1-6.642,2.386q-.54.035-1.066.035a15.327,15.327,0,0,1-2.581-.219,11.779,11.779,0,0,1-3.7-1.214,15.932,15.932,0,0,1-3.007-1.969,14,14,0,0,1-2.438-2.828,13.509,13.509,0,0,1-1.614-3.275,15.47,15.47,0,0,1-.664-3.513,14.017,14.017,0,0,1,.153-3.5,15.166,15.166,0,0,1-3.457.652q-.536.035-1.059.035a12.994,12.994,0,0,1-6.08-1.414,15.825,15.825,0,0,1-2.984-1.939,1.369,1.369,0,0,1-.106-.094,15.242,15.242,0,0,1-2.419-2.882,13.689,13.689,0,0,1-.544-14.181,15.446,15.446,0,0,1,4.765-5.32,22.371,22.371,0,0,1,6.64-3.193,3.782,3.782,0,0,1,3.977,2.129c5.2,16.57,24.188,22.45,38.866,22.45s33.662-5.88,38.866-22.45a3.789,3.789,0,0,1,3.979-2.129,22.389,22.389,0,0,1,6.647,3.2,15.5,15.5,0,0,1,4.8,5.386,13.656,13.656,0,0,1-.577,14.106Zm-92.89.506a12.067,12.067,0,0,0,2.247-1.028,16.4,16.4,0,0,0,3.591-2.925,33.268,33.268,0,0,1-9.878-13.391,15.583,15.583,0,0,0-3.122,1.706,10.126,10.126,0,0,0-3.16,3.48,8.36,8.36,0,0,0,.282,8.692,10.212,10.212,0,0,0,1.508,1.831,10.448,10.448,0,0,0,1.958,1.259,8.151,8.151,0,0,0,4.329.8,9.866,9.866,0,0,0,2.245-.424Zm25.412,6.052v0a.035.035,0,0,1,0-.021c.019-.085.054-.16.08-.24a2.352,2.352,0,0,1,.089-.266c.026-.056.061-.106.089-.16.007-.014.016-.028.024-.042a49.289,49.289,0,0,1-15.426-6.1c-2.454,2.937-3.729,6.193-3.487,9a10.105,10.105,0,0,0,.431,2.313,8.184,8.184,0,0,0,.974,1.932,8.533,8.533,0,0,0,1.435,1.692,10.587,10.587,0,0,0,1.988,1.287,6.567,6.567,0,0,0,2.1.687,9.773,9.773,0,0,0,2.336.132,9.439,9.439,0,0,0,4.1-1.5c2.539-1.732,4.424-4.833,5.257-8.706Zm22.28,1.148a.094.094,0,0,0,0-.016c-.016-.078-.016-.155-.026-.231a2.582,2.582,0,0,1-.033-.3c0-.082.014-.16.019-.24a2.032,2.032,0,0,1,.017-.209,65.024,65.024,0,0,1-8.485.56h0a65.022,65.022,0,0,1-8.485-.56,2394.391,2394.391,0,0,1,.035.449,2.641,2.641,0,0,1-.033.3c-.009.078-.009.153-.026.231a.044.044,0,0,1,0,.016V205c-.885,3.922-.489,7.426,1.139,10.137a8.493,8.493,0,0,0,14.744.014c1.638-2.722,2.031-6.228,1.146-10.151v-.009ZM356.741,197a49.241,49.241,0,0,1-15.424,6.1c.007.014.016.028.026.045.028.054.064.1.089.158a2.562,2.562,0,0,1,.089.268c.026.08.061.155.08.238a.035.035,0,0,0,0,.021v0a13.863,13.863,0,0,0,5.3,8.737,9.488,9.488,0,0,0,4.153,1.48,10.033,10.033,0,0,0,2.2-.134,6.568,6.568,0,0,0,2.08-.664,10.847,10.847,0,0,0,2.092-1.355,8.744,8.744,0,0,0,1.414-1.694,8.071,8.071,0,0,0,.955-1.913,9.98,9.98,0,0,0,.421-2.247c.245-2.849-1.031-6.108-3.485-9.045Zm20.633-11.3a10.211,10.211,0,0,0-3.193-3.546,15.722,15.722,0,0,0-3.129-1.711,33.256,33.256,0,0,1-9.878,13.388,16.266,16.266,0,0,0,3.591,2.925,12.179,12.179,0,0,0,2.292,1.042,9.665,9.665,0,0,0,2.2.409,8.122,8.122,0,0,0,4.261-.769,10.66,10.66,0,0,0,2.021-1.292,10.186,10.186,0,0,0,1.513-1.835,8.331,8.331,0,0,0,.318-8.617Z" transform="translate(-139.431 0)" fill="#ede5c4"/>
          <path id="Trazado_862563" data-name="Trazado 862563" d="M633.873,350.122a1.724,1.724,0,0,1,1.553,2.471,6.072,6.072,0,0,1-10.875,0,1.725,1.725,0,0,1,1.553-2.471Zm-31.8-34.137a12.655,12.655,0,0,0-7.012,2.111,34.079,34.079,0,0,1-8.379-5.374.44.44,0,0,0-.69.5,12.655,12.655,0,0,0,5.831,6.285c-4.988-1.268-10.656-5.64-13.4-7.958a.593.593,0,0,0-.929.678,16.662,16.662,0,0,0,13.553,10.155,12.716,12.716,0,1,0,11.031-6.4Zm80.41-3.755a16.662,16.662,0,0,1-13.553,10.155,12.7,12.7,0,1,1-4.019-4.292,34.081,34.081,0,0,0,8.379-5.374.44.44,0,0,1,.689.5,12.654,12.654,0,0,1-5.831,6.285c4.988-1.268,10.657-5.64,13.4-7.958a.593.593,0,0,1,.929.678Zm-32.24,58.281a2.511,2.511,0,1,0-4.565-2.094,17.26,17.26,0,0,1-31.379,0,2.511,2.511,0,1,0-4.565,2.094,22.283,22.283,0,0,0,40.509,0Z" transform="translate(-441.582 -238.149)"/>
          <path id="Trazado_862564" data-name="Trazado 862564" d="M652.734,365.382a3.212,3.212,0,1,1-3.212-3.212A3.212,3.212,0,0,1,652.734,365.382Zm.675,4.784a1.6,1.6,0,1,0,1.6,1.6A1.605,1.605,0,0,0,653.409,370.165Zm55.154-4.784a3.212,3.212,0,1,1-3.212-3.212A3.211,3.211,0,0,1,708.562,365.382Zm.675,4.784a1.6,1.6,0,1,0,1.6,1.6A1.605,1.605,0,0,0,709.238,370.165Z" transform="translate(-494.245 -276.967)" fill="#fff"/>
        </g>
        <g id="Gingerbread_2-2" data-name="Gingerbread 2" transform="translate(910.594 14478.675)">
          <path id="Trazado_862565" data-name="Trazado 862565" d="M267.44,348.245a152.331,152.331,0,0,0,24.445,82.763h0a38.294,38.294,0,0,0,23.08,16.278A40.694,40.694,0,0,1,334.189,458c18.584,18.584,15.37,51.93-7.179,74.481-3.377,3.376-14.351,11.755-16.341,13.042l-1.393.9a46.584,46.584,0,0,1-64.229-13.758l-35.226-54.429a25.508,25.508,0,0,0-21.414-11.65h0a25.508,25.508,0,0,0-21.414,11.65l-35.226,54.429a46.583,46.583,0,0,1-64.229,13.758l-1.393-.9c-1.988-1.287-12.965-9.666-16.341-13.042C27.254,509.93,24.04,476.583,42.623,458a40.714,40.714,0,0,1,19.224-10.711,38.3,38.3,0,0,0,23.08-16.278h0a152.331,152.331,0,0,0,24.445-82.763h0a21.423,21.423,0,0,0-16.981-20.958l-59.65-12.642A41.309,41.309,0,0,1,.893,265.666h0a41.309,41.309,0,0,1,48.979-31.847l96.338,19.346a1.1,1.1,0,0,0,.791-2.019,79.029,79.029,0,1,1,82.832-.014,1.1,1.1,0,0,0,.786,2.028l96.321-19.341a41.314,41.314,0,0,1,48.979,31.847h0a41.314,41.314,0,0,1-31.847,48.979l-59.65,12.642a21.422,21.422,0,0,0-16.981,20.958Z" transform="translate(0 -80.165)" fill="none" stroke="#707070" stroke-width="2"/>
        </g>
      </g>
    </g>
    <g id="Trazado_869056" data-name="Trazado 869056" transform="translate(537 1246.986)" fill="#fcee95">
      <path d="M 176 39.5 L 20 39.5 C 17.36730003356934 39.5 14.81359958648682 38.98450088500977 12.40987491607666 37.96780014038086 C 10.08787536621094 36.98567581176758 8.002425193786621 35.5796012878418 6.211424827575684 33.78857421875 C 4.420400142669678 31.9975757598877 3.014324903488159 29.91212463378906 2.03220009803772 27.59012413024902 C 1.015499949455261 25.18639945983887 0.5 22.63269996643066 0.5 20 C 0.5 17.36730003356934 1.015499949455261 14.81359958648682 2.03220009803772 12.40987491607666 C 3.014324903488159 10.08787536621094 4.420400142669678 8.002425193786621 6.211424827575684 6.211424827575684 C 8.002425193786621 4.420400142669678 10.08787536621094 3.014324903488159 12.40987491607666 2.03220009803772 C 14.81359958648682 1.015499949455261 17.36730003356934 0.5 20 0.5 L 176 0.5 C 178.6327056884766 0.5 181.1864013671875 1.015499949455261 183.5901184082031 2.03220009803772 C 185.9121246337891 3.014324903488159 187.9975738525391 4.420400142669678 189.78857421875 6.211424827575684 C 191.5796051025391 8.002425193786621 192.9856719970703 10.08787536621094 193.9678039550781 12.40987491607666 C 194.9844970703125 14.81359958648682 195.5 17.36730003356934 195.5 20 C 195.5 22.63269996643066 194.9844970703125 25.18639945983887 193.9678039550781 27.59012413024902 C 192.9856719970703 29.91212463378906 191.5796051025391 31.9975757598877 189.78857421875 33.78857421875 C 187.9975738525391 35.5796012878418 185.9121246337891 36.98567581176758 183.5901184082031 37.96780014038086 C 181.1864013671875 38.98450088500977 178.6327056884766 39.5 176 39.5 Z" stroke="none"/>
      <path d="M 20 1 C 17.4345703125 1 14.94642639160156 1.502223968505859 12.60464477539062 2.492698669433594 C 10.34225463867188 3.449600219726562 8.310226440429688 4.819725036621094 6.564971923828125 6.564975738525391 C 4.819717407226562 8.310224533081055 3.449600219726562 10.34225082397461 2.492706298828125 12.60465049743652 C 1.502227783203125 14.94642448425293 1 17.43457412719727 1 20 C 1 22.56542587280273 1.502227783203125 25.05357360839844 2.492706298828125 27.39535140991211 C 3.449600219726562 29.65774917602539 4.819717407226562 31.68977546691895 6.564971923828125 33.43502426147461 C 8.310226440429688 35.18027496337891 10.34225463867188 36.55039978027344 12.60464477539062 37.50730133056641 C 14.94642639160156 38.49777603149414 17.4345703125 39 20 39 L 176 39 C 178.5654296875 39 181.0535736083984 38.49777603149414 183.3953552246094 37.50730133056641 C 185.6577453613281 36.55039978027344 187.6897735595703 35.18027496337891 189.4350280761719 33.43502426147461 C 191.1802673339844 31.68977546691895 192.5503997802734 29.65774917602539 193.5072937011719 27.39535140991211 C 194.4977722167969 25.05357360839844 195 22.56542587280273 195 20 C 195 17.43457412719727 194.4977722167969 14.94642448425293 193.5072937011719 12.60465049743652 C 192.5503997802734 10.34225082397461 191.1802673339844 8.310224533081055 189.4350280761719 6.564975738525391 C 187.6897735595703 4.819725036621094 185.6577453613281 3.449600219726562 183.3953552246094 2.492698669433594 C 181.0535736083984 1.502223968505859 178.5654296875 1 176 1 L 20 1 M 20 0 L 176 0 C 187.0457000732422 0 196 8.954299926757812 196 20 C 196 31.04570007324219 187.0457000732422 40 176 40 L 20 40 C 8.954299926757812 40 0 31.04570007324219 0 20 C 0 8.954299926757812 8.954299926757812 0 20 0 Z" stroke="none" fill="#dbc84f"/>
    </g>
    <path id="Trazado_869057" data-name="Trazado 869057" d="M8.388-10.449a1.142,1.142,0,0,1-.283.324.634.634,0,0,1-.383.108.936.936,0,0,1-.445-.131l-.54-.292a4.481,4.481,0,0,0-.688-.293,2.755,2.755,0,0,0-.882-.13,1.9,1.9,0,0,0-1.273.364,1.24,1.24,0,0,0-.419.986.908.908,0,0,0,.252.657,2.173,2.173,0,0,0,.661.45,7.091,7.091,0,0,0,.936.346Q5.85-7.9,6.4-7.709a9.618,9.618,0,0,1,1.076.454,3.587,3.587,0,0,1,.936.666,3.108,3.108,0,0,1,.661.986,3.5,3.5,0,0,1,.252,1.4,4.56,4.56,0,0,1-.315,1.7A3.983,3.983,0,0,1,8.1-1.121,4.24,4.24,0,0,1,6.62-.194,5.522,5.522,0,0,1,4.626.144,6.39,6.39,0,0,1,3.38.018,7.4,7.4,0,0,1,2.151-.338,7.124,7.124,0,0,1,1.035-.882a4.742,4.742,0,0,1-.909-.7l.9-1.422a.732.732,0,0,1,.279-.261.79.79,0,0,1,.387-.1,1.025,1.025,0,0,1,.544.171q.275.171.621.378a5.054,5.054,0,0,0,.8.378,2.986,2.986,0,0,0,1.062.171A2.022,2.022,0,0,0,6-2.633a1.388,1.388,0,0,0,.459-1.157,1.093,1.093,0,0,0-.252-.747,1.947,1.947,0,0,0-.662-.477,6.1,6.1,0,0,0-.931-.333Q4.1-5.49,3.546-5.666A7.836,7.836,0,0,1,2.475-6.1a3.38,3.38,0,0,1-.932-.675A3.159,3.159,0,0,1,.882-7.817,4.145,4.145,0,0,1,.63-9.36a3.662,3.662,0,0,1,.3-1.44A3.717,3.717,0,0,1,1.8-12.051a4.293,4.293,0,0,1,1.413-.878,5.219,5.219,0,0,1,1.917-.328,7.189,7.189,0,0,1,1.174.094,6.174,6.174,0,0,1,1.085.279,5.956,5.956,0,0,1,.959.441,4.419,4.419,0,0,1,.8.58Zm6.444.972a4.806,4.806,0,0,1,1.7.288,3.688,3.688,0,0,1,1.323.837,3.82,3.82,0,0,1,.864,1.345,4.937,4.937,0,0,1,.311,1.8A3.939,3.939,0,0,1,19-4.689a.812.812,0,0,1-.1.315.377.377,0,0,1-.193.162.906.906,0,0,1-.311.045H13.014a2.631,2.631,0,0,0,.711,1.7,2.115,2.115,0,0,0,1.485.526,2.658,2.658,0,0,0,.837-.117,4.223,4.223,0,0,0,.625-.261q.274-.144.5-.261a1.046,1.046,0,0,1,.482-.117.577.577,0,0,1,.5.243l.81,1a4.147,4.147,0,0,1-.931.805,4.841,4.841,0,0,1-1.026.486,5.561,5.561,0,0,1-1.053.243,7.9,7.9,0,0,1-1,.068,5.24,5.24,0,0,1-1.84-.32,4.229,4.229,0,0,1-1.5-.949A4.48,4.48,0,0,1,10.6-2.691a5.851,5.851,0,0,1-.373-2.178,4.929,4.929,0,0,1,.319-1.773,4.367,4.367,0,0,1,.918-1.467,4.371,4.371,0,0,1,1.449-1A4.782,4.782,0,0,1,14.832-9.477Zm.054,1.926a1.681,1.681,0,0,0-1.251.455,2.368,2.368,0,0,0-.594,1.309h3.483a2.463,2.463,0,0,0-.086-.648A1.571,1.571,0,0,0,16.16-7a1.42,1.42,0,0,0-.509-.4A1.739,1.739,0,0,0,14.886-7.551ZM22.32-4.824,19.314-9.333H22a.947.947,0,0,1,.436.076A.68.68,0,0,1,22.68-9l1.665,2.763a2.074,2.074,0,0,1,.135-.315q.081-.153.18-.324l1.188-2.079a.767.767,0,0,1,.261-.292.676.676,0,0,1,.351-.085h2.556L26.01-4.95,29.142,0H26.46a.741.741,0,0,1-.477-.144,1.247,1.247,0,0,1-.3-.342L24.021-3.348a2.044,2.044,0,0,1-.108.288,2.488,2.488,0,0,1-.135.252L22.41-.486a1.224,1.224,0,0,1-.288.338.684.684,0,0,1-.45.148H19.188Zm11.7-4.653a5.39,5.39,0,0,1,1.935.333,4.244,4.244,0,0,1,1.5.954,4.3,4.3,0,0,1,.972,1.508,5.439,5.439,0,0,1,.346,1.993,5.537,5.537,0,0,1-.346,2.011,4.327,4.327,0,0,1-.972,1.521,4.264,4.264,0,0,1-1.5.963A5.326,5.326,0,0,1,34.02.144a5.388,5.388,0,0,1-1.948-.338,4.348,4.348,0,0,1-1.512-.963,4.264,4.264,0,0,1-.981-1.521,5.537,5.537,0,0,1-.346-2.011,5.439,5.439,0,0,1,.346-1.993,4.235,4.235,0,0,1,.981-1.508,4.328,4.328,0,0,1,1.512-.954A5.453,5.453,0,0,1,34.02-9.477Zm0,7.551a1.585,1.585,0,0,0,1.418-.68,3.758,3.758,0,0,0,.454-2.066,3.734,3.734,0,0,0-.454-2.061,1.588,1.588,0,0,0-1.418-.675,1.628,1.628,0,0,0-1.449.675,3.7,3.7,0,0,0-.459,2.061,3.728,3.728,0,0,0,.459,2.066A1.624,1.624,0,0,0,34.02-1.926ZM43.776,0V-13.473h2.79v5.13a4.258,4.258,0,0,1,1.184-.824A3.621,3.621,0,0,1,49.3-9.477a2.941,2.941,0,0,1,1.35.315,3.038,3.038,0,0,1,1.071.922,4.671,4.671,0,0,1,.707,1.489,7.193,7.193,0,0,1,.257,2.007A6.2,6.2,0,0,1,52.393-2.8a4.885,4.885,0,0,1-.819,1.548,3.773,3.773,0,0,1-1.26,1.026A3.563,3.563,0,0,1,48.69.144a3.11,3.11,0,0,1-.743-.081,2.539,2.539,0,0,1-.6-.23,2.588,2.588,0,0,1-.5-.356,5.745,5.745,0,0,1-.445-.45L46.3-.5a.6.6,0,0,1-.229.4A.791.791,0,0,1,45.63,0ZM48.33-7.38a2.411,2.411,0,0,0-.553.059,2.034,2.034,0,0,0-.459.167,1.74,1.74,0,0,0-.392.274,4.066,4.066,0,0,0-.36.382v3.96a1.764,1.764,0,0,0,.684.49,2.17,2.17,0,0,0,.774.14,1.644,1.644,0,0,0,.711-.153,1.449,1.449,0,0,0,.563-.49,2.612,2.612,0,0,0,.374-.878,5.5,5.5,0,0,0,.135-1.314A6.045,6.045,0,0,0,49.7-5.985a2.559,2.559,0,0,0-.3-.814,1.17,1.17,0,0,0-.464-.446A1.329,1.329,0,0,0,48.33-7.38ZM57.1-9.333V0h-2.79V-9.333Zm.324-2.556a1.475,1.475,0,0,1-.135.626,1.646,1.646,0,0,1-.369.513,1.806,1.806,0,0,1-.544.351,1.69,1.69,0,0,1-.661.131,1.571,1.571,0,0,1-.639-.131,1.8,1.8,0,0,1-.527-.351,1.62,1.62,0,0,1-.36-.513,1.518,1.518,0,0,1-.131-.626,1.571,1.571,0,0,1,.131-.639,1.658,1.658,0,0,1,.36-.522,1.686,1.686,0,0,1,.527-.351,1.619,1.619,0,0,1,.639-.126,1.742,1.742,0,0,1,.661.126,1.7,1.7,0,0,1,.544.351,1.685,1.685,0,0,1,.369.522A1.526,1.526,0,0,1,57.42-11.889ZM63.5-9.477a5.39,5.39,0,0,1,1.935.333,4.244,4.244,0,0,1,1.5.954,4.3,4.3,0,0,1,.972,1.508,5.438,5.438,0,0,1,.347,1.993,5.537,5.537,0,0,1-.347,2.011,4.327,4.327,0,0,1-.972,1.521,4.264,4.264,0,0,1-1.5.963A5.326,5.326,0,0,1,63.5.144a5.388,5.388,0,0,1-1.948-.338,4.348,4.348,0,0,1-1.512-.963,4.264,4.264,0,0,1-.981-1.521,5.537,5.537,0,0,1-.347-2.011,5.439,5.439,0,0,1,.347-1.993,4.235,4.235,0,0,1,.981-1.508,4.328,4.328,0,0,1,1.512-.954A5.453,5.453,0,0,1,63.5-9.477Zm0,7.551a1.585,1.585,0,0,0,1.417-.68,3.758,3.758,0,0,0,.454-2.066,3.734,3.734,0,0,0-.454-2.061A1.588,1.588,0,0,0,63.5-7.407a1.628,1.628,0,0,0-1.449.675A3.7,3.7,0,0,0,61.6-4.671a3.728,3.728,0,0,0,.459,2.066A1.624,1.624,0,0,0,63.5-1.926Zm9.162-11.547V0h-2.79V-13.473Zm6.408,4a5.39,5.39,0,0,1,1.935.333,4.244,4.244,0,0,1,1.5.954,4.3,4.3,0,0,1,.972,1.508,5.439,5.439,0,0,1,.346,1.993,5.537,5.537,0,0,1-.346,2.011,4.327,4.327,0,0,1-.972,1.521,4.264,4.264,0,0,1-1.5.963,5.326,5.326,0,0,1-1.935.338,5.388,5.388,0,0,1-1.949-.338,4.348,4.348,0,0,1-1.512-.963,4.264,4.264,0,0,1-.981-1.521,5.537,5.537,0,0,1-.347-2.011,5.438,5.438,0,0,1,.347-1.993,4.235,4.235,0,0,1,.981-1.508,4.328,4.328,0,0,1,1.512-.954A5.454,5.454,0,0,1,79.074-9.477Zm0,7.551a1.585,1.585,0,0,0,1.418-.68,3.758,3.758,0,0,0,.454-2.066,3.734,3.734,0,0,0-.454-2.061,1.588,1.588,0,0,0-1.418-.675,1.628,1.628,0,0,0-1.449.675,3.7,3.7,0,0,0-.459,2.061,3.728,3.728,0,0,0,.459,2.066A1.624,1.624,0,0,0,79.074-1.926Zm3.564-11.331L80.3-10.89a1.393,1.393,0,0,1-.4.293,1.239,1.239,0,0,1-.5.085H77.724l1.224-2.2a1.207,1.207,0,0,1,.36-.4,1.14,1.14,0,0,1,.63-.139ZM88.65-9.5a5.156,5.156,0,0,1,1.12.117,4.508,4.508,0,0,1,.977.333h2.817v1.017a.509.509,0,0,1-.131.369.894.894,0,0,1-.446.207L92.3-7.3a2.8,2.8,0,0,1,.126.837,2.673,2.673,0,0,1-.292,1.26,2.866,2.866,0,0,1-.8.95,3.736,3.736,0,0,1-1.2.6,5.062,5.062,0,0,1-1.485.211,6,6,0,0,1-.828-.054.508.508,0,0,0-.306.418.354.354,0,0,0,.248.341,2.307,2.307,0,0,0,.652.145q.4.041.927.041T90.4-2.5a8.3,8.3,0,0,1,1.062.167,2.838,2.838,0,0,1,.927.379,1.975,1.975,0,0,1,.652.7,2.246,2.246,0,0,1,.247,1.115A2.711,2.711,0,0,1,92.988,1.1a3.228,3.228,0,0,1-.9,1.074,4.7,4.7,0,0,1-1.458.754,6.327,6.327,0,0,1-1.98.284,7.6,7.6,0,0,1-1.895-.207,4.583,4.583,0,0,1-1.323-.545,2.3,2.3,0,0,1-.779-.779A1.829,1.829,0,0,1,84.4.762a1.529,1.529,0,0,1,.378-1.05,2.512,2.512,0,0,1,1.035-.671,1.579,1.579,0,0,1-.5-.53,1.6,1.6,0,0,1-.189-.818,1.454,1.454,0,0,1,.072-.436,1.6,1.6,0,0,1,.225-.445,2.25,2.25,0,0,1,.387-.413,2.532,2.532,0,0,1,.558-.35,3.049,3.049,0,0,1-1.147-1.026A2.649,2.649,0,0,1,84.8-6.462a2.666,2.666,0,0,1,.3-1.265,2.857,2.857,0,0,1,.814-.954,3.833,3.833,0,0,1,1.219-.6A5.251,5.251,0,0,1,88.65-9.5ZM90.72.322a.494.494,0,0,0-.14-.368A.99.99,0,0,0,90.2-.267a2.627,2.627,0,0,0-.558-.12,6.036,6.036,0,0,0-.688-.037h-.765A4.028,4.028,0,0,1,87.408-.5a1.833,1.833,0,0,0-.428.4.811.811,0,0,0-.166.5A.763.763,0,0,0,86.9.764a.706.706,0,0,0,.3.28,2,2,0,0,0,.58.185A5.2,5.2,0,0,0,88.7,1.3a5.465,5.465,0,0,0,.99-.074,2.066,2.066,0,0,0,.617-.2A.752.752,0,0,0,90.63.712.858.858,0,0,0,90.72.322ZM88.65-5.157a1.287,1.287,0,0,0,1-.346,1.291,1.291,0,0,0,.311-.9,1.235,1.235,0,0,0-.311-.891,1.34,1.34,0,0,0-1-.324,1.34,1.34,0,0,0-1,.324,1.234,1.234,0,0,0-.311.891,1.53,1.53,0,0,0,.076.495,1.029,1.029,0,0,0,.239.391,1.117,1.117,0,0,0,.41.261A1.653,1.653,0,0,0,88.65-5.157Zm9-4.176V0H94.86V-9.333Zm.324-2.556a1.475,1.475,0,0,1-.135.626,1.647,1.647,0,0,1-.369.513,1.806,1.806,0,0,1-.545.351,1.69,1.69,0,0,1-.661.131,1.571,1.571,0,0,1-.639-.131,1.8,1.8,0,0,1-.526-.351,1.62,1.62,0,0,1-.36-.513,1.518,1.518,0,0,1-.131-.626,1.571,1.571,0,0,1,.131-.639,1.658,1.658,0,0,1,.36-.522,1.686,1.686,0,0,1,.526-.351,1.619,1.619,0,0,1,.639-.126,1.742,1.742,0,0,1,.661.126,1.7,1.7,0,0,1,.545.351,1.685,1.685,0,0,1,.369.522A1.526,1.526,0,0,1,97.974-11.889Zm8.658,4.77a1.543,1.543,0,0,1-.243.243.536.536,0,0,1-.333.09.717.717,0,0,1-.373-.1l-.374-.221a2.833,2.833,0,0,0-.486-.22,2.092,2.092,0,0,0-.693-.1,1.942,1.942,0,0,0-.886.189,1.642,1.642,0,0,0-.617.54,2.468,2.468,0,0,0-.36.859,5.135,5.135,0,0,0-.117,1.148,3.5,3.5,0,0,0,.518,2.061,1.661,1.661,0,0,0,1.426.72,1.994,1.994,0,0,0,.77-.122,2.332,2.332,0,0,0,.481-.27l.365-.274a.674.674,0,0,1,.418-.126.577.577,0,0,1,.5.243l.81,1a4.407,4.407,0,0,1-.909.805,4.56,4.56,0,0,1-.976.486,5.04,5.04,0,0,1-1,.243,7.389,7.389,0,0,1-.981.068,4.21,4.21,0,0,1-1.633-.324,4,4,0,0,1-1.368-.941,4.5,4.5,0,0,1-.936-1.516,5.681,5.681,0,0,1-.346-2.052,5.764,5.764,0,0,1,.3-1.886A4.281,4.281,0,0,1,100.48-8.1a4.143,4.143,0,0,1,1.458-1.012,5.109,5.109,0,0,1,2.011-.369,4.9,4.9,0,0,1,1.926.351A4.621,4.621,0,0,1,107.37-8.1Zm6.174-2.358a5.39,5.39,0,0,1,1.935.333,4.244,4.244,0,0,1,1.5.954,4.3,4.3,0,0,1,.972,1.508,5.439,5.439,0,0,1,.346,1.993,5.537,5.537,0,0,1-.346,2.011,4.327,4.327,0,0,1-.972,1.521,4.264,4.264,0,0,1-1.5.963,5.326,5.326,0,0,1-1.935.338,5.388,5.388,0,0,1-1.949-.338,4.348,4.348,0,0,1-1.512-.963,4.264,4.264,0,0,1-.981-1.521,5.537,5.537,0,0,1-.347-2.011,5.438,5.438,0,0,1,.347-1.993,4.235,4.235,0,0,1,.981-1.508,4.328,4.328,0,0,1,1.512-.954A5.454,5.454,0,0,1,112.806-9.477Zm0,7.551a1.585,1.585,0,0,0,1.418-.68,3.758,3.758,0,0,0,.454-2.066,3.734,3.734,0,0,0-.454-2.061,1.588,1.588,0,0,0-1.418-.675,1.628,1.628,0,0,0-1.449.675,3.7,3.7,0,0,0-.459,2.061,3.728,3.728,0,0,0,.459,2.066A1.624,1.624,0,0,0,112.806-1.926Z" transform="translate(555 1273.986)" fill="#12263f"/>
    <g id="Trazado_869050" data-name="Trazado 869050" transform="translate(537 851.986)" fill="#fcee95">
      <path d="M 176 39.5 L 20 39.5 C 17.36730003356934 39.5 14.81359958648682 38.98450088500977 12.40987491607666 37.96780014038086 C 10.08787536621094 36.98567581176758 8.002425193786621 35.5796012878418 6.211424827575684 33.78857421875 C 4.420400142669678 31.9975757598877 3.014324903488159 29.91212463378906 2.03220009803772 27.59012413024902 C 1.015499949455261 25.18639945983887 0.5 22.63269996643066 0.5 20 C 0.5 17.36730003356934 1.015499949455261 14.81359958648682 2.03220009803772 12.40987491607666 C 3.014324903488159 10.08787536621094 4.420400142669678 8.002425193786621 6.211424827575684 6.211424827575684 C 8.002425193786621 4.420400142669678 10.08787536621094 3.014324903488159 12.40987491607666 2.03220009803772 C 14.81359958648682 1.015499949455261 17.36730003356934 0.5 20 0.5 L 176 0.5 C 178.6327056884766 0.5 181.1864013671875 1.015499949455261 183.5901184082031 2.03220009803772 C 185.9121246337891 3.014324903488159 187.9975738525391 4.420400142669678 189.78857421875 6.211424827575684 C 191.5796051025391 8.002425193786621 192.9856719970703 10.08787536621094 193.9678039550781 12.40987491607666 C 194.9844970703125 14.81359958648682 195.5 17.36730003356934 195.5 20 C 195.5 22.63269996643066 194.9844970703125 25.18639945983887 193.9678039550781 27.59012413024902 C 192.9856719970703 29.91212463378906 191.5796051025391 31.9975757598877 189.78857421875 33.78857421875 C 187.9975738525391 35.5796012878418 185.9121246337891 36.98567581176758 183.5901184082031 37.96780014038086 C 181.1864013671875 38.98450088500977 178.6327056884766 39.5 176 39.5 Z" stroke="none"/>
      <path d="M 20 1 C 17.4345703125 1 14.94642639160156 1.502223968505859 12.60464477539062 2.492698669433594 C 10.34225463867188 3.449600219726562 8.310226440429688 4.819725036621094 6.564971923828125 6.564975738525391 C 4.819717407226562 8.310224533081055 3.449600219726562 10.34225082397461 2.492706298828125 12.60465049743652 C 1.502227783203125 14.94642448425293 1 17.43457412719727 1 20 C 1 22.56542587280273 1.502227783203125 25.05357360839844 2.492706298828125 27.39535140991211 C 3.449600219726562 29.65774917602539 4.819717407226562 31.68977546691895 6.564971923828125 33.43502426147461 C 8.310226440429688 35.18027496337891 10.34225463867188 36.55039978027344 12.60464477539062 37.50730133056641 C 14.94642639160156 38.49777603149414 17.4345703125 39 20 39 L 176 39 C 178.5654296875 39 181.0535736083984 38.49777603149414 183.3953552246094 37.50730133056641 C 185.6577453613281 36.55039978027344 187.6897735595703 35.18027496337891 189.4350280761719 33.43502426147461 C 191.1802673339844 31.68977546691895 192.5503997802734 29.65774917602539 193.5072937011719 27.39535140991211 C 194.4977722167969 25.05357360839844 195 22.56542587280273 195 20 C 195 17.43457412719727 194.4977722167969 14.94642448425293 193.5072937011719 12.60465049743652 C 192.5503997802734 10.34225082397461 191.1802673339844 8.310224533081055 189.4350280761719 6.564975738525391 C 187.6897735595703 4.819725036621094 185.6577453613281 3.449600219726562 183.3953552246094 2.492698669433594 C 181.0535736083984 1.502223968505859 178.5654296875 1 176 1 L 20 1 M 20 0 L 176 0 C 187.0457000732422 0 196 8.954299926757812 196 20 C 196 31.04570007324219 187.0457000732422 40 176 40 L 20 40 C 8.954299926757812 40 0 31.04570007324219 0 20 C 0 8.954299926757812 8.954299926757812 0 20 0 Z" stroke="none" fill="#dbc84f"/>
    </g>
    <path id="Trazado_869051" data-name="Trazado 869051" d="M4.41,0H1.35V-13.113H4.41Zm8.982,0a.77.77,0,0,1-.437-.117.625.625,0,0,1-.247-.351l-.216-.711a5.471,5.471,0,0,1-.585.54,3.679,3.679,0,0,1-.661.418,3.5,3.5,0,0,1-.765.27,3.939,3.939,0,0,1-.886.095A2.875,2.875,0,0,1,8.244-.18a3.111,3.111,0,0,1-1.071-.936,4.723,4.723,0,0,1-.707-1.5A7.278,7.278,0,0,1,6.21-4.635,6.3,6.3,0,0,1,6.5-6.575a4.755,4.755,0,0,1,.815-1.548A3.782,3.782,0,0,1,8.577-9.144a3.591,3.591,0,0,1,1.629-.369,3.127,3.127,0,0,1,1.22.212,3.52,3.52,0,0,1,.9.554v-4.725h2.79V0ZM10.566-2a2.411,2.411,0,0,0,.554-.058,1.946,1.946,0,0,0,.454-.167,1.983,1.983,0,0,0,.392-.27,3.387,3.387,0,0,0,.365-.378v-3.96a1.845,1.845,0,0,0-.688-.49,2.134,2.134,0,0,0-.77-.14,1.644,1.644,0,0,0-.711.153,1.449,1.449,0,0,0-.562.49,2.612,2.612,0,0,0-.373.878,5.451,5.451,0,0,0-.135,1.3A6.045,6.045,0,0,0,9.2-3.393a2.559,2.559,0,0,0,.3.815,1.17,1.17,0,0,0,.463.445A1.329,1.329,0,0,0,10.566-2Zm10.71-7.479a4.806,4.806,0,0,1,1.7.288,3.688,3.688,0,0,1,1.323.837,3.82,3.82,0,0,1,.864,1.345,4.937,4.937,0,0,1,.31,1.8,3.94,3.94,0,0,1-.027.513.812.812,0,0,1-.1.315.377.377,0,0,1-.193.162.906.906,0,0,1-.31.045H19.458a2.631,2.631,0,0,0,.711,1.7,2.115,2.115,0,0,0,1.485.526,2.658,2.658,0,0,0,.837-.117,4.223,4.223,0,0,0,.625-.261q.275-.144.5-.261A1.046,1.046,0,0,1,24.1-2.7a.577.577,0,0,1,.5.243l.81,1a4.147,4.147,0,0,1-.932.805,4.841,4.841,0,0,1-1.026.486,5.561,5.561,0,0,1-1.053.243,7.9,7.9,0,0,1-1,.068,5.24,5.24,0,0,1-1.84-.32,4.229,4.229,0,0,1-1.5-.949,4.48,4.48,0,0,1-1.017-1.566,5.851,5.851,0,0,1-.373-2.178,4.929,4.929,0,0,1,.319-1.773,4.367,4.367,0,0,1,.918-1.467,4.371,4.371,0,0,1,1.449-1A4.782,4.782,0,0,1,21.276-9.477Zm.054,1.926a1.681,1.681,0,0,0-1.251.455,2.368,2.368,0,0,0-.594,1.309h3.483a2.463,2.463,0,0,0-.085-.648A1.571,1.571,0,0,0,22.6-7a1.42,1.42,0,0,0-.509-.4A1.739,1.739,0,0,0,21.33-7.551ZM27.072,0V-9.333H28.8a.77.77,0,0,1,.437.117.625.625,0,0,1,.247.351l.162.54a6.778,6.778,0,0,1,.558-.468,3.268,3.268,0,0,1,.617-.365,3.659,3.659,0,0,1,.711-.234,3.815,3.815,0,0,1,.833-.086,3.267,3.267,0,0,1,1.354.266,2.811,2.811,0,0,1,.994.738,3.185,3.185,0,0,1,.612,1.125,4.665,4.665,0,0,1,.207,1.418V0h-2.79V-5.931A1.632,1.632,0,0,0,32.427-7,1.131,1.131,0,0,0,31.5-7.38a1.941,1.941,0,0,0-.864.2,3.36,3.36,0,0,0-.774.531V0ZM40.788.144A3.29,3.29,0,0,1,39.613-.05,2.333,2.333,0,0,1,38.758-.6a2.34,2.34,0,0,1-.527-.859,3.327,3.327,0,0,1-.18-1.125V-7.407H37.26a.528.528,0,0,1-.369-.14.526.526,0,0,1-.153-.41V-9.045l1.485-.288.549-2.277a.554.554,0,0,1,.612-.432h1.458v2.727H43.11v1.908H40.842v4.635A.872.872,0,0,0,41-2.237a.532.532,0,0,0,.454.211.893.893,0,0,0,.257-.031,1.021,1.021,0,0,0,.18-.072q.076-.04.144-.072a.369.369,0,0,1,.158-.032.325.325,0,0,1,.2.059.724.724,0,0,1,.157.184L43.4-.666a3.85,3.85,0,0,1-1.215.608A4.828,4.828,0,0,1,40.788.144Zm6.8-9.477V0H44.8V-9.333Zm.324-2.556a1.475,1.475,0,0,1-.135.626,1.646,1.646,0,0,1-.369.513,1.806,1.806,0,0,1-.544.351,1.69,1.69,0,0,1-.661.131,1.571,1.571,0,0,1-.639-.131,1.8,1.8,0,0,1-.527-.351,1.62,1.62,0,0,1-.36-.513,1.518,1.518,0,0,1-.131-.626,1.571,1.571,0,0,1,.131-.639,1.658,1.658,0,0,1,.36-.522,1.686,1.686,0,0,1,.527-.351,1.619,1.619,0,0,1,.639-.126,1.742,1.742,0,0,1,.661.126,1.7,1.7,0,0,1,.544.351,1.685,1.685,0,0,1,.369.522A1.526,1.526,0,0,1,47.916-11.889ZM56.394,0a.77.77,0,0,1-.437-.117.625.625,0,0,1-.248-.351l-.216-.711a5.472,5.472,0,0,1-.585.54,3.679,3.679,0,0,1-.661.418,3.5,3.5,0,0,1-.765.27A3.939,3.939,0,0,1,52.6.144a2.875,2.875,0,0,1-1.35-.324,3.111,3.111,0,0,1-1.071-.936,4.723,4.723,0,0,1-.707-1.5,7.278,7.278,0,0,1-.257-2.021,6.3,6.3,0,0,1,.288-1.94,4.755,4.755,0,0,1,.815-1.548,3.782,3.782,0,0,1,1.264-1.021,3.591,3.591,0,0,1,1.629-.369,3.127,3.127,0,0,1,1.22.212,3.52,3.52,0,0,1,.9.554v-4.725h2.79V0ZM53.568-2a2.411,2.411,0,0,0,.554-.058,1.946,1.946,0,0,0,.454-.167,1.983,1.983,0,0,0,.392-.27,3.387,3.387,0,0,0,.364-.378v-3.96a1.845,1.845,0,0,0-.688-.49,2.134,2.134,0,0,0-.77-.14,1.644,1.644,0,0,0-.711.153,1.449,1.449,0,0,0-.562.49,2.612,2.612,0,0,0-.374.878,5.451,5.451,0,0,0-.135,1.3A6.045,6.045,0,0,0,52.2-3.393a2.559,2.559,0,0,0,.3.815,1.17,1.17,0,0,0,.463.445A1.329,1.329,0,0,0,53.568-2ZM66.726,0a1.307,1.307,0,0,1-.6-.108.825.825,0,0,1-.338-.45l-.2-.513q-.351.3-.675.522a4.278,4.278,0,0,1-.671.383,3.311,3.311,0,0,1-.738.234,4.542,4.542,0,0,1-.868.077,3.8,3.8,0,0,1-1.161-.167,2.42,2.42,0,0,1-.887-.492,2.164,2.164,0,0,1-.562-.808,2.922,2.922,0,0,1-.2-1.115,2.345,2.345,0,0,1,.252-1.02,2.514,2.514,0,0,1,.873-.953,5.538,5.538,0,0,1,1.674-.718,10.238,10.238,0,0,1,2.655-.289v-.4a1.738,1.738,0,0,0-.338-1.194,1.235,1.235,0,0,0-.959-.368,2.543,2.543,0,0,0-.81.108,3.641,3.641,0,0,0-.562.243q-.248.135-.481.243a1.323,1.323,0,0,1-.558.108.843.843,0,0,1-.49-.14,1.036,1.036,0,0,1-.319-.346l-.5-.873A5.673,5.673,0,0,1,62.14-9.149a6.578,6.578,0,0,1,2.209-.365,4.041,4.041,0,0,1,1.526.274,3.283,3.283,0,0,1,1.152.765,3.343,3.343,0,0,1,.725,1.165A4.189,4.189,0,0,1,68-5.832V0Zm-3.2-1.7a2.214,2.214,0,0,0,.945-.189,2.879,2.879,0,0,0,.819-.612V-3.78a7.166,7.166,0,0,0-1.377.109,3.322,3.322,0,0,0-.855.272,1.038,1.038,0,0,0-.437.372.887.887,0,0,0-.122.454.792.792,0,0,0,.261.676A1.265,1.265,0,0,0,63.522-1.7ZM76.536,0A.77.77,0,0,1,76.1-.117a.625.625,0,0,1-.248-.351l-.216-.711a5.471,5.471,0,0,1-.585.54,3.679,3.679,0,0,1-.662.418,3.5,3.5,0,0,1-.765.27,3.939,3.939,0,0,1-.886.095,2.875,2.875,0,0,1-1.35-.324,3.111,3.111,0,0,1-1.071-.936,4.723,4.723,0,0,1-.707-1.5,7.278,7.278,0,0,1-.257-2.021,6.3,6.3,0,0,1,.288-1.94,4.755,4.755,0,0,1,.814-1.548,3.782,3.782,0,0,1,1.265-1.021,3.591,3.591,0,0,1,1.629-.369,3.127,3.127,0,0,1,1.219.212,3.52,3.52,0,0,1,.9.554v-4.725h2.79V0ZM73.71-2a2.411,2.411,0,0,0,.553-.058,1.946,1.946,0,0,0,.455-.167,1.983,1.983,0,0,0,.391-.27,3.387,3.387,0,0,0,.365-.378v-3.96a1.845,1.845,0,0,0-.688-.49,2.134,2.134,0,0,0-.77-.14,1.644,1.644,0,0,0-.711.153,1.449,1.449,0,0,0-.562.49,2.612,2.612,0,0,0-.373.878,5.451,5.451,0,0,0-.135,1.3,6.045,6.045,0,0,0,.108,1.242,2.558,2.558,0,0,0,.3.815,1.17,1.17,0,0,0,.464.445A1.329,1.329,0,0,0,73.71-2ZM90.45,0a.77.77,0,0,1-.437-.117.625.625,0,0,1-.248-.351l-.216-.711a5.471,5.471,0,0,1-.585.54,3.679,3.679,0,0,1-.662.418,3.5,3.5,0,0,1-.765.27,3.939,3.939,0,0,1-.886.095A2.875,2.875,0,0,1,85.3-.18a3.111,3.111,0,0,1-1.071-.936,4.723,4.723,0,0,1-.707-1.5,7.278,7.278,0,0,1-.257-2.021,6.3,6.3,0,0,1,.288-1.94,4.755,4.755,0,0,1,.814-1.548,3.782,3.782,0,0,1,1.265-1.021,3.591,3.591,0,0,1,1.629-.369,3.127,3.127,0,0,1,1.219.212,3.52,3.52,0,0,1,.9.554v-4.725h2.79V0ZM87.624-2a2.411,2.411,0,0,0,.553-.058,1.946,1.946,0,0,0,.455-.167,1.983,1.983,0,0,0,.391-.27,3.387,3.387,0,0,0,.365-.378v-3.96a1.845,1.845,0,0,0-.688-.49,2.134,2.134,0,0,0-.77-.14,1.644,1.644,0,0,0-.711.153,1.449,1.449,0,0,0-.562.49,2.612,2.612,0,0,0-.373.878,5.451,5.451,0,0,0-.135,1.3,6.045,6.045,0,0,0,.108,1.242,2.558,2.558,0,0,0,.3.815,1.17,1.17,0,0,0,.464.445A1.329,1.329,0,0,0,87.624-2Zm10.71-7.479a4.806,4.806,0,0,1,1.7.288,3.688,3.688,0,0,1,1.323.837,3.82,3.82,0,0,1,.864,1.345,4.938,4.938,0,0,1,.31,1.8,3.939,3.939,0,0,1-.027.513.812.812,0,0,1-.1.315.377.377,0,0,1-.193.162.906.906,0,0,1-.311.045H96.516a2.631,2.631,0,0,0,.711,1.7,2.115,2.115,0,0,0,1.485.526,2.658,2.658,0,0,0,.837-.117,4.222,4.222,0,0,0,.625-.261q.275-.144.5-.261a1.046,1.046,0,0,1,.481-.117.577.577,0,0,1,.5.243l.81,1a4.147,4.147,0,0,1-.932.805,4.841,4.841,0,0,1-1.026.486,5.561,5.561,0,0,1-1.053.243,7.9,7.9,0,0,1-1,.068,5.24,5.24,0,0,1-1.84-.32,4.229,4.229,0,0,1-1.5-.949A4.48,4.48,0,0,1,94.1-2.691a5.851,5.851,0,0,1-.373-2.178,4.929,4.929,0,0,1,.319-1.773,4.367,4.367,0,0,1,.918-1.467,4.371,4.371,0,0,1,1.449-1A4.782,4.782,0,0,1,98.334-9.477Zm.054,1.926a1.681,1.681,0,0,0-1.251.455,2.368,2.368,0,0,0-.594,1.309h3.483a2.463,2.463,0,0,0-.085-.648A1.571,1.571,0,0,0,99.662-7a1.42,1.42,0,0,0-.509-.4A1.739,1.739,0,0,0,98.388-7.551ZM110.9-9.5a5.156,5.156,0,0,1,1.12.117,4.508,4.508,0,0,1,.977.333h2.817v1.017a.509.509,0,0,1-.131.369.894.894,0,0,1-.446.207l-.684.153a2.8,2.8,0,0,1,.126.837,2.673,2.673,0,0,1-.292,1.26,2.866,2.866,0,0,1-.8.95,3.736,3.736,0,0,1-1.2.6,5.062,5.062,0,0,1-1.485.211,6,6,0,0,1-.828-.054.508.508,0,0,0-.306.418.354.354,0,0,0,.248.341,2.307,2.307,0,0,0,.652.145q.4.041.927.041t1.062.05a8.3,8.3,0,0,1,1.062.167,2.838,2.838,0,0,1,.927.379,1.975,1.975,0,0,1,.652.7,2.246,2.246,0,0,1,.247,1.115,2.711,2.711,0,0,1-.306,1.237,3.228,3.228,0,0,1-.9,1.074,4.7,4.7,0,0,1-1.458.754,6.327,6.327,0,0,1-1.98.284A7.6,7.6,0,0,1,109,3.006a4.583,4.583,0,0,1-1.323-.545,2.3,2.3,0,0,1-.779-.779,1.829,1.829,0,0,1-.252-.919,1.529,1.529,0,0,1,.378-1.05,2.512,2.512,0,0,1,1.035-.671,1.579,1.579,0,0,1-.5-.53,1.6,1.6,0,0,1-.189-.818,1.454,1.454,0,0,1,.072-.436,1.6,1.6,0,0,1,.225-.445,2.25,2.25,0,0,1,.387-.413,2.532,2.532,0,0,1,.558-.35,3.049,3.049,0,0,1-1.147-1.026,2.649,2.649,0,0,1-.418-1.485,2.666,2.666,0,0,1,.3-1.265,2.857,2.857,0,0,1,.814-.954,3.833,3.833,0,0,1,1.219-.6A5.251,5.251,0,0,1,110.9-9.5Zm2.07,9.817a.494.494,0,0,0-.14-.368.99.99,0,0,0-.378-.221,2.627,2.627,0,0,0-.558-.12,6.037,6.037,0,0,0-.688-.037h-.765a4.028,4.028,0,0,1-.783-.077,1.833,1.833,0,0,0-.428.4.811.811,0,0,0-.166.5.763.763,0,0,0,.085.361.706.706,0,0,0,.3.28,2,2,0,0,0,.58.185,5.2,5.2,0,0,0,.923.068,5.465,5.465,0,0,0,.99-.074,2.066,2.066,0,0,0,.617-.2.752.752,0,0,0,.32-.308A.858.858,0,0,0,112.968.322ZM110.9-5.157a1.287,1.287,0,0,0,1-.346,1.291,1.291,0,0,0,.311-.9,1.234,1.234,0,0,0-.311-.891,1.34,1.34,0,0,0-1-.324,1.34,1.34,0,0,0-1,.324,1.234,1.234,0,0,0-.311.891,1.53,1.53,0,0,0,.076.495,1.029,1.029,0,0,0,.239.391,1.117,1.117,0,0,0,.41.261A1.653,1.653,0,0,0,110.9-5.157Zm10.116-4.32a4.806,4.806,0,0,1,1.7.288,3.688,3.688,0,0,1,1.323.837,3.82,3.82,0,0,1,.864,1.345,4.937,4.937,0,0,1,.311,1.8,3.941,3.941,0,0,1-.027.513.812.812,0,0,1-.1.315.377.377,0,0,1-.193.162.906.906,0,0,1-.311.045H119.2a2.631,2.631,0,0,0,.711,1.7,2.115,2.115,0,0,0,1.485.526,2.658,2.658,0,0,0,.837-.117,4.223,4.223,0,0,0,.626-.261q.274-.144.5-.261a1.046,1.046,0,0,1,.481-.117.577.577,0,0,1,.5.243l.81,1a4.147,4.147,0,0,1-.932.805,4.841,4.841,0,0,1-1.026.486,5.561,5.561,0,0,1-1.053.243,7.9,7.9,0,0,1-1,.068,5.24,5.24,0,0,1-1.84-.32,4.229,4.229,0,0,1-1.5-.949,4.48,4.48,0,0,1-1.017-1.566,5.851,5.851,0,0,1-.373-2.178,4.929,4.929,0,0,1,.319-1.773,4.367,4.367,0,0,1,.918-1.467,4.371,4.371,0,0,1,1.449-1A4.782,4.782,0,0,1,121.014-9.477Zm.054,1.926a1.681,1.681,0,0,0-1.251.455,2.368,2.368,0,0,0-.594,1.309h3.483a2.463,2.463,0,0,0-.085-.648A1.571,1.571,0,0,0,122.342-7a1.42,1.42,0,0,0-.508-.4A1.739,1.739,0,0,0,121.068-7.551Zm3.582-5.706-2.34,2.367a1.393,1.393,0,0,1-.4.293,1.239,1.239,0,0,1-.5.085h-1.674l1.224-2.2a1.207,1.207,0,0,1,.36-.4,1.14,1.14,0,0,1,.63-.139ZM126.81,0V-9.333h1.728a.77.77,0,0,1,.436.117.625.625,0,0,1,.247.351l.162.54a6.78,6.78,0,0,1,.558-.468,3.268,3.268,0,0,1,.617-.365,3.66,3.66,0,0,1,.711-.234,3.815,3.815,0,0,1,.833-.086,3.267,3.267,0,0,1,1.354.266,2.811,2.811,0,0,1,.995.738,3.185,3.185,0,0,1,.612,1.125,4.665,4.665,0,0,1,.207,1.418V0h-2.79V-5.931A1.632,1.632,0,0,0,132.165-7a1.131,1.131,0,0,0-.927-.383,1.941,1.941,0,0,0-.864.2,3.36,3.36,0,0,0-.774.531V0Zm14.436-9.477a4.806,4.806,0,0,1,1.7.288,3.688,3.688,0,0,1,1.323.837,3.82,3.82,0,0,1,.864,1.345,4.937,4.937,0,0,1,.311,1.8,3.938,3.938,0,0,1-.027.513.812.812,0,0,1-.1.315.377.377,0,0,1-.193.162.906.906,0,0,1-.311.045h-5.382a2.631,2.631,0,0,0,.711,1.7,2.115,2.115,0,0,0,1.485.526,2.658,2.658,0,0,0,.837-.117,4.223,4.223,0,0,0,.626-.261q.274-.144.5-.261a1.046,1.046,0,0,1,.481-.117.577.577,0,0,1,.5.243l.81,1a4.148,4.148,0,0,1-.932.805,4.841,4.841,0,0,1-1.026.486,5.561,5.561,0,0,1-1.053.243,7.9,7.9,0,0,1-1,.068,5.24,5.24,0,0,1-1.84-.32,4.229,4.229,0,0,1-1.5-.949,4.48,4.48,0,0,1-1.017-1.566,5.851,5.851,0,0,1-.374-2.178,4.929,4.929,0,0,1,.32-1.773,4.367,4.367,0,0,1,.918-1.467,4.371,4.371,0,0,1,1.449-1A4.782,4.782,0,0,1,141.246-9.477Zm.054,1.926a1.681,1.681,0,0,0-1.251.455,2.368,2.368,0,0,0-.594,1.309h3.483a2.462,2.462,0,0,0-.086-.648A1.571,1.571,0,0,0,142.574-7a1.42,1.42,0,0,0-.508-.4A1.739,1.739,0,0,0,141.3-7.551ZM147.042,0V-9.333H148.7a1.412,1.412,0,0,1,.347.036.608.608,0,0,1,.234.112.48.48,0,0,1,.144.2,1.826,1.826,0,0,1,.086.306l.153.873a4.574,4.574,0,0,1,1.152-1.251,2.341,2.341,0,0,1,1.4-.459,1.607,1.607,0,0,1,1.026.306l-.36,2.052a.4.4,0,0,1-.144.266.489.489,0,0,1-.288.076,1.91,1.91,0,0,1-.36-.041,2.791,2.791,0,0,0-.522-.04,1.916,1.916,0,0,0-1.728,1.17V0Zm11.592-9.477a5.39,5.39,0,0,1,1.935.333,4.244,4.244,0,0,1,1.5.954,4.3,4.3,0,0,1,.972,1.508,5.438,5.438,0,0,1,.347,1.993,5.537,5.537,0,0,1-.347,2.011,4.327,4.327,0,0,1-.972,1.521,4.264,4.264,0,0,1-1.5.963,5.326,5.326,0,0,1-1.935.338,5.388,5.388,0,0,1-1.949-.338,4.348,4.348,0,0,1-1.512-.963,4.265,4.265,0,0,1-.981-1.521,5.537,5.537,0,0,1-.346-2.011,5.438,5.438,0,0,1,.346-1.993,4.235,4.235,0,0,1,.981-1.508,4.328,4.328,0,0,1,1.512-.954A5.454,5.454,0,0,1,158.634-9.477Zm0,7.551a1.585,1.585,0,0,0,1.417-.68,3.758,3.758,0,0,0,.454-2.066,3.734,3.734,0,0,0-.454-2.061,1.588,1.588,0,0,0-1.417-.675,1.628,1.628,0,0,0-1.449.675,3.7,3.7,0,0,0-.459,2.061,3.728,3.728,0,0,0,.459,2.066A1.624,1.624,0,0,0,158.634-1.926Z" transform="translate(555 878.986)" fill="#12263f"/>
    <g id="Trazado_869052" data-name="Trazado 869052" transform="translate(1117 851.986)" fill="#fcee95">
      <path d="M 176 39.5 L 20 39.5 C 17.36730003356934 39.5 14.81359958648682 38.98450088500977 12.40987491607666 37.96780014038086 C 10.08787536621094 36.98567581176758 8.002425193786621 35.5796012878418 6.211424827575684 33.78857421875 C 4.420400142669678 31.9975757598877 3.014324903488159 29.91212463378906 2.03220009803772 27.59012413024902 C 1.015499949455261 25.18639945983887 0.5 22.63269996643066 0.5 20 C 0.5 17.36730003356934 1.015499949455261 14.81359958648682 2.03220009803772 12.40987491607666 C 3.014324903488159 10.08787536621094 4.420400142669678 8.002425193786621 6.211424827575684 6.211424827575684 C 8.002425193786621 4.420400142669678 10.08787536621094 3.014324903488159 12.40987491607666 2.03220009803772 C 14.81359958648682 1.015499949455261 17.36730003356934 0.5 20 0.5 L 176 0.5 C 178.6327056884766 0.5 181.1864013671875 1.015499949455261 183.5901184082031 2.03220009803772 C 185.9121246337891 3.014324903488159 187.9975738525391 4.420400142669678 189.78857421875 6.211424827575684 C 191.5796051025391 8.002425193786621 192.9856719970703 10.08787536621094 193.9678039550781 12.40987491607666 C 194.9844970703125 14.81359958648682 195.5 17.36730003356934 195.5 20 C 195.5 22.63269996643066 194.9844970703125 25.18639945983887 193.9678039550781 27.59012413024902 C 192.9856719970703 29.91212463378906 191.5796051025391 31.9975757598877 189.78857421875 33.78857421875 C 187.9975738525391 35.5796012878418 185.9121246337891 36.98567581176758 183.5901184082031 37.96780014038086 C 181.1864013671875 38.98450088500977 178.6327056884766 39.5 176 39.5 Z" stroke="none"/>
      <path d="M 20 1 C 17.4345703125 1 14.94642639160156 1.502223968505859 12.60464477539062 2.492698669433594 C 10.34225463867188 3.449600219726562 8.310226440429688 4.819725036621094 6.564971923828125 6.564975738525391 C 4.819717407226562 8.310224533081055 3.449600219726562 10.34225082397461 2.492706298828125 12.60465049743652 C 1.502227783203125 14.94642448425293 1 17.43457412719727 1 20 C 1 22.56542587280273 1.502227783203125 25.05357360839844 2.492706298828125 27.39535140991211 C 3.449600219726562 29.65774917602539 4.819717407226562 31.68977546691895 6.564971923828125 33.43502426147461 C 8.310226440429688 35.18027496337891 10.34225463867188 36.55039978027344 12.60464477539062 37.50730133056641 C 14.94642639160156 38.49777603149414 17.4345703125 39 20 39 L 176 39 C 178.5654296875 39 181.0535736083984 38.49777603149414 183.3953552246094 37.50730133056641 C 185.6577453613281 36.55039978027344 187.6897735595703 35.18027496337891 189.4350280761719 33.43502426147461 C 191.1802673339844 31.68977546691895 192.5503997802734 29.65774917602539 193.5072937011719 27.39535140991211 C 194.4977722167969 25.05357360839844 195 22.56542587280273 195 20 C 195 17.43457412719727 194.4977722167969 14.94642448425293 193.5072937011719 12.60465049743652 C 192.5503997802734 10.34225082397461 191.1802673339844 8.310224533081055 189.4350280761719 6.564975738525391 C 187.6897735595703 4.819725036621094 185.6577453613281 3.449600219726562 183.3953552246094 2.492698669433594 C 181.0535736083984 1.502223968505859 178.5654296875 1 176 1 L 20 1 M 20 0 L 176 0 C 187.0457000732422 0 196 8.954299926757812 196 20 C 196 31.04570007324219 187.0457000732422 40 176 40 L 20 40 C 8.954299926757812 40 0 31.04570007324219 0 20 C 0 8.954299926757812 8.954299926757812 0 20 0 Z" stroke="none" fill="#dbc84f"/>
    </g>
    <path id="Trazado_869053" data-name="Trazado 869053" d="M9.522-13.113v2.34H4.14v3.06H8.262v2.25H4.14V-2.34H9.522V0H1.08V-13.113Zm3.96,8.289L10.476-9.333h2.682a.947.947,0,0,1,.437.076A.68.68,0,0,1,13.842-9l1.665,2.763a2.074,2.074,0,0,1,.135-.315q.081-.153.18-.324L17.01-8.955a.767.767,0,0,1,.261-.292.676.676,0,0,1,.351-.085h2.556L17.172-4.95,20.3,0H17.622a.741.741,0,0,1-.477-.144,1.247,1.247,0,0,1-.3-.342L15.183-3.348a2.043,2.043,0,0,1-.108.288,2.487,2.487,0,0,1-.135.252L13.572-.486a1.224,1.224,0,0,1-.288.338.684.684,0,0,1-.45.148H10.35Zm8.082,7.785V-9.333h1.728a.77.77,0,0,1,.436.117.625.625,0,0,1,.248.351l.207.684a4.691,4.691,0,0,1,.58-.54,3.825,3.825,0,0,1,.666-.418,3.67,3.67,0,0,1,.765-.274,3.808,3.808,0,0,1,.9-.1,2.875,2.875,0,0,1,1.35.324,3.111,3.111,0,0,1,1.071.936,4.723,4.723,0,0,1,.707,1.5,7.241,7.241,0,0,1,.256,2.012A6.2,6.2,0,0,1,30.181-2.8a4.885,4.885,0,0,1-.819,1.548A3.773,3.773,0,0,1,28.1-.225a3.563,3.563,0,0,1-1.625.369,3.18,3.18,0,0,1-1.224-.207,3.323,3.323,0,0,1-.9-.558V2.961ZM26.118-7.38a2.411,2.411,0,0,0-.554.059,2.034,2.034,0,0,0-.459.167,1.741,1.741,0,0,0-.392.274,4.065,4.065,0,0,0-.36.382v3.96a1.764,1.764,0,0,0,.684.49,2.17,2.17,0,0,0,.774.14,1.644,1.644,0,0,0,.711-.153,1.449,1.449,0,0,0,.563-.49,2.612,2.612,0,0,0,.373-.878,5.5,5.5,0,0,0,.135-1.314,6.045,6.045,0,0,0-.108-1.242,2.559,2.559,0,0,0-.3-.814,1.17,1.17,0,0,0-.464-.446A1.329,1.329,0,0,0,26.118-7.38ZM31.968,0V-9.333h1.656a1.412,1.412,0,0,1,.347.036.608.608,0,0,1,.234.112.48.48,0,0,1,.144.2,1.826,1.826,0,0,1,.086.306l.153.873a4.574,4.574,0,0,1,1.152-1.251,2.341,2.341,0,0,1,1.395-.459,1.607,1.607,0,0,1,1.026.306L37.8-7.155a.4.4,0,0,1-.144.266.489.489,0,0,1-.288.076,1.91,1.91,0,0,1-.36-.041,2.791,2.791,0,0,0-.522-.04,1.916,1.916,0,0,0-1.728,1.17V0ZM43.4-9.477a4.806,4.806,0,0,1,1.7.288,3.688,3.688,0,0,1,1.323.837,3.82,3.82,0,0,1,.864,1.345,4.937,4.937,0,0,1,.311,1.8,3.939,3.939,0,0,1-.027.513.812.812,0,0,1-.1.315.377.377,0,0,1-.194.162.906.906,0,0,1-.311.045H41.58a2.631,2.631,0,0,0,.711,1.7,2.115,2.115,0,0,0,1.485.526,2.658,2.658,0,0,0,.837-.117,4.222,4.222,0,0,0,.625-.261q.274-.144.5-.261a1.046,1.046,0,0,1,.481-.117.577.577,0,0,1,.5.243l.81,1a4.147,4.147,0,0,1-.931.805,4.841,4.841,0,0,1-1.026.486,5.561,5.561,0,0,1-1.053.243,7.9,7.9,0,0,1-1,.068,5.24,5.24,0,0,1-1.84-.32,4.229,4.229,0,0,1-1.5-.949,4.48,4.48,0,0,1-1.017-1.566,5.851,5.851,0,0,1-.374-2.178,4.929,4.929,0,0,1,.319-1.773,4.367,4.367,0,0,1,.918-1.467,4.371,4.371,0,0,1,1.449-1A4.782,4.782,0,0,1,43.4-9.477Zm.054,1.926A1.681,1.681,0,0,0,42.2-7.1a2.368,2.368,0,0,0-.594,1.309H45.09A2.463,2.463,0,0,0,45-6.435,1.571,1.571,0,0,0,44.725-7a1.42,1.42,0,0,0-.508-.4A1.739,1.739,0,0,0,43.452-7.551ZM54.9-7.29a.722.722,0,0,1-.229.243.6.6,0,0,1-.311.072.992.992,0,0,1-.4-.086l-.428-.185a4.658,4.658,0,0,0-.518-.184,2.31,2.31,0,0,0-.657-.086,1.39,1.39,0,0,0-.815.2.653.653,0,0,0-.283.563.564.564,0,0,0,.184.432,1.693,1.693,0,0,0,.491.3,6.765,6.765,0,0,0,.693.247q.387.117.792.261a7.053,7.053,0,0,1,.792.338,2.962,2.962,0,0,1,.693.477,2.129,2.129,0,0,1,.49.689,2.332,2.332,0,0,1,.185.972,3.2,3.2,0,0,1-.252,1.278A2.714,2.714,0,0,1,54.58-.747a3.554,3.554,0,0,1-1.233.657A5.554,5.554,0,0,1,51.66.144a5.135,5.135,0,0,1-.954-.09,6.608,6.608,0,0,1-.923-.243,5.026,5.026,0,0,1-.823-.364,3.571,3.571,0,0,1-.648-.455l.648-1.026a.933.933,0,0,1,.279-.283.775.775,0,0,1,.423-.1.88.88,0,0,1,.437.108l.418.234a3.489,3.489,0,0,0,.527.234,2.283,2.283,0,0,0,.76.108,1.932,1.932,0,0,0,.549-.068.967.967,0,0,0,.36-.184.737.737,0,0,0,.2-.261.734.734,0,0,0,.063-.3.606.606,0,0,0-.189-.459,1.647,1.647,0,0,0-.5-.31,6.035,6.035,0,0,0-.7-.243q-.391-.113-.8-.257a6.4,6.4,0,0,1-.8-.347,2.74,2.74,0,0,1-.7-.513,2.384,2.384,0,0,1-.495-.761,2.809,2.809,0,0,1-.189-1.089,2.837,2.837,0,0,1,.229-1.13,2.622,2.622,0,0,1,.688-.94,3.381,3.381,0,0,1,1.152-.644,4.981,4.981,0,0,1,1.62-.239,5.208,5.208,0,0,1,.977.09,4.99,4.99,0,0,1,.886.252,4.246,4.246,0,0,1,.756.383,3.63,3.63,0,0,1,.6.482Zm5.094-2.043V0H57.2V-9.333Zm.324-2.556a1.475,1.475,0,0,1-.135.626,1.646,1.646,0,0,1-.369.513,1.806,1.806,0,0,1-.544.351,1.69,1.69,0,0,1-.661.131,1.571,1.571,0,0,1-.639-.131,1.8,1.8,0,0,1-.527-.351,1.62,1.62,0,0,1-.36-.513,1.518,1.518,0,0,1-.131-.626,1.571,1.571,0,0,1,.131-.639,1.658,1.658,0,0,1,.36-.522,1.686,1.686,0,0,1,.527-.351,1.619,1.619,0,0,1,.639-.126,1.742,1.742,0,0,1,.661.126,1.7,1.7,0,0,1,.544.351,1.685,1.685,0,0,1,.369.522A1.526,1.526,0,0,1,60.318-11.889ZM66.4-9.477a5.39,5.39,0,0,1,1.935.333,4.244,4.244,0,0,1,1.5.954,4.3,4.3,0,0,1,.972,1.508,5.439,5.439,0,0,1,.346,1.993,5.537,5.537,0,0,1-.346,2.011,4.327,4.327,0,0,1-.972,1.521,4.264,4.264,0,0,1-1.5.963A5.326,5.326,0,0,1,66.4.144a5.388,5.388,0,0,1-1.949-.338,4.348,4.348,0,0,1-1.512-.963,4.264,4.264,0,0,1-.981-1.521,5.537,5.537,0,0,1-.347-2.011,5.439,5.439,0,0,1,.347-1.993,4.235,4.235,0,0,1,.981-1.508,4.328,4.328,0,0,1,1.512-.954A5.454,5.454,0,0,1,66.4-9.477Zm0,7.551a1.585,1.585,0,0,0,1.418-.68,3.758,3.758,0,0,0,.454-2.066,3.734,3.734,0,0,0-.454-2.061A1.588,1.588,0,0,0,66.4-7.407a1.628,1.628,0,0,0-1.449.675,3.7,3.7,0,0,0-.459,2.061,3.728,3.728,0,0,0,.459,2.066A1.624,1.624,0,0,0,66.4-1.926Zm3.564-11.331-2.34,2.367a1.393,1.393,0,0,1-.4.293,1.239,1.239,0,0,1-.5.085H65.052l1.224-2.2a1.207,1.207,0,0,1,.36-.4,1.14,1.14,0,0,1,.63-.139ZM72.684,0V-9.333h1.728a.77.77,0,0,1,.437.117.625.625,0,0,1,.247.351l.162.54a6.78,6.78,0,0,1,.558-.468,3.268,3.268,0,0,1,.617-.365,3.659,3.659,0,0,1,.711-.234,3.815,3.815,0,0,1,.833-.086,3.267,3.267,0,0,1,1.354.266,2.811,2.811,0,0,1,.994.738,3.185,3.185,0,0,1,.612,1.125,4.665,4.665,0,0,1,.207,1.418V0h-2.79V-5.931A1.632,1.632,0,0,0,78.039-7a1.131,1.131,0,0,0-.927-.383,1.941,1.941,0,0,0-.864.2,3.36,3.36,0,0,0-.774.531V0ZM93.15,0a.77.77,0,0,1-.437-.117.625.625,0,0,1-.248-.351l-.216-.711a5.471,5.471,0,0,1-.585.54A3.679,3.679,0,0,1,91-.221a3.5,3.5,0,0,1-.765.27,3.939,3.939,0,0,1-.886.095A2.875,2.875,0,0,1,88-.18a3.111,3.111,0,0,1-1.071-.936,4.723,4.723,0,0,1-.707-1.5,7.278,7.278,0,0,1-.257-2.021,6.3,6.3,0,0,1,.288-1.94,4.755,4.755,0,0,1,.814-1.548,3.782,3.782,0,0,1,1.265-1.021,3.591,3.591,0,0,1,1.629-.369,3.127,3.127,0,0,1,1.219.212,3.52,3.52,0,0,1,.9.554v-4.725h2.79V0ZM90.324-2a2.411,2.411,0,0,0,.553-.058,1.946,1.946,0,0,0,.455-.167,1.983,1.983,0,0,0,.391-.27,3.387,3.387,0,0,0,.365-.378v-3.96a1.845,1.845,0,0,0-.688-.49,2.134,2.134,0,0,0-.77-.14,1.644,1.644,0,0,0-.711.153,1.449,1.449,0,0,0-.562.49,2.612,2.612,0,0,0-.373.878,5.451,5.451,0,0,0-.135,1.3,6.045,6.045,0,0,0,.108,1.242,2.558,2.558,0,0,0,.3.815,1.17,1.17,0,0,0,.464.445A1.329,1.329,0,0,0,90.324-2Zm10.71-7.479a4.806,4.806,0,0,1,1.7.288,3.688,3.688,0,0,1,1.323.837,3.82,3.82,0,0,1,.864,1.345,4.938,4.938,0,0,1,.31,1.8,3.939,3.939,0,0,1-.027.513.812.812,0,0,1-.1.315.377.377,0,0,1-.193.162.906.906,0,0,1-.311.045H99.216a2.631,2.631,0,0,0,.711,1.7,2.115,2.115,0,0,0,1.485.526,2.658,2.658,0,0,0,.837-.117,4.222,4.222,0,0,0,.625-.261q.275-.144.5-.261a1.046,1.046,0,0,1,.481-.117.577.577,0,0,1,.5.243l.81,1a4.147,4.147,0,0,1-.932.805,4.841,4.841,0,0,1-1.026.486,5.561,5.561,0,0,1-1.053.243,7.9,7.9,0,0,1-1,.068,5.24,5.24,0,0,1-1.84-.32,4.229,4.229,0,0,1-1.5-.949A4.48,4.48,0,0,1,96.8-2.691a5.851,5.851,0,0,1-.373-2.178,4.929,4.929,0,0,1,.319-1.773,4.367,4.367,0,0,1,.918-1.467,4.371,4.371,0,0,1,1.449-1A4.782,4.782,0,0,1,101.034-9.477Zm.054,1.926a1.681,1.681,0,0,0-1.251.455,2.368,2.368,0,0,0-.594,1.309h3.483a2.463,2.463,0,0,0-.085-.648A1.571,1.571,0,0,0,102.362-7a1.42,1.42,0,0,0-.509-.4A1.739,1.739,0,0,0,101.088-7.551ZM113.6-9.5a5.156,5.156,0,0,1,1.12.117,4.508,4.508,0,0,1,.977.333h2.817v1.017a.509.509,0,0,1-.131.369.894.894,0,0,1-.446.207l-.684.153a2.8,2.8,0,0,1,.126.837,2.673,2.673,0,0,1-.292,1.26,2.866,2.866,0,0,1-.8.95,3.736,3.736,0,0,1-1.2.6,5.062,5.062,0,0,1-1.485.211,6,6,0,0,1-.828-.054.508.508,0,0,0-.306.418.354.354,0,0,0,.248.341,2.307,2.307,0,0,0,.652.145q.4.041.927.041t1.062.05a8.3,8.3,0,0,1,1.062.167,2.838,2.838,0,0,1,.927.379,1.975,1.975,0,0,1,.652.7,2.246,2.246,0,0,1,.247,1.115,2.711,2.711,0,0,1-.306,1.237,3.228,3.228,0,0,1-.9,1.074,4.7,4.7,0,0,1-1.458.754,6.327,6.327,0,0,1-1.98.284,7.6,7.6,0,0,1-1.895-.207,4.583,4.583,0,0,1-1.323-.545,2.3,2.3,0,0,1-.779-.779,1.829,1.829,0,0,1-.252-.919,1.529,1.529,0,0,1,.378-1.05,2.512,2.512,0,0,1,1.035-.671,1.579,1.579,0,0,1-.5-.53,1.6,1.6,0,0,1-.189-.818,1.454,1.454,0,0,1,.072-.436,1.6,1.6,0,0,1,.225-.445,2.25,2.25,0,0,1,.387-.413,2.532,2.532,0,0,1,.558-.35,3.049,3.049,0,0,1-1.147-1.026,2.649,2.649,0,0,1-.418-1.485,2.666,2.666,0,0,1,.3-1.265,2.857,2.857,0,0,1,.814-.954,3.833,3.833,0,0,1,1.219-.6A5.251,5.251,0,0,1,113.6-9.5Zm2.07,9.817a.494.494,0,0,0-.14-.368.99.99,0,0,0-.378-.221,2.627,2.627,0,0,0-.558-.12,6.037,6.037,0,0,0-.688-.037h-.765a4.028,4.028,0,0,1-.783-.077,1.833,1.833,0,0,0-.428.4.811.811,0,0,0-.166.5.763.763,0,0,0,.085.361.706.706,0,0,0,.3.28,2,2,0,0,0,.58.185,5.2,5.2,0,0,0,.923.068,5.465,5.465,0,0,0,.99-.074,2.066,2.066,0,0,0,.617-.2.752.752,0,0,0,.32-.308A.858.858,0,0,0,115.668.322ZM113.6-5.157a1.287,1.287,0,0,0,1-.346,1.291,1.291,0,0,0,.311-.9,1.234,1.234,0,0,0-.311-.891,1.34,1.34,0,0,0-1-.324,1.34,1.34,0,0,0-1,.324,1.234,1.234,0,0,0-.311.891,1.53,1.53,0,0,0,.076.495,1.029,1.029,0,0,0,.239.391,1.117,1.117,0,0,0,.41.261A1.653,1.653,0,0,0,113.6-5.157Zm10.116-4.32a4.806,4.806,0,0,1,1.7.288,3.688,3.688,0,0,1,1.323.837,3.82,3.82,0,0,1,.864,1.345,4.937,4.937,0,0,1,.311,1.8,3.941,3.941,0,0,1-.027.513.812.812,0,0,1-.1.315.377.377,0,0,1-.193.162.906.906,0,0,1-.311.045H121.9a2.631,2.631,0,0,0,.711,1.7,2.115,2.115,0,0,0,1.485.526,2.658,2.658,0,0,0,.837-.117,4.223,4.223,0,0,0,.626-.261q.274-.144.5-.261a1.046,1.046,0,0,1,.481-.117.577.577,0,0,1,.5.243l.81,1a4.147,4.147,0,0,1-.932.805,4.841,4.841,0,0,1-1.026.486,5.561,5.561,0,0,1-1.053.243,7.9,7.9,0,0,1-1,.068A5.24,5.24,0,0,1,122-.176a4.229,4.229,0,0,1-1.5-.949,4.48,4.48,0,0,1-1.017-1.566,5.851,5.851,0,0,1-.373-2.178,4.929,4.929,0,0,1,.319-1.773,4.367,4.367,0,0,1,.918-1.467,4.371,4.371,0,0,1,1.449-1A4.782,4.782,0,0,1,123.714-9.477Zm.054,1.926a1.681,1.681,0,0,0-1.251.455,2.368,2.368,0,0,0-.594,1.309h3.483a2.463,2.463,0,0,0-.085-.648A1.571,1.571,0,0,0,125.042-7a1.42,1.42,0,0,0-.508-.4A1.739,1.739,0,0,0,123.768-7.551Zm3.582-5.706-2.34,2.367a1.393,1.393,0,0,1-.4.293,1.239,1.239,0,0,1-.5.085h-1.674l1.224-2.2a1.207,1.207,0,0,1,.36-.4,1.14,1.14,0,0,1,.63-.139ZM129.51,0V-9.333h1.728a.77.77,0,0,1,.437.117.625.625,0,0,1,.247.351l.162.54a6.777,6.777,0,0,1,.558-.468,3.268,3.268,0,0,1,.617-.365,3.659,3.659,0,0,1,.711-.234,3.815,3.815,0,0,1,.832-.086,3.268,3.268,0,0,1,1.355.266,2.811,2.811,0,0,1,.995.738,3.185,3.185,0,0,1,.612,1.125,4.666,4.666,0,0,1,.207,1.418V0h-2.79V-5.931A1.632,1.632,0,0,0,134.865-7a1.131,1.131,0,0,0-.927-.383,1.941,1.941,0,0,0-.864.2,3.36,3.36,0,0,0-.774.531V0Zm14.436-9.477a4.806,4.806,0,0,1,1.7.288,3.688,3.688,0,0,1,1.323.837,3.82,3.82,0,0,1,.864,1.345,4.937,4.937,0,0,1,.311,1.8,3.938,3.938,0,0,1-.027.513.812.812,0,0,1-.1.315.377.377,0,0,1-.193.162.906.906,0,0,1-.311.045h-5.382a2.631,2.631,0,0,0,.711,1.7,2.115,2.115,0,0,0,1.485.526,2.658,2.658,0,0,0,.837-.117,4.223,4.223,0,0,0,.626-.261q.274-.144.5-.261a1.046,1.046,0,0,1,.482-.117.577.577,0,0,1,.5.243l.81,1a4.148,4.148,0,0,1-.932.805,4.841,4.841,0,0,1-1.026.486,5.561,5.561,0,0,1-1.053.243,7.9,7.9,0,0,1-1,.068,5.24,5.24,0,0,1-1.84-.32,4.229,4.229,0,0,1-1.5-.949,4.48,4.48,0,0,1-1.017-1.566,5.851,5.851,0,0,1-.374-2.178,4.929,4.929,0,0,1,.32-1.773,4.367,4.367,0,0,1,.918-1.467,4.371,4.371,0,0,1,1.449-1A4.782,4.782,0,0,1,143.946-9.477ZM144-7.551a1.681,1.681,0,0,0-1.251.455,2.368,2.368,0,0,0-.594,1.309h3.483a2.462,2.462,0,0,0-.086-.648A1.571,1.571,0,0,0,145.273-7a1.42,1.42,0,0,0-.508-.4A1.739,1.739,0,0,0,144-7.551ZM149.742,0V-9.333H151.4a1.412,1.412,0,0,1,.347.036.608.608,0,0,1,.234.112.48.48,0,0,1,.144.2,1.826,1.826,0,0,1,.086.306l.153.873a4.574,4.574,0,0,1,1.152-1.251,2.341,2.341,0,0,1,1.4-.459,1.607,1.607,0,0,1,1.026.306l-.36,2.052a.4.4,0,0,1-.144.266.489.489,0,0,1-.288.076,1.91,1.91,0,0,1-.36-.041,2.791,2.791,0,0,0-.522-.04,1.916,1.916,0,0,0-1.728,1.17V0Zm11.592-9.477a5.39,5.39,0,0,1,1.935.333,4.244,4.244,0,0,1,1.5.954,4.3,4.3,0,0,1,.972,1.508,5.438,5.438,0,0,1,.347,1.993,5.537,5.537,0,0,1-.347,2.011,4.327,4.327,0,0,1-.972,1.521,4.264,4.264,0,0,1-1.5.963,5.326,5.326,0,0,1-1.935.338,5.388,5.388,0,0,1-1.949-.338,4.348,4.348,0,0,1-1.512-.963,4.265,4.265,0,0,1-.981-1.521,5.537,5.537,0,0,1-.346-2.011,5.438,5.438,0,0,1,.346-1.993,4.235,4.235,0,0,1,.981-1.508,4.328,4.328,0,0,1,1.512-.954A5.454,5.454,0,0,1,161.334-9.477Zm0,7.551a1.585,1.585,0,0,0,1.417-.68,3.758,3.758,0,0,0,.454-2.066,3.734,3.734,0,0,0-.454-2.061,1.588,1.588,0,0,0-1.417-.675,1.628,1.628,0,0,0-1.449.675,3.7,3.7,0,0,0-.459,2.061,3.728,3.728,0,0,0,.459,2.066A1.624,1.624,0,0,0,161.334-1.926Z" transform="translate(1135 878.986)" fill="#12263f"/>
    <g id="Trazado_869054" data-name="Trazado 869054" transform="translate(537 1151.986)" fill="#fcee95">
      <path d="M 176 39.5 L 20 39.5 C 17.36730003356934 39.5 14.81359958648682 38.98450088500977 12.40987491607666 37.96780014038086 C 10.08787536621094 36.98567581176758 8.002425193786621 35.5796012878418 6.211424827575684 33.78857421875 C 4.420400142669678 31.9975757598877 3.014324903488159 29.91212463378906 2.03220009803772 27.59012413024902 C 1.015499949455261 25.18639945983887 0.5 22.63269996643066 0.5 20 C 0.5 17.36730003356934 1.015499949455261 14.81359958648682 2.03220009803772 12.40987491607666 C 3.014324903488159 10.08787536621094 4.420400142669678 8.002425193786621 6.211424827575684 6.211424827575684 C 8.002425193786621 4.420400142669678 10.08787536621094 3.014324903488159 12.40987491607666 2.03220009803772 C 14.81359958648682 1.015499949455261 17.36730003356934 0.5 20 0.5 L 176 0.5 C 178.6327056884766 0.5 181.1864013671875 1.015499949455261 183.5901184082031 2.03220009803772 C 185.9121246337891 3.014324903488159 187.9975738525391 4.420400142669678 189.78857421875 6.211424827575684 C 191.5796051025391 8.002425193786621 192.9856719970703 10.08787536621094 193.9678039550781 12.40987491607666 C 194.9844970703125 14.81359958648682 195.5 17.36730003356934 195.5 20 C 195.5 22.63269996643066 194.9844970703125 25.18639945983887 193.9678039550781 27.59012413024902 C 192.9856719970703 29.91212463378906 191.5796051025391 31.9975757598877 189.78857421875 33.78857421875 C 187.9975738525391 35.5796012878418 185.9121246337891 36.98567581176758 183.5901184082031 37.96780014038086 C 181.1864013671875 38.98450088500977 178.6327056884766 39.5 176 39.5 Z" stroke="none"/>
      <path d="M 20 1 C 17.4345703125 1 14.94642639160156 1.502223968505859 12.60464477539062 2.492698669433594 C 10.34225463867188 3.449600219726562 8.310226440429688 4.819725036621094 6.564971923828125 6.564975738525391 C 4.819717407226562 8.310224533081055 3.449600219726562 10.34225082397461 2.492706298828125 12.60465049743652 C 1.502227783203125 14.94642448425293 1 17.43457412719727 1 20 C 1 22.56542587280273 1.502227783203125 25.05357360839844 2.492706298828125 27.39535140991211 C 3.449600219726562 29.65774917602539 4.819717407226562 31.68977546691895 6.564971923828125 33.43502426147461 C 8.310226440429688 35.18027496337891 10.34225463867188 36.55039978027344 12.60464477539062 37.50730133056641 C 14.94642639160156 38.49777603149414 17.4345703125 39 20 39 L 176 39 C 178.5654296875 39 181.0535736083984 38.49777603149414 183.3953552246094 37.50730133056641 C 185.6577453613281 36.55039978027344 187.6897735595703 35.18027496337891 189.4350280761719 33.43502426147461 C 191.1802673339844 31.68977546691895 192.5503997802734 29.65774917602539 193.5072937011719 27.39535140991211 C 194.4977722167969 25.05357360839844 195 22.56542587280273 195 20 C 195 17.43457412719727 194.4977722167969 14.94642448425293 193.5072937011719 12.60465049743652 C 192.5503997802734 10.34225082397461 191.1802673339844 8.310224533081055 189.4350280761719 6.564975738525391 C 187.6897735595703 4.819725036621094 185.6577453613281 3.449600219726562 183.3953552246094 2.492698669433594 C 181.0535736083984 1.502223968505859 178.5654296875 1 176 1 L 20 1 M 20 0 L 176 0 C 187.0457000732422 0 196 8.954299926757812 196 20 C 196 31.04570007324219 187.0457000732422 40 176 40 L 20 40 C 8.954299926757812 40 0 31.04570007324219 0 20 C 0 8.954299926757812 8.954299926757812 0 20 0 Z" stroke="none" fill="#dbc84f"/>
    </g>
    <path id="Trazado_869055" data-name="Trazado 869055" d="M14.022-6.561a7.047,7.047,0,0,1-.491,2.646A6.377,6.377,0,0,1,12.15-1.787,6.335,6.335,0,0,1,10-.369,7.3,7.3,0,0,1,7.218.144a7.334,7.334,0,0,1-2.79-.513A6.374,6.374,0,0,1,2.273-1.787,6.343,6.343,0,0,1,.887-3.915,7.047,7.047,0,0,1,.4-6.561,7.047,7.047,0,0,1,.887-9.207a6.294,6.294,0,0,1,1.386-2.124,6.408,6.408,0,0,1,2.155-1.413,7.334,7.334,0,0,1,2.79-.513A7.244,7.244,0,0,1,10-12.74a6.425,6.425,0,0,1,2.147,1.417A6.328,6.328,0,0,1,13.532-9.2,7.023,7.023,0,0,1,14.022-6.561Zm-3.114,0a5.67,5.67,0,0,0-.252-1.751A3.707,3.707,0,0,0,9.932-9.63a3.125,3.125,0,0,0-1.156-.828,3.98,3.98,0,0,0-1.557-.288,4.039,4.039,0,0,0-1.57.288,3.117,3.117,0,0,0-1.161.828,3.707,3.707,0,0,0-.725,1.318A5.67,5.67,0,0,0,3.51-6.561,5.7,5.7,0,0,0,3.762-4.8a3.707,3.707,0,0,0,.725,1.319,3.073,3.073,0,0,0,1.161.824,4.1,4.1,0,0,0,1.57.284A4.036,4.036,0,0,0,8.775-2.66a3.08,3.08,0,0,0,1.156-.824A3.707,3.707,0,0,0,10.656-4.8,5.7,5.7,0,0,0,10.908-6.561ZM15.48,0V-9.333h1.656a1.412,1.412,0,0,1,.347.036.608.608,0,0,1,.234.112.48.48,0,0,1,.144.2,1.826,1.826,0,0,1,.085.306L18.1-7.8a4.574,4.574,0,0,1,1.152-1.251,2.341,2.341,0,0,1,1.4-.459,1.607,1.607,0,0,1,1.026.306l-.36,2.052a.4.4,0,0,1-.144.266.489.489,0,0,1-.288.076,1.91,1.91,0,0,1-.36-.041A2.791,2.791,0,0,0,20-6.894a1.916,1.916,0,0,0-1.728,1.17V0ZM25.794-9.333V0H23V-9.333Zm.324-2.556a1.475,1.475,0,0,1-.135.626,1.646,1.646,0,0,1-.369.513,1.806,1.806,0,0,1-.545.351,1.69,1.69,0,0,1-.662.131,1.571,1.571,0,0,1-.639-.131,1.8,1.8,0,0,1-.526-.351,1.62,1.62,0,0,1-.36-.513,1.518,1.518,0,0,1-.131-.626,1.571,1.571,0,0,1,.131-.639,1.658,1.658,0,0,1,.36-.522,1.686,1.686,0,0,1,.526-.351,1.619,1.619,0,0,1,.639-.126,1.742,1.742,0,0,1,.662.126,1.7,1.7,0,0,1,.545.351,1.685,1.685,0,0,1,.369.522A1.526,1.526,0,0,1,26.118-11.889ZM32.04-9.477a4.806,4.806,0,0,1,1.7.288,3.688,3.688,0,0,1,1.323.837,3.82,3.82,0,0,1,.864,1.345,4.937,4.937,0,0,1,.311,1.8,3.94,3.94,0,0,1-.027.513.812.812,0,0,1-.1.315.377.377,0,0,1-.194.162.906.906,0,0,1-.31.045H30.222a2.631,2.631,0,0,0,.711,1.7,2.115,2.115,0,0,0,1.485.526,2.658,2.658,0,0,0,.837-.117,4.223,4.223,0,0,0,.626-.261q.274-.144.5-.261a1.046,1.046,0,0,1,.481-.117.577.577,0,0,1,.5.243l.81,1a4.147,4.147,0,0,1-.932.805,4.841,4.841,0,0,1-1.026.486,5.561,5.561,0,0,1-1.053.243,7.9,7.9,0,0,1-1,.068,5.24,5.24,0,0,1-1.841-.32,4.229,4.229,0,0,1-1.5-.949,4.48,4.48,0,0,1-1.017-1.566,5.851,5.851,0,0,1-.373-2.178,4.929,4.929,0,0,1,.319-1.773,4.367,4.367,0,0,1,.918-1.467,4.371,4.371,0,0,1,1.449-1A4.782,4.782,0,0,1,32.04-9.477Zm.054,1.926a1.681,1.681,0,0,0-1.251.455,2.368,2.368,0,0,0-.594,1.309h3.483a2.463,2.463,0,0,0-.085-.648A1.571,1.571,0,0,0,33.368-7a1.42,1.42,0,0,0-.508-.4A1.739,1.739,0,0,0,32.094-7.551ZM37.836,0V-9.333h1.728A.77.77,0,0,1,40-9.216a.625.625,0,0,1,.248.351l.162.54a6.778,6.778,0,0,1,.558-.468,3.268,3.268,0,0,1,.616-.365,3.659,3.659,0,0,1,.711-.234,3.815,3.815,0,0,1,.833-.086,3.267,3.267,0,0,1,1.354.266,2.811,2.811,0,0,1,.994.738,3.185,3.185,0,0,1,.612,1.125A4.665,4.665,0,0,1,46.3-5.931V0h-2.79V-5.931A1.632,1.632,0,0,0,43.191-7a1.131,1.131,0,0,0-.927-.383,1.941,1.941,0,0,0-.864.2,3.36,3.36,0,0,0-.774.531V0ZM51.552.144A3.29,3.29,0,0,1,50.377-.05,2.333,2.333,0,0,1,49.522-.6,2.34,2.34,0,0,1,49-1.458a3.327,3.327,0,0,1-.18-1.125V-7.407h-.792a.528.528,0,0,1-.369-.14.526.526,0,0,1-.153-.41V-9.045l1.485-.288.549-2.277a.554.554,0,0,1,.612-.432h1.458v2.727h2.268v1.908H51.606v4.635a.872.872,0,0,0,.158.536.532.532,0,0,0,.454.211.893.893,0,0,0,.257-.031,1.021,1.021,0,0,0,.18-.072q.076-.04.144-.072a.369.369,0,0,1,.157-.032.325.325,0,0,1,.2.059.724.724,0,0,1,.157.184l.846,1.323a3.85,3.85,0,0,1-1.215.608A4.828,4.828,0,0,1,51.552.144ZM61.92,0a1.307,1.307,0,0,1-.6-.108.825.825,0,0,1-.337-.45l-.2-.513q-.351.3-.675.522a4.278,4.278,0,0,1-.67.383A3.311,3.311,0,0,1,58.7.068a4.542,4.542,0,0,1-.868.077,3.8,3.8,0,0,1-1.161-.167,2.42,2.42,0,0,1-.887-.492,2.164,2.164,0,0,1-.562-.808,2.922,2.922,0,0,1-.2-1.115,2.345,2.345,0,0,1,.252-1.02,2.514,2.514,0,0,1,.873-.953,5.538,5.538,0,0,1,1.674-.718,10.238,10.238,0,0,1,2.655-.289v-.4a1.738,1.738,0,0,0-.337-1.194,1.235,1.235,0,0,0-.958-.368,2.543,2.543,0,0,0-.81.108,3.641,3.641,0,0,0-.562.243q-.248.135-.482.243a1.323,1.323,0,0,1-.558.108.843.843,0,0,1-.49-.14,1.036,1.036,0,0,1-.319-.346l-.5-.873a5.673,5.673,0,0,1,1.876-1.111,6.578,6.578,0,0,1,2.209-.365,4.041,4.041,0,0,1,1.526.274,3.283,3.283,0,0,1,1.152.765,3.343,3.343,0,0,1,.724,1.165A4.189,4.189,0,0,1,63.2-5.832V0Zm-3.2-1.7a2.214,2.214,0,0,0,.945-.189A2.879,2.879,0,0,0,60.48-2.5V-3.78a7.166,7.166,0,0,0-1.377.109,3.322,3.322,0,0,0-.855.272,1.038,1.038,0,0,0-.437.372.887.887,0,0,0-.122.454.792.792,0,0,0,.261.676A1.265,1.265,0,0,0,58.716-1.7ZM71.91-7.119a1.543,1.543,0,0,1-.243.243.536.536,0,0,1-.333.09.717.717,0,0,1-.373-.1l-.374-.221a2.833,2.833,0,0,0-.486-.22,2.092,2.092,0,0,0-.693-.1,1.942,1.942,0,0,0-.886.189,1.642,1.642,0,0,0-.617.54,2.468,2.468,0,0,0-.36.859,5.135,5.135,0,0,0-.117,1.148,3.5,3.5,0,0,0,.518,2.061,1.661,1.661,0,0,0,1.426.72,1.994,1.994,0,0,0,.77-.122,2.332,2.332,0,0,0,.481-.27l.365-.274a.674.674,0,0,1,.418-.126.577.577,0,0,1,.5.243l.81,1a4.407,4.407,0,0,1-.909.805,4.56,4.56,0,0,1-.976.486,5.04,5.04,0,0,1-1,.243,7.389,7.389,0,0,1-.981.068A4.21,4.21,0,0,1,67.216-.18a4,4,0,0,1-1.368-.941,4.5,4.5,0,0,1-.936-1.516,5.681,5.681,0,0,1-.346-2.052,5.764,5.764,0,0,1,.3-1.886A4.281,4.281,0,0,1,65.758-8.1a4.143,4.143,0,0,1,1.458-1.012,5.109,5.109,0,0,1,2.011-.369,4.9,4.9,0,0,1,1.926.351A4.621,4.621,0,0,1,72.648-8.1Zm4.9-2.214V0h-2.79V-9.333Zm.324-2.556a1.475,1.475,0,0,1-.135.626,1.647,1.647,0,0,1-.369.513,1.806,1.806,0,0,1-.545.351,1.69,1.69,0,0,1-.661.131,1.571,1.571,0,0,1-.639-.131,1.8,1.8,0,0,1-.526-.351,1.62,1.62,0,0,1-.36-.513,1.518,1.518,0,0,1-.131-.626,1.571,1.571,0,0,1,.131-.639,1.658,1.658,0,0,1,.36-.522,1.686,1.686,0,0,1,.526-.351,1.619,1.619,0,0,1,.639-.126,1.742,1.742,0,0,1,.661.126,1.7,1.7,0,0,1,.545.351,1.685,1.685,0,0,1,.369.522A1.526,1.526,0,0,1,77.13-11.889Zm6.084,2.412a5.39,5.39,0,0,1,1.935.333,4.244,4.244,0,0,1,1.5.954,4.3,4.3,0,0,1,.972,1.508,5.439,5.439,0,0,1,.346,1.993,5.537,5.537,0,0,1-.346,2.011,4.327,4.327,0,0,1-.972,1.521,4.264,4.264,0,0,1-1.5.963,5.326,5.326,0,0,1-1.935.338,5.388,5.388,0,0,1-1.949-.338,4.348,4.348,0,0,1-1.512-.963,4.264,4.264,0,0,1-.981-1.521,5.537,5.537,0,0,1-.347-2.011,5.438,5.438,0,0,1,.347-1.993,4.235,4.235,0,0,1,.981-1.508,4.328,4.328,0,0,1,1.512-.954A5.454,5.454,0,0,1,83.214-9.477Zm0,7.551a1.585,1.585,0,0,0,1.418-.68,3.758,3.758,0,0,0,.454-2.066,3.734,3.734,0,0,0-.454-2.061,1.588,1.588,0,0,0-1.418-.675,1.628,1.628,0,0,0-1.449.675,3.7,3.7,0,0,0-.459,2.061,3.728,3.728,0,0,0,.459,2.066A1.624,1.624,0,0,0,83.214-1.926Zm3.564-11.331-2.34,2.367a1.393,1.393,0,0,1-.4.293,1.239,1.239,0,0,1-.5.085H81.864l1.224-2.2a1.207,1.207,0,0,1,.36-.4,1.14,1.14,0,0,1,.63-.139ZM89.5,0V-9.333h1.728a.77.77,0,0,1,.437.117.625.625,0,0,1,.247.351l.162.54a6.78,6.78,0,0,1,.558-.468,3.268,3.268,0,0,1,.617-.365,3.659,3.659,0,0,1,.711-.234,3.815,3.815,0,0,1,.833-.086,3.267,3.267,0,0,1,1.354.266,2.811,2.811,0,0,1,.994.738,3.185,3.185,0,0,1,.612,1.125,4.665,4.665,0,0,1,.207,1.418V0h-2.79V-5.931A1.632,1.632,0,0,0,94.851-7a1.131,1.131,0,0,0-.927-.383,1.941,1.941,0,0,0-.864.2,3.36,3.36,0,0,0-.774.531V0Zm19.62-7.29a.722.722,0,0,1-.229.243.6.6,0,0,1-.311.072.992.992,0,0,1-.4-.086l-.427-.185a4.658,4.658,0,0,0-.518-.184,2.31,2.31,0,0,0-.657-.086,1.39,1.39,0,0,0-.814.2.653.653,0,0,0-.284.563.564.564,0,0,0,.185.432,1.693,1.693,0,0,0,.49.3,6.765,6.765,0,0,0,.693.247q.387.117.792.261a7.052,7.052,0,0,1,.792.338,2.962,2.962,0,0,1,.693.477,2.129,2.129,0,0,1,.491.689,2.332,2.332,0,0,1,.185.972,3.2,3.2,0,0,1-.252,1.278A2.714,2.714,0,0,1,108.8-.747a3.554,3.554,0,0,1-1.233.657,5.554,5.554,0,0,1-1.687.234,5.135,5.135,0,0,1-.954-.09A6.608,6.608,0,0,1,104-.189a5.025,5.025,0,0,1-.824-.364,3.571,3.571,0,0,1-.648-.455l.648-1.026a.933.933,0,0,1,.279-.283.775.775,0,0,1,.423-.1.88.88,0,0,1,.437.108l.419.234a3.489,3.489,0,0,0,.526.234,2.283,2.283,0,0,0,.761.108,1.932,1.932,0,0,0,.549-.068.967.967,0,0,0,.36-.184.737.737,0,0,0,.2-.261.734.734,0,0,0,.063-.3A.606.606,0,0,0,107-3.006a1.647,1.647,0,0,0-.495-.31,6.035,6.035,0,0,0-.7-.243q-.392-.113-.8-.257a6.4,6.4,0,0,1-.8-.347,2.74,2.74,0,0,1-.7-.513,2.384,2.384,0,0,1-.5-.761,2.809,2.809,0,0,1-.189-1.089,2.837,2.837,0,0,1,.229-1.13,2.622,2.622,0,0,1,.688-.94,3.381,3.381,0,0,1,1.152-.644,4.981,4.981,0,0,1,1.62-.239,5.208,5.208,0,0,1,.977.09,4.991,4.991,0,0,1,.886.252,4.246,4.246,0,0,1,.756.383,3.631,3.631,0,0,1,.6.482Zm6.21-2.187a4.806,4.806,0,0,1,1.7.288,3.688,3.688,0,0,1,1.323.837,3.82,3.82,0,0,1,.864,1.345,4.938,4.938,0,0,1,.31,1.8,3.939,3.939,0,0,1-.027.513.812.812,0,0,1-.1.315.377.377,0,0,1-.193.162.906.906,0,0,1-.311.045h-5.382a2.631,2.631,0,0,0,.711,1.7,2.115,2.115,0,0,0,1.485.526,2.658,2.658,0,0,0,.837-.117,4.222,4.222,0,0,0,.625-.261q.275-.144.5-.261a1.046,1.046,0,0,1,.481-.117.577.577,0,0,1,.5.243l.81,1a4.147,4.147,0,0,1-.932.805,4.841,4.841,0,0,1-1.026.486,5.561,5.561,0,0,1-1.053.243,7.9,7.9,0,0,1-1,.068,5.24,5.24,0,0,1-1.84-.32,4.229,4.229,0,0,1-1.5-.949,4.48,4.48,0,0,1-1.017-1.566,5.851,5.851,0,0,1-.373-2.178,4.929,4.929,0,0,1,.319-1.773,4.367,4.367,0,0,1,.918-1.467,4.371,4.371,0,0,1,1.449-1A4.782,4.782,0,0,1,115.326-9.477Zm.054,1.926a1.681,1.681,0,0,0-1.251.455,2.368,2.368,0,0,0-.594,1.309h3.483a2.463,2.463,0,0,0-.085-.648A1.571,1.571,0,0,0,116.653-7a1.42,1.42,0,0,0-.509-.4A1.739,1.739,0,0,0,115.38-7.551Zm7.434,2.727-3.006-4.509h2.682a.947.947,0,0,1,.437.076.68.68,0,0,1,.247.257l1.665,2.763a2.074,2.074,0,0,1,.135-.315q.081-.153.18-.324l1.188-2.079a.767.767,0,0,1,.261-.292.676.676,0,0,1,.351-.085h2.556L126.5-4.95,129.636,0h-2.682a.741.741,0,0,1-.477-.144,1.247,1.247,0,0,1-.3-.342l-1.665-2.862a2.043,2.043,0,0,1-.108.288,2.487,2.487,0,0,1-.135.252L122.9-.486a1.224,1.224,0,0,1-.288.338.684.684,0,0,1-.45.148h-2.484Zm10.692-4.509v5.922a1.629,1.629,0,0,0,.315,1.071,1.138,1.138,0,0,0,.927.378,1.989,1.989,0,0,0,.859-.189,3.206,3.206,0,0,0,.779-.531V-9.333h2.79V0h-1.728a.656.656,0,0,1-.684-.468l-.171-.54a5.415,5.415,0,0,1-.558.473,3.415,3.415,0,0,1-.617.36,3.683,3.683,0,0,1-.706.234,3.754,3.754,0,0,1-.828.086,3.267,3.267,0,0,1-1.354-.266,2.787,2.787,0,0,1-.995-.743,3.238,3.238,0,0,1-.612-1.125,4.653,4.653,0,0,1-.207-1.422V-9.333ZM147.78,0a1.307,1.307,0,0,1-.6-.108.825.825,0,0,1-.338-.45l-.2-.513q-.351.3-.675.522a4.277,4.277,0,0,1-.671.383,3.311,3.311,0,0,1-.738.234,4.542,4.542,0,0,1-.868.077,3.8,3.8,0,0,1-1.161-.167,2.42,2.42,0,0,1-.886-.492,2.164,2.164,0,0,1-.562-.808,2.922,2.922,0,0,1-.2-1.115,2.345,2.345,0,0,1,.252-1.02,2.514,2.514,0,0,1,.873-.953,5.539,5.539,0,0,1,1.674-.718,10.238,10.238,0,0,1,2.655-.289v-.4A1.738,1.738,0,0,0,146-7.012a1.235,1.235,0,0,0-.959-.368,2.543,2.543,0,0,0-.81.108,3.641,3.641,0,0,0-.562.243q-.247.135-.481.243a1.323,1.323,0,0,1-.558.108.843.843,0,0,1-.491-.14,1.036,1.036,0,0,1-.32-.346l-.5-.873a5.674,5.674,0,0,1,1.877-1.111,6.578,6.578,0,0,1,2.209-.365,4.041,4.041,0,0,1,1.526.274,3.283,3.283,0,0,1,1.152.765,3.343,3.343,0,0,1,.725,1.165,4.189,4.189,0,0,1,.252,1.476V0Zm-3.2-1.7a2.214,2.214,0,0,0,.945-.189,2.879,2.879,0,0,0,.819-.612V-3.78a7.166,7.166,0,0,0-1.377.109,3.322,3.322,0,0,0-.855.272,1.038,1.038,0,0,0-.437.372.887.887,0,0,0-.121.454.792.792,0,0,0,.261.676A1.265,1.265,0,0,0,144.576-1.7Zm9.342-11.772V0h-2.79V-13.473Z" transform="translate(555 1178.986)" fill="#12263f"/>
    <path id="Trazado_869058" data-name="Trazado 869058" d="M0,0H580V37a23,23,0,0,1-23,23H23A23,23,0,0,1,0,37Z" transform="translate(510 715)" fill="#3c1c74"/>
    <path id="Trazado_869059" data-name="Trazado 869059" d="M114.64,19.316A6.326,6.326,0,0,0,116,19.184a6.678,6.678,0,0,0,1.122-.352V16.4h-1.584a.769.769,0,0,1-.55-.187.623.623,0,0,1-.2-.473V13.695h5.7V20.46a8.4,8.4,0,0,1-1.282.776,8.278,8.278,0,0,1-1.419.533,10.565,10.565,0,0,1-1.606.308,15.912,15.912,0,0,1-1.831.1,8.4,8.4,0,0,1-3.256-.622,7.794,7.794,0,0,1-4.306-4.312,8.444,8.444,0,0,1-.621-3.262,8.879,8.879,0,0,1,.594-3.295,7.42,7.42,0,0,1,1.7-2.59A7.71,7.71,0,0,1,111.137,6.4a9.662,9.662,0,0,1,3.5-.6,10.2,10.2,0,0,1,1.881.165,9.254,9.254,0,0,1,1.622.451,7.467,7.467,0,0,1,1.358.682,7.317,7.317,0,0,1,1.1.858l-1.078,1.639a1.2,1.2,0,0,1-.368.363.875.875,0,0,1-.467.132,1.288,1.288,0,0,1-.682-.22q-.44-.264-.83-.457a5.068,5.068,0,0,0-.8-.314,5.227,5.227,0,0,0-.858-.176,8.42,8.42,0,0,0-1.012-.055,4.617,4.617,0,0,0-1.881.368,4.033,4.033,0,0,0-1.424,1.04,4.7,4.7,0,0,0-.908,1.611,6.5,6.5,0,0,0-.319,2.1,6.744,6.744,0,0,0,.352,2.266,4.869,4.869,0,0,0,.973,1.672,4.134,4.134,0,0,0,1.474,1.04A4.773,4.773,0,0,0,114.64,19.316ZM130.634,22a1.6,1.6,0,0,1-.732-.132,1.008,1.008,0,0,1-.412-.55l-.242-.627q-.429.363-.825.638a5.228,5.228,0,0,1-.82.467,4.047,4.047,0,0,1-.9.286,5.551,5.551,0,0,1-1.062.094,4.64,4.64,0,0,1-1.419-.2,2.958,2.958,0,0,1-1.083-.6,2.645,2.645,0,0,1-.687-.988,3.572,3.572,0,0,1-.242-1.363,2.866,2.866,0,0,1,.308-1.247,3.073,3.073,0,0,1,1.067-1.164,6.769,6.769,0,0,1,2.046-.877,12.513,12.513,0,0,1,3.245-.353V14.89a2.124,2.124,0,0,0-.413-1.46,1.51,1.51,0,0,0-1.172-.45,3.108,3.108,0,0,0-.99.132,4.451,4.451,0,0,0-.687.3q-.3.165-.589.3a1.616,1.616,0,0,1-.682.132,1.031,1.031,0,0,1-.6-.17,1.266,1.266,0,0,1-.39-.424l-.616-1.067a6.934,6.934,0,0,1,2.294-1.358,8.04,8.04,0,0,1,2.7-.446,4.939,4.939,0,0,1,1.864.335,4.012,4.012,0,0,1,1.408.935,4.086,4.086,0,0,1,.885,1.425,5.119,5.119,0,0,1,.308,1.8V22Zm-3.916-2.079a2.706,2.706,0,0,0,1.155-.231,3.519,3.519,0,0,0,1-.748V17.38a8.759,8.759,0,0,0-1.683.133,4.06,4.06,0,0,0-1.045.333,1.269,1.269,0,0,0-.534.455,1.084,1.084,0,0,0-.148.555.968.968,0,0,0,.319.827A1.546,1.546,0,0,0,126.718,19.921ZM138.136,5.533V22h-3.41V5.533Zm6.27,0V22H141V5.533Zm7.634,4.884a5.873,5.873,0,0,1,2.074.352,4.508,4.508,0,0,1,1.617,1.023,4.669,4.669,0,0,1,1.056,1.644,6.034,6.034,0,0,1,.38,2.206,4.813,4.813,0,0,1-.033.627.992.992,0,0,1-.121.385.461.461,0,0,1-.236.2,1.108,1.108,0,0,1-.38.055h-6.578a3.216,3.216,0,0,0,.869,2.073,2.585,2.585,0,0,0,1.815.644,3.249,3.249,0,0,0,1.023-.143,5.162,5.162,0,0,0,.765-.319q.335-.176.616-.319a1.279,1.279,0,0,1,.589-.143.7.7,0,0,1,.616.3l.99,1.221a5.069,5.069,0,0,1-1.139.984,5.916,5.916,0,0,1-1.254.594,6.8,6.8,0,0,1-1.287.3,9.658,9.658,0,0,1-1.227.083,6.4,6.4,0,0,1-2.249-.391,5.169,5.169,0,0,1-1.837-1.16,5.476,5.476,0,0,1-1.243-1.914,7.152,7.152,0,0,1-.456-2.662,6.024,6.024,0,0,1,.39-2.167,5.264,5.264,0,0,1,2.893-3.014A5.845,5.845,0,0,1,152.04,10.417Zm.066,2.354a2.055,2.055,0,0,0-1.529.556,2.894,2.894,0,0,0-.726,1.6h4.257a3.01,3.01,0,0,0-.1-.792,1.92,1.92,0,0,0-.341-.688,1.735,1.735,0,0,0-.622-.489A2.125,2.125,0,0,0,152.106,12.771Zm11.022,9.405a4.021,4.021,0,0,1-1.436-.236A2.77,2.77,0,0,1,160,20.218a4.067,4.067,0,0,1-.22-1.375v-5.9h-.968a.615.615,0,0,1-.638-.671V10.945l1.815-.352.671-2.783a.678.678,0,0,1,.748-.528h1.782v3.333h2.772v2.332h-2.772v5.665a1.066,1.066,0,0,0,.193.655.65.65,0,0,0,.555.258,1.092,1.092,0,0,0,.314-.038,1.248,1.248,0,0,0,.22-.088q.093-.05.176-.088a.451.451,0,0,1,.192-.038.4.4,0,0,1,.248.072.885.885,0,0,1,.192.226l1.034,1.617a4.706,4.706,0,0,1-1.485.742A5.9,5.9,0,0,1,163.128,22.176ZM175.8,22a1.6,1.6,0,0,1-.731-.132,1.008,1.008,0,0,1-.413-.55l-.242-.627q-.429.363-.825.638a5.228,5.228,0,0,1-.82.467,4.047,4.047,0,0,1-.9.286,5.551,5.551,0,0,1-1.062.094,4.64,4.64,0,0,1-1.419-.2,2.958,2.958,0,0,1-1.084-.6,2.645,2.645,0,0,1-.687-.988,3.572,3.572,0,0,1-.242-1.363,2.866,2.866,0,0,1,.308-1.247,3.073,3.073,0,0,1,1.067-1.164,6.769,6.769,0,0,1,2.046-.877,12.513,12.513,0,0,1,3.245-.353V14.89a2.124,2.124,0,0,0-.413-1.46,1.51,1.51,0,0,0-1.171-.45,3.108,3.108,0,0,0-.99.132,4.451,4.451,0,0,0-.687.3q-.3.165-.589.3a1.616,1.616,0,0,1-.682.132,1.031,1.031,0,0,1-.6-.17,1.266,1.266,0,0,1-.391-.424l-.616-1.067a6.934,6.934,0,0,1,2.294-1.358,8.04,8.04,0,0,1,2.7-.446,4.939,4.939,0,0,1,1.864.335,4.012,4.012,0,0,1,1.408.935,4.086,4.086,0,0,1,.885,1.425,5.119,5.119,0,0,1,.308,1.8V22Zm-3.916-2.079a2.706,2.706,0,0,0,1.155-.231,3.519,3.519,0,0,0,1-.748V17.38a8.759,8.759,0,0,0-1.683.133,4.06,4.06,0,0,0-1.045.333,1.269,1.269,0,0,0-.534.455,1.084,1.084,0,0,0-.148.555.968.968,0,0,0,.319.827A1.546,1.546,0,0,0,171.884,19.921ZM192.036,22a.941.941,0,0,1-.534-.143.764.764,0,0,1-.3-.429l-.264-.869a6.688,6.688,0,0,1-.715.66,4.5,4.5,0,0,1-.809.511,4.276,4.276,0,0,1-.935.33,4.814,4.814,0,0,1-1.083.116,3.513,3.513,0,0,1-1.65-.4,3.8,3.8,0,0,1-1.309-1.144,5.773,5.773,0,0,1-.864-1.831,8.9,8.9,0,0,1-.313-2.47,7.7,7.7,0,0,1,.352-2.37,5.812,5.812,0,0,1,1-1.892,4.623,4.623,0,0,1,1.545-1.248,4.389,4.389,0,0,1,1.991-.451,3.822,3.822,0,0,1,1.49.259,4.3,4.3,0,0,1,1.105.677V5.533h3.41V22Zm-3.454-2.442a2.947,2.947,0,0,0,.677-.072,2.378,2.378,0,0,0,.555-.2,2.424,2.424,0,0,0,.479-.33,4.14,4.14,0,0,0,.445-.462v-4.84a2.255,2.255,0,0,0-.841-.6,2.609,2.609,0,0,0-.941-.17,2.009,2.009,0,0,0-.869.187,1.771,1.771,0,0,0-.687.6,3.193,3.193,0,0,0-.456,1.073,6.663,6.663,0,0,0-.165,1.595,7.388,7.388,0,0,0,.132,1.518,3.127,3.127,0,0,0,.368,1,1.431,1.431,0,0,0,.566.545A1.625,1.625,0,0,0,188.582,19.558Zm13.09-9.141a5.873,5.873,0,0,1,2.074.352,4.508,4.508,0,0,1,1.617,1.023,4.669,4.669,0,0,1,1.056,1.644,6.034,6.034,0,0,1,.38,2.206,4.813,4.813,0,0,1-.033.627.992.992,0,0,1-.121.385.461.461,0,0,1-.236.2,1.108,1.108,0,0,1-.38.055H199.45a3.216,3.216,0,0,0,.869,2.073,2.585,2.585,0,0,0,1.815.644,3.249,3.249,0,0,0,1.023-.143,5.162,5.162,0,0,0,.765-.319q.335-.176.616-.319a1.279,1.279,0,0,1,.589-.143.7.7,0,0,1,.616.3l.99,1.221a5.069,5.069,0,0,1-1.139.984,5.916,5.916,0,0,1-1.254.594,6.8,6.8,0,0,1-1.287.3,9.658,9.658,0,0,1-1.227.083,6.4,6.4,0,0,1-2.249-.391,5.169,5.169,0,0,1-1.837-1.16,5.476,5.476,0,0,1-1.243-1.914,7.152,7.152,0,0,1-.456-2.662,6.024,6.024,0,0,1,.39-2.167,5.264,5.264,0,0,1,2.893-3.014A5.845,5.845,0,0,1,201.672,10.417Zm.066,2.354a2.055,2.055,0,0,0-1.529.556,2.894,2.894,0,0,0-.726,1.6h4.257a3.01,3.01,0,0,0-.1-.792,1.92,1.92,0,0,0-.341-.688,1.735,1.735,0,0,0-.622-.489A2.125,2.125,0,0,0,201.738,12.771Zm14.784-2.178V22.022a5.462,5.462,0,0,1-.2,1.513,3.077,3.077,0,0,1-1.9,2.084,5.1,5.1,0,0,1-1.9.308,5.669,5.669,0,0,1-.775-.049,6.647,6.647,0,0,1-.743-.149l.11-1.793a.482.482,0,0,1,.154-.341.879.879,0,0,1,.528-.11,2.637,2.637,0,0,0,.649-.066.794.794,0,0,0,.4-.231.952.952,0,0,0,.209-.445,3.52,3.52,0,0,0,.06-.721V10.593Zm.4-3.124a1.8,1.8,0,0,1-.165.765,2.012,2.012,0,0,1-.451.627,2.208,2.208,0,0,1-.665.429,2.065,2.065,0,0,1-.809.16,1.92,1.92,0,0,1-.781-.16,2.2,2.2,0,0,1-.644-.429,1.98,1.98,0,0,1-.44-.627,1.855,1.855,0,0,1-.16-.765,1.92,1.92,0,0,1,.16-.781,2.027,2.027,0,0,1,.44-.638,2.061,2.061,0,0,1,.644-.429,1.979,1.979,0,0,1,.781-.154,2.13,2.13,0,0,1,.809.154,2.067,2.067,0,0,1,1.117,1.067A1.865,1.865,0,0,1,216.918,7.469Zm7.194,2.948a5.873,5.873,0,0,1,2.074.352,4.508,4.508,0,0,1,1.617,1.023,4.669,4.669,0,0,1,1.056,1.644,6.034,6.034,0,0,1,.38,2.206,4.813,4.813,0,0,1-.033.627.992.992,0,0,1-.121.385.461.461,0,0,1-.236.2,1.108,1.108,0,0,1-.38.055H221.89a3.216,3.216,0,0,0,.869,2.073,2.585,2.585,0,0,0,1.815.644,3.249,3.249,0,0,0,1.023-.143,5.162,5.162,0,0,0,.765-.319q.335-.176.616-.319a1.279,1.279,0,0,1,.589-.143.7.7,0,0,1,.616.3l.99,1.221a5.069,5.069,0,0,1-1.139.984,5.916,5.916,0,0,1-1.254.594,6.8,6.8,0,0,1-1.287.3,9.658,9.658,0,0,1-1.227.083,6.4,6.4,0,0,1-2.249-.391,5.169,5.169,0,0,1-1.837-1.16,5.476,5.476,0,0,1-1.243-1.914,7.152,7.152,0,0,1-.456-2.662,6.024,6.024,0,0,1,.39-2.167,5.264,5.264,0,0,1,2.893-3.014A5.845,5.845,0,0,1,224.112,10.417Zm.066,2.354a2.055,2.055,0,0,0-1.529.556,2.894,2.894,0,0,0-.726,1.6h4.257a3.01,3.01,0,0,0-.1-.792,1.92,1.92,0,0,0-.341-.688,1.735,1.735,0,0,0-.622-.489A2.125,2.125,0,0,0,224.178,12.771ZM231.2,22V10.593h2.112a.941.941,0,0,1,.533.143.764.764,0,0,1,.3.429l.2.66a8.285,8.285,0,0,1,.682-.572,3.994,3.994,0,0,1,.754-.445,4.472,4.472,0,0,1,.869-.286,4.663,4.663,0,0,1,1.017-.1,3.994,3.994,0,0,1,1.656.325,3.436,3.436,0,0,1,1.215.9,3.893,3.893,0,0,1,.748,1.375,5.7,5.7,0,0,1,.253,1.733V22h-3.41V14.751a2,2,0,0,0-.385-1.3,1.383,1.383,0,0,0-1.133-.467,2.373,2.373,0,0,0-1.056.242,4.106,4.106,0,0,0-.946.649V22Zm16.786-11.605a6.3,6.3,0,0,1,1.37.143,5.51,5.51,0,0,1,1.193.407h3.443v1.243a.622.622,0,0,1-.16.451,1.092,1.092,0,0,1-.545.253l-.836.187A3.423,3.423,0,0,1,252.6,14.1a3.267,3.267,0,0,1-.357,1.54,3.5,3.5,0,0,1-.979,1.16,4.566,4.566,0,0,1-1.469.737,6.187,6.187,0,0,1-1.815.259,7.332,7.332,0,0,1-1.012-.066.621.621,0,0,0-.374.511.432.432,0,0,0,.3.416,2.82,2.82,0,0,0,.8.178q.5.05,1.133.05t1.3.061a10.146,10.146,0,0,1,1.3.2,3.468,3.468,0,0,1,1.133.463,2.414,2.414,0,0,1,.8.855,2.745,2.745,0,0,1,.3,1.363,3.313,3.313,0,0,1-.374,1.512,3.945,3.945,0,0,1-1.1,1.313,5.74,5.74,0,0,1-1.782.921,7.733,7.733,0,0,1-2.42.348,9.284,9.284,0,0,1-2.315-.253,5.6,5.6,0,0,1-1.617-.666,2.805,2.805,0,0,1-.951-.953,2.235,2.235,0,0,1-.308-1.123,1.869,1.869,0,0,1,.462-1.283,3.07,3.07,0,0,1,1.265-.82,1.93,1.93,0,0,1-.616-.648,1.958,1.958,0,0,1-.231-1,1.777,1.777,0,0,1,.088-.533,1.95,1.95,0,0,1,.275-.544,2.751,2.751,0,0,1,.473-.505,3.1,3.1,0,0,1,.682-.428,3.726,3.726,0,0,1-1.4-1.254,3.474,3.474,0,0,1-.148-3.361,3.492,3.492,0,0,1,1-1.166,4.684,4.684,0,0,1,1.49-.737A6.417,6.417,0,0,1,247.982,10.395Zm2.53,12a.6.6,0,0,0-.171-.449,1.21,1.21,0,0,0-.462-.27,3.211,3.211,0,0,0-.682-.146,7.378,7.378,0,0,0-.842-.045h-.935a4.923,4.923,0,0,1-.957-.094,2.24,2.24,0,0,0-.523.491.991.991,0,0,0-.2.612.932.932,0,0,0,.1.441.863.863,0,0,0,.368.342,2.442,2.442,0,0,0,.71.226,6.353,6.353,0,0,0,1.128.083,6.679,6.679,0,0,0,1.21-.09,2.525,2.525,0,0,0,.754-.247.919.919,0,0,0,.391-.376A1.05,1.05,0,0,0,250.512,22.393Zm-2.53-6.7a1.406,1.406,0,0,0,1.606-1.518,1.509,1.509,0,0,0-.38-1.089,2.1,2.1,0,0,0-2.453,0,1.509,1.509,0,0,0-.38,1.089,1.87,1.87,0,0,0,.093.605,1.257,1.257,0,0,0,.292.478,1.366,1.366,0,0,0,.5.319A2.02,2.02,0,0,0,247.982,15.7Zm11-5.1V22h-3.41V10.593Zm.4-3.124a1.8,1.8,0,0,1-.165.765,2.012,2.012,0,0,1-.451.627,2.207,2.207,0,0,1-.665.429,2.065,2.065,0,0,1-.809.16,1.92,1.92,0,0,1-.781-.16,2.2,2.2,0,0,1-.643-.429,1.98,1.98,0,0,1-.44-.627,1.855,1.855,0,0,1-.16-.765,1.92,1.92,0,0,1,.16-.781,2.027,2.027,0,0,1,.44-.638,2.061,2.061,0,0,1,.643-.429,1.979,1.979,0,0,1,.781-.154,2.129,2.129,0,0,1,.809.154,2.067,2.067,0,0,1,1.117,1.067A1.865,1.865,0,0,1,259.378,7.469ZM261.732,22V5.533h3.41V11.8a5.2,5.2,0,0,1,1.447-1.007,4.425,4.425,0,0,1,1.9-.38,3.6,3.6,0,0,1,1.65.385,3.713,3.713,0,0,1,1.309,1.127,5.71,5.71,0,0,1,.864,1.82,8.792,8.792,0,0,1,.313,2.453,7.579,7.579,0,0,1-.357,2.376,5.971,5.971,0,0,1-1,1.892,4.611,4.611,0,0,1-1.54,1.254,4.355,4.355,0,0,1-1.986.451,3.8,3.8,0,0,1-.908-.1,3.1,3.1,0,0,1-.737-.281,3.164,3.164,0,0,1-.616-.434,7.023,7.023,0,0,1-.544-.55l-.121.572a.731.731,0,0,1-.28.484A.966.966,0,0,1,264,22Zm5.566-9.02a2.946,2.946,0,0,0-.676.071,2.486,2.486,0,0,0-.561.2,2.127,2.127,0,0,0-.478.335,4.969,4.969,0,0,0-.44.467V18.9a2.155,2.155,0,0,0,.836.6,2.653,2.653,0,0,0,.946.17,2.009,2.009,0,0,0,.869-.187,1.771,1.771,0,0,0,.688-.6,3.194,3.194,0,0,0,.456-1.073A6.717,6.717,0,0,0,269.1,16.2a7.39,7.39,0,0,0-.132-1.518,3.128,3.128,0,0,0-.368-1,1.431,1.431,0,0,0-.567-.545A1.625,1.625,0,0,0,267.3,12.98ZM274.492,22V10.593h2.024a1.726,1.726,0,0,1,.423.044.743.743,0,0,1,.286.137.587.587,0,0,1,.176.248,2.23,2.23,0,0,1,.1.374l.187,1.067a5.59,5.59,0,0,1,1.408-1.529,2.861,2.861,0,0,1,1.705-.561,1.964,1.964,0,0,1,1.254.374l-.44,2.508a.49.49,0,0,1-.176.325.6.6,0,0,1-.352.093,2.335,2.335,0,0,1-.44-.05,3.411,3.411,0,0,0-.638-.049A2.342,2.342,0,0,0,277.9,15v7Zm13.97-11.583a5.873,5.873,0,0,1,2.073.352,4.508,4.508,0,0,1,1.617,1.023,4.67,4.67,0,0,1,1.056,1.644,6.035,6.035,0,0,1,.379,2.206,4.814,4.814,0,0,1-.033.627.992.992,0,0,1-.121.385.461.461,0,0,1-.236.2,1.108,1.108,0,0,1-.38.055H286.24a3.216,3.216,0,0,0,.869,2.073,2.585,2.585,0,0,0,1.815.644,3.249,3.249,0,0,0,1.023-.143,5.16,5.16,0,0,0,.764-.319q.335-.176.616-.319a1.279,1.279,0,0,1,.589-.143.7.7,0,0,1,.616.3l.99,1.221a5.069,5.069,0,0,1-1.139.984,5.915,5.915,0,0,1-1.254.594,6.8,6.8,0,0,1-1.287.3,9.658,9.658,0,0,1-1.227.083,6.4,6.4,0,0,1-2.25-.391,5.169,5.169,0,0,1-1.837-1.16,5.475,5.475,0,0,1-1.243-1.914,7.151,7.151,0,0,1-.457-2.662,6.024,6.024,0,0,1,.391-2.167,5.264,5.264,0,0,1,2.893-3.014A5.845,5.845,0,0,1,288.462,10.417Zm.066,2.354a2.055,2.055,0,0,0-1.529.556,2.894,2.894,0,0,0-.726,1.6h4.257a3.01,3.01,0,0,0-.1-.792,1.92,1.92,0,0,0-.341-.688,1.735,1.735,0,0,0-.622-.489A2.125,2.125,0,0,0,288.528,12.771Z" transform="translate(600 732)" fill="#fff"/>
  </g>
</svg>
