<svg xmlns="http://www.w3.org/2000/svg" xmlns:xlink="http://www.w3.org/1999/xlink" width="505" height="238" viewBox="0 0 505 238">
  <defs>
    <clipPath id="clip-path">
      <rect id="Rect치ngulo_396406" data-name="Rect치ngulo 396406" width="505" height="238" transform="translate(180 9846.738)" fill="#fff" stroke="#707070" stroke-width="1" opacity="0.69"/>
    </clipPath>
    <clipPath id="clip-path-2">
      <rect id="Rect치ngulo_396399" data-name="Rect치ngulo 396399" width="420" height="210" transform="translate(0 -0.001)" fill="none"/>
    </clipPath>
  </defs>
  <g id="_30" data-name="30" transform="translate(-180 -9846.739)" clip-path="url(#clip-path)">
    <g id="Grupo_1086793" data-name="Grupo 1086793" transform="translate(0 -16557.262)">
      <g id="Grupo_1086777" data-name="Grupo 1086777" transform="translate(34.014)">
        <path id="Trazado_859102" data-name="Trazado 859102" d="M55.885,104.347c-7.63,6.02-15.309,12.61-19.273,21.484s-3.1,20.64,4.487,26.712c6.578,5.262,15.836,4.878,24.26,4.954s18.093,1.6,22.529,8.758c3.292,5.313,2.556,12.329-.127,17.975s-7.045,10.28-11.085,15.049A170.741,170.741,0,0,0,49.637,243.3c-4.887,11.6-8.161,25.946-.606,36.02,8.294,11.058,25.428,10.742,37.984,4.958s22.9-15.66,35.527-21.289c7.511-3.349,17.114-4.8,23.334.576,7.679,6.644,5.494,18.825,7.952,28.678,4.014,16.088,21.7,25.849,38.28,25.718s32.079-7.979,46.172-16.716a324.346,324.346,0,0,0,58.832-46.724c8.8-8.835,17.352-18.641,20.7-30.654s.027-26.722-10.672-33.13c-7.123-4.267-16.312-4.334-23.014-9.238-8.821-6.455-10.376-19.545-6.67-29.827s11.477-18.48,18.831-26.566,14.725-16.811,17.294-27.435c4.323-17.87-8.306-38.042-26.269-41.959-12.528-2.733-25.363,1.605-37.688,5.142s-26.068,6.2-37.554.5c-9.4-4.664-15.555-14.15-24.561-19.541-10.5-6.287-23.335-4.542-34.221-.069-11.147,4.58-21.341,11.97-31.568,18.2Q104.309,70.563,87.254,81.753q-16.168,10.6-31.369,22.593" transform="translate(223.311 26367.816)" fill="#bad1ff"/>
      </g>
      <g id="Grupo_1086792" data-name="Grupo 1086792" transform="translate(224 26432)">
        <g id="Grupo_1086779" data-name="Grupo 1086779">
          <g id="Grupo_1086778" data-name="Grupo 1086778" clip-path="url(#clip-path-2)">
            <path id="Trazado_859103" data-name="Trazado 859103" d="M187.409,29.809a4,4,0,0,0-6.547,4.547l-.877.751-1.271-1.486-1.2,1.024,1.27,1.486-1.323,1.129,1.024,1.2,1.323-1.129,1.271,1.486,1.2-1.024-1.265-1.486.877-.751a4.005,4.005,0,0,0,5.523-5.749m-1.475,4.447a2.428,2.428,0,1,1,.273-3.423,2.434,2.434,0,0,1-.273,3.423" transform="translate(-84.293 -13.492)" fill="#6c3ead"/>
            <path id="Trazado_859104" data-name="Trazado 859104" d="M148.054,178.02a10.425,10.425,0,0,0-18.013,10.3l-2.441,1.738-.4-.562-2.546-3.575-3.344,2.378,2.945,4.142-3.691,2.625,1.181,1.659.158.215.152.215.893,1.255.992-.7,2.7-1.922,2.945,4.142,3.344-2.383-2.945-4.137,2.447-1.738a10.425,10.425,0,0,0,15.629-13.645m-4.83,11.193a6.319,6.319,0,1,1,1.486-8.81,6.327,6.327,0,0,1-1.486,8.81" transform="translate(-57.266 -82.481)" fill="#6c3ead"/>
            <path id="Trazado_859105" data-name="Trazado 859105" d="M384.166,75.573a20.373,20.373,0,0,0-25.526-3.622l-3.964-4.31,7.3-6.715-5.428-5.9-7.3,6.709-5.985-6.5-5.9,5.428,5.985,6.5-7.3,6.709,5.429,5.9,7.3-6.715,3.964,4.31a20.39,20.39,0,0,0-1.365,21.8c.189.347.394.688.6,1.024a20.324,20.324,0,0,0,2.236,2.919c.252.278.515.541.777.8.084.084.168.168.257.247s.168.163.257.236a20.323,20.323,0,0,0,3.649,2.651,19.76,19.76,0,0,0,2.426,1.166c.184.073.367.142.551.21s.352.126.525.184a.075.075,0,0,0,.031.011,20.037,20.037,0,0,0,3.208.8c.383.063.761.115,1.144.152.5.058,1.013.089,1.523.1a21,21,0,0,0,3.25-.158c.142-.016.278-.037.42-.063.053-.005.105-.011.158-.021a.223.223,0,0,0,.058-.01c.115-.016.236-.037.352-.058.079-.016.163-.026.242-.042.005,0,.01-.005.016-.005.042-.005.079-.016.121-.021a1.049,1.049,0,0,1,.137-.026c.331-.074.662-.147.987-.231.5-.131.992-.278,1.48-.446a20.108,20.108,0,0,0,5.423-2.825c.005,0,.005,0,.005-.005.163-.116.32-.236.478-.362a.337.337,0,0,0,.068-.053c.415-.32.814-.661,1.208-1.024a20.249,20.249,0,0,0,6.41-12.49c0-.01.005-.021,0-.032a20.265,20.265,0,0,0-5.208-16.228m-3.2,17.4c-.079.257-.163.509-.263.761a12.278,12.278,0,0,1-7.8,7.355,2.085,2.085,0,0,1-.257.079l-.142.047-.383.095a12.389,12.389,0,0,1-9.1-1.292c-.21-.121-.42-.247-.62-.388a.136.136,0,0,1-.058-.037,5.277,5.277,0,0,1-.462-.325.038.038,0,0,1-.031-.021,3.072,3.072,0,0,1-.263-.194c-.068-.052-.137-.11-.2-.168a11.841,11.841,0,0,1-1.27-1.2,12.288,12.288,0,0,1-2.168-3.292,11.437,11.437,0,0,1-.578-1.564,2.244,2.244,0,0,1-.068-.252,1.966,1.966,0,0,1-.063-.236.019.019,0,0,1-.005-.016A10.111,10.111,0,0,1,357,91.155a12.314,12.314,0,0,1,.247-4.877q.071-.26.142-.5c.068-.22.142-.441.221-.656.058-.168.121-.331.194-.5a9.62,9.62,0,0,1,.441-.945,12.128,12.128,0,0,1,2.6-3.407,12.323,12.323,0,0,1,20.638,9.938.019.019,0,0,1-.005.016c-.016.273-.042.546-.084.819a3.776,3.776,0,0,1-.079.478,10.719,10.719,0,0,1-.346,1.459" transform="translate(-159.624 -26.139)" fill="#6c3ead"/>
            <path id="Trazado_859106" data-name="Trazado 859106" d="M648.282,22.666A7.637,7.637,0,0,0,636.6,32.384l-1.538,1.57L632.4,31.339l-2.111,2.147,2.656,2.609-2.331,2.362,2.147,2.116,2.326-2.368,2.651,2.615,2.111-2.147L637.2,36.064l1.543-1.564a7.637,7.637,0,0,0,9.539-11.833m-2.058,8.689a4.629,4.629,0,1,1-.053-6.547,4.638,4.638,0,0,1,.053,6.547" transform="translate(-299.388 -9.725)" fill="#6c3ead"/>
            <path id="Trazado_859107" data-name="Trazado 859107" d="M634.892,240.764a7.706,7.706,0,0,0-12.127,9.387l-1.607,1.522-1.984-2.095-.6-.63-2.2,2.084,2.583,2.73-2.431,2.3,2.084,2.205,1.008-.956,1.423-1.344,2.583,2.725,2.205-2.084-2.583-2.73,1.612-1.523a7.7,7.7,0,0,0,10.038-11.592m-2.389,8.689a4.67,4.67,0,1,1,.184-6.6,4.669,4.669,0,0,1-.184,6.6" transform="translate(-292.776 -113.221)" fill="#6c3ead"/>
            <path id="Trazado_859108" data-name="Trazado 859108" d="M315.214,177.553l-.431-1.6-1.769.473-.53-1.984-1.6.43.53,1.985-1.171.315a4.22,4.22,0,1,0,.425,1.6l1.176-.315.53,1.984,1.6-.43-.53-1.979Zm-8.085,3.953a2.555,2.555,0,1,1,1.8-3.129,2.559,2.559,0,0,1-1.8,3.129" transform="translate(-143.571 -82.859)" fill="#6c3ead"/>
            <path id="Trazado_859109" data-name="Trazado 859109" d="M485.378,361.146l-1.2-1.155-1.423,1.475-.872-.84a4.215,4.215,0,1,0-1.155,1.2l.871.84-1.423,1.48,1.192,1.15,1.428-1.475,1.318,1.265,1.15-1.192-1.318-1.27Zm-5.2-1.018a2.553,2.553,0,1,1-.068-3.607,2.559,2.559,0,0,1,.068,3.607" transform="translate(-225.209 -168.219)" fill="#6c3ead"/>
            <path id="Trazado_859110" data-name="Trazado 859110" d="M778.375,103.666l.908-1.386-1.717-1.129,1-1.528-1.386-.913-1,1.533-1.717-1.129-.913,1.386,1.717,1.129-.661,1.013a4.21,4.21,0,1,0,1.386.908l.667-1.013Zm-3.208,4.284a2.553,2.553,0,1,1-.735-3.533,2.561,2.561,0,0,1,.735,3.533" transform="translate(-365.19 -46.887)" fill="#6c3ead"/>
          </g>
        </g>
        <g id="Grupo_1086781" data-name="Grupo 1086781">
          <g id="Grupo_1086780" data-name="Grupo 1086780" clip-path="url(#clip-path-2)">
            <path id="Trazado_859111" data-name="Trazado 859111" d="M543.745,212.992c-1.777-1.547-36.468,2.291-36.468,2.291s-1.009-38.3-1.493-56.541c0-.344-.015-.678-.025-1.008-.035-1.342-.065-2.565-.1-3.628-.08-3-.125-4.8-.125-4.8-.424-4.467-2.2-6.274-4.287-8.185h-.005a19.832,19.832,0,0,1-5.355-6.663l-7.062-15.661a12.806,12.806,0,0,1,.16-10.87l1.852-3.813,6.368.649-.569,4.661,25.833-9.328,5.834-2.106c.13,1.158,3.434,32.979,4.592,43.445.134,1.243.244,2.186.309,2.735.035.285.06.464.075.534l1.946,12.712Z" transform="translate(-231.657 -46.544)" fill="#f0a58e"/>
            <path id="Trazado_859112" data-name="Trazado 859112" d="M497.047,107.088l7.228,3.07,6.187-14.565-7.816-1.686Z" transform="translate(-236.097 -44.606)" fill="#f0a58e"/>
            <path id="Trazado_859113" data-name="Trazado 859113" d="M519.385,185.163c-.09,2.086-1.223,4.467-1.457,7.965-.08-3-.125-4.8-.125-4.8-.424-4.467-2.2-6.274-4.287-8.185.22.085,5.979,2.331,5.87,5.021" transform="translate(-243.92 -85.567)" fill="#031321"/>
            <path id="Trazado_859114" data-name="Trazado 859114" d="M563.958,119.946a14.358,14.358,0,0,0-1.008,4.921l-.01.005-2.451,1.193-1.283-.145-5.8-.654c-6.308-3.858,1.113-23.4.828-31.1L552.2,80.8l-1.751-11.5c-.959-8.524,2.61-11.919,2.61-11.919.884-.229,1.961,2.825,2.835,5.63,1.388,4.477,6.9,14.449,10.965,29.666,3.179,11.888-.884,21.141-2.9,27.275" transform="translate(-261.387 -27.247)" fill="#f0a58e"/>
            <path id="Trazado_859115" data-name="Trazado 859115" d="M532.463,76.567l1.575-2.682c1.748-2.976,5.911-3.546,7.333-.24L553.056,103.8a2.242,2.242,0,0,1-1.734,3.176h-.008a6.327,6.327,0,0,1-6.556-3.58Z" transform="translate(-252.92 -33.915)" fill="#f0a58e"/>
            <path id="Trazado_859116" data-name="Trazado 859116" d="M556.454,110.137a4.883,4.883,0,0,1-1.747-.354,8.81,8.81,0,0,1-4.5-4.008c-.714-1.8-5.214-11.684-5.26-11.783a.263.263,0,1,1,.478-.218c.046.1,4.551,10,5.27,11.807a8.353,8.353,0,0,0,4.2,3.712,3.361,3.361,0,0,0,2.749.057,1.633,1.633,0,0,0,.849-1c.665-1.96-1.069-5.511-1.087-5.547l-10.27-25.718a.262.262,0,1,1,.487-.195l10.262,25.7c.067.135,1.84,3.763,1.105,5.929a2.165,2.165,0,0,1-1.114,1.3,3.194,3.194,0,0,1-1.423.316" transform="translate(-258.839 -36.446)" fill="#c2674c"/>
            <path id="Trazado_859117" data-name="Trazado 859117" d="M518.117,83.34l2.595-5.006a4.289,4.289,0,0,1,8,.732l9.664,31.767a2.359,2.359,0,0,1-2.09,3.185h-.008A6.661,6.661,0,0,1,529.7,109.7Z" transform="translate(-246.106 -36.088)" fill="#f0a58e"/>
            <path id="Trazado_859118" data-name="Trazado 859118" d="M505.131,94.312l1.317-3.274a4.581,4.581,0,0,1,3.211-2.822,4.067,4.067,0,0,1,4.933,2.563l8.48,28.7a2.363,2.363,0,0,1-2.213,2.992h-.008a6.122,6.122,0,0,1-6.42-3.7Z" transform="translate(-239.937 -41.849)" fill="#f0a58e"/>
            <path id="Trazado_859119" data-name="Trazado 859119" d="M493.168,107.043c1.537-4.248,5.945-5.637,7.56-1.893l7.011,20.607a1.993,1.993,0,0,1-1.733,2.578s-3.462,1.245-5.538-2.577Z" transform="translate(-234.255 -48.913)" fill="#f0a58e"/>
            <path id="Trazado_859120" data-name="Trazado 859120" d="M563.274,92.537h0c-.178,0-.205-.032-.258-.111A.261.261,0,0,1,563,92.16c.027-.056.048-.1.236-.132v-.012l.118-.007c.426-.059,1.41-.113,3.779-.215a.262.262,0,1,1,.023.524c-1.536.066-2.571.127-3.185.166-.351.032-.559.05-.688.052h-.006" transform="translate(-267.41 -43.602)" fill="#c2674c"/>
            <path id="Trazado_859121" data-name="Trazado 859121" d="M565.885,96.4a.262.262,0,0,1-.058-.518,28.722,28.722,0,0,1,3.261-.521.263.263,0,1,1,.048.523,28.3,28.3,0,0,0-3.193.51.249.249,0,0,1-.058.007" transform="translate(-268.671 -45.297)" fill="#c2674c"/>
            <path id="Trazado_859122" data-name="Trazado 859122" d="M541.78,164.511a.262.262,0,0,1-.221-.12c-.147-.228-3.535-5.685,2.285-14.2a.263.263,0,0,1,.434.3c-5.612,8.212-2.312,13.569-2.277,13.622a.263.263,0,0,1-.221.4" transform="translate(-256.712 -71.286)" fill="#c2674c"/>
            <path id="Trazado_859123" data-name="Trazado 859123" d="M541.429,114.309a6.7,6.7,0,0,1-2.019-.36c-2.935-.938-4.257-3.58-5.657-6.378-1.446-2.89-3.976-9.834-4-9.9a.262.262,0,0,1,.493-.18c.025.07,2.545,6.986,3.978,9.848,1.408,2.813,2.624,5.242,5.348,6.113a4.006,4.006,0,0,0,3.173.027,2.16,2.16,0,0,0,1.006-1.485c.271-1.2-5.193-18.387-7.819-26.645-.738-2.319-1.311-4.122-1.58-5-1.206-3.966-2.833-3.9-2.856-3.893a.268.268,0,0,1-.283-.237.26.26,0,0,1,.23-.285c.082-.011,2.062-.173,3.412,4.263.268.882.841,2.682,1.577,5,3.936,12.375,8.111,25.682,7.831,26.92A2.7,2.7,0,0,1,543,113.933a3.122,3.122,0,0,1-1.575.377" transform="translate(-251.624 -36.063)" fill="#c2674c"/>
            <path id="Trazado_859124" data-name="Trazado 859124" d="M524.274,122.613a6.08,6.08,0,0,1-2.038-.352,6.84,6.84,0,0,1-4.059-4.312c-1.877-4.938-4.039-10.352-4.061-10.406a.262.262,0,1,1,.487-.195c.022.054,2.185,5.473,4.065,10.414a6.333,6.333,0,0,0,3.745,4,5.045,5.045,0,0,0,3.991-.17c1.263-.726.249-4.64-.248-6.087-.066-.216-6.362-20.827-7.431-24.441-.988-3.341-2.866-2.879-2.947-2.858a.262.262,0,0,1-.141-.506c.025-.007,2.451-.647,3.591,3.215,1.067,3.612,7.363,24.22,7.427,24.428.194.565,1.873,5.633.01,6.7a4.939,4.939,0,0,1-2.391.561" transform="translate(-244.196 -41.639)" fill="#c2674c"/>
            <path id="Trazado_859125" data-name="Trazado 859125" d="M508.72,128.563a5.376,5.376,0,0,1-1.522-.233c-2.632-.779-3.516-3.443-3.807-4.319-.026-.078-.046-.138-.061-.177-.177-.457-2-5.091-2-5.091a.238.238,0,0,1-.015-.054,8.97,8.97,0,0,1,.235-3.664.263.263,0,0,1,.5.153,8.585,8.585,0,0,0-.224,3.4c.151.382,1.826,4.631,2,5.067.017.045.04.113.069.2.269.811,1.088,3.28,3.457,3.981a3.632,3.632,0,0,0,3.161-.31,2.083,2.083,0,0,0,.934-1.524c.057-.992-4.166-11.867-6.195-17.093-.565-1.456-1.02-2.626-1.272-3.294-1.158-3.07-3.538-2.63-3.641-2.611a.262.262,0,0,1-.106-.514c.029-.005,2.918-.561,4.238,2.94.252.667.706,1.835,1.27,3.289,3.185,8.2,6.288,16.293,6.23,17.313a2.61,2.61,0,0,1-1.156,1.924,3.581,3.581,0,0,1-2.089.617" transform="translate(-237.509 -48.661)" fill="#c2674c"/>
            <path id="Trazado_859126" data-name="Trazado 859126" d="M566.387,126.954c-1.09-2.736-1.281-3.907-4.044-2.647-1.04.475-.75,2.187.3,4.415s2.746,3.639,3.778,3.151.873-2.629-.039-4.92" transform="translate(-266.805 -58.806)" fill="#a61818"/>
            <path id="Trazado_859127" data-name="Trazado 859127" d="M558.924,60.778c.956,3.442,1.443,4.75.072,5.147-.517.15-1.226-1.767-1.957-4.673s-.9-5.367-.381-5.5,1.466,2.141,2.266,5.024" transform="translate(-264.269 -26.481)" fill="#a61818"/>
            <path id="Trazado_859128" data-name="Trazado 859128" d="M552.725,137.449c-.9-2.915-.995-4.14-3.952-3.071-1.113.4-.958,2.194-.056,4.583s2.529,3.987,3.636,3.569,1.121-2.64.372-5.081" transform="translate(-260.295 -63.648)" fill="#a61818"/>
            <path id="Trazado_859129" data-name="Trazado 859129" d="M534.27,143.172c-1.015-2.911-1.162-4.144-4.108-2.952-1.109.449-.884,2.252.116,4.631s2.706,3.931,3.808,3.467,1.033-2.709.183-5.147" transform="translate(-251.476 -66.39)" fill="#a61818"/>
            <path id="Trazado_859130" data-name="Trazado 859130" d="M517.358,141.124c-1.016-2.4-1.207-3.431-3.626-2.264-.911.439-.622,1.948.353,3.9s2.5,3.167,3.4,2.715.722-2.342-.129-4.351" transform="translate(-243.761 -65.73)" fill="#a61818"/>
            <path id="Trazado_859131" data-name="Trazado 859131" d="M555.764,113.237a.263.263,0,0,1-.056-.519c2.272-.494,3.416-1.255,3.4-2.26,0-.3.143-.377.268-.385a.255.255,0,0,1,.278.245.266.266,0,0,1-.021.122v.01c.007.481.027,1.945-3.815,2.781a.253.253,0,0,1-.056.006" transform="translate(-263.863 -52.284)" fill="#c2674c"/>
            <path id="Trazado_859132" data-name="Trazado 859132" d="M524.6,128.216a.262.262,0,1,1,0-.525c2.325,0,3.6-.5,3.8-1.486.06-.3.22-.339.343-.319a.262.262,0,0,1,.22.3.257.257,0,0,1-.047.114l0,.01c-.1.471-.386,1.906-4.319,1.906" transform="translate(-249.062 -59.794)" fill="#c2674c"/>
            <path id="Trazado_859133" data-name="Trazado 859133" d="M507.823,131.877a.262.262,0,1,1,0-.525c2.325,0,3.6-.5,3.8-1.486.06-.3.217-.338.344-.319a.263.263,0,0,1,.173.414l0,.01c-.1.471-.386,1.906-4.319,1.906" transform="translate(-241.091 -61.533)" fill="#c2674c"/>
            <path id="Trazado_859134" data-name="Trazado 859134" d="M510.572,108.351a.262.262,0,0,1-.253-.194c-1.621-5.977.416-8.941.5-9.065a.262.262,0,0,1,.428.3c-.02.029-1.976,2.908-.426,8.624a.262.262,0,0,1-.253.331" transform="translate(-242.105 -47.016)" fill="#c2674c"/>
            <path id="Trazado_859135" data-name="Trazado 859135" d="M538.975,120.594a.262.262,0,0,1-.012-.524c4.094-.19,5.278-1.367,5.29-1.379a.262.262,0,0,1,.382.36c-.051.055-1.3,1.342-5.649,1.544h-.012" transform="translate(-255.888 -56.34)" fill="#c2674c"/>
            <path id="Trazado_859136" data-name="Trazado 859136" d="M549.548,299.2H489.294c-.2-1.4-.4-2.788-.6-4.184a.007.007,0,0,1,0-.01c-.252-1.775-.5-3.544-.745-5.318-3.937-28.266-7.723-55.829-20.974-75.59h.005c-3.329-3.538-4.568-7.707-2.725-10.117,1.89-2.473,6.405-2.3,10.794.142a4.29,4.29,0,0,1,.83-2.331c1.8-2.347,5.959-2.315,10.132-.21a20.961,20.961,0,0,1,4.751-3.89c5.948-3.591,12.668-3.864,16.763-1.1,2.4-4.368,7.744-7.261,13.8-6.956a15.894,15.894,0,0,1,9.839,3.911c2.137-4.048,5.355-6.442,7.954-5.591,1.512.493,2.536,2.006,3,4.069.005,0,.005-.005.01-.005,3.854,16.968,4.84,37.327,5.486,58.695.352,11.581.6,23.462,1.155,35.259.21,4.426.457,8.841.772,13.225" transform="translate(-220.116 -89.198)" fill="#6349de"/>
            <path id="Trazado_859137" data-name="Trazado 859137" d="M499.067,105.562a.263.263,0,0,1-.262-.262c0-.312,1.479-2.192,2.8-2.215a.271.271,0,0,1,.267.258.263.263,0,0,1-.258.267c-1,.017-2.153,1.5-2.3,1.77a.263.263,0,0,1-.25.182" transform="translate(-236.932 -48.965)" fill="#c2674c"/>
            <path id="Trazado_859138" data-name="Trazado 859138" d="M502.33,106.581a.26.26,0,0,1-.209-.1.263.263,0,0,1,.05-.368l1.093-.827a.263.263,0,0,1,.317.419l-1.093.827a.264.264,0,0,1-.159.053" transform="translate(-238.482 -49.984)" fill="#c2674c"/>
            <path id="Trazado_859139" data-name="Trazado 859139" d="M512.287,90.363h-.018a.262.262,0,0,1-.244-.28,2.456,2.456,0,0,1,2.228-2.458.252.252,0,0,1,.275.249.263.263,0,0,1-.248.275,1.918,1.918,0,0,0-1.73,1.97.263.263,0,0,1-.261.244" transform="translate(-243.211 -41.621)" fill="#c2674c"/>
            <path id="Trazado_859140" data-name="Trazado 859140" d="M516.281,90.649a.262.262,0,0,1-.226-.4l.679-1.152a.263.263,0,0,1,.453.267l-.679,1.152a.262.262,0,0,1-.226.129" transform="translate(-245.109 -42.262)" fill="#c2674c"/>
            <path id="Trazado_859141" data-name="Trazado 859141" d="M527.643,78.356a.261.261,0,0,1-.234-.375,4.656,4.656,0,0,1,3.075-1.946.263.263,0,1,1,.048.523,4.218,4.218,0,0,0-2.656,1.66.268.268,0,0,1-.234.138" transform="translate(-250.506 -36.116)" fill="#c2674c"/>
            <path id="Trazado_859142" data-name="Trazado 859142" d="M530.371,79.35a.262.262,0,0,1-.105-.5l1.609-.709a.262.262,0,0,1,.212.48l-1.61.709a.268.268,0,0,1-.106.022" transform="translate(-251.802 -37.105)" fill="#c2674c"/>
            <path id="Trazado_859143" data-name="Trazado 859143" d="M541.145,73.172a.262.262,0,0,1-.209-.421,4.09,4.09,0,0,1,2.292-1.482.265.265,0,0,1,.3.22.262.262,0,0,1-.22.3,3.619,3.619,0,0,0-1.953,1.281.263.263,0,0,1-.209.1" transform="translate(-256.919 -33.851)" fill="#c2674c"/>
            <path id="Trazado_859144" data-name="Trazado 859144" d="M543.166,74.339a.261.261,0,0,1-.219-.4,2.123,2.123,0,0,1,1.535-.7.267.267,0,0,1,.3.224.262.262,0,0,1-.224.3,1.8,1.8,0,0,0-1.172.474.268.268,0,0,1-.215.109" transform="translate(-257.88 -34.786)" fill="#c2674c"/>
            <path id="Trazado_859145" data-name="Trazado 859145" d="M484.188,221.082a.261.261,0,0,1-.1-.021c-.245-.1-.425-.382-.7-.8-.779-1.2-2.4-3.695-7.687-4.77a.263.263,0,0,1,.1-.515c5.505,1.119,7.205,3.74,8.023,5a2.377,2.377,0,0,0,.462.6.262.262,0,0,1-.1.5" transform="translate(-225.858 -102.11)" fill="#031321"/>
            <path id="Trazado_859146" data-name="Trazado 859146" d="M506.956,217.3a.223.223,0,0,1-.037,0c-.187-.026-.371-.2-.816-.607a18.315,18.315,0,0,0-12.581-5.136.263.263,0,0,1,.016-.525,18.815,18.815,0,0,1,12.921,5.276,4.775,4.775,0,0,0,.559.48.25.25,0,0,1,.211.292.273.273,0,0,1-.272.223" transform="translate(-234.302 -100.237)" fill="#031321"/>
            <path id="Trazado_859147" data-name="Trazado 859147" d="M542.839,204.769l-.035,0a.263.263,0,0,1-.226-.3c.014-.1,1.445-10.062,10.7-13.049a15.921,15.921,0,0,1,12.281,1.2c3.731,1.936,6.749,5.143,7.691,8.172a.262.262,0,1,1-.5.155c-.9-2.9-3.818-5.987-7.431-7.861a15.4,15.4,0,0,0-11.878-1.168c-8.94,2.886-10.323,12.522-10.336,12.619a.263.263,0,0,1-.26.228" transform="translate(-257.723 -90.582)" fill="#031321"/>
            <path id="Trazado_859148" data-name="Trazado 859148" d="M513.587,292.525c-.441,3.57-1.05,7.2-1.638,10.715-1.444,8.61-2.924,17.446-2.137,26.444-.252-1.774-.5-3.544-.745-5.318.021-7.2,1.2-14.28,2.362-21.215.588-3.507,1.2-7.129,1.638-10.689,1.827-14.821-5.119-31.138-5.187-31.3a.26.26,0,0,1,.478-.2c.073.163,7.077,16.606,5.229,31.568" transform="translate(-241.232 -123.879)" fill="#031321"/>
            <path id="Trazado_859149" data-name="Trazado 859149" d="M614.114,352.3h-.536a139.083,139.083,0,0,0-8.557-24.633c-6.289-13.6-3.024-27.746-2.992-27.888a.262.262,0,1,1,.509.121c-.031.142-3.25,14.117,2.961,27.547a139.834,139.834,0,0,1,8.615,24.853" transform="translate(-285.548 -142.298)" fill="#031321"/>
            <path id="Trazado_859150" data-name="Trazado 859150" d="M565.772,260.483l-.034,0a.262.262,0,0,1-.227-.293c.65-5.048,4.258-8.763,8.078-12.7,4.934-5.081,10.037-10.336,10.037-19.239a.262.262,0,1,1,.525,0c0,9.116-5.411,14.688-10.186,19.6-3.756,3.869-7.305,7.523-7.933,12.4a.263.263,0,0,1-.26.229" transform="translate(-268.617 -108.295)" fill="#031321"/>
          </g>
        </g>
        <g id="Grupo_1086783" data-name="Grupo 1086783">
          <g id="Grupo_1086782" data-name="Grupo 1086782" clip-path="url(#clip-path-2)">
            <path id="Trazado_859151" data-name="Trazado 859151" d="M92.85,268.622a39.927,39.927,0,0,1-13.742-2.664c-9.159-3.428-16.294-9.482-18.178-15.424a.553.553,0,0,1,1.054-.334c1.785,5.632,8.659,11.411,17.512,14.723,8.392,3.142,16.85,3.462,22.072.836a.553.553,0,0,1,.5.989,20.7,20.7,0,0,1-9.214,1.875" transform="translate(-28.929 -118.661)" fill="#031321"/>
            <path id="Trazado_859152" data-name="Trazado 859152" d="M92.9,262.692a42.864,42.864,0,0,1-7.766-.728C73.463,259.8,64.363,253.4,63.5,246.736a.553.553,0,1,1,1.1-.141c.8,6.2,9.526,12.208,20.741,14.282,12.645,2.34,23.936-1.195,25.172-7.876a.553.553,0,1,1,1.087.2c-1.075,5.813-8.859,9.49-18.693,9.49" transform="translate(-30.161 -116.903)" fill="#031321"/>
            <path id="Trazado_859153" data-name="Trazado 859153" d="M83.4,159.094a11.812,11.812,0,0,1-.92,1.074l.75,6.27,2.313,19.27.141,1.164,7.045,60.547-42.288,2.791L51.562,192.8l-.175-14-.2-16.06a17.581,17.581,0,0,0-1.947-7.827L34.476,126.2a6.786,6.786,0,0,1,.732-7.361l13.326-16.678a10.811,10.811,0,0,1,10.683-3.813l.037.015a4.532,4.532,0,0,1,2.65,7.181l-5.871,7.693,12.894-4.954,16.187,37.1a13.515,13.515,0,0,1-1.71,13.7" transform="translate(-16.015 -46.605)" fill="#fdb390"/>
            <path id="Trazado_859154" data-name="Trazado 859154" d="M95.68,134.215h0c-2.493.387-4.805-1.734-5.08-4.659l-2.5-26.607,6.021-1.021c2.928-.5,5.568,2.276,5.451,5.726l-2.242,24.584a2.1,2.1,0,0,1-1.654,1.978" transform="translate(-41.849 -48.388)" fill="#fdb390"/>
            <path id="Trazado_859155" data-name="Trazado 859155" d="M109.925,143.985h0a4.424,4.424,0,0,1-4.639-4.4l-.091-22.926,6.088-.371a4.677,4.677,0,0,1,4.913,5.342l-4.446,20.805a1.964,1.964,0,0,1-1.825,1.551" transform="translate(-49.968 -55.232)" fill="#fdb390"/>
            <path id="Trazado_859156" data-name="Trazado 859156" d="M121.79,154.583h0a3.511,3.511,0,0,1-3.855-3.3l-1-18.17,4.811-.54a3.713,3.713,0,0,1,4.11,4.037l-2.686,16.672a1.559,1.559,0,0,1-1.384,1.3" transform="translate(-55.546 -62.96)" fill="#fdb390"/>
            <path id="Trazado_859157" data-name="Trazado 859157" d="M57.219,152.143c-.19-.177-6.892-7.209,3.024-13.006,6.11-3.572,5.7-5.243,5.7-5.243Z" transform="translate(-26.044 -63.6)" fill="#031321"/>
            <path id="Trazado_859158" data-name="Trazado 859158" d="M109.315,142.937a4.01,4.01,0,0,1-2.871-1.129,6.366,6.366,0,0,1-1.585-4.64c-.011-2.862,1.788-18.51,2.339-23.237l.022-.185a.262.262,0,0,1,.522.052l-.023.194c-.551,4.72-2.347,20.342-2.336,23.175a5.868,5.868,0,0,0,1.426,4.267,3.53,3.53,0,0,0,2.589.979c1.868-.037,2.4-2.663,2.4-2.689l3.508-17.27a.263.263,0,1,1,.515.1l-3.507,17.267c-.024.123-.616,3.067-2.91,3.112h-.094" transform="translate(-49.808 -53.918)" fill="#d4784c"/>
            <path id="Trazado_859159" data-name="Trazado 859159" d="M101.4,256.274a.553.553,0,0,1-.249-1.047,7.867,7.867,0,0,0,4.087-4.2c2.381-6.363-5.479-15.207-17.522-19.714s-23.777-3-26.159,3.367a7.509,7.509,0,0,0,.01,4.99.553.553,0,0,1-1.054.334,8.586,8.586,0,0,1,.008-5.712c2.6-6.934,14.968-8.735,27.582-4.015s20.765,14.2,18.17,21.137a9.053,9.053,0,0,1-4.626,4.8.552.552,0,0,1-.248.059" transform="translate(-28.515 -108.13)" fill="#fcebb5"/>
            <path id="Trazado_859160" data-name="Trazado 859160" d="M111,243.447a.554.554,0,0,1-.544-.654c1.235-6.681-8.046-14.018-20.69-16.356s-23.936,1.194-25.172,7.876a6.688,6.688,0,0,0-.051,2.074.553.553,0,1,1-1.1.141,7.774,7.774,0,0,1,.061-2.417c1.347-7.28,13.218-11.21,26.46-8.763s22.923,10.365,21.576,17.645a.554.554,0,0,1-.543.453" transform="translate(-30.104 -106.695)" fill="#fcebb5"/>
            <path id="Trazado_859161" data-name="Trazado 859161" d="M79.025,132.366h0a3.841,3.841,0,0,1-3.676-3.068l-4.192-23.79,9.451.163,1.474,23.85a2.816,2.816,0,0,1-3.057,2.845" transform="translate(-33.8 -50.116)" fill="#fdb390"/>
            <path id="Trazado_859162" data-name="Trazado 859162" d="M89.575,126.345l-.368.909a9.858,9.858,0,0,1-7.744,6.033l-2.153.3.451,25.812-22.315-9.952L68.27,127.042a5.746,5.746,0,0,1,6.1-3.172Z" transform="translate(-27.287 -58.803)" fill="#fdb390"/>
            <path id="Trazado_859163" data-name="Trazado 859163" d="M57.04,149.466a.263.263,0,0,1-.235-.379l10.54-21.356a6.365,6.365,0,0,1,6.547-3.5l15.4,2.033a.263.263,0,0,1,.209.359c-.014.035-.033.09-.058.165a9.828,9.828,0,0,1-6.514,6.53c-5.109,1.6-8.221-.172-8.351-.248a.262.262,0,0,1,.265-.453c.03.017,3.053,1.729,7.929.2a9.3,9.3,0,0,0,6.13-6.075l-15.08-1.99a5.846,5.846,0,0,0-6.008,3.209L57.275,149.32a.262.262,0,0,1-.236.146" transform="translate(-26.969 -58.985)" fill="#d4784c"/>
            <path id="Trazado_859164" data-name="Trazado 859164" d="M90.1,113.886a.263.263,0,0,1-.259-.223c-1.7-11.2-3.231-12.418-3.3-12.464a.255.255,0,0,1-.1-.352.27.27,0,0,1,.364-.1c.179.1,1.8,1.29,3.548,12.837a.263.263,0,0,1-.26.3" transform="translate(-41.045 -47.839)" fill="#d4784c"/>
            <path id="Trazado_859165" data-name="Trazado 859165" d="M122.279,169.325h-.025a4.428,4.428,0,0,1-3.239-1.628,6.385,6.385,0,0,1-.986-4.444.258.258,0,0,1,.3-.218.263.263,0,0,1,.219.3,5.954,5.954,0,0,0,.884,4.043A3.928,3.928,0,0,0,122.3,168.8a.262.262,0,0,1-.024.523" transform="translate(-56.035 -77.44)" fill="#d4784c"/>
            <path id="Trazado_859166" data-name="Trazado 859166" d="M73.7,124.728a.262.262,0,0,1-.256-.205l-2.282-10.159a.263.263,0,0,1,.512-.115l2.282,10.16a.262.262,0,0,1-.2.313.274.274,0,0,1-.058.006" transform="translate(-33.801 -54.171)" fill="#d4784c"/>
            <path id="Trazado_859167" data-name="Trazado 859167" d="M64.962,125.915a.263.263,0,0,1-.135-.488,8.168,8.168,0,0,0,3.534-8.637.262.262,0,1,1,.514-.106,8.839,8.839,0,0,1-3.778,9.194.261.261,0,0,1-.134.037" transform="translate(-30.732 -55.326)" fill="#d4784c"/>
            <path id="Trazado_859168" data-name="Trazado 859168" d="M113.031,127.366c-.124.965-2.157,1.5-4.541,1.194s-4.835-2.33-4.091-2.3c.089,0,8.632,1.109,8.632,1.109" transform="translate(-49.525 -59.972)" fill="#b03a6e"/>
            <path id="Trazado_859169" data-name="Trazado 859169" d="M100.365,160.332h-.041a.263.263,0,0,1-.252-.272.257.257,0,0,1,.272-.253,2.339,2.339,0,0,0,1.545-.6,2.692,2.692,0,0,0,.694-2.024.263.263,0,0,1,.261-.264h0a.262.262,0,0,1,.263.262,3.183,3.183,0,0,1-.859,2.407,2.826,2.826,0,0,1-1.883.745" transform="translate(-47.534 -74.536)" fill="#d4784c"/>
            <path id="Trazado_859170" data-name="Trazado 859170" d="M114.82,159.121c-.265,2.144-1.282,4.932-2.327,4.8s-1.383-3.334-1.118-5.477,1.032-2.414,2.077-2.285,1.633.816,1.368,2.96" transform="translate(-52.862 -74.164)" fill="#b03a6e"/>
            <path id="Trazado_859171" data-name="Trazado 859171" d="M126.346,167.036c0,1.682-.636,3.568-1.545,3.459s-1.653-2.514-1.452-4.184.863-1.875,1.772-1.766,1.224.557,1.225,2.491" transform="translate(-58.575 -78.147)" fill="#b03a6e"/>
            <path id="Trazado_859172" data-name="Trazado 859172" d="M102.007,154.291c-.026,2.05-.735,4.76-1.833,4.929a48.161,48.161,0,0,1-1.4-7.282,1.908,1.908,0,0,1,1.367-.382c1.156.011,1.886.616,1.867,2.735" transform="translate(-46.917 -71.989)" fill="#b03a6e"/>
            <path id="Trazado_859173" data-name="Trazado 859173" d="M104.228,175.994a.263.263,0,0,1-.234-.381c1.188-2.348-.52-7.894-2.329-13.764-.717-2.328-1.458-4.736-2.085-7.124a48.2,48.2,0,0,1-1.409-7.323,17.452,17.452,0,0,1,.172-5.242.263.263,0,0,1,.514.108,16.93,16.93,0,0,0-.163,5.084,47.581,47.581,0,0,0,1.394,7.241c.623,2.377,1.363,4.779,2.078,7.1,1.92,6.234,3.579,11.619,2.3,14.156a.263.263,0,0,1-.235.144" transform="translate(-46.578 -67.427)" fill="#d4784c"/>
            <path id="Trazado_859174" data-name="Trazado 859174" d="M75.184,102.115a.261.261,0,0,1-.2-.428c.041-.05,1.074-1.21,5.062-1.094a.263.263,0,0,1,.255.27.275.275,0,0,1-.27.255c-3.688-.114-4.638.9-4.647.91a.265.265,0,0,1-.2.088" transform="translate(-35.588 -47.778)" fill="#d4784c"/>
            <path id="Trazado_859175" data-name="Trazado 859175" d="M77.686,105.4a.263.263,0,0,1-.053-.52l3.492-.72a.263.263,0,0,1,.106.515l-3.492.72a.272.272,0,0,1-.054.005" transform="translate(-36.776 -49.473)" fill="#d4784c"/>
            <path id="Trazado_859176" data-name="Trazado 859176" d="M101.595,106.639a.263.263,0,0,1-.019-.524l3.383-.255a.262.262,0,0,1,.04.523l-3.383.256h-.02" transform="translate(-48.133 -50.283)" fill="#d4784c"/>
            <path id="Trazado_859177" data-name="Trazado 859177" d="M104.5,109.1a.263.263,0,0,1-.053-.52l2.456-.507a.263.263,0,0,1,.106.514l-2.456.507a.272.272,0,0,1-.054.005" transform="translate(-49.513 -51.334)" fill="#d4784c"/>
            <path id="Trazado_859178" data-name="Trazado 859178" d="M102.854,258.276l-1.179.293L75.99,264.988l-8.441-.487-.175-14c1.854-.77,4.845-1.4,9.656-1.44,10.244-.064,20.861,6.042,24.5,8.345.85.538,1.319.871,1.319.871" transform="translate(-32.003 -118.303)" fill="#031321"/>
            <path id="Trazado_859179" data-name="Trazado 859179" d="M122.58,121.729a.249.249,0,0,1-.061-.007,12.184,12.184,0,0,0-3.155-.112.262.262,0,1,1-.05-.522,12.408,12.408,0,0,1,3.327.124.262.262,0,0,1-.06.518" transform="translate(-56.561 -57.488)" fill="#d4784c"/>
            <path id="Trazado_859180" data-name="Trazado 859180" d="M124.093,124.422h0l-2.081-.035a.263.263,0,0,1,0-.525h0l2.081.035a.263.263,0,0,1,0,.525" transform="translate(-57.831 -58.834)" fill="#d4784c"/>
            <path id="Trazado_859181" data-name="Trazado 859181" d="M131.229,137.641a.265.265,0,0,1-.131-.035,4.262,4.262,0,0,0-2.275-.477c-.081,0-.142,0-.181,0a.262.262,0,0,1-.248-.276.259.259,0,0,1,.276-.249c.028,0,.077,0,.139,0a4.726,4.726,0,0,1,2.553.547.263.263,0,0,1-.132.49" transform="translate(-60.987 -64.885)" fill="#d4784c"/>
            <path id="Trazado_859182" data-name="Trazado 859182" d="M129.7,134.564a.287.287,0,0,1-.047,0,7.148,7.148,0,0,0-2.03-.093.253.253,0,0,1-.35-.1.27.27,0,0,1,.105-.363,6.226,6.226,0,0,1,2.368.039.263.263,0,0,1-.047.521" transform="translate(-60.44 -63.605)" fill="#d4784c"/>
            <path id="Trazado_859183" data-name="Trazado 859183" d="M102.137,330.617H24.81c.788-4.063,1.753-8.111,2.824-12.043,4.541-16.7,10.889-31.279,12.684-35.957a47.591,47.591,0,0,0,1.927-6.647c.053-.247.105-.483.152-.724v-.005a96.176,96.176,0,0,0,1.712-14.579s.005-.01,0-.01c.021-.478.026-.74.026-.74A4.462,4.462,0,0,1,46.183,257a8.451,8.451,0,0,1,.94-.583.574.574,0,0,1,.079-.042q.284-.158.6-.3c.331-.158.677-.3,1.045-.436,4.725-1.78,12.5-2.263,21.052-.992.914.137,1.806.284,2.667.446a53.838,53.838,0,0,1,8.463,2.231,27.489,27.489,0,0,1,7.9,4.184c.005,0,.005,0,.01.005.289.231.562.467.824.709.063.052.121.105.178.163a11.79,11.79,0,0,1,2.478,3.208,5.346,5.346,0,0,1,.546,2.578c-.047,1.7.074,5.675,1.381,13.419.1.583.221,1.271.368,2.058v.005c.063.357.131.746.2,1.145v.005c1.648,8.9,5.276,27.521,7.224,45.817" transform="translate(-11.785 -120.617)" fill="#db70d0"/>
            <path id="Trazado_859184" data-name="Trazado 859184" d="M110.872,302.275a.262.262,0,0,1-.22-.119c-2.811-4.285-8.591-7.545-28.688-10.554-20.315-3.04-23.835,1.354-23.868,1.4a.262.262,0,0,1-.426-.306c.138-.194,3.61-4.72,24.372-1.611,20.291,3.037,26.159,6.378,29.049,10.785a.262.262,0,0,1-.219.406" transform="translate(-27.37 -137.749)" fill="#031321"/>
            <path id="Trazado_859185" data-name="Trazado 859185" d="M145.719,293.033a.263.263,0,0,1-.26-.228c-.233-1.742-1.383-10.475-1.143-11.245a.262.262,0,0,1,.5.156c-.152.557.632,7.054,1.162,11.02a.262.262,0,0,1-.225.295.2.2,0,0,1-.035,0" transform="translate(-68.535 -133.653)" fill="#031321"/>
            <path id="Trazado_859186" data-name="Trazado 859186" d="M138.268,292.575a.263.263,0,0,1-.262-.249l-.435-8.164a.263.263,0,0,1,.248-.276.255.255,0,0,1,.276.248l.435,8.164a.262.262,0,0,1-.248.276h-.014" transform="translate(-65.346 -134.846)" fill="#031321"/>
            <path id="Trazado_859187" data-name="Trazado 859187" d="M75.021,277.92a.263.263,0,0,1-.262-.256l-.33-13.226a.262.262,0,0,1,.256-.269h.007a.263.263,0,0,1,.262.256l.33,13.225a.262.262,0,0,1-.256.269Z" transform="translate(-35.353 -125.481)" fill="#031321"/>
            <path id="Trazado_859188" data-name="Trazado 859188" d="M92.937,283.107a.262.262,0,0,1-.262-.252l-.326-8.247a.263.263,0,0,1,.252-.273.272.272,0,0,1,.272.252l.326,8.247a.263.263,0,0,1-.252.273Z" transform="translate(-43.866 -130.309)" fill="#031321"/>
            <path id="Trazado_859189" data-name="Trazado 859189" d="M43.464,328.548c-16.406,17.488-18.58,37.06-18.6,37.259a.07.07,0,0,1-.016.042h-.5a.21.21,0,0,1-.011-.1,57.4,57.4,0,0,1,3.071-11.944,74.5,74.5,0,0,1,15.671-25.62.258.258,0,0,1,.368-.01.27.27,0,0,1,.016.373" transform="translate(-11.56 -155.849)" fill="#031321"/>
            <path id="Trazado_859190" data-name="Trazado 859190" d="M131.416,313.023a.262.262,0,0,1-.259-.225,40.463,40.463,0,0,0-7.1-17.307l.188-.186.211-.157-.211.157.232-.129a41.026,41.026,0,0,1,7.2,17.546.263.263,0,0,1-.222.3l-.038,0" transform="translate(-58.926 -140.196)" fill="#031321"/>
            <path id="Trazado_859191" data-name="Trazado 859191" d="M149.515,381.01a85.01,85.01,0,0,1,5.654,9.229h-.6a85.036,85.036,0,0,0-5.486-8.93c-.5-.724-.829-1.2-.971-1.475a.261.261,0,0,1,.11-.352.268.268,0,0,1,.357.11c.121.241.462.735.935,1.417" transform="translate(-70.339 -180.24)" fill="#031321"/>
            <path id="Trazado_859192" data-name="Trazado 859192" d="M125.309,214.261a11.812,11.812,0,0,1-.92,1.074l.75,6.27a11.494,11.494,0,0,0-3.2-5.13,8.378,8.378,0,0,0,3.366-2.218Z" transform="translate(-57.92 -101.772)" fill="#031321"/>
            <path id="Trazado_859193" data-name="Trazado 859193" d="M117.184,213.616h-.072a.263.263,0,0,1-.253-.272.271.271,0,0,1,.272-.253,7.024,7.024,0,0,0,2.306-.427,8.112,8.112,0,0,0,3.261-2.15,10.592,10.592,0,0,0,2.133-3.589.263.263,0,0,1,.493.182,11.106,11.106,0,0,1-2.242,3.766,8.635,8.635,0,0,1-3.471,2.287,7.667,7.667,0,0,1-2.429.458" transform="translate(-55.508 -98.207)" fill="#d4784c"/>
          </g>
        </g>
        <g id="Grupo_1086785" data-name="Grupo 1086785">
          <g id="Grupo_1086784" data-name="Grupo 1086784" clip-path="url(#clip-path-2)">
            <path id="Trazado_859194" data-name="Trazado 859194" d="M258.678,213.766c-4.256,8.139-19.8,8.413-34.718.6s-23.565-20.723-19.3-28.862a9.047,9.047,0,0,1,1.431-2.015c5.635-6.108,19.718-5.693,33.287,1.41,10.9,5.7,18.445,14.131,20.061,21.434a10.715,10.715,0,0,1-.758,7.429" transform="translate(-96.695 -85.13)" fill="#031321"/>
            <path id="Trazado_859195" data-name="Trazado 859195" d="M236.239,109.32a9.886,9.886,0,0,0-1.582,5.939l2.271,41.209.963,17.558,3.493,63.414H195.913l7.052-125.121L188.906,87.964a5.766,5.766,0,0,1,1.453-7.431l32.725-22.169,18.441,17.7a18.685,18.685,0,0,1,1.667,22.563l-5.175,7.961Z" transform="translate(-89.364 -27.722)" fill="#fda690"/>
            <path id="Trazado_859196" data-name="Trazado 859196" d="M245.3,131.461a.255.255,0,0,1-.076-.011.262.262,0,0,1-.183-.294c0-.054-.009-.17-.022-.344A28.814,28.814,0,0,1,252.53,108.8a.262.262,0,0,1,.385.356,28.3,28.3,0,0,0-7.369,21.618,1.591,1.591,0,0,1,.009.5.263.263,0,0,1-.251.186" transform="translate(-116.343 -51.639)" fill="#cc6a52"/>
            <path id="Trazado_859197" data-name="Trazado 859197" d="M219.99,65.249c3.741-2.736,7.6-5.289,11.485-7.8l.972-.626a6.945,6.945,0,0,1,7.56.155,6.8,6.8,0,0,1,2.816,3.642c.922,3.373,1.792,6.759,2.643,10.15a58.42,58.42,0,0,1,1.662,10.418c.09,2.083-.472,5.32-2.557,5.32-3.845,0-6.068-6.592-6.7-8.232-1.873-4.911-3.143-10.01-4.578-15.058l.577,1.318a2.89,2.89,0,0,0,3.952.582c-4.287,2.67-8.6,5.3-13.043,7.7a4.494,4.494,0,0,1-4.791-7.574" transform="translate(-103.618 -26.495)" fill="#fda690"/>
            <path id="Trazado_859198" data-name="Trazado 859198" d="M207.851,81.5c.224-2.347.451-4.737.837-7.062a6.839,6.839,0,0,1,10.063-4.388q4.158,2.192,8.244,4.516a11.879,11.879,0,0,1,3.892,3.214,10.732,10.732,0,0,1,1.43,2.462c.5,1.458,1.053,3.069,1.476,4.545a54.973,54.973,0,0,1,1.5,6.229c.345,2.046.637,4.884-.919,5.682-1.377.707-4.161.059-6.226-3.38A74.863,74.863,0,0,1,223.472,84c-.05-.1.033.1-.007.023a1.774,1.774,0,0,0-.688-.6c-3.065-1.615-6.123-3.253-9.116-5a2.905,2.905,0,0,0,4.435-1.9c.005-.033.013-.1,0-.045l-.261,1.3c-.354,1.73-.722,3.457-1.144,5.175a4.5,4.5,0,0,1-8.844-1.455" transform="translate(-98.724 -32.844)" fill="#fda690"/>
            <path id="Trazado_859199" data-name="Trazado 859199" d="M186.987,102.336c.15-3.124,3.2-6.14,6.562-5.392A5.812,5.812,0,0,1,196.5,98.56l-.548-.472c1.4.9,2.776,1.842,4.138,2.8,1.188.869,2.883,2.06,4.026,2.955l-.271-.181c2.611,1.6,5.57,12.775,4.089,13.975-3.236,2.622-6.78-3.649-7.61-5.328-.086-.163-.292-.7-.362-.79a1.772,1.772,0,0,0-.582-.557c-3-2.052-6.071-4.248-8.853-6.588a2.959,2.959,0,0,0,3.548.165c.605-.516.674-.7.7-1.255a3.921,3.921,0,0,1-7.785-.947" transform="translate(-88.81 -45.994)" fill="#fda690"/>
            <path id="Trazado_859200" data-name="Trazado 859200" d="M195.576,97.434c.093-1.946.284-4.094.45-6.045a6.419,6.419,0,0,1,10.088-4.816l.867.517c2.742,1.64,5.461,3.337,8.157,5.051a10.62,10.62,0,0,1,3.53,3.6c.548.968,1.109,2.029,1.587,3.032.584,1.222,3.023,8.078,1.663,9.308-4.084,3.689-9.537-6.772-10.1-7.57a3.47,3.47,0,0,0-.969-1c-3.2-1.885-6.407-3.812-9.541-5.793a2.1,2.1,0,0,0,3.1-1.557l-.036.25-.316,1.995q-.317,1.995-.7,3.982a3.932,3.932,0,0,1-7.785-.946" transform="translate(-92.898 -40.58)" fill="#fda690"/>
            <path id="Trazado_859201" data-name="Trazado 859201" d="M258.488,90.159a6.131,6.131,0,0,1-4.17-2.234c-4.437-4.853-7.673-18.678-7.809-19.264a.262.262,0,1,1,.511-.119c.033.142,3.341,14.277,7.685,19.029,1.545,1.69,3.462,2.461,4.663,1.876.886-.432,1.223-1.567.95-3.2-.279-1.667-3.874-18.651-3.91-18.823a.263.263,0,0,1,.514-.109c.148.7,3.633,17.166,3.914,18.845.425,2.536-.593,3.441-1.238,3.755a2.51,2.51,0,0,1-1.111.24" transform="translate(-117.089 -31.877)" fill="#cc6a52"/>
            <path id="Trazado_859202" data-name="Trazado 859202" d="M207.933,118.468a3.166,3.166,0,0,1-.967-.165c-1.818-.588-4.437-3-5.89-6.911a.262.262,0,1,1,.492-.183c1.393,3.746,3.859,6.043,5.56,6.593a1.912,1.912,0,0,0,1.636-.093c1.578-1.056.182-5.489-1.169-9.776l-.164-.522c-1.1-3.489-4.049-5.423-7.175-7.47-.919-.6-1.869-1.224-2.755-1.883-3.781-2.811-7.185.383-7.219.415a.262.262,0,1,1-.363-.378c.037-.036,3.763-3.533,7.9-.458.873.649,1.816,1.267,2.729,1.864,3.065,2.008,6.235,4.083,7.388,7.752l.164.522c1.474,4.677,2.865,9.1.96,10.37a1.991,1.991,0,0,1-1.122.322" transform="translate(-90.173 -45.778)" fill="#cc6a52"/>
            <path id="Trazado_859203" data-name="Trazado 859203" d="M205.811,119.743a.258.258,0,0,1-.06-.007c-2.493-.581-8.222-4.476-8.648-5.454a.365.365,0,0,1,0-.34.263.263,0,0,1,.489.156c.369.7,5.735,4.535,8.275,5.126a.263.263,0,0,1-.059.518" transform="translate(-93.605 -54.06)" fill="#cc6a52"/>
            <path id="Trazado_859204" data-name="Trazado 859204" d="M225.023,108.8a4.031,4.031,0,0,1-1.059-.15c-1.475-.4-4.455-2.013-7.834-8.254a.263.263,0,0,1,.461-.25c3.287,6.07,6.117,7.616,7.511,8A2.6,2.6,0,0,0,226.12,108c1.116-.669.091-5.274-2.491-11.2-1.451-3.33-5.086-5.472-8.934-7.739-.785-.463-1.581-.931-2.37-1.416-4.056-2.5-6.02-2.218-6.665-2.126-.114.016-.2.024-.259.026a.263.263,0,0,1-.257-.268.278.278,0,0,1,.268-.257.929.929,0,0,0,.174-.02c.764-.108,2.8-.4,7.015,2.2.786.484,1.578.95,2.36,1.411,3.924,2.312,7.63,4.5,9.149,7.982,1.072,2.46,4.4,10.586,2.28,11.86a2.638,2.638,0,0,1-1.368.348" transform="translate(-97.443 -40.342)" fill="#cc6a52"/>
            <path id="Trazado_859205" data-name="Trazado 859205" d="M223.836,112.292a.254.254,0,0,1-.052-.005,26.513,26.513,0,0,1-5.046-2.458.262.262,0,0,1,.27-.449,27,27,0,0,0,4.88,2.392.263.263,0,0,1-.052.52" transform="translate(-103.839 -51.937)" fill="#cc6a52"/>
            <path id="Trazado_859206" data-name="Trazado 859206" d="M241.162,97h-.06c-2.235-.05-5.2-2.882-7.051-6.733a66.737,66.737,0,0,1-3.579-8.6.263.263,0,1,1,.5-.151,66.333,66.333,0,0,0,3.55,8.525c2.006,4.172,4.833,6.4,6.589,6.435a1.548,1.548,0,0,0,1.5-.887c1.354-2.519-1.382-13.259-3.55-17.043-2.07-3.611-14.618-9.472-14.744-9.53a.262.262,0,1,1,.221-.476c.523.243,12.826,5.991,14.978,9.746,2.052,3.581,5.091,14.7,3.557,17.552A2.071,2.071,0,0,1,241.162,97" transform="translate(-106.479 -32.546)" fill="#cc6a52"/>
            <path id="Trazado_859207" data-name="Trazado 859207" d="M230.589,93.655s-7.094-4.029-7.358-4.177a.262.262,0,1,1,.256-.458c.265.148,7.362,4.179,7.362,4.179Z" transform="translate(-105.97 -42.268)" fill="#cc6a52"/>
            <path id="Trazado_859208" data-name="Trazado 859208" d="M270.489,87.428l-13.045-4.442c-10.6,2.568-15.437-.6-15.437-.6-1.321-1.242-.466-2.618,1.971-4.489l12.886-8.024A5.612,5.612,0,0,1,265.1,72.7Z" transform="translate(-114.659 -32.784)" fill="#fda690"/>
            <path id="Trazado_859209" data-name="Trazado 859209" d="M249.97,85.1c-3.656,0-6.79-.717-8.2-1.807a1.941,1.941,0,0,1-.888-1.555c.046-2.791,13.443-9.99,14.97-10.8a.262.262,0,0,1,.246.464c-5.889,3.129-14.661,8.466-14.692,10.346a1.452,1.452,0,0,0,.685,1.13c2.2,1.7,9.1,2.389,15.04.754a.262.262,0,1,1,.14.506,27.922,27.922,0,0,1-7.305.962" transform="translate(-114.421 -33.679)" fill="#cc6a52"/>
            <path id="Trazado_859210" data-name="Trazado 859210" d="M280.354,103.235a.264.264,0,0,1-.132-.036,24.887,24.887,0,0,1-9.762-10.63c-.084-.169-.171-.343-.2-.4a.263.263,0,0,1,.331-.4c.093.062.141.159.344.565a24.363,24.363,0,0,0,9.557,10.411.263.263,0,0,1-.133.489" transform="translate(-128.334 -43.569)" fill="#cc6a52"/>
            <path id="Trazado_859211" data-name="Trazado 859211" d="M249.143,261.324l-5.11.689H227.692l-6.229-4.322-9.642-14.6,2.1-.943s11.643,9.208,26.556,6.813c4-.644,6.374-2.63,7.706-5.2Z" transform="translate(-100.615 -115.021)" fill="#031321"/>
            <path id="Trazado_859212" data-name="Trazado 859212" d="M252.277,298.991h-64.89c-3.612-7.513-3.979-18.91-.283-30.587a55.385,55.385,0,0,1,5.749-12.558c.483-.777.987-1.533,1.5-2.263a4.361,4.361,0,0,1-2.651-1.213,4,4,0,0,1-.483-.588c-2-2.971-.089-8.757,4.6-13.44.115-.116.231-.231.357-.336-13.235-14.464-9.492-34.555-2.772-46.037a16.854,16.854,0,0,1,3.628-4.62,9.229,9.229,0,0,0-1.433,2.021c-4.263,8.138,4.384,21.058,19.3,28.859s30.46,7.539,34.718-.6a10.681,10.681,0,0,0,.756-7.429c2.578,6.678,4.263,23.063-4.489,34.708-.415.551-.835,1.076-1.26,1.57a24.507,24.507,0,0,1-2.294,2.357c.1,0,.2.005.3.011,3.234.226,5.8,3.79,6.835,8.81v.005a25.965,25.965,0,0,1,.436,6.988,25.154,25.154,0,0,1-1.8,7.933c-.147.357-.3.709-.467,1.04a42.416,42.416,0,0,1,3.139,7.87q.394,1.37.719,2.8a41.489,41.489,0,0,1,.782,14.7" transform="translate(-87.637 -88.991)" fill="#97a9ff"/>
            <path id="Trazado_859213" data-name="Trazado 859213" d="M224.139,128.685c.668,1.624,1.213,3.758.1,4.218s-2.867-1.22-3.535-2.843,0-2.578,1.114-3.038,1.656.039,2.325,1.663" transform="translate(-104.706 -60.258)" fill="#a63232"/>
            <path id="Trazado_859214" data-name="Trazado 859214" d="M241.52,119.6c.727,1.767,1.3,4.1,0,4.632s-3.268-1.265-4-3.032a2.311,2.311,0,0,1,1.362-3.367c1.3-.534,1.906,0,2.633,1.767" transform="translate(-112.693 -55.874)" fill="#a63232"/>
            <path id="Trazado_859215" data-name="Trazado 859215" d="M256.669,111.715c.445,1.872.669,4.274-.619,4.58s-2.894-1.81-3.339-3.681.439-2.79,1.727-3.1,1.786.326,2.231,2.2" transform="translate(-119.982 -51.986)" fill="#a63232"/>
            <path id="Trazado_859216" data-name="Trazado 859216" d="M269.1,100.193c.442,1.856.69,4.233-.481,4.512s-2.68-1.841-3.121-3.7.3-2.3,1.471-2.58,1.69-.091,2.132,1.765" transform="translate(-126.048 -46.704)" fill="#a63232"/>
            <path id="Trazado_859217" data-name="Trazado 859217" d="M243.492,83.281c-2.25,1.14-4.88,2.88-4.237,4.149s4.006.858,6.256-.281,2.118-2.163,1.476-3.432-1.245-1.575-3.5-.435" transform="translate(-113.599 -39.223)" fill="#a63232"/>
            <path id="Trazado_859218" data-name="Trazado 859218" d="M214.56,114.3a.262.262,0,0,1-.133-.489c.189-.111,2.068-1.029,2.282-1.133a.262.262,0,1,1,.23.471c-.832.406-2.116,1.038-2.246,1.114a.258.258,0,0,1-.132.036" transform="translate(-101.791 -53.508)" fill="#cc6a52"/>
            <path id="Trazado_859219" data-name="Trazado 859219" d="M216.326,116.342a.262.262,0,0,1-.119-.5l2.032-1.028a.263.263,0,0,1,.237.469l-2.032,1.028a.257.257,0,0,1-.118.028" transform="translate(-102.63 -54.524)" fill="#cc6a52"/>
            <path id="Trazado_859220" data-name="Trazado 859220" d="M231.279,106.151a.263.263,0,0,1-.16-.471l2.225-1.7a.263.263,0,0,1,.319.417l-2.225,1.7a.262.262,0,0,1-.159.054" transform="translate(-109.733 -49.365)" fill="#cc6a52"/>
            <path id="Trazado_859221" data-name="Trazado 859221" d="M234.012,107.9a.263.263,0,0,1-.155-.475l1.1-.8a.263.263,0,0,1,.31.424l-1.1.8a.26.26,0,0,1-.154.05" transform="translate(-111.031 -50.623)" fill="#cc6a52"/>
            <path id="Trazado_859222" data-name="Trazado 859222" d="M277.552,72.756a.263.263,0,0,1-.218-.408L279.1,69.7a.263.263,0,0,1,.437.291l-1.766,2.651a.262.262,0,0,1-.219.117" transform="translate(-131.712 -33.051)" fill="#cc6a52"/>
            <path id="Trazado_859223" data-name="Trazado 859223" d="M281.908,73.456a.262.262,0,0,1-.247-.351l.675-1.878a.263.263,0,0,1,.495.177l-.675,1.878a.263.263,0,0,1-.247.174" transform="translate(-133.782 -33.75)" fill="#cc6a52"/>
            <path id="Trazado_859224" data-name="Trazado 859224" d="M210.034,283.478a.261.261,0,0,1-.091-.016c-7.456-2.745-12.857-12.645-13.448-13.764a.263.263,0,1,1,.465-.245c.582,1.1,5.893,10.84,13.165,13.517a.262.262,0,0,1-.091.509" transform="translate(-93.321 -127.923)" fill="#031321"/>
            <path id="Trazado_859225" data-name="Trazado 859225" d="M280.495,299.778a.263.263,0,0,1-.009-.525,14.816,14.816,0,0,0,2.672-.426,15.742,15.742,0,0,0,6.146-2.949,12.747,12.747,0,0,0,3.928-5.425.263.263,0,1,1,.49.189,13.265,13.265,0,0,1-4.088,5.645,16.273,16.273,0,0,1-6.351,3.05,15.1,15.1,0,0,1-2.777.442Z" transform="translate(-133.111 -137.885)" fill="#031321"/>
            <path id="Trazado_859226" data-name="Trazado 859226" d="M286.865,353.9a.262.262,0,0,1-.039-.522,12.829,12.829,0,0,0,5.5-2.689,14.5,14.5,0,0,0,3.936-5.1,18.767,18.767,0,0,0,1.344-3.972.263.263,0,0,1,.513.114,19.313,19.313,0,0,1-1.382,4.083,15.02,15.02,0,0,1-4.079,5.281,13.1,13.1,0,0,1-5.756,2.8.264.264,0,0,1-.04,0" transform="translate(-136.136 -162.17)" fill="#031321"/>
            <path id="Trazado_859227" data-name="Trazado 859227" d="M201.6,304.036c-.121-.016-.4-.052-1.858,1.433-.031.032-.063.068-.1.1-.152.157-.3.32-.462.488-.756.814-1.564,1.785-2.336,2.788-.032.037-.058.079-.084.115h-.005a37.653,37.653,0,0,0-6.521,12.841.253.253,0,0,0,.168.31.04.04,0,0,0,.021.01.3.3,0,0,0,.068.005.263.263,0,0,0,.252-.194,37.3,37.3,0,0,1,6.515-12.768c.772-1.008,1.58-1.969,2.336-2.777.173-.189.352-.373.52-.546a6.955,6.955,0,0,1,1.465-1.281.264.264,0,0,0,.021-.525" transform="translate(-90.355 -144.415)" fill="#031321"/>
            <path id="Trazado_859228" data-name="Trazado 859228" d="M277.651,152.953a9.886,9.886,0,0,0-1.582,5.939c-.015-.489-2.326-4.846,1.228-7.212.719-.479,1.442-.973,2.131-1.457Z" transform="translate(-130.775 -71.356)" fill="#031321"/>
            <path id="Trazado_859229" data-name="Trazado 859229" d="M203.289,307.126a36.1,36.1,0,0,0-2.875,3.349,4.392,4.392,0,0,1-2.63-1.208,3.841,3.841,0,0,1-.479-.589,11.169,11.169,0,0,0,5.984-1.552" transform="translate(-93.72 -145.885)" fill="#031321"/>
            <path id="Trazado_859230" data-name="Trazado 859230" d="M304.6,358.55c-.983-1.467-2.481-3.164-4.322-3.584a8.174,8.174,0,0,0-2.455-.194,14.741,14.741,0,0,0,4.008-5.191l.1.055c-.145.359-.3.709-.469,1.043a41.938,41.938,0,0,1,3.139,7.871" transform="translate(-141.467 -166.051)" fill="#031321"/>
            <path id="Trazado_859231" data-name="Trazado 859231" d="M297.647,311.793c-2.635-7.087-9.448-7.531-11.724-7.467a15.915,15.915,0,0,0,6.249-3q-.817.891-1.662,1.647c.1,0,.2.005.3.01,3.234.225,5.8,3.788,6.838,8.809" transform="translate(-135.813 -143.13)" fill="#031321"/>
          </g>
        </g>
        <g id="Grupo_1086787" data-name="Grupo 1086787">
          <g id="Grupo_1086786" data-name="Grupo 1086786" clip-path="url(#clip-path-2)">
            <path id="Trazado_859232" data-name="Trazado 859232" d="M422.791,258.783c-.6,4.4-6.783,9.069-6.783,9.069-3.437,2.99-8.533,1.962-23,.693-24.536-2.156-39.708-26.721-41.356-37.949-.575-3.9.679-7.089,2.943-8.093,7.293-3.277,19.447,5.723,32.385,15.166,8.413,6.082,12.461,5.993,18.541,7.3,6.164,1.446,18.611,3.987,17.268,13.815" transform="translate(-166.97 -105.362)" fill="#031321"/>
            <path id="Trazado_859233" data-name="Trazado 859233" d="M400.695,139.378c.387,2.367.972,7.406-.041,9.58-3.122,6.7-11.039,23.981-10.694,26.277l1.731,10.33,8.994,59.678-41.11,3.231-1.607-70.517-.159-7.074q-.716-.759-1.344-1.572a20.623,20.623,0,0,1-1.27-23.366l6.022-22.2,35.736.535a72.551,72.551,0,0,1,3.741,15.1" transform="translate(-167.278 -58.777)" fill="#b36248"/>
            <path id="Trazado_859234" data-name="Trazado 859234" d="M414.057,292.349s.8,6.863-17.267,5.522,10.346,16.484,10.346,16.484l10.171-1.315,4.209-6.05-1.053-6.495Z" transform="translate(-185.621 -138.866)" fill="#031321"/>
            <path id="Trazado_859235" data-name="Trazado 859235" d="M366.962,155.078l4.019,5.929a5.718,5.718,0,0,0,5.839,1.079,2.9,2.9,0,0,0,1.709-3.9L376.5,153Z" transform="translate(-174.307 -72.676)" fill="#b36248"/>
            <path id="Trazado_859236" data-name="Trazado 859236" d="M376.037,111.124l2.981,2.56-2.953,19.433c-.724,3.171-3.955,3.754-6.355,3.836,0,0-4.639-.131-3.811-8.087l1.029-13.513c.176-3.863,2.743-6.222,6.027-5.714a6.243,6.243,0,0,1,3.081,1.485" transform="translate(-173.755 -52.046)" fill="#b36248"/>
            <path id="Trazado_859237" data-name="Trazado 859237" d="M394.092,115.322l3.081,2.28-1.024,19.627c-.4,3.226-3.406,4.115-5.672,4.426,0,0-4.409.314-4.351-7.684l-.258-13.55c-.185-3.863,2.031-6.456,5.19-6.265a5.733,5.733,0,0,1,3.033,1.167" transform="translate(-183.282 -54.219)" fill="#b36248"/>
            <path id="Trazado_859238" data-name="Trazado 859238" d="M412.586,118.622l2.765,2.045-.919,17.608c-.357,2.894-3.056,3.692-5.089,3.971,0,0-3.956.282-3.9-6.894l-.232-12.157c-.166-3.466,1.823-5.792,4.657-5.621a5.143,5.143,0,0,1,2.721,1.047" transform="translate(-192.469 -55.844)" fill="#b36248"/>
            <path id="Trazado_859239" data-name="Trazado 859239" d="M428.184,120.052l.127.093a5.42,5.42,0,0,1,2.189,4.64l-.668,12.809c-.318,2.584-2.727,3.3-4.542,3.545,0,0-3.531.251-3.484-6.154l-.207-10.851c-.148-3.093,1.627-5.17,4.157-5.017a4.591,4.591,0,0,1,2.429.935" transform="translate(-200.255 -56.577)" fill="#b36248"/>
            <path id="Trazado_859240" data-name="Trazado 859240" d="M366.505,214.776a9.677,9.677,0,0,0-4.644,4.374l-.159-7.074q-.715-.758-1.344-1.572c.025-.012.044-.027.069-.039a14.6,14.6,0,0,0,6.078,4.311" transform="translate(-171.17 -99.971)" fill="#031321"/>
            <path id="Trazado_859241" data-name="Trazado 859241" d="M368.577,211.359h-.01a15.85,15.85,0,0,1-4.918-.946,14.807,14.807,0,0,1-6.188-4.386,17.119,17.119,0,0,1-2.883-4.846l-.021-.055a.262.262,0,0,1,.484-.2l.028.071a16.58,16.58,0,0,0,2.792,4.692,14.289,14.289,0,0,0,5.969,4.235,15.335,15.335,0,0,0,4.755.913.263.263,0,0,1-.009.525" transform="translate(-168.405 -95.362)" fill="#7d3119"/>
            <path id="Trazado_859242" data-name="Trazado 859242" d="M402.187,180.252a.265.265,0,0,0-.362-.094c-10.148,5.854-10.337,14.558-9.949,15.918.073.247.221.284.31.284h.005a.26.26,0,0,0,.257-.268.289.289,0,0,0-.073-.173c-.315-.94-.21-9.581,9.712-15.3a.267.267,0,0,0,.1-.362" transform="translate(-186.091 -85.558)" fill="#7d3119"/>
            <path id="Trazado_859243" data-name="Trazado 859243" d="M415.664,262.053c-1.013,2.147-4.473,8.484-10.973,12.122-1.265.709-2.394,1.328-3.491,1.853.005.058.005.115.01.179.157,3.229.331,7.733.346,12.883a188.927,188.927,0,0,1-1.607,26.9H338.479c-.063-11.6,1.648-28.912,6.641-54.71,1.076-5.581-.2-11.319-.887-16.553-.147-1.118-.31-2.221-.5-3.3,0-.005-.005-.011-.005-.016-1.433-4.683-1.57-8.652-.373-11.991s2.914-5.339,5.045-6.289c-1.78,1.512-2.945,4.069-1.4,9.208,1.68,5.576,3.486,7.9,5.99,12.306A42.987,42.987,0,0,0,381,265.371a45.775,45.775,0,0,0,6.72,1c9.56.719,13.671,2.053,21.714-.3,4.746-1.391,5.754-3.119,6.227-4.011" transform="translate(-160.777 -105.987)" fill="#ffe594"/>
            <path id="Trazado_859244" data-name="Trazado 859244" d="M426.2,304.588a45.784,45.784,0,0,1-6.723-1,55.958,55.958,0,0,0,6.723,1" transform="translate(-199.253 -144.205)" fill="#cc9a52"/>
            <path id="Trazado_859245" data-name="Trazado 859245" d="M362.427,283.879a.259.259,0,0,1-.2-.092,82.731,82.731,0,0,1-7.243-9.743,55.348,55.348,0,0,1-6.789-14.857,24.32,24.32,0,0,1-.957-5.4.263.263,0,0,1,.259-.267.259.259,0,0,1,.266.258,24.353,24.353,0,0,0,.938,5.267,54.826,54.826,0,0,0,6.727,14.714,82.315,82.315,0,0,0,7.2,9.682.262.262,0,0,1-.2.433" transform="translate(-164.939 -120.423)" fill="#031321"/>
            <path id="Trazado_859246" data-name="Trazado 859246" d="M443.913,311.188a.262.262,0,0,1-.06-.518c.03-.007.1-.018.214-.034.3-.043.918-.131,1.765-.316a27.657,27.657,0,0,0,6.724-2.423,26.948,26.948,0,0,0,6.841-4.978c6.256-6.266,6.633-10.777,6.637-10.822a.254.254,0,0,1,.279-.244.262.262,0,0,1,.245.278c-.013.191-.374,4.734-6.789,11.159a27.452,27.452,0,0,1-6.973,5.074,28.155,28.155,0,0,1-6.852,2.468c-.865.191-1.5.28-1.8.323-.088.013-.145.02-.171.026a.26.26,0,0,1-.057.006" transform="translate(-210.734 -138.63)" fill="#031321"/>
            <path id="Trazado_859247" data-name="Trazado 859247" d="M364.3,343.505a.261.261,0,0,1-.2-.091c-11.742-13.669-13.891-32.9-13.911-33.09a.262.262,0,0,1,.522-.056c.02.192,2.155,19.262,13.788,32.8a.263.263,0,0,1-.2.434" transform="translate(-166.338 -147.266)" fill="#031321"/>
            <path id="Trazado_859248" data-name="Trazado 859248" d="M412.2,308.012a.261.261,0,0,1-.259-.238.264.264,0,0,1,.237-.286,7.358,7.358,0,0,0,.817-.3c2.241-.895,8.2-3.274,15.105-1.709a.262.262,0,1,1-.116.511c-6.751-1.526-12.594.807-14.8,1.685a4.581,4.581,0,0,1-.968.335H412.2" transform="translate(-195.669 -144.855)" fill="#031321"/>
            <path id="Trazado_859249" data-name="Trazado 859249" d="M356.25,278.967c-1.186-.434-2.962-.833-4.327-.054a3.81,3.81,0,0,0-1.6,1.866,121.277,121.277,0,0,0-.887-16.556l.056-.041a54.9,54.9,0,0,0,6.758,14.785" transform="translate(-165.982 -125.486)" fill="#031321"/>
            <path id="Trazado_859250" data-name="Trazado 859250" d="M422.7,155.882l2.23,5.5c.865,1.623,1.937,2.427,3.842,2.064a2.552,2.552,0,0,0,1.741-2.561l-.232-5.758Z" transform="translate(-200.783 -73.687)" fill="#b36248"/>
            <path id="Trazado_859251" data-name="Trazado 859251" d="M406.293,156.83l2.158,6.726a3.52,3.52,0,0,0,2.954,2.3,3.97,3.97,0,0,0,3.768-1.6,4.909,4.909,0,0,0,.184-2.609l-.939-5.748Z" transform="translate(-192.989 -74.053)" fill="#b36248"/>
            <path id="Trazado_859252" data-name="Trazado 859252" d="M388.6,159.862l3.346,3.892a5.018,5.018,0,0,0,5.125.947,2.543,2.543,0,0,0,1.5-3.427l-1.777-4.546Z" transform="translate(-184.584 -74.446)" fill="#b36248"/>
            <path id="Trazado_859253" data-name="Trazado 859253" d="M394.165,145.312c-2.846,0-6.077-2.491-8.051-6.287-.971-1.866-.934-5.61-.883-10.793.02-1.99.042-4.245.008-6.66-.053-3.728.9-6.114,2.695-6.717a.27.27,0,0,1,.368.081.262.262,0,0,1-.076.363.572.572,0,0,1-.125.053c-1.557.524-2.387,2.731-2.337,6.212.034,2.421.012,4.679-.008,6.672-.05,5.107-.087,8.8.823,10.546,1.985,3.815,5.4,6.326,8.124,5.97,1.946-.255,2.58-.952,2.422-2.668s-2.261-4.609-2.282-4.638a.263.263,0,0,1,.424-.311c.09.123,2.208,3.029,2.381,4.9.185,2.007-.648,2.945-2.877,3.236a4.633,4.633,0,0,1-.605.039" transform="translate(-182.975 -54.537)" fill="#7d3119"/>
            <path id="Trazado_859254" data-name="Trazado 859254" d="M411.115,148.33c-3.113,0-4.437-2.928-5.516-7.6-.936-4.049-.909-10.344-.891-14.508,0-1.1.008-2.073-.005-2.83-.069-3.821,1.721-4.3,1.8-4.318a.262.262,0,0,1,.127.509c-.029.009-1.46.457-1.4,3.8.014.761.01,1.733.005,2.842-.017,4.141-.044,10.4.878,14.388,1.29,5.589,2.739,7.461,5.534,7.163a2.464,2.464,0,0,0,1.881-1.057c.879-1.273.91-3.719.086-6.887a.263.263,0,0,1,.509-.132c.611,2.348,1.078,5.524-.162,7.318a3,3,0,0,1-2.257,1.28,5.409,5.409,0,0,1-.586.033" transform="translate(-192.233 -56.557)" fill="#7d3119"/>
            <path id="Trazado_859255" data-name="Trazado 859255" d="M427.089,147.193c-.977,0-2.54-.641-3.928-4.054-2.106-5.176-2.072-12.584-2.053-16.564,0-.7.006-1.3,0-1.772-.063-3.3,1.424-4.222,1.487-4.259a.262.262,0,0,1,.269.45c-.017.011-1.288.839-1.232,3.8.008.475.006,1.079,0,1.784-.018,3.943-.053,11.284,2.013,16.364,1.041,2.557,2.383,3.907,3.7,3.707a2.433,2.433,0,0,0,1.82-2.287c.214-2.628-1.148-10.523-1.162-10.6a.262.262,0,1,1,.517-.09c.057.327,1.388,8.04,1.168,10.735a2.964,2.964,0,0,1-2.263,2.764,2.266,2.266,0,0,1-.335.025" transform="translate(-200.024 -57.241)" fill="#7d3119"/>
            <path id="Trazado_859256" data-name="Trazado 859256" d="M436.087,151.52a.259.259,0,0,1-.166-.06.263.263,0,0,1-.037-.369c1.733-2.11,2.328-6.052,2.334-6.092a.263.263,0,0,1,.52.076c-.025.167-.622,4.125-2.447,6.349a.262.262,0,0,1-.2.1" transform="translate(-207.017 -68.768)" fill="#7d3119"/>
            <path id="Trazado_859257" data-name="Trazado 859257" d="M372.252,125.5a6.124,6.124,0,0,1-3.394,6.347l-6.594,2.364-.186,11.061,8.309,8.118s-17.58,13.281-18.755,6.028c-1.9-11.688-.384-23.759.516-29.184a4.119,4.119,0,0,1,3.434-3.4l16.374-2.545a6.128,6.128,0,0,1,.3,1.212" transform="translate(-166.593 -59.035)" fill="#b36248"/>
            <path id="Trazado_859258" data-name="Trazado 859258" d="M379.193,171.158a.261.261,0,0,1-.172-.064c-4.369-3.77-9.861-8.29-10.5-8.557a.263.263,0,0,1-.048-.515c.613-.17,9.18,7.2,10.892,8.675a.263.263,0,0,1-.172.461" transform="translate(-174.933 -76.959)" fill="#7d3119"/>
            <path id="Trazado_859259" data-name="Trazado 859259" d="M372.115,154.269h0a.262.262,0,0,1-.258-.267l.187-11.06a.263.263,0,0,1,.525.008l-.187,11.061a.262.262,0,0,1-.262.258" transform="translate(-176.63 -67.775)" fill="#7d3119"/>
            <path id="Trazado_859260" data-name="Trazado 859260" d="M380.016,167.659a3.371,3.371,0,0,1-2.642-.96.263.263,0,0,1,.469-.236,3.8,3.8,0,0,0,3.8.322,2.692,2.692,0,0,0,1.738-3.05.263.263,0,1,1,.5-.156,3.219,3.219,0,0,1-2.015,3.681,4.332,4.332,0,0,1-1.848.4" transform="translate(-179.24 -77.613)" fill="#7d3119"/>
            <path id="Trazado_859261" data-name="Trazado 859261" d="M367.966,134.482a.262.262,0,0,1-.058-.518,45.058,45.058,0,0,0,7.631-2.6,5.293,5.293,0,0,0,3.041-7.028L365.32,126.4a.263.263,0,0,1-.08-.519l13.466-2.093a.261.261,0,0,1,.28.153c.024.053,2.309,5.36-3.227,7.9a45.616,45.616,0,0,1-7.733,2.632.253.253,0,0,1-.059.007" transform="translate(-173.383 -58.797)" fill="#7d3119"/>
            <path id="Trazado_859262" data-name="Trazado 859262" d="M377.576,166.063c-1.568-1.713-1.894-2.549.919-2.954a3.427,3.427,0,0,1,2.818,1.055c1.568,1.714,1.718,3.066.506,3.62-.92.419-2.675-.008-4.243-1.721" transform="translate(-178.783 -77.463)" fill="#6b2243"/>
            <path id="Trazado_859263" data-name="Trazado 859263" d="M396.217,166.871c-1.568-1.713-1.895-2.549.919-2.954a3.427,3.427,0,0,1,2.818,1.055c1.568,1.714,2.1,3.455.884,4.008-.919.419-3.053-.4-4.62-2.109" transform="translate(-187.637 -77.847)" fill="#6b2243"/>
            <path id="Trazado_859264" data-name="Trazado 859264" d="M411.658,167.09s-1.115-1.791,2.284-1.618a1.889,1.889,0,0,1,1.9,1.464c.7,2.213.452,4.015-.881,4.008-1.011-.006-2.6-1.642-3.308-3.855" transform="translate(-195.454 -78.594)" fill="#6b2243"/>
            <path id="Trazado_859265" data-name="Trazado 859265" d="M427.351,165.247s-.6-1.531,1.5-1.657a1.9,1.9,0,0,1,1.81,1.322c1,2.1.341,3.769-.724,3.821-.808.04-1.809-1.267-2.589-3.486" transform="translate(-202.954 -77.704)" fill="#6b2243"/>
            <path id="Trazado_859266" data-name="Trazado 859266" d="M379.473,123.769c-3.152.686-4.415.8-4,2.624.157.687,2.005.514,4.626-.153s4.6-1.763,4.43-2.445-2.42-.6-5.06-.026" transform="translate(-178.314 -58.572)" fill="#6b2243"/>
            <path id="Trazado_859267" data-name="Trazado 859267" d="M387.462,158.493a1.549,1.549,0,0,1-.869-.174.262.262,0,0,1,.294-.435c.045.024,1.271.6,5.993-1.631a.263.263,0,0,1,.224.475c-3.073,1.451-4.759,1.764-5.642,1.764" transform="translate(-183.579 -74.209)" fill="#7d3119"/>
            <path id="Trazado_859268" data-name="Trazado 859268" d="M409.7,158.283a9.471,9.471,0,0,1-3.751-.612.262.262,0,0,1,.222-.476,11.572,11.572,0,0,0,6.1.355.262.262,0,1,1,.08.519,17.239,17.239,0,0,1-2.648.214" transform="translate(-192.752 -74.656)" fill="#7d3119"/>
            <path id="Trazado_859269" data-name="Trazado 859269" d="M372.986,160.567a3.248,3.248,0,0,1-.9-.1.263.263,0,0,1,.156-.5c.031.009,1.84.511,5.007-1.239a.262.262,0,1,1,.254.459,9.476,9.476,0,0,1-4.513,1.382" transform="translate(-176.652 -75.379)" fill="#7d3119"/>
            <path id="Trazado_859270" data-name="Trazado 859270" d="M426.517,157.975a9.187,9.187,0,0,1-2.289-.289.262.262,0,1,1,.142-.505,8.189,8.189,0,0,0,4.05,0,.262.262,0,1,1,.157.5,6.957,6.957,0,0,1-2.061.291" transform="translate(-201.417 -74.656)" fill="#7d3119"/>
            <path id="Trazado_859271" data-name="Trazado 859271" d="M375.52,112.413a.26.26,0,0,1-.166-.059c-1.726-1.416-4.189-.464-4.214-.454a.263.263,0,0,1-.193-.488c.112-.045,2.778-1.074,4.739.535a.263.263,0,0,1-.166.466" transform="translate(-176.121 -52.747)" fill="#7d3119"/>
            <path id="Trazado_859272" data-name="Trazado 859272" d="M374.673,114.318a.26.26,0,0,1-.138-.039c-1.173-.723-3.414-.262-3.437-.257a.262.262,0,0,1-.109-.513c.1-.021,2.469-.511,3.821.324a.262.262,0,0,1-.138.486" transform="translate(-176.121 -53.84)" fill="#7d3119"/>
            <path id="Trazado_859273" data-name="Trazado 859273" d="M393.141,116.423a.264.264,0,0,1-.161-.055,4.247,4.247,0,0,0-4.49-.259.263.263,0,0,1-.258-.458,4.867,4.867,0,0,1,5.07.3.262.262,0,0,1-.161.47" transform="translate(-184.347 -54.653)" fill="#7d3119"/>
            <path id="Trazado_859274" data-name="Trazado 859274" d="M392.426,118.783a.259.259,0,0,1-.081-.013,4.188,4.188,0,0,0-2.334-.323.955.955,0,0,1-.2.028.263.263,0,0,1,0-.525.627.627,0,0,0,.09-.017,4.646,4.646,0,0,1,2.6.338.262.262,0,0,1-.081.512" transform="translate(-185.038 -55.988)" fill="#7d3119"/>
            <path id="Trazado_859275" data-name="Trazado 859275" d="M412.91,118.8a.261.261,0,0,1-.187-.079,2.466,2.466,0,0,0-2.847-.581.262.262,0,1,1-.245-.464,3,3,0,0,1,3.467.677.262.262,0,0,1-.187.446" transform="translate(-194.508 -55.761)" fill="#7d3119"/>
            <path id="Trazado_859276" data-name="Trazado 859276" d="M412.313,121.1h-2.56a.262.262,0,1,1,0-.525h2.56a.262.262,0,1,1,0,.525" transform="translate(-194.508 -57.271)" fill="#7d3119"/>
            <path id="Trazado_859277" data-name="Trazado 859277" d="M429.418,120.633a.263.263,0,0,1-.226-.129c-.836-1.415-2.88-.988-2.9-.984a.263.263,0,0,1-.112-.513c.1-.02,2.435-.514,3.467,1.231a.263.263,0,0,1-.092.359.259.259,0,0,1-.134.037" transform="translate(-202.337 -56.49)" fill="#7d3119"/>
            <path id="Trazado_859278" data-name="Trazado 859278" d="M427.765,122.7a.261.261,0,0,1-.18-.071,1.958,1.958,0,0,0-2.054-.53l-.075.02a.262.262,0,1,1-.128-.509l.062-.017a2.5,2.5,0,0,1,2.553.653.262.262,0,0,1-.18.454" transform="translate(-201.937 -57.704)" fill="#7d3119"/>
            <path id="Trazado_859279" data-name="Trazado 859279" d="M453.537,337.114c-.409-7.941-3.778-10.406-5.625-11.159a27.757,27.757,0,0,0,5.28-1.727c.16,3.229.329,7.736.344,12.887" transform="translate(-212.758 -154.008)" fill="#031321"/>
          </g>
        </g>
        <g id="Grupo_1086789" data-name="Grupo 1086789">
          <g id="Grupo_1086788" data-name="Grupo 1086788" clip-path="url(#clip-path-2)">
            <path id="Trazado_859280" data-name="Trazado 859280" d="M677,245.523c-6.274,0-11.4-1.766-13.128-4.8a.591.591,0,0,1,1.026-.585c1.992,3.491,9.716,5.082,17.964,3.7,9.267-1.553,16.5-6.421,15.794-10.629a.591.591,0,1,1,1.166-.2c.839,5.007-6.525,10.274-16.764,11.99a36.834,36.834,0,0,1-6.058.517" transform="translate(-315.301 -110.448)" fill="#031321"/>
            <path id="Trazado_859281" data-name="Trazado 859281" d="M679.638,242.481c-8.582,0-15.848-2.87-17.467-6.968a.591.591,0,0,1,1.1-.434c1.477,3.739,8.881,6.4,17.257,6.21a29.888,29.888,0,0,0,12.361-2.716c3.131-1.57,4.829-3.546,4.781-5.565a.59.59,0,0,1,.576-.6h.015a.591.591,0,0,1,.59.577c.06,2.5-1.87,4.863-5.432,6.649a31.075,31.075,0,0,1-12.864,2.841q-.461.011-.917.011" transform="translate(-314.511 -110.391)" fill="#031321"/>
            <path id="Trazado_859282" data-name="Trazado 859282" d="M688.741,189.864c-1.872-1.871-8.122-3-15.463-2.614-7,.367-12.865,1.99-14.842,3.918l.772-29.461c0-.014,0-.028,0-.042a8.858,8.858,0,0,0-4.391-7.824c-.2-.117-.4-.238-.59-.364-3.45-2.236-6.548-6.988-7.283-15.38l-2.2-20.136,51.9-5.649,2.571,7.324a16.087,16.087,0,0,1,.449,9.2A70.288,70.288,0,0,1,691.7,148.3c-3.71,6.032-6.014,16.735-5.15,23.765Z" transform="translate(-306.256 -53.348)" fill="#cc7b62"/>
            <path id="Trazado_859283" data-name="Trazado 859283" d="M692.98,96.283,691.924,90.4a3.839,3.839,0,0,0-5.108-3.058l-12.855,4.835a4.694,4.694,0,0,0-2.617,6.343l2.129,4.664Z" transform="translate(-318.686 -41.371)" fill="#cc7b62"/>
            <path id="Trazado_859284" data-name="Trazado 859284" d="M701.847,109.333l-2.136.152a2.829,2.829,0,0,1-2.883-2.044l-5.643-18.2,5.7-2.176a3.814,3.814,0,0,1,5.02,2.606l3.6,14.321a4.259,4.259,0,0,1-3.657,5.346" transform="translate(-328.313 -41.235)" fill="#cc7b62"/>
            <path id="Trazado_859285" data-name="Trazado 859285" d="M705.382,94.228l-1.056-5.883a3.839,3.839,0,0,0-5.108-3.058l-12.855,4.835a4.694,4.694,0,0,0-2.617,6.343l2.129,4.664Z" transform="translate(-324.577 -40.395)" fill="#cc7b62"/>
            <path id="Trazado_859286" data-name="Trazado 859286" d="M714.249,107.278l-2.136.151a2.829,2.829,0,0,1-2.883-2.044l-5.643-18.2,5.7-2.176a3.814,3.814,0,0,1,5.02,2.606l3.6,14.321a4.26,4.26,0,0,1-3.657,5.346" transform="translate(-334.204 -40.259)" fill="#cc7b62"/>
            <path id="Trazado_859287" data-name="Trazado 859287" d="M707.3,329.92,667.675,331.9l1.3-49.612.05-1.886c1.564-2.107,7.931-3.947,15.638-4.353,8.6-.45,15.731,1.06,16.431,3.408l.054.459Z" transform="translate(-317.146 -131.086)" fill="#cc7b62"/>
            <path id="Trazado_859288" data-name="Trazado 859288" d="M696,109.67a2.959,2.959,0,0,1-2.5-.9.263.263,0,0,1,.429-.3c.016.022.719.915,2.914.622,1.852-.248,3.02-.738,3.572-1.5a2.541,2.541,0,0,0,.336-2.035c-.28-1.539-1.965-9.632-3.105-14.66-.453-1.993-1.11-3.227-2.011-3.77-.99-.6-2.229-.334-3.518.013l-9.175,3.779a.263.263,0,1,1-.2-.486l9.207-3.789c1.435-.388,2.791-.669,3.956.034,1.03.621,1.767,1.963,2.252,4.1,1.142,5.033,2.83,13.139,3.111,14.682a3.07,3.07,0,0,1-.428,2.438c-.65.893-1.9,1.435-3.927,1.708a6.935,6.935,0,0,1-.917.064" transform="translate(-324.228 -40.966)" fill="#a65137"/>
            <path id="Trazado_859289" data-name="Trazado 859289" d="M678.791,104.186l-.714-5.641a3.908,3.908,0,0,0-4.912-3.277l-13.759,3.781a3.792,3.792,0,0,0-2.51,5.082l2.067,5.1Z" transform="translate(-311.893 -45.185)" fill="#cc7b62"/>
            <path id="Trazado_859290" data-name="Trazado 859290" d="M687.4,116.494l-2.136-.019a2.872,2.872,0,0,1-2.755-2.15l-4.575-17.634,5.8-1.624a3.908,3.908,0,0,1,4.851,2.844l2.763,13.808a3.993,3.993,0,0,1-3.95,4.775" transform="translate(-322.021 -45.088)" fill="#cc7b62"/>
            <path id="Trazado_859291" data-name="Trazado 859291" d="M702.3,269.089a.464.464,0,0,1-.482.451.472.472,0,0,1-.451-.477.559.559,0,0,0,0-.1c0-.024,0-.048,0-.071-1.573-2.022-8.237-3.26-16.132-2.848-7.128.373-13.108,1.975-15.2,3.881a1.08,1.08,0,0,0-.221.67.468.468,0,0,1-.436.5.749.749,0,0,1-.093,0,.468.468,0,0,1-.4-.437,2.04,2.04,0,0,1,.463-1.367,3.321,3.321,0,0,1,.292-.336l.192-7.369a1.8,1.8,0,0,1-.646-1.206,1.968,1.968,0,0,1,.718-1.472c1.978-1.928,7.843-3.55,14.843-3.918,7.341-.386,13.591.743,15.463,2.614a1.718,1.718,0,0,1,.572,1.129,1.6,1.6,0,0,1-.308.993l.931,7.582a2.522,2.522,0,0,1,.828,1.184,1.807,1.807,0,0,1,.071.6" transform="translate(-317.714 -121.081)" fill="#031321"/>
            <path id="Trazado_859292" data-name="Trazado 859292" d="M663.878,235.689a.591.591,0,0,1-.514-.3,4.815,4.815,0,0,1-.572-1.589c-.414-2.467,1.161-5.079,4.434-7.353a34.223,34.223,0,0,1,25.5-4.273c3.836,1.082,6.176,3.037,6.589,5.5a.591.591,0,1,1-1.166.2c-.333-1.991-2.374-3.612-5.745-4.563a33.064,33.064,0,0,0-24.5,4.107c-2.876,2-4.277,4.2-3.943,6.186a3.622,3.622,0,0,0,.433,1.2.591.591,0,0,1-.513.884" transform="translate(-314.796 -105.112)" fill="#f27c2b"/>
            <path id="Trazado_859293" data-name="Trazado 859293" d="M662.449,228.606a.592.592,0,0,1-.55-.374,4.786,4.786,0,0,1-.341-1.655c-.121-5.075,7.916-9.244,18.3-9.49a30.989,30.989,0,0,1,12.983,2.228c3.643,1.615,5.683,3.883,5.741,6.385a.59.59,0,0,1-.576.6h-.015a.591.591,0,0,1-.59-.577c-.048-2.019-1.837-3.912-5.039-5.332a29.867,29.867,0,0,0-12.477-2.127c-9.393.223-17.244,4.016-17.142,8.281A3.626,3.626,0,0,0,663,227.8a.591.591,0,0,1-.55.809" transform="translate(-314.24 -103.111)" fill="#f27c2b"/>
            <path id="Trazado_859294" data-name="Trazado 859294" d="M667.787,198.909a8.858,8.858,0,0,0-4.391-7.824c-.2-.117-.4-.238-.59-.364a32.022,32.022,0,0,0,5.776,1.661c3.555.805.409,3.116-.8,6.527" transform="translate(-314.833 -90.592)" fill="#031321"/>
            <path id="Trazado_859295" data-name="Trazado 859295" d="M730.013,116.9l-11.99.74.017-13.588-.881,0a9.569,9.569,0,0,1-9.078-6.57l-.575-1.732,17.179.089a5.373,5.373,0,0,1,5.344,5.378Z" transform="translate(-336.065 -45.479)" fill="#cc7b62"/>
            <path id="Trazado_859296" data-name="Trazado 859296" d="M664.886,122.306l-2.461.812a2.771,2.771,0,0,1-3.264-4.027l.794-1.361-.855-2.109-14.257,1.714-.8-5.191a7.2,7.2,0,0,1,7.568-8.289l6.947.431a6.612,6.612,0,0,1,5.718,4.114l3.178,7.834a4.666,4.666,0,0,1-2.569,6.072" transform="translate(-305.88 -49.324)" fill="#cc7b62"/>
            <path id="Trazado_859297" data-name="Trazado 859297" d="M667.317,123.209a4.06,4.06,0,0,1-.593-.041,2.1,2.1,0,0,1-1.661-1.21,6.006,6.006,0,0,1,.277-4.529.263.263,0,1,1,.454.265,5.536,5.536,0,0,0-.258,4.036,1.563,1.563,0,0,0,1.264.919,7.658,7.658,0,0,0,5.221-1.787,3.748,3.748,0,0,0,1.583-2.451c.147-2.245-3.466-12.777-6.29-13.777-2.881-1.019-10.126-.787-10.2-.785a.251.251,0,0,1-.271-.253.263.263,0,0,1,.254-.271c.3-.01,7.417-.239,10.392.815,3.17,1.121,6.8,11.874,6.639,14.306a4.248,4.248,0,0,1-1.777,2.824,8.725,8.725,0,0,1-5.034,1.939" transform="translate(-312 -49.066)" fill="#a65137"/>
            <path id="Trazado_859298" data-name="Trazado 859298" d="M672.284,124.89a.26.26,0,0,1-.135-.038c-3.952-2.377-4.917-8.191-4.957-8.437a.263.263,0,0,1,.519-.082c.01.058.968,5.819,4.709,8.07a.262.262,0,0,1-.135.487" transform="translate(-316.915 -55.153)" fill="#a65137"/>
            <path id="Trazado_859299" data-name="Trazado 859299" d="M662.078,125.651a21.948,21.948,0,0,1-8.9-1.841,5.1,5.1,0,0,0-.641-.245.25.25,0,0,1-.279-.233.27.27,0,0,1,.243-.29,2.238,2.238,0,0,1,.88.283,21.447,21.447,0,0,0,9.227,1.793.27.27,0,0,1,.269.257.263.263,0,0,1-.257.268c-.183,0-.364.006-.542.006" transform="translate(-309.822 -58.444)" fill="#a65137"/>
            <path id="Trazado_859300" data-name="Trazado 859300" d="M683.3,116.875a7.418,7.418,0,0,1-.972-.066,7.825,7.825,0,0,1-3.342-.963.263.263,0,0,1,.311-.423,7.664,7.664,0,0,0,3.1.865,4.4,4.4,0,0,0,3.813-.978,2.721,2.721,0,0,0,.653-2.466c-.3-1.647-2.129-9.416-3.194-13.9a4.378,4.378,0,0,0-5.4-3.216l-9.248,2.49a.262.262,0,1,1-.137-.507l9.248-2.491a4.9,4.9,0,0,1,6.045,3.6c1.3,5.484,2.914,12.352,3.2,13.929a3.268,3.268,0,0,1-.79,2.922,4.463,4.463,0,0,1-3.29,1.2" transform="translate(-317.629 -45.148)" fill="#a65137"/>
            <path id="Trazado_859301" data-name="Trazado 859301" d="M718.343,104.143a18.849,18.849,0,0,1-5.038-.764c-5.981-1.665-6.3-7.8-6.3-7.86a.263.263,0,0,1,.525-.021,8.175,8.175,0,0,0,5.916,7.376c5.693,1.584,8.261.134,8.287.12a.262.262,0,1,1,.266.453,7.643,7.643,0,0,1-3.655.7" transform="translate(-335.827 -45.242)" fill="#a65137"/>
            <path id="Trazado_859302" data-name="Trazado 859302" d="M716.581,95.784h0l-9.868-.09a.263.263,0,0,1,0-.525h0l9.868.09a.263.263,0,0,1,0,.525" transform="translate(-335.564 -45.205)" fill="#a65137"/>
            <path id="Trazado_859303" data-name="Trazado 859303" d="M728.257,122.538a.262.262,0,0,1-.249-.179c-.554-1.636-1.174-4.833-.983-10.769,0-.133.007-.224.007-.266a.263.263,0,0,1,.262-.262h0a.263.263,0,0,1,.262.263c0,.045,0,.141-.008.281-.188,5.858.416,8.989.956,10.585a.263.263,0,0,1-.165.333.26.26,0,0,1-.084.014" transform="translate(-345.32 -52.755)" fill="#a65137"/>
            <path id="Trazado_859304" data-name="Trazado 859304" d="M693.893,146.582a.267.267,0,0,1-.251-.182c-.2-.587.965-5.714,4.16-10.494,2.45-3.666,6.811-8.132,13.682-8.6a.273.273,0,0,1,.279.245.263.263,0,0,1-.245.28c-4.89.33-9.068,2.736-12.418,7.152-3.736,4.925-5.085,10.651-4.959,11.253a.259.259,0,0,1-.166.329.249.249,0,0,1-.082.014" transform="translate(-329.47 -60.472)" fill="#a65137"/>
            <path id="Trazado_859305" data-name="Trazado 859305" d="M722.927,125.714a.366.366,0,0,0-.058-.121.258.258,0,0,0-.457.126v.005a.221.221,0,0,0-.01.026c-.058.105-.367.525-1.922.62a7.725,7.725,0,0,1-3.124-.347,1.933,1.933,0,0,1-.184-.079.319.319,0,0,0-.152-.042.226.226,0,0,0-.226.089l-.01.01a.193.193,0,0,0-.037.074.275.275,0,0,0,.005.184.253.253,0,0,0,.089.11.264.264,0,0,0,.147.052.116.116,0,0,1-.047-.005,1.512,1.512,0,0,0,.163.068,4.583,4.583,0,0,0,1.029.3,8.546,8.546,0,0,0,1.407.126c.068.005.136.005.2.005.268,0,.525-.01.761-.021a4.214,4.214,0,0,0,1.89-.441c.005-.005.01-.005.016-.01l.079-.047a.872.872,0,0,0,.441-.6v-.021a.215.215,0,0,0-.005-.058" transform="translate(-340.449 -59.611)" fill="#a65137"/>
            <path id="Trazado_859306" data-name="Trazado 859306" d="M713.181,95.63c-.008.634-2.142,1.12-4.765,1.086s-4.744-.575-4.736-1.209,2.224-.672,4.848-.638,4.661.127,4.654.761" transform="translate(-334.248 -45.059)" fill="#a61818"/>
            <path id="Trazado_859307" data-name="Trazado 859307" d="M671.309,107.439a.217.217,0,0,1-.037,0,.262.262,0,0,1-.224-.3c.063-.451,3.112-1.359,3.142-1.365a.262.262,0,1,1,.109.513,19.006,19.006,0,0,0-2.783,1.048.264.264,0,0,1-.208.1" transform="translate(-318.747 -50.241)" fill="#a65137"/>
            <path id="Trazado_859308" data-name="Trazado 859308" d="M689.371,98.038a.251.251,0,0,1-.133-.039.263.263,0,0,1,.131-.49h0c.066-.017.189-.065.35-.124,1.09-.4,2.1-.733,2.539-.314a.262.262,0,1,1-.364.378c-.107-.1-.538-.111-1.993.428a1.989,1.989,0,0,1-.531.162" transform="translate(-327.325 -46.016)" fill="#a65137"/>
            <path id="Trazado_859309" data-name="Trazado 859309" d="M674.226,109.286a.262.262,0,0,1-.077-.513l1.576-.48a.263.263,0,0,1,.153.5l-1.576.479a.279.279,0,0,1-.077.011" transform="translate(-320.133 -51.434)" fill="#a65137"/>
            <path id="Trazado_859310" data-name="Trazado 859310" d="M692.4,100.243a.263.263,0,0,1-.02-.524l1.427-.108a.258.258,0,0,1,.282.242.263.263,0,0,1-.242.281l-1.427.108h-.02" transform="translate(-328.768 -47.315)" fill="#a65137"/>
            <path id="Trazado_859311" data-name="Trazado 859311" d="M706.024,88.014c-.031.005-.063.016-.094.021-.052.011-.1.026-.157.037-1.8.425-1.764.861-1.754,1.008a.263.263,0,0,0,.263.242h.021a.263.263,0,0,0,.242-.231,4.872,4.872,0,0,1,1.591-.567.264.264,0,0,0,.152-.089.194.194,0,0,0,.037-.073.23.23,0,0,0,.016-.147.264.264,0,0,0-.315-.2" transform="translate(-334.408 -41.804)" fill="#a65137"/>
            <path id="Trazado_859312" data-name="Trazado 859312" d="M684.03,133.892c-.3,0-.567-.022-.76-.037-.086-.007-.153-.013-.195-.013a.263.263,0,0,1,0-.525c.05,0,.13.006.233.015.537.043,1.959.156,2.539-.573a.262.262,0,1,1,.411.327,2.794,2.794,0,0,1-2.232.807" transform="translate(-324.337 -63.013)" fill="#a65137"/>
            <path id="Trazado_859313" data-name="Trazado 859313" d="M654.37,132.921a.254.254,0,0,1-.1-.019.262.262,0,0,1-.146-.341c.309-.774,3.619-5.811,9.148-5.47a.263.263,0,0,1,.246.278.26.26,0,0,1-.278.246c-5.14-.324-8.351,4.45-8.628,5.141a.263.263,0,0,1-.244.165" transform="translate(-310.701 -60.36)" fill="#a65137"/>
            <path id="Trazado_859314" data-name="Trazado 859314" d="M706.843,91.172a.262.262,0,0,1-.063-.517l1.517-.376a.262.262,0,0,1,.126.509l-1.517.376a.262.262,0,0,1-.063.008" transform="translate(-335.626 -42.878)" fill="#a65137"/>
            <path id="Trazado_859315" data-name="Trazado 859315" d="M716.133,86.982a.262.262,0,0,1-.21-.107.268.268,0,0,1,.057-.371,24.164,24.164,0,0,1,2.549-.92.263.263,0,0,1,.163.5c-1.071.351-2.264.764-2.407.848a.253.253,0,0,1-.152.051" transform="translate(-340.039 -40.646)" fill="#a65137"/>
            <path id="Trazado_859316" data-name="Trazado 859316" d="M720.078,88.494a.263.263,0,0,1-.091-.509l1.381-.512a.263.263,0,1,1,.183.492l-1.381.512a.266.266,0,0,1-.091.016" transform="translate(-341.913 -41.542)" fill="#a65137"/>
            <path id="Trazado_859317" data-name="Trazado 859317" d="M699.38,311.391a58.991,58.991,0,0,1-4.011,21.436q-.512,1.37-1.087,2.693H631.923c-.163-.142-.326-.278-.488-.425a50.907,50.907,0,0,1-10.5-12.8c-6.9-12.054-7.633-25.62-1.155-35.259a24.565,24.565,0,0,1,1.995-2.583c6.1-6.909,15.419-9.744,25.342-8.673a1.16,1.16,0,0,1,.184.021c.074.005.168.016.278.031a43.589,43.589,0,0,1,11.545,3.082c.142.063.294.126.436.184a33.8,33.8,0,0,1,2.142-3.082c8.92-11.45,23.284-15.183,32.072-8.337,7.271,5.665,8.447,16.795,3.586,26.948-.42.893-.893,1.775-1.407,2.641,2.163,3.575,3.334,8.479,3.428,14.122" transform="translate(-292.274 -125.52)" fill="#ff9af7"/>
            <path id="Trazado_859318" data-name="Trazado 859318" d="M685.689,291.685l-.027,0a.261.261,0,0,1-.234-.287,39.369,39.369,0,0,1,4.111-8.792,51.5,51.5,0,0,1,4.9-6.891c6.159-7.274,13.336-11.284,21.331-11.917a.271.271,0,0,1,.282.241.262.262,0,0,1-.241.282c-7.85.623-14.906,4.57-20.972,11.734a50.916,50.916,0,0,0-4.845,6.82,40.376,40.376,0,0,0-4.04,8.575.263.263,0,0,1-.261.236" transform="translate(-325.578 -125.303)" fill="#031321"/>
            <path id="Trazado_859319" data-name="Trazado 859319" d="M737.661,335.2a.262.262,0,0,1-.027-.523,22.955,22.955,0,0,0,10.957-4.819,21.51,21.51,0,0,0,5.223-6.119,23.944,23.944,0,0,0,1.71-3.69.263.263,0,0,1,.493.18A24.475,24.475,0,0,1,754.268,324a22.021,22.021,0,0,1-5.35,6.267,23.534,23.534,0,0,1-11.23,4.931l-.028,0" transform="translate(-350.264 -151.94)" fill="#031321"/>
            <path id="Trazado_859320" data-name="Trazado 859320" d="M688.314,289.395c-1,1.377-1.889,2.745-2.663,4.038a10.977,10.977,0,0,0-8.885-7.122,43.554,43.554,0,0,1,11.548,3.084" transform="translate(-321.464 -135.998)" fill="#031321"/>
            <path id="Trazado_859321" data-name="Trazado 859321" d="M767.645,341.426c-.654-2.651-1.649-5.1-3.155-6.511a5.79,5.79,0,0,0-5.461-1.244,21.738,21.738,0,0,0,5.287-6.193c2.1,3.557,3.236,8.392,3.329,13.948" transform="translate(-360.539 -155.552)" fill="#031321"/>
          </g>
        </g>
        <g id="Grupo_1086791" data-name="Grupo 1086791">
          <g id="Grupo_1086790" data-name="Grupo 1086790" clip-path="url(#clip-path-2)">
            <path id="Trazado_859322" data-name="Trazado 859322" d="M129.055,15.554h0c.69,5.2,2.075,9.323,3.825,11.375-1.75,2.053-3.135,6.172-3.825,11.376-.69-5.2-2.075-9.323-3.825-11.376,1.75-2.052,3.135-6.171,3.825-11.375" transform="translate(-59.484 -7.388)" fill="#fff"/>
            <path id="Trazado_859323" data-name="Trazado 859323" d="M662.577,349.58h0c.467,3.52,1.4,6.306,2.587,7.694-1.183,1.389-2.12,4.174-2.587,7.694-.467-3.52-1.4-6.306-2.587-7.694,1.183-1.388,2.12-4.174,2.587-7.694" transform="translate(-313.495 -166.05)" fill="#fff"/>
            <path id="Trazado_859324" data-name="Trazado 859324" d="M454.377,47.075h0c.548,2.921,1.647,5.233,3.036,6.386-1.389,1.152-2.488,3.464-3.036,6.385-.548-2.921-1.647-5.233-3.036-6.385,1.389-1.152,2.488-3.464,3.036-6.386" transform="translate(-214.387 -22.361)" fill="#fff"/>
            <path id="Trazado_859325" data-name="Trazado 859325" d="M66.251,340.03h0c.891,4.755,2.681,8.518,4.941,10.393-2.261,1.875-4.05,5.639-4.941,10.393-.891-4.754-2.681-8.518-4.941-10.393,2.261-1.875,4.05-5.638,4.941-10.393" transform="translate(-29.122 -161.514)" fill="#fff"/>
            <path id="Trazado_859326" data-name="Trazado 859326" d="M751.513,202.025h0c.724,3.863,2.178,6.92,4.014,8.444-1.836,1.523-3.29,4.581-4.014,8.443-.724-3.862-2.178-6.92-4.014-8.443,1.836-1.524,3.29-4.581,4.014-8.444" transform="translate(-355.062 -95.962)" fill="#fff"/>
            <path id="Trazado_859327" data-name="Trazado 859327" d="M112.283,52.63h0a4.183,4.183,0,0,0,2.231,2.456,4.181,4.181,0,0,0-2.231,2.456,4.181,4.181,0,0,0-2.231-2.456,4.183,4.183,0,0,0,2.231-2.456" transform="translate(-52.275 -24.999)" fill="#fff"/>
            <path id="Trazado_859328" data-name="Trazado 859328" d="M466.582,37.221h0A2.092,2.092,0,0,0,467.7,38.45a1.121,1.121,0,1,1-2.231,0,2.092,2.092,0,0,0,1.116-1.229" transform="translate(-221.096 -17.68)" fill="#fff"/>
            <path id="Trazado_859329" data-name="Trazado 859329" d="M593.445,377.285h0a2.09,2.09,0,0,0,1.116,1.228,1.121,1.121,0,1,1-2.231,0,2.09,2.09,0,0,0,1.116-1.228" transform="translate(-281.356 -179.21)" fill="#fff"/>
            <path id="Trazado_859330" data-name="Trazado 859330" d="M320.967,44.735h0a2.09,2.09,0,0,0,1.116,1.228,2.092,2.092,0,0,0-1.116,1.229,2.092,2.092,0,0,0-1.116-1.229,2.09,2.09,0,0,0,1.116-1.228" transform="translate(-151.929 -21.249)" fill="#fff"/>
            <path id="Trazado_859331" data-name="Trazado 859331" d="M758.021,70.266h0a2.09,2.09,0,0,0,1.116,1.228,1.121,1.121,0,1,1-2.231,0,2.09,2.09,0,0,0,1.116-1.228" transform="translate(-359.53 -33.376)" fill="#fff"/>
            <path id="Trazado_859332" data-name="Trazado 859332" d="M699.7,39.561h0a2.092,2.092,0,0,0,1.116,1.229,1.121,1.121,0,1,1-2.231,0,2.093,2.093,0,0,0,1.116-1.229" transform="translate(-331.826 -18.791)" fill="#fff"/>
            <path id="Trazado_859333" data-name="Trazado 859333" d="M448.317,210.95h0a2.09,2.09,0,0,0,1.116,1.228,1.121,1.121,0,1,1-2.231,0,2.09,2.09,0,0,0,1.116-1.228" transform="translate(-212.42 -100.201)" fill="#fff"/>
            <path id="Trazado_859334" data-name="Trazado 859334" d="M28.289,233.089h0a2.09,2.09,0,0,0,1.116,1.228,2.092,2.092,0,0,0-1.116,1.229,2.092,2.092,0,0,0-1.116-1.229,2.09,2.09,0,0,0,1.116-1.228" transform="translate(-12.907 -110.717)" fill="#fff"/>
            <path id="Trazado_859335" data-name="Trazado 859335" d="M160.04,140.844h0a2.09,2.09,0,0,0,1.116,1.228,2.092,2.092,0,0,0-1.116,1.229,2.092,2.092,0,0,0-1.116-1.229,2.09,2.09,0,0,0,1.116-1.228" transform="translate(-75.489 -66.901)" fill="#fff"/>
            <path id="Trazado_859336" data-name="Trazado 859336" d="M311.964,308.955h0a2.09,2.09,0,0,0,1.116,1.228,2.092,2.092,0,0,0-1.116,1.228,2.092,2.092,0,0,0-1.116-1.228,2.09,2.09,0,0,0,1.116-1.228" transform="translate(-147.653 -146.754)" fill="#fff"/>
            <path id="Trazado_859337" data-name="Trazado 859337" d="M603.747,93.213h0a2.092,2.092,0,0,0,1.116,1.229,1.121,1.121,0,1,1-2.231,0,2.092,2.092,0,0,0,1.116-1.229" transform="translate(-286.25 -44.276)" fill="#fff"/>
            <path id="Trazado_859338" data-name="Trazado 859338" d="M769.863,242.124h0a2.09,2.09,0,0,0,1.116,1.228,1.121,1.121,0,1,1-2.231,0,2.09,2.09,0,0,0,1.116-1.228" transform="translate(-365.155 -115.009)" fill="#fff"/>
            <path id="Trazado_859339" data-name="Trazado 859339" d="M292.087,25.687h0a2.093,2.093,0,0,0,1.116,1.229,2.09,2.09,0,0,0-1.116,1.228,2.09,2.09,0,0,0-1.116-1.228,2.092,2.092,0,0,0,1.116-1.229" transform="translate(-138.211 -12.201)" fill="#fff"/>
            <path id="Trazado_859340" data-name="Trazado 859340" d="M101.954,335.224h0a2.09,2.09,0,0,0,1.116,1.228,2.092,2.092,0,0,0-1.116,1.229,2.092,2.092,0,0,0-1.116-1.229,2.09,2.09,0,0,0,1.116-1.228" transform="translate(-47.898 -159.231)" fill="#fff"/>
            <path id="Trazado_859341" data-name="Trazado 859341" d="M329.637,363.667h0a2.09,2.09,0,0,0,1.116,1.228,2.093,2.093,0,0,0-1.116,1.229,2.092,2.092,0,0,0-1.116-1.229,2.09,2.09,0,0,0,1.116-1.228" transform="translate(-156.047 -172.742)" fill="#fff"/>
            <path id="Trazado_859342" data-name="Trazado 859342" d="M559.676,356.649h0a4.182,4.182,0,0,0,2.231,2.456,4.181,4.181,0,0,0-2.231,2.456,4.181,4.181,0,0,0-2.231-2.456,4.183,4.183,0,0,0,2.231-2.456" transform="translate(-264.786 -169.408)" fill="#fff"/>
          </g>
        </g>
      </g>
    </g>
  </g>
</svg>
