<svg xmlns="http://www.w3.org/2000/svg" xmlns:xlink="http://www.w3.org/1999/xlink" width="505" height="255" viewBox="0 0 505 255">
  <defs>
    <clipPath id="clip-path">
      <rect id="Rectángulo_397206" data-name="Rectángulo 397206" width="505" height="255" transform="translate(181 14154)" fill="#636363" opacity="0.41"/>
    </clipPath>
    <clipPath id="clip-path-2">
      <rect id="Rectángulo_397210" data-name="Rectángulo 397210" width="508" height="238" fill="#fff" stroke="#707070" stroke-width="1" opacity="0.69"/>
    </clipPath>
    <clipPath id="clip-path-3">
      <rect id="Rectángulo_397207" data-name="Rectángulo 397207" width="357" height="238" fill="none"/>
    </clipPath>
    <clipPath id="clip-path-6">
      <rect id="Rectángulo_397197" data-name="Rectángulo 397197" width="177.571" height="340.308" fill="none"/>
    </clipPath>
    <clipPath id="clip-path-8">
      <rect id="Rectángulo_397193" data-name="Rectángulo 397193" width="64.378" height="16.403" fill="none"/>
    </clipPath>
    <clipPath id="clip-path-9">
      <rect id="Rectángulo_397194" data-name="Rectángulo 397194" width="29.755" height="37.576" fill="none"/>
    </clipPath>
    <clipPath id="clip-path-10">
      <rect id="Rectángulo_397195" data-name="Rectángulo 397195" width="83.209" height="43.783" fill="none"/>
    </clipPath>
    <clipPath id="clip-path-11">
      <rect id="Rectángulo_397204" data-name="Rectángulo 397204" width="71.656" height="83.993" fill="none"/>
    </clipPath>
    <clipPath id="clip-path-12">
      <rect id="Rectángulo_397203" data-name="Rectángulo 397203" width="71.657" height="83.993" fill="none"/>
    </clipPath>
    <clipPath id="clip-path-13">
      <rect id="Rectángulo_397198" data-name="Rectángulo 397198" width="70.642" height="83.106" fill="none"/>
    </clipPath>
    <clipPath id="clip-path-14">
      <rect id="Rectángulo_397216" data-name="Rectángulo 397216" width="68.853" height="63.503" fill="none"/>
    </clipPath>
    <clipPath id="clip-path-16">
      <rect id="Rectángulo_397214" data-name="Rectángulo 397214" width="38.168" height="42.84" fill="none"/>
    </clipPath>
  </defs>
  <g id="_38" data-name="38" transform="translate(-181 -14154)" clip-path="url(#clip-path)">
    <g id="Enmascarar_grupo_1078765" data-name="Enmascarar grupo 1078765" transform="translate(204 14171)" clip-path="url(#clip-path-2)">
      <g id="Grupo_1088228" data-name="Grupo 1088228" transform="translate(76 0)">
        <g id="Grupo_1088096" data-name="Grupo 1088096" transform="translate(35.612 1.536)">
          <path id="Trazado_862119" data-name="Trazado 862119" d="M55.885,104.347c-7.63,6.02-15.309,12.61-19.273,21.484s-3.1,20.64,4.487,26.712c6.578,5.262,15.836,4.878,24.26,4.954s18.093,1.6,22.529,8.758c3.292,5.313,2.556,12.329-.127,17.975s-7.045,10.28-11.085,15.049A170.741,170.741,0,0,0,49.637,243.3c-4.887,11.6-8.161,25.946-.606,36.02,8.294,11.058,25.428,10.742,37.984,4.958s22.9-15.66,35.527-21.289c7.511-3.349,17.114-4.8,23.334.576,7.679,6.644,5.494,18.825,7.952,28.678,4.014,16.088,21.7,25.849,38.28,25.718s32.079-7.979,46.172-16.716a324.346,324.346,0,0,0,58.832-46.724c8.8-8.835,17.352-18.641,20.7-30.654s.027-26.722-10.672-33.13c-7.123-4.267-16.312-4.334-23.014-9.238-8.821-6.455-10.376-19.545-6.67-29.827s11.477-18.48,18.831-26.566,14.725-16.811,17.294-27.435c4.323-17.87-8.306-38.042-26.269-41.959-12.528-2.733-25.363,1.605-37.688,5.142s-26.068,6.2-37.554.5c-9.4-4.664-15.555-14.15-24.561-19.541-10.5-6.287-23.335-4.542-34.221-.069-11.147,4.58-21.341,11.97-31.568,18.2Q104.309,70.563,87.254,81.753q-16.168,10.6-31.369,22.593" transform="translate(-34.288 -37.719)" fill="#f6e7a5"/>
        </g>
        <g id="Sh_029" transform="translate(0 0)">
          <g id="OBJECTS">
            <g id="Grupo_1088098" data-name="Grupo 1088098" clip-path="url(#clip-path-3)">
              <g id="Grupo_1088097" data-name="Grupo 1088097" transform="translate(-89.55 99.872)">
                <path id="Trazado_862120" data-name="Trazado 862120" d="M520.454,337.4Q260.91,290.042,1.37,242.693a130.185,130.185,0,0,1-.6-32.943Q270.723,274.276,540.68,338.8c-6.762-.727-13.515-1.193-20.221-1.407Z" transform="translate(-0.002 -209.75)" fill="#ff482e" fill-rule="evenodd"/>
                <path id="Trazado_862121" data-name="Trazado 862121" d="M505.606,365.433q-248.8-34.758-497.6-69.521A138.741,138.741,0,0,1,1.04,263.25L525.613,365.656C518.884,365.329,512.2,365.253,505.606,365.433Z" transform="translate(-0.547 -237.825)" fill="#ff9805" fill-rule="evenodd"/>
                <path id="Trazado_862122" data-name="Trazado 862122" d="M495.665,394.162q-235.836-22.8-471.671-45.6A160.038,160.038,0,0,1,10.82,316.32Q263.051,354.756,515.287,393.2c-6.634.062-13.192.385-19.622.965Z" transform="translate(-5.679 -265.675)" fill="#ffb800" fill-rule="evenodd"/>
                <path id="Trazado_862123" data-name="Trazado 862123" d="M491.475,423.452Q270.7,411.925,49.933,400.394A194.808,194.808,0,0,1,30.71,368.72L510.541,421.3c-6.487.461-12.86,1.174-19.066,2.148Z" transform="translate(-16.117 -293.173)" fill="#00bf5b" fill-rule="evenodd"/>
                <path id="Trazado_862124" data-name="Trazado 862124" d="M493.034,453.207,85.585,451.226A244.7,244.7,0,0,1,60.46,420.26q225.457,14.806,450.918,29.607c-6.282.855-12.413,1.967-18.348,3.336Z" transform="translate(-31.729 -320.22)" fill="#5846f0" fill-rule="evenodd"/>
                <path id="Trazado_862125" data-name="Trazado 862125" d="M500.345,483.293q-184.832,8.746-369.664,17.5A311.334,311.334,0,0,1,99.82,470.68q208.99,4.042,417.98,8.088a178.5,178.5,0,0,0-17.455,4.529Z" transform="translate(-52.384 -346.679)" fill="#db33d8" fill-rule="evenodd"/>
              </g>
            </g>
            <path id="Trazado_862126" data-name="Trazado 862126" d="M412.387,32.383l-6.682-.8,3.55-6.23-5.969,4.068-5.251-4.068,1.944,7.033L393.25,34.74l7.466.775-.394,5.665,3.488-4.486,5.094,3.384-2.552-5.261Z" transform="translate(-295.919 -13.109)" fill="#00bf5b" fill-rule="evenodd"/>
            <path id="Trazado_862127" data-name="Trazado 862127" d="M693.333,83.867l-3.693-.442L691.6,79.98l-3.3,2.253-2.9-2.253,1.074,3.887-3.721,1.307,4.13.428-.219,3.132,1.929-2.481,2.818,1.872L690,85.217Z" transform="translate(-447.841 -41.778)" fill="#5846f0" fill-rule="evenodd"/>
            <path id="Trazado_862128" data-name="Trazado 862128" d="M914.558,245.987l-3.7-.442,1.963-3.445-3.3,2.248-2.9-2.248,1.074,3.887-3.721,1.307,4.13.428-.219,3.132,1.929-2.481,2.818,1.872-1.411-2.913Z" transform="translate(-543.568 -137.979)" fill="#ff9805" fill-rule="evenodd"/>
            <path id="Trazado_862129" data-name="Trazado 862129" d="M886.507,278.448l-6.682-.8,3.545-6.235-5.964,4.073-5.256-4.073,1.948,7.038-6.729,2.357,7.466.775-.395,5.66,3.488-4.481,5.09,3.384-2.552-5.261Z" transform="translate(-524.361 -153.36)" fill="#ff482e" fill-rule="evenodd"/>
            <path id="Trazado_862130" data-name="Trazado 862130" d="M879.231,106.823a10.5,10.5,0,0,0-2.79-4.063c-1.145-.969-2.737-.594-2.842,1.007-.152,2.314,1.573,4.8,2.718,6.691.38.627,3.678,5.266,3.678,5.261,1.221-2.1,6.948-11.277,4.063-13.378a.555.555,0,0,0-.318-.114c-2.053-.532-3.811,2.818-4.5,4.6l-.014-.014Z" transform="translate(-547.989 -53.423)" fill="#fefaf2"/>
            <path id="Trazado_862131" data-name="Trazado 862131" d="M719.255,299.437a6.339,6.339,0,0,0-1.7-2.476c-.7-.589-1.668-.361-1.73.613-.09,1.411.96,2.923,1.658,4.077.233.38,2.238,3.208,2.238,3.208.746-1.274,4.234-6.872,2.476-8.15a.332.332,0,0,0-.195-.066c-1.25-.323-2.319,1.72-2.737,2.8Z" transform="translate(-465.194 -155.459)" fill="#db33d8" fill-rule="evenodd"/>
            <path id="Trazado_862132" data-name="Trazado 862132" d="M463.655,54.206a6.339,6.339,0,0,0-1.7-2.476c-.7-.589-1.668-.361-1.73.613-.09,1.411.96,2.923,1.659,4.077.233.38,2.238,3.208,2.238,3.208.746-1.278,4.234-6.872,2.476-8.15a.332.332,0,0,0-.195-.067c-1.25-.323-2.319,1.716-2.737,2.8Z" transform="translate(-331.062 -26.768)" fill="#db33d8" fill-rule="evenodd"/>
            <path id="Trazado_862133" data-name="Trazado 862133" d="M213.205,94.846a6.338,6.338,0,0,0-1.7-2.476c-.7-.589-1.668-.361-1.73.613-.09,1.411.96,2.923,1.659,4.077.233.38,2.238,3.208,2.238,3.208.746-1.278,4.234-6.872,2.476-8.15a.332.332,0,0,0-.195-.067c-1.25-.323-2.319,1.716-2.737,2.8Z" transform="translate(-243.06 5.352) rotate(-11)" fill="#fefaf2"/>
            <g id="Grupo_1088099" data-name="Grupo 1088099" transform="translate(308.273 28.934)">
              <path id="Trazado_862134" data-name="Trazado 862134" d="M846.64,61.044v2.348a.587.587,0,0,0,1.174,0V61.044A.587.587,0,0,0,846.64,61.044Z" transform="translate(-842.119 -60.478)" fill="#fff"/>
              <path id="Trazado_862135" data-name="Trazado 862135" d="M846.64,75.214v2.348a.587.587,0,0,0,1.174,0V75.214A.587.587,0,0,0,846.64,75.214Z" transform="translate(-842.119 -67.914)" fill="#fff"/>
              <path id="Trazado_862136" data-name="Trazado 862136" d="M854.212,69.99h-2.348a.587.587,0,0,0,0,1.174h2.348A.587.587,0,0,0,854.212,69.99Z" transform="translate(-844.564 -65.469)" fill="#fff"/>
              <path id="Trazado_862137" data-name="Trazado 862137" d="M840.042,69.99h-2.348a.587.587,0,0,0,0,1.174h2.348A.587.587,0,0,0,840.042,69.99Z" transform="translate(-837.128 -65.469)" fill="#fff"/>
            </g>
            <g id="Grupo_1088100" data-name="Grupo 1088100" transform="translate(9.568 35.179)">
              <path id="Trazado_862138" data-name="Trazado 862138" d="M237.68,48.934v2.348a.587.587,0,0,0,1.174,0V48.934A.587.587,0,0,0,237.68,48.934Z" transform="translate(-233.159 -48.368)" fill="#fff"/>
              <path id="Trazado_862139" data-name="Trazado 862139" d="M237.68,63.1v2.348a.587.587,0,0,0,1.174,0V63.1A.587.587,0,0,0,237.68,63.1Z" transform="translate(-233.159 -55.804)" fill="#fff"/>
              <path id="Trazado_862140" data-name="Trazado 862140" d="M245.252,57.88H242.9a.587.587,0,0,0,0,1.174h2.348A.587.587,0,0,0,245.252,57.88Z" transform="translate(-235.604 -53.359)" fill="#fff"/>
              <path id="Trazado_862141" data-name="Trazado 862141" d="M231.082,57.88h-2.348a.587.587,0,0,0,0,1.174h2.348A.587.587,0,0,0,231.082,57.88Z" transform="translate(-228.167 -53.359)" fill="#fff"/>
            </g>
            <path id="Trazado_862142" data-name="Trazado 862142" d="M727.3,69.251a2.879,2.879,0,0,0-.1-.794,1.48,1.48,0,0,0-.39-.665,1.508,1.508,0,0,0-1.825-.238,1.646,1.646,0,0,0-.694.9,3.072,3.072,0,0,0-.1.794,1.554,1.554,0,1,0,3.108,0Z" transform="translate(-469.588 -35.15)" fill="#fff"/>
            <path id="Trazado_862143" data-name="Trazado 862143" d="M758.687,39.922a.751.751,0,0,0,0-1.5.751.751,0,0,0,0,1.5Z" transform="translate(-487.309 -19.968)" fill="#fff"/>
            <path id="Trazado_862144" data-name="Trazado 862144" d="M628.325,31.524c-.01-.119-.019-.233-.033-.352a1.411,1.411,0,0,0-.38-.922,1.308,1.308,0,0,0-1.844,0,1.411,1.411,0,0,0-.38.922c-.014.119-.024.233-.033.352a1.335,1.335,0,0,0,2.671,0Z" transform="translate(-417.876 -15.481)" fill="#fff"/>
            <path id="Trazado_862145" data-name="Trazado 862145" d="M911.844,309.191a1.522,1.522,0,0,0,0-3.041,1.522,1.522,0,0,0,0,3.041Z" transform="translate(-567.291 -160.466)" fill="#fff"/>
            <path id="Trazado_862146" data-name="Trazado 862146" d="M888.309,210.232a1.086,1.086,0,0,0,0-2.172,1.086,1.086,0,0,0,0,2.172Z" transform="translate(-555.161 -108.991)" fill="#fff"/>
            <path id="Trazado_862147" data-name="Trazado 862147" d="M572.3,309.224c-.019-.124-.043-.252-.062-.375a1.222,1.222,0,0,0-2.357,0c-.019.124-.043.252-.062.375a1.413,1.413,0,0,0,.128.993,1.287,1.287,0,0,0,2.02.261,1.343,1.343,0,0,0,.333-1.25h0Z" transform="translate(-388.562 -161.411)" fill="#fff"/>
            <path id="Trazado_862148" data-name="Trazado 862148" d="M543.647,67.275a.768.768,0,0,0,0-1.535.768.768,0,0,0,0,1.535Z" transform="translate(-374.452 -34.305)" fill="#fff"/>
            <path id="Trazado_862149" data-name="Trazado 862149" d="M393.1,153.221a1.286,1.286,0,0,0,0-2.571,1.286,1.286,0,0,0,0,2.571Z" transform="translate(-295.185 -78.864)" fill="#fff"/>
            <path id="Trazado_862150" data-name="Trazado 862150" d="M284.222,33.228a1.17,1.17,0,0,0,0-2.338,1.17,1.17,0,0,0,0,2.338Z" transform="translate(-238.111 -16.017)" fill="#fff"/>
            <path id="Trazado_862151" data-name="Trazado 862151" d="M214.061,193.117a1.073,1.073,0,0,1-.124-.01l1.316,1a1.706,1.706,0,1,0,0,.732l-1.316,1a1.079,1.079,0,0,0,.124-.009,1.354,1.354,0,1,0,0-2.709h0Z" transform="translate(-200.74 -100.967)" fill="#fff"/>
            <path id="Trazado_862152" data-name="Trazado 862152" d="M731.651,258.908a.785.785,0,0,0,0-1.568.785.785,0,0,0,0,1.568Z" transform="translate(-473.105 -134.852)" fill="#fff"/>
            <path id="Trazado_862155" data-name="Trazado 862155" d="M471.368,313.206a18.282,18.282,0,0,1,10.388,3.065c3.184,2.082,4.971,5.156,6.881,8.321a.2.2,0,0,0,.361-.152c-1.853-7.637-10.308-11.938-17.631-11.71a.238.238,0,0,0,0,.475Z" transform="translate(-336.793 -163.915)" fill="#ff2a2c"/>
            <path id="Trazado_862156" data-name="Trazado 862156" d="M471.368,313.206a18.282,18.282,0,0,1,10.388,3.065c3.184,2.082,4.971,5.156,6.881,8.321a.2.2,0,0,0,.361-.152c-1.853-7.637-10.308-11.938-17.631-11.71a.238.238,0,0,0,0,.475Z" transform="translate(-336.793 -163.915)" fill="#ff2a2c"/>
            <g id="Grupo_1088227" data-name="Grupo 1088227" clip-path="url(#clip-path-3)">
              <g id="Grupo_1088226" data-name="Grupo 1088226" transform="translate(127.765 212.317)" opacity="0.5">
                <path id="Trazado_862389" data-name="Trazado 862389" d="M468.924,512.969l-11.163,2.148c-.157.029-.314.048-.471.067a6.061,6.061,0,0,0,1.9-.067l11.163-2.148a5.009,5.009,0,0,1,.751-.076A11.087,11.087,0,0,0,468.924,512.969Z" transform="translate(-457.29 -481.269)" fill="#fefaf2"/>
                <path id="Trazado_862390" data-name="Trazado 862390" d="M493.937,464.511c-.333-1.407-1.6-2.081-2.039-3.232-.665-1.735.337-1.958.585-4.039.257-2.167-.893-2.652-1.958-4.234-1.008-1.5-.646-1.749-1.088-3.341-.8-2.885-2.866-3.455-5.156-3.27a4,4,0,0,1,3.731,3.27c.442,1.592.081,1.849,1.088,3.341,1.065,1.583,2.215,2.072,1.958,4.234-.247,2.081-1.25,2.3-.585,4.039.437,1.15,1.711,1.825,2.039,3.232.314,1.326-2.329,7.5-2.78,6.8.879,1.354,2.69,3.2,1.944,4.933-.589,1.364-2.134,1.716-3.821,1.777,2.177.057,4.491-.033,5.247-1.777s-1.065-3.578-1.944-4.933C491.613,472,494.25,465.832,493.937,464.511Z" transform="translate(-471.454 -446.363)" fill="#fefaf2"/>
              </g>
            </g>
          </g>
        </g>
      </g>
      <g id="Grupo_1088241" data-name="Grupo 1088241" transform="translate(339.189 134.095)">
        <g id="Grupo_1088242" data-name="Grupo 1088242">
          <path id="Trazado_862396" data-name="Trazado 862396" d="M33.192,44.427,14.93,48.861A11.97,11.97,0,1,1,9.284,25.6l18.468-4.392Z" transform="translate(0 -16.029)" fill="#fff"/>
          <path id="Trazado_862397" data-name="Trazado 862397" d="M116.018,28.416l19.763-4.836a11.129,11.129,0,0,0,8.191-13.44l-.4-1.633a11.129,11.129,0,0,0-13.44-8.19L110.372,5.153Z" transform="translate(-82.89 0)" fill="#f018ec"/>
          <path id="Trazado_862398" data-name="Trazado 862398" d="M50.756,54.916,46.289,56l-.418.1-.78-3.214L44.7,51.275a.348.348,0,0,0-.416-.25l-2.776.674a.348.348,0,0,0-.255.413l1.071,4.413.1.414-3.253.789-1.632.4a.348.348,0,0,0-.255.413l.666,2.743a.313.313,0,0,0,.152.209.32.32,0,0,0,.263.041l4.466-1.084.418-.1.78,3.214.392,1.613a.348.348,0,0,0,.416.25l2.776-.674a.32.32,0,0,0,.212-.152.312.312,0,0,0,.043-.26L46.8,59.921l-.1-.413,3.253-.789,1.632-.4a.348.348,0,0,0,.255-.413l-.666-2.743a.348.348,0,0,0-.416-.25" transform="translate(-27.995 -38.313)" fill="#2c70f6"/>
        </g>
      </g>
      <g id="Grupo_1088243" data-name="Grupo 1088243" transform="translate(110.189 57.096)">
        <g id="Grupo_1088242-2" data-name="Grupo 1088242" transform="translate(0 0)">
          <path id="Trazado_862396-2" data-name="Trazado 862396" d="M0,44.427l18.262,4.433A11.97,11.97,0,1,0,23.909,25.6L5.44,21.205Z" transform="translate(28.207 -16.029)" fill="#fff"/>
          <path id="Trazado_862397-2" data-name="Trazado 862397" d="M138.643,28.416,118.879,23.58a11.129,11.129,0,0,1-8.191-13.44l.4-1.633a11.129,11.129,0,0,1,13.44-8.19l19.765,4.836Z" transform="translate(-110.372 0)" fill="#00bf5b"/>
          <path id="Trazado_862398-2" data-name="Trazado 862398" d="M38.367,54.916,42.833,56l.418.1.78-3.214.391-1.613a.348.348,0,0,1,.416-.25l2.776.674a.348.348,0,0,1,.255.413L46.8,56.524l-.1.414,3.253.789,1.632.4a.348.348,0,0,1,.255.413l-.666,2.743a.313.313,0,0,1-.152.209.32.32,0,0,1-.263.041L46.29,60.445l-.418-.1-.78,3.214L44.7,65.171a.348.348,0,0,1-.416.25l-2.776-.674a.32.32,0,0,1-.212-.152.312.312,0,0,1-.043-.26l1.071-4.414.1-.413-3.253-.789-1.632-.4a.348.348,0,0,1-.255-.413l.666-2.743a.348.348,0,0,1,.416-.25" transform="translate(0.271 -38.313)" fill="#2c70f6"/>
        </g>
      </g>
    </g>
    <g id="Grupo_1088084" data-name="Grupo 1088084" transform="translate(354.1 14153.633)">
      <g id="Grupo_1088083" data-name="Grupo 1088083" clip-path="url(#clip-path-6)">
        <g id="Grupo_1088082" data-name="Grupo 1088082">
          <g id="Grupo_1088081" data-name="Grupo 1088081" clip-path="url(#clip-path-6)">
            <path id="Trazado_862043" data-name="Trazado 862043" d="M147.659,257.824s-21.137,27.361-27.048,65.982c-6.147,40.163-2.049,88.933-2.049,88.933h37.294s21.721-52.048,26.229-75-2.868-70.08-2.868-70.08Z" transform="translate(-90.265 -72.431)" fill="#ff8d61"/>
            <path id="Trazado_862044" data-name="Trazado 862044" d="M177.182,349.317c1.259-4.305,2.277-8.248,2.931-11.577,4.508-22.951-2.869-70.08-2.869-70.08l-31.557-9.836s-21.137,27.361-27.048,65.982c-.552,3.6-1.019,7.274-1.416,10.974,18.871,8.832,39.269,13.012,59.959,14.537" transform="translate(-88.293 -72.431)" fill="#f4754f"/>
            <path id="Trazado_862045" data-name="Trazado 862045" d="M67.047,257.824S88.184,285.185,94.1,323.806c6.147,40.163,2.049,88.933,2.049,88.933H58.85s-21.721-52.048-26.229-75,2.868-70.08,2.868-70.08Z" transform="translate(57.68 -72.431)" fill="#ff8d61"/>
            <path id="Trazado_862046" data-name="Trazado 862046" d="M38.293,349.317c-1.259-4.305-2.277-8.248-2.931-11.577-4.508-22.951,2.869-70.08,2.869-70.08l31.557-9.836s21.137,27.361,27.048,65.982c.552,3.6,1.019,7.274,1.416,10.974-18.871,8.832-39.269,13.012-59.959,14.537" transform="translate(54.94 -72.431)" fill="#f4754f"/>
            <path id="Trazado_862047" data-name="Trazado 862047" d="M127.935,249.213s27.056,30.22,29.1,71.613c0,0-35.245,15.574-60.654,22.131H91.877S51.3,329.023,32.453,311.4c0,0,11.065-48.359,36.475-65.982s59.007,3.8,59.007,3.8" transform="translate(-2.805 -66.991)" fill="#303457"/>
            <g id="Grupo_1088074" data-name="Grupo 1088074" transform="translate(62.232 171.47)" opacity="0.3" style="mix-blend-mode: overlay;isolation: isolate">
              <g id="Grupo_1088073" data-name="Grupo 1088073">
                <g id="Grupo_1088072" data-name="Grupo 1088072" clip-path="url(#clip-path-8)">
                  <path id="Trazado_862048" data-name="Trazado 862048" d="M70.869,248.447a46.775,46.775,0,0,1,3.89-3.03c25.409-17.623,59.007,3.8,59.007,3.8s.544.607,1.481,1.765c-20.683,5.664-44.41,5.4-64.379-2.531" transform="translate(-70.869 -238.461)" fill="#332845"/>
                </g>
              </g>
            </g>
            <path id="Trazado_862049" data-name="Trazado 862049" d="M93.965,350.142a442.447,442.447,0,0,1-67.212,22.951V369.4L91.506,339.9Z" transform="translate(64.369 -95.488)" fill="#86a6e1"/>
            <path id="Trazado_862050" data-name="Trazado 862050" d="M185.368,366.912v4.508s-48.769-13.114-62.294-30.327l2.458-8.606s25.41,22.541,59.835,34.425" transform="translate(-96.295 -93.406)" fill="#86a6e1"/>
            <path id="Trazado_862051" data-name="Trazado 862051" d="M74.921,8.835S95.959-7.558,112.9,6.376s3.551,22.4,13.388,33.333,8.2,24.043,2.186,34.7.819,15.3.819,15.3S103.335,99,88.035,89.434s-34.972-1.913-34.972-1.913L54.43,61.293Z" transform="translate(6.092 -0.214)" fill="#0c1114"/>
            <path id="Trazado_862052" data-name="Trazado 862052" d="M49.861,9.19C60.724,1.273,76.38-3.027,87.608,6.46c4.155,3.315,7.939,7.568,8.843,12.933,1.086,7.761-1.189,13.378,5.19,19.9a34.189,34.189,0,0,1,2.556,3.12c6.76,8.991,5.674,21.193.623,30.772a17.3,17.3,0,0,0-2.021,8.108,9.07,9.07,0,0,0,3.7,7.2,9.059,9.059,0,0,1-3.269-7.2,16.684,16.684,0,0,1,2.3-7.73c5.55-9.9,6.935-22.431-.07-32.038a32.2,32.2,0,0,0-2.671-3.308c-5.9-5.919-3.6-11.765-4.768-19.1-.968-5.75-5.077-10.344-9.529-13.769C76.736-4.224,60.582.3,49.861,9.19" transform="translate(31.498 0)" fill="#171f26"/>
            <path id="Trazado_862053" data-name="Trazado 862053" d="M98.72,124.693c12.829,2.281,13.846-14.192,11.077-26.308l24.924,2.423s-4.847,17.308,0,24.23c2.873,4.105,11.224,1.882,19.277,1.268.061,3.876.175,7.751.3,11.626-23.974,5.782-69.573,9.1-73.7,1.331-5.885-11.077,2.549-17.34,18.126-14.57" transform="translate(-33.324 -27.64)" fill="#ff8d61"/>
            <path id="Trazado_862054" data-name="Trazado 862054" d="M106.694,115a43.179,43.179,0,0,0-.758-16.618l24.923,2.423a66.476,66.476,0,0,0-2.122,13.367,31.852,31.852,0,0,1-22.043.828" transform="translate(-29.463 -27.64)" fill="#f4754f"/>
            <path id="Trazado_862055" data-name="Trazado 862055" d="M108.375,21.485s22.891-1.231,26.764,25.525c3.807,26.308-9.146,41.884-28.384,41.884-20.423,0-31.154-15.576-32.884-31.5S85.529,24.6,108.375,21.485" transform="translate(-11.243 -6.033)" fill="#ff8d61"/>
            <path id="Trazado_862056" data-name="Trazado 862056" d="M152.024,4s14.754-1.639,16.393,18.033c1.228,14.744-11.476,19.672-18.579,21.312s-15.846,7.1-10.928,15.3,4.371,14.753-.546,19.124,3.279,17.486,3.279,17.486-27.322,1.092-27.869-12.568c-.415-10.374,4.372-9.836,2.732-15.847-2.515-9.222-13.114-14.207-2.186-26.229S109.949,6.182,152.024,4" transform="translate(-69.646 -1.113)" fill="#0c1114"/>
            <path id="Trazado_862057" data-name="Trazado 862057" d="M150.33,84.776a24.617,24.617,0,0,1,.846-5.883c.552-1.97,1.68-3.534,2.549-5.393,2.1-5.991-3.448-11.663-5.34-16.952-1.5-3.652-.434-7.488,1.921-10.52a28.318,28.318,0,0,1,2.356-2.767c7.675-8.017,3.789-21.768,12.646-28.973,4.552-3.871,10.531-5.4,16.337-6.452-5.932.557-12.2,1.849-17.022,5.624-9.733,7.549-5.728,20.595-13.135,28.679a30.277,30.277,0,0,0-2.476,2.947c-2.634,3.345-3.733,8-1.967,11.97,1.845,5.043,7.592,10.58,5.934,16.156a35.026,35.026,0,0,0-2.221,5.569,21.8,21.8,0,0,0-.429,5.995" transform="translate(-109.192 -2.201)" fill="#171f26"/>
            <path id="Trazado_862058" data-name="Trazado 862058" d="M128.629,7.443a15.4,15.4,0,0,1,8.931,10.391,25.352,25.352,0,0,1,.491,13.867c-2.082,6.876-8.65,11.013-15.26,12.874a43.686,43.686,0,0,0-6.959,2.162c-4.483,1.894-9.432,6.28-8.051,11.7.581,2.475,2.22,4.316,3.143,6.6,1.9,4.139,2.54,9.236-.319,13.076a13.784,13.784,0,0,1-1.719,1.941c-4.289,4.364,1,13.6,3.626,17.81-2.152-4.148-6.3-12.126-3.521-16.515.746-.91,1.776-1.642,2.448-2.62,3.228-4.033,2.822-9.8.8-14.261-.818-2.177-2.443-4.13-2.947-6.374-1.071-4.727,3.29-8.156,7.207-9.867a42.8,42.8,0,0,1,6.742-2.121c7.017-1.989,14.046-6.654,16.012-14.062,2.043-8.928-.983-21.553-10.628-24.606" transform="translate(-39.423 -2.091)" fill="#171f26"/>
            <path id="Trazado_862059" data-name="Trazado 862059" d="M171.379,78.229S169.3,67.844,170.34,63.69c0,0-6.923-4.5-7.962,3.116s4.846,12.116,9,11.423" transform="translate(-110.482 -17.522)" fill="#d4826e"/>
            <path id="Trazado_862060" data-name="Trazado 862060" d="M91.894,69.641c.608-3.4-.523-8.061-4.42-8.866-4.052-.887-7.223,2.315-7.757,6.137a10.565,10.565,0,0,0-.117,2.935c.747-2.661,1.685-5.389,4-6.887,5.257-2.569,7.552,2.187,8.3,6.682" transform="translate(28.325 -17.032)" fill="#2a2e39"/>
            <path id="Trazado_862061" data-name="Trazado 862061" d="M130.65,69.641c.608-3.4-.523-8.061-4.42-8.866-4.052-.887-7.223,2.315-7.757,6.137a10.565,10.565,0,0,0-.117,2.935c.747-2.661,1.685-5.389,4-6.887,5.257-2.569,7.552,2.187,8.3,6.682" transform="translate(-38.299 -17.032)" fill="#2a2e39"/>
            <path id="Trazado_862062" data-name="Trazado 862062" d="M91.854,66.893c-.045,3.544,1.066,8.5,4.632,10.119l.04-1.4c-.871.357-1.732.741-2.582,1.159a22.827,22.827,0,0,0-2.5,1.394,40.77,40.77,0,0,0,7.375-1.647l-1.762-.89c-1.359-.746-2.222-2.379-2.946-3.787-.816-1.609-1.486-3.284-2.257-4.946" transform="translate(12.997 -18.792)" fill="#ba6250"/>
            <path id="Trazado_862063" data-name="Trazado 862063" d="M114.773,93.851c-6.362,1.659-13.045,1.968-19.057-1.025a12.3,12.3,0,0,0,1.948,1.66c5.054,3.392,12.231,2.8,17.109-.636" transform="translate(-6.028 -26.078)" fill="#ba6250"/>
            <path id="Trazado_862064" data-name="Trazado 862064" d="M133.206,52.793c-1.3-4-5.823-6.356-9.92-6.173a14.079,14.079,0,0,0-8.353,3.374c-2.489,2.5-2.639,2.506.777,1.412,1.557-.411,3.016-.82,4.56-1.154a16.852,16.852,0,0,1,12.937,2.542" transform="translate(-36.961 -13.094)" fill="#2a2e39"/>
            <path id="Trazado_862065" data-name="Trazado 862065" d="M75.2,54.816c4.281-1.973,8.4-5.294,13.211-4.118a15.823,15.823,0,0,1,4.411,2.274,7.558,7.558,0,0,0-9.378-5.444A12.464,12.464,0,0,0,75.2,54.816" transform="translate(30.678 -13.272)" fill="#2a2e39"/>
            <path id="Trazado_862066" data-name="Trazado 862066" d="M171.02,76.935c-1.084-1.072-1.767-2.143-.266-3.191l.032-.262a17.029,17.029,0,0,0-.265-6.1,4.7,4.7,0,0,0-1.105-2.084c-1.653-1.477-3.633.067-3.956,1.839a9.378,9.378,0,0,0,.029,4.058c.328-1.394.812-5.017,2.478-4.987.591.2.764.9.979,1.6a29.5,29.5,0,0,1,.672,5.607l.193-.406c-1.506,1.484-.594,3.321,1.212,3.919" transform="translate(-112.275 -18.179)" fill="#ba6250"/>
            <path id="Trazado_862067" data-name="Trazado 862067" d="M157.98,193.086c6.147-13.524,43.852-47.54,43.852-47.54l20.081,21.721-30.737,28.688,20,33.818a1.412,1.412,0,0,0-.211.43c-2.278,3.262-4.589,6.5-6.666,9.894-13.084-6.179-48.972-41.174-46.319-47.011" transform="translate(-157.839 -40.889)" fill="#ff8d61"/>
            <path id="Trazado_862068" data-name="Trazado 862068" d="M168.848,181.421A63.517,63.517,0,0,1,157.84,166.77c11.1-11.276,22.126-21.225,22.126-21.225l20.082,21.721-23.089,21.55a68.74,68.74,0,0,1-8.112-7.395" transform="translate(-135.975 -40.888)" fill="#f4754f"/>
            <path id="Trazado_862069" data-name="Trazado 862069" d="M4.458,228l20.488-26.628L0,171.636l20.835-17.65s30.734,35.394,34.85,48.475c1.617,5.139-28.739,28.84-43.768,36.22A52.255,52.255,0,0,1,4.458,228" transform="translate(121.824 -43.26)" fill="#ff8d61"/>
            <path id="Trazado_862070" data-name="Trazado 862070" d="M50.667,188.1A58.636,58.636,0,0,0,62.4,175.914C53.489,164.337,44.5,153.985,44.5,153.985L23.666,171.636l18.74,22.334a63.432,63.432,0,0,0,8.261-5.866" transform="translate(98.158 -43.259)" fill="#f4754f"/>
            <path id="Trazado_862071" data-name="Trazado 862071" d="M40.866,180.936s20.491-8.607,25.41-15.983c0,0-18.443-34.835-41.8-28.278Z" transform="translate(93.697 -38.166)" fill="#a630d9"/>
            <g id="Grupo_1088077" data-name="Grupo 1088077" transform="translate(130.217 105.195)" opacity="0.06" style="mix-blend-mode: multiply;isolation: isolate">
              <g id="Grupo_1088076" data-name="Grupo 1088076">
                <g id="Grupo_1088075" data-name="Grupo 1088075" clip-path="url(#clip-path-9)">
                  <path id="Trazado_862072" data-name="Trazado 862072" d="M36.7,146.294c10.661,8.622,17.528,21.592,17.528,21.592C49.311,175.263,28.82,183.87,28.82,183.87l-4.346-11.734c5.987-7.378,9.991-16.575,12.227-25.842" transform="translate(-24.474 -146.294)" fill="#332845"/>
                </g>
              </g>
            </g>
            <path id="Trazado_862073" data-name="Trazado 862073" d="M149.231,135.934s-2.049,12.7-25.819,14.344-33.606-16.393-33.606-16.393-4.508-2.458-13.114,2.049S52.1,157.245,52.1,157.245s17.213,22.541,29.918,25.41l4.1-4.1s0,22.541,5.328,38.934c0,0,9.426,9.016,64.753,2.458,0,0,20.491-22.54,13.524-45.49s-12.295-38.524-12.295-38.524Z" transform="translate(-31.061 -37.425)" fill="#a630d9"/>
            <g id="Grupo_1088080" data-name="Grupo 1088080" transform="translate(55.057 141.131)" opacity="0.06" style="mix-blend-mode: multiply;isolation: isolate">
              <g id="Grupo_1088079" data-name="Grupo 1088079">
                <g id="Grupo_1088078" data-name="Grupo 1088078" clip-path="url(#clip-path-10)">
                  <path id="Trazado_862074" data-name="Trazado 862074" d="M117.775,223.319a32.8,32.8,0,0,0,20.1-9.231,67.968,67.968,0,0,1-13.128,23.575C69.416,244.221,59.99,235.2,59.99,235.2c-5.328-16.393-5.328-38.933-5.328-38.933s29.1,30.327,63.113,27.048" transform="translate(-54.662 -196.27)" fill="#332845"/>
                </g>
              </g>
            </g>
            <path id="Trazado_862075" data-name="Trazado 862075" d="M148.3,267.3s8.978-10.055,12.928-10.774,26.934,8.26,0,3.232c0,0,29.448,14.365.36,3.591,0,0,21.906,22.984-2.873,2.514,0,0,15.443,26.575-2.873,2.155,0,0-7.542,7.9-7.542-.718" transform="translate(-103.488 -72.055)" fill="#ff8d61"/>
            <path id="Trazado_862076" data-name="Trazado 862076" d="M85.167,262.494S77.64,251.212,73.806,249.94s-27.994,4.432-.455,3.22c0,0-31.359,10.159-.864,3.526,0,0-25.062,19.808,2.507,2.909,0,0-19.128,24.3,2.558,2.551,0,0,6.4,8.933,7.613.347" transform="translate(49.869 -70.164)" fill="#ff8d61"/>
          </g>
        </g>
      </g>
    </g>
    <g id="Grupo_1088093" data-name="Grupo 1088093" transform="translate(348.76 14341.822) rotate(164)">
      <g id="Grupo_1088092" data-name="Grupo 1088092" transform="translate(-8.214 -29.403)" clip-path="url(#clip-path-11)">
        <g id="Grupo_1088091" data-name="Grupo 1088091" transform="translate(0 0)">
          <g id="Grupo_1088090" data-name="Grupo 1088090" clip-path="url(#clip-path-12)">
            <g id="Grupo_1088089" data-name="Grupo 1088089" transform="translate(1.014 0)" opacity="0.68">
              <g id="Grupo_1088088" data-name="Grupo 1088088">
                <g id="Grupo_1088087" data-name="Grupo 1088087" clip-path="url(#clip-path-13)">
                  <path id="Trazado_862095" data-name="Trazado 862095" d="M70.638,56.167,69.266,80.423a2.843,2.843,0,0,1-2.955,2.68l-5.6-.231c-.055,0-.111,0-.167,0l-.28-.015h0L2.933,79.833A2.889,2.889,0,0,1,.2,76.8l.089-1.684L0,75.081l.567-5.24L4.1,2.737A2.889,2.889,0,0,1,7.14,0L53.672,2.456l7.939-.427.046.848,3.095.163a2.889,2.889,0,0,1,2.733,3.037L65.009,53.033l2.921.135a2.843,2.843,0,0,1,2.707,3" transform="translate(0 0)" fill="#dad9d9"/>
                </g>
              </g>
            </g>
            <path id="Trazado_862096" data-name="Trazado 862096" d="M69.07,80.423a2.843,2.843,0,0,1-2.955,2.68l-5.6-.231c-.055,0-.111,0-.167,0l-.28-.015h0L2.737,79.833A2.889,2.889,0,0,1,0,76.8l3.9-74.059A2.889,2.889,0,0,1,6.944,0L64.555,3.04a2.889,2.889,0,0,1,2.733,3.037L64.813,53.033l2.921.135a2.843,2.843,0,0,1,2.707,3Z" transform="translate(0.196 0.888)" fill="#f79d0f"/>
            <rect id="Rectángulo_397199" data-name="Rectángulo 397199" width="74.594" height="56.471" transform="translate(61.611 2.917) rotate(86.922)" fill="#ddd"/>
            <rect id="Rectángulo_397200" data-name="Rectángulo 397200" width="56.471" height="74.594" transform="matrix(0.994, 0.108, -0.108, 0.994, 8.02, 1.808)" fill="#e5e5e5"/>
            <rect id="Rectángulo_397201" data-name="Rectángulo 397201" width="74.594" height="56.471" transform="translate(60.929 5.167) rotate(88.991)" fill="#f2f2f2"/>
            <rect id="Rectángulo_397202" data-name="Rectángulo 397202" width="56.471" height="74.594" transform="translate(8.352 3.419) rotate(4.818)" fill="#fff"/>
            <path id="Trazado_862097" data-name="Trazado 862097" d="M46.471,3.869.6,0A.55.55,0,0,0,0,.5V.515a.55.55,0,0,0,.5.594L46.378,4.976a.55.55,0,0,0,.594-.5V4.463a.55.55,0,0,0-.5-.594" transform="translate(7.21 66.187)" fill="#dad9d9"/>
            <path id="Trazado_862098" data-name="Trazado 862098" d="M24.647,2.029.6,0A.55.55,0,0,0,0,.5V.515a.55.55,0,0,0,.5.594l24.05,2.027a.55.55,0,0,0,.594-.5V2.623a.55.55,0,0,0-.5-.594" transform="translate(7.417 63.736)" fill="#dad9d9"/>
            <path id="Trazado_862099" data-name="Trazado 862099" d="M46.471,3.869.6,0A.55.55,0,0,0,0,.5V.515a.55.55,0,0,0,.5.594L46.378,4.976a.55.55,0,0,0,.594-.5V4.463a.55.55,0,0,0-.5-.594" transform="translate(6.725 71.218)" fill="#dad9d9"/>
            <path id="Trazado_862100" data-name="Trazado 862100" d="M24.647,2.029.6,0A.55.55,0,0,0,0,.5V.515a.55.55,0,0,0,.5.594l24.05,2.027a.55.55,0,0,0,.594-.5V2.623a.55.55,0,0,0-.5-.594" transform="translate(6.931 68.767)" fill="#dad9d9"/>
            <path id="Trazado_862101" data-name="Trazado 862101" d="M38.615,3.206.6,0A.55.55,0,0,0,0,.5V.515a.55.55,0,0,0,.5.594l38.018,3.2a.55.55,0,0,0,.594-.5V3.8a.55.55,0,0,0-.5-.594" transform="translate(7.617 61.364)" fill="#dad9d9"/>
            <path id="Trazado_862102" data-name="Trazado 862102" d="M46.471,3.869.6,0A.55.55,0,0,0,0,.5V.515a.55.55,0,0,0,.5.594L46.378,4.976a.55.55,0,0,0,.594-.5V4.463a.55.55,0,0,0-.5-.594" transform="translate(7.955 57.352)" fill="#dad9d9"/>
            <path id="Trazado_862103" data-name="Trazado 862103" d="M46.471,3.869.6,0A.55.55,0,0,0,0,.5V.515a.55.55,0,0,0,.5.594L46.378,4.976a.55.55,0,0,0,.594-.5V4.463a.55.55,0,0,0-.5-.594" transform="translate(8.161 54.901)" fill="#dad9d9"/>
            <path id="Trazado_862104" data-name="Trazado 862104" d="M46.471,3.869.6,0A.55.55,0,0,0,0,.5V.515a.55.55,0,0,0,.5.594L46.378,4.976a.55.55,0,0,0,.594-.5V4.463a.55.55,0,0,0-.5-.594" transform="translate(8.361 52.529)" fill="#dad9d9"/>
            <path id="Trazado_862105" data-name="Trazado 862105" d="M31.214,2.583.6,0A.55.55,0,0,0,0,.5V.515a.55.55,0,0,0,.5.594L31.121,3.69a.55.55,0,0,0,.594-.5V3.177a.55.55,0,0,0-.5-.594" transform="translate(8.566 50.101)" fill="#dad9d9"/>
            <path id="Trazado_862106" data-name="Trazado 862106" d="M46.471,3.869.6,0A.55.55,0,0,0,0,.5V.515a.55.55,0,0,0,.5.594L46.378,4.976a.55.55,0,0,0,.594-.5V4.463a.55.55,0,0,0-.5-.594" transform="translate(9.156 43.104)" fill="#dad9d9"/>
            <path id="Trazado_862107" data-name="Trazado 862107" d="M46.471,3.869.6,0A.55.55,0,0,0,0,.5V.515a.55.55,0,0,0,.5.594L46.378,4.976a.55.55,0,0,0,.594-.5V4.463a.55.55,0,0,0-.5-.594" transform="translate(9.362 40.653)" fill="#dad9d9"/>
            <path id="Trazado_862108" data-name="Trazado 862108" d="M16.823,1.369.6,0A.55.55,0,0,0,0,.5V.515a.55.55,0,0,0,.5.594L16.729,2.476a.55.55,0,0,0,.594-.5V1.964a.55.55,0,0,0-.5-.594" transform="translate(10.101 27.475)" fill="#dad9d9"/>
            <path id="Trazado_862109" data-name="Trazado 862109" d="M12.074.969.6,0A.55.55,0,0,0,0,.5V.515a.55.55,0,0,0,.5.594l11.477.967a.55.55,0,0,0,.594-.5V1.563a.55.55,0,0,0-.5-.594" transform="translate(10.356 25.026)" fill="#dad9d9"/>
            <path id="Trazado_862110" data-name="Trazado 862110" d="M13.879,1.121.6,0A.55.55,0,0,0,0,.5V.515a.55.55,0,0,0,.5.594l13.281,1.12a.55.55,0,0,0,.594-.5V1.715a.55.55,0,0,0-.5-.594" transform="translate(42.846 30.225)" fill="#dad9d9"/>
            <path id="Trazado_862111" data-name="Trazado 862111" d="M9.177.725.6,0A.55.55,0,0,0,0,.5V.515a.55.55,0,0,0,.5.594l8.58.723a.55.55,0,0,0,.594-.5V1.319a.55.55,0,0,0-.5-.594" transform="translate(43.052 27.774)" fill="#dad9d9"/>
            <path id="Trazado_862112" data-name="Trazado 862112" d="M30.645,2.535.6,0A.55.55,0,0,0,0,.5V.515a.55.55,0,0,0,.5.594L30.552,3.642a.55.55,0,0,0,.594-.5V3.129a.55.55,0,0,0-.5-.594" transform="translate(9.562 38.281)" fill="#dad9d9"/>
            <path id="Trazado_862113" data-name="Trazado 862113" d="M46.471,3.869.6,0A.55.55,0,0,0,0,.5V.515a.55.55,0,0,0,.5.594L46.378,4.976a.55.55,0,0,0,.594-.5V4.463a.55.55,0,0,0-.5-.594" transform="translate(8.773 47.65)" fill="#dad9d9"/>
            <path id="Trazado_862114" data-name="Trazado 862114" d="M11.945,11.4a1.638,1.638,0,0,1-.741.509,1.637,1.637,0,0,1-.613.658,1.637,1.637,0,0,1-.848.3,1.639,1.639,0,0,1-.762.477,1.637,1.637,0,0,1-.9.07,1.637,1.637,0,0,1-.86.263,1.637,1.637,0,0,1-.884-.165,1.639,1.639,0,0,1-.9.032,1.639,1.639,0,0,1-.811-.388,1.638,1.638,0,0,1-.876-.2,1.639,1.639,0,0,1-.683-.585,1.638,1.638,0,0,1-.794-.422A1.637,1.637,0,0,1,1.77,11.2a1.638,1.638,0,0,1-.658-.613,1.637,1.637,0,0,1-.3-.848,1.638,1.638,0,0,1-.477-.762,1.637,1.637,0,0,1-.07-.9A1.639,1.639,0,0,1,0,7.225a1.638,1.638,0,0,1,.165-.884,1.637,1.637,0,0,1-.032-.9,1.637,1.637,0,0,1,.388-.811,1.637,1.637,0,0,1,.2-.876,1.637,1.637,0,0,1,.585-.683,1.637,1.637,0,0,1,.422-.794,1.637,1.637,0,0,1,.741-.509,1.636,1.636,0,0,1,.613-.658,1.638,1.638,0,0,1,.848-.3A1.637,1.637,0,0,1,4.7.337a1.637,1.637,0,0,1,.9-.07A1.638,1.638,0,0,1,6.452,0a1.638,1.638,0,0,1,.884.165,1.638,1.638,0,0,1,.9-.032,1.638,1.638,0,0,1,.811.388,1.637,1.637,0,0,1,.876.2,1.637,1.637,0,0,1,.683.584,1.637,1.637,0,0,1,.794.422,1.637,1.637,0,0,1,.508.742,1.635,1.635,0,0,1,.658.613,1.637,1.637,0,0,1,.3.848,1.637,1.637,0,0,1,.477.762,1.637,1.637,0,0,1,.07.9,1.638,1.638,0,0,1,.263.86,1.638,1.638,0,0,1-.165.884,1.637,1.637,0,0,1,.032.9,1.638,1.638,0,0,1-.388.811,1.638,1.638,0,0,1-.2.876,1.637,1.637,0,0,1-.585.683,1.638,1.638,0,0,1-.422.794M10.878,2.315a6.065,6.065,0,1,0,.484,8.563,6.065,6.065,0,0,0-.484-8.563" transform="translate(15.71 9.296)" fill="#dadde2"/>
            <path id="Trazado_862115" data-name="Trazado 862115" d="M1.888,9.872a5.655,5.655,0,1,1,7.984-.451,5.655,5.655,0,0,1-7.984.451m6.52-7.3a4.134,4.134,0,1,0,.33,5.837,4.134,4.134,0,0,0-.33-5.837" transform="translate(16.894 10.48)" fill="#dadde2"/>
            <path id="Trazado_862116" data-name="Trazado 862116" d="M2,3.166a2.237,2.237,0,0,0,2.333.4l1,.892A3.491,3.491,0,0,1,.337,0l1,.893A2.236,2.236,0,0,0,2,3.166" transform="translate(19.011 14.691)" fill="#dadde2"/>
            <path id="Trazado_862117" data-name="Trazado 862117" d="M3.333,1.821A2.237,2.237,0,0,0,1,1.418L0,.526A3.491,3.491,0,0,1,5,4.987L4,4.094a2.237,2.237,0,0,0-.664-2.273" transform="translate(20.753 12.591)" fill="#dadde2"/>
            <path id="Trazado_862118" data-name="Trazado 862118" d="M0,.141v0A.154.154,0,0,0,.141.31l14.97,1.243a.154.154,0,0,0,.166-.141v0a.154.154,0,0,0-.141-.166L.167,0A.153.153,0,0,0,0,.141" transform="translate(42.559 11.362)" fill="#dad9d9"/>
          </g>
        </g>
      </g>
    </g>
    <path id="Trazado_862391" data-name="Trazado 862391" d="M192.572,230.821l-13.653-1.635,7.247-12.736-12.19,8.321-10.731-8.321,3.973,14.371L153.47,235.64l15.255,1.583-.8,11.567,7.124-9.162,10.4,6.915-5.218-10.75Z" transform="translate(74.911 14065.05)" fill="#fefaf2"/>
    <path id="Trazado_862392" data-name="Trazado 862392" d="M911.785,15.871l-13.354,3.27,2.3-14.471-8.488,12.075L879.28,12.735l8.773,12.052L876.88,34.134l14.832-3.883,3.317,11.111,3.45-11.087,12.166,2.813-8.663-8.226Z" transform="translate(-233.715 14176.743)" fill="#db33d8" fill-rule="evenodd"/>
    <g id="Grupo_1088240" data-name="Grupo 1088240" transform="translate(518.332 14226.497)">
      <g id="Grupo_1088239" data-name="Grupo 1088239" clip-path="url(#clip-path-14)">
        <g id="Grupo_1088238" data-name="Grupo 1088238">
          <g id="Grupo_1088237" data-name="Grupo 1088237" clip-path="url(#clip-path-14)">
            <path id="Trazado_862393" data-name="Trazado 862393" d="M45.611.142C39.589.832,32.759,5.47,31.981,10.881,29.2,6.174,19.493,4.859,13.663,6.513-1.723,10.881-3.566,29.367,5.384,39.783,10.2,45.388,16.421,49.893,23,53.741c5.506,3.223,19.332,9.633,19.362,9.6.043.022,10.386-11.169,14.25-16.246,4.615-6.062,8.651-12.6,10.971-19.613C71.889,14.439,61.5-1.678,45.611.142" transform="translate(0 0)" fill="#f13434"/>
            <g id="Grupo_1088236" data-name="Grupo 1088236" transform="translate(30.685 20.663)" opacity="0.12" style="mix-blend-mode: multiply;isolation: isolate">
              <g id="Grupo_1088235" data-name="Grupo 1088235">
                <g id="Grupo_1088234" data-name="Grupo 1088234" clip-path="url(#clip-path-16)">
                  <path id="Trazado_862394" data-name="Trazado 862394" d="M128.411,72.374a86.672,86.672,0,0,1-10.753,15.556c-4.012,4.607-8.931,8.9-14.83,11.18a21.849,21.849,0,0,1-8.565,1.5c5.749,2.863,11.949,5.726,11.97,5.7.043.023,10.386-11.169,14.25-16.245,4.615-6.062,8.651-12.6,10.971-19.613a19.743,19.743,0,0,0,.962-6.981,62.838,62.838,0,0,1-4,8.9" transform="translate(-94.264 -63.476)"/>
                </g>
              </g>
            </g>
            <path id="Trazado_862395" data-name="Trazado 862395" d="M78.675,48.95,66.453,51.691,58.817,36.444a.876.876,0,0,0-1.613.319L53.247,66.717q-.115.868-.229,1.735l-10.123-17.2-1.624-2.758a.885.885,0,0,0-1.565.114l-2.925,9.908-13.748,2.72a.8.8,0,1,0,.312,1.574L37.61,59.987a.855.855,0,0,0,.645-.533l2.506-8.491L51.147,68.61l1.623,2.758a.877.877,0,0,0,1.613-.319L58.34,41.1l.189-1.433L65.2,52.991a.858.858,0,0,0,.921.418l12.862-2.885a.8.8,0,1,0-.312-1.574" transform="translate(-15.085 -24.293)" fill="#fff"/>
          </g>
        </g>
      </g>
    </g>
  </g>
</svg>
