<svg xmlns="http://www.w3.org/2000/svg" xmlns:xlink="http://www.w3.org/1999/xlink" width="349" height="227.742" viewBox="0 0 349 227.742">
  <defs>
    <clipPath id="clip-path">
      <path id="Rect치ngulo_392869" data-name="Rect치ngulo 392869" d="M24,0H325a24,24,0,0,1,24,24V227.742a0,0,0,0,1,0,0H0a0,0,0,0,1,0,0V24A24,24,0,0,1,24,0Z" transform="translate(206 16279.947)" fill="#fcf7f1"/>
    </clipPath>
    <clipPath id="clip-path-2">
      <rect id="Rect치ngulo_392866" data-name="Rect치ngulo 392866" width="37.53" height="265.077" fill="none"/>
    </clipPath>
  </defs>
  <g id="_4" data-name="4" transform="translate(-206 -16279.947)" clip-path="url(#clip-path)">
    <g id="Grupo_1075965" data-name="Grupo 1075965" transform="translate(12.849)">
      <path id="Trazado_831540" data-name="Trazado 831540" d="M0,0H349V259.581H0Z" transform="translate(193.151 16279.948)" fill="#eb3f96"/>
      <path id="Trazado_830528" data-name="Trazado 830528" d="M349,0,0,259.582H349Z" transform="translate(193.151 16279.947)" fill="#1666ba"/>
    </g>
    <g id="Grupo_1075963" data-name="Grupo 1075963" transform="translate(236.983 16276.421)">
      <g id="Grupo_1075964" data-name="Grupo 1075964" transform="translate(19.057 12.793)">
        <path id="Trazado_830478" data-name="Trazado 830478" d="M259.583,259.583Z" transform="translate(-0.317 6.815)" fill="#1666ba"/>
        <g id="Grupo_1075961" data-name="Grupo 1075961" transform="translate(0 0)">
          <g id="Grupo_1075966" data-name="Grupo 1075966">
            <path id="Trazado_830479" data-name="Trazado 830479" d="M62.906,68.407a20.855,20.855,0,0,1-7.045-10.043c-1.583-4.772.278-12.292,2.238-12.592s1.959,5.546,14.551,6.6c0,0,3.147,8.844-9.744,16.039" transform="translate(-45.912 -34.615)" fill="#13386d"/>
            <path id="Trazado_830480" data-name="Trazado 830480" d="M110.929,42.935c-16.811-3.161-40.773,3.4-49.168,13.991s-9.993,17.788-9.993,23.184.2,12.192-2,16.389-5.8,6.6-6.6,8.594,3.2,5,6,6.4,2,4.8,2.2,8.994,1.6,15.59,5.2,19.587,18.988,2.2,24.984,4.8,7.945,10.693,10.193,18.038,2.4,16.789.149,22.635S68.657,225.416,62.661,245.5s-4.5,77.649-4.5,77.649H161s5.7-82.746,3.6-101.933-21.586-47.969-26.982-61.46a52.616,52.616,0,0,1,3.3-44.371c7.8-13.491,15.89-27.582,6.3-47.069s-24.584-23.184-36.276-25.383" transform="translate(-40.569 -33.028)" fill="#deecfb"/>
            <path id="Trazado_830481" data-name="Trazado 830481" d="M179.67,325.059a31.639,31.639,0,0,0-23.349,10.811c-4.944,5.5-7.856,12.454-9.815,19.507a119.729,119.729,0,0,0-5.065,30.473c-.205,5.923-.033,11.862-.43,17.789-1.373,14.786-5.3,29.244-9.46,43.44,3.617-14.312,7.267-28.762,8.49-43.5.509-8.873-.112-17.814.921-26.669a121.475,121.475,0,0,1,4.589-21.811c2-7.168,5.12-14.2,10.246-19.7a31.233,31.233,0,0,1,23.873-10.336" transform="translate(-79.33 -156.956)" fill="#368ce7"/>
            <path id="Trazado_830482" data-name="Trazado 830482" d="M109.046,223.619a32.042,32.042,0,0,0,10.278-7.411c5.928-6.769,6.663-25.31,6.663-25.31s-1.2,5.7-3.886,8.7c-3.131,3.5-10.323,5.2-20.1,7.008a76.639,76.639,0,0,1-16.342,1.461h0c5.368.441,11.318.565,14.547,1.964,4.794,2.078,7,7.671,8.841,13.584" transform="translate(-59.225 -98.195)" fill="#bedaf7"/>
            <path id="Trazado_830483" data-name="Trazado 830483" d="M134.933,184.229c-.763,5.009-2.132,10.423-5.862,14.107a13.091,13.091,0,0,1-4.566,2.5,87.12,87.12,0,0,1-20.252,3.578c3.393-.468,6.779-.99,10.143-1.625a69.6,69.6,0,0,0,9.921-2.482,12.543,12.543,0,0,0,4.41-2.349c3.665-3.581,5.137-8.846,6.206-13.73" transform="translate(-67.372 -95.273)" fill="#368ce7"/>
            <path id="Trazado_830484" data-name="Trazado 830484" d="M73.66,122.812c0,2.029-1.074,3.673-2.4,3.673s-2.4-1.644-2.4-3.673,1.074-3.673,2.4-3.673,2.4,1.645,2.4,3.673" transform="translate(-51.868 -66.76)" fill="#13386d"/>
            <path id="Trazado_830485" data-name="Trazado 830485" d="M54.814,159.9s2.5.2,3.3,1.9c0,0,1,.6,2.3-.95s0-3.647,0-3.647" transform="translate(-45.714 -83.432)" fill="none" stroke="#368ce7" stroke-linecap="round" stroke-miterlimit="10" stroke-width="1"/>
            <path id="Trazado_830486" data-name="Trazado 830486" d="M58.084,183.2a13.311,13.311,0,0,0,11.553-2.347" transform="translate(-47.147 -93.793)" fill="none" stroke="#368ce7" stroke-linecap="round" stroke-miterlimit="10" stroke-width="1"/>
            <path id="Trazado_830487" data-name="Trazado 830487" d="M78.478,106.627s-4.762-4.9-10.493-5.059-1.331-3.921,1.558-3.6a11.049,11.049,0,0,1,8.935,8.663" transform="translate(-50.26 -57.475)" fill="#1666ba"/>
            <path id="Trazado_830488" data-name="Trazado 830488" d="M94.835,142.215c0,5.172-5.079,9.365-11.345,9.365s-11.345-4.193-11.345-9.365,5.079-9.365,11.345-9.365,11.345,4.193,11.345,9.365" transform="translate(-53.306 -72.766)" fill="#bedaf7"/>
            <path id="Trazado_830489" data-name="Trazado 830489" d="M135.239,96.811c-1.006-6.908-5.8-9.494-10.293-7.995s-11.293,11.093-11.293,11.093-1-27.282-1.6-28.182-10.393-1-11.892-4.3,0-6-2.1-7.4-14.191-3.8-20.287-11.892-2.9-16.789-1.8-17.189,1.1,2.5,8.495,2.5,27.377-1.2,39.272-3.3,30.682,6.6,35.279,19.687c0,0-1.9-7.095,0-13.491a27.977,27.977,0,0,0,7.3,9.394c5.2,4.4,2,11.992,0,15.49,0,0,6.1,4.9,8.095,8.994s-3.1,17.288-7.3,23.384-17.175,25.983-18.531,33.078-.806,9.6-.806,9.6a27.528,27.528,0,0,0-13.42-9.6s3.776-9.993.878-29.88" transform="translate(-54.187 -27.642)" fill="#1277e1"/>
            <path id="Trazado_830490" data-name="Trazado 830490" d="M159.316,45.927S149.064,24.615,133.383,25.99c-19.227,1.686-37.775,6.221-51.716,2.136" transform="translate(-57.477 -25.926)" fill="none" stroke="#1666ba" stroke-linecap="round" stroke-linejoin="round" stroke-width="1.5"/>
            <path id="Trazado_830491" data-name="Trazado 830491" d="M165.37,72.9s-8.694-19.187-26.832-20.237S114.226,63.578,91.38,63.593" transform="translate(-61.732 -37.611)" fill="none" stroke="#13386d" stroke-linecap="round" stroke-linejoin="round" stroke-width="1.5"/>
            <path id="Trazado_830492" data-name="Trazado 830492" d="M117.779,70.607s6.39,0,13.286-7.806c4.307-4.875,9.634-9.574,19.037-10.086" transform="translate(-73.297 -37.662)" fill="none" stroke="#13386d" stroke-linecap="round" stroke-linejoin="round" stroke-width="1.5"/>
            <path id="Trazado_830493" data-name="Trazado 830493" d="M181.3,207.437a46.492,46.492,0,0,1,13.567,9.883" transform="translate(-101.122 -105.44)" fill="none" stroke="#1666ba" stroke-linecap="round" stroke-linejoin="round" stroke-width="1.5"/>
            <path id="Trazado_830494" data-name="Trazado 830494" d="M190.1,218.155a33.055,33.055,0,0,1,8.618,6.869" transform="translate(-104.98 -110.135)" fill="none" stroke="#1666ba" stroke-linecap="round" stroke-linejoin="round" stroke-width="1.5"/>
            <path id="Trazado_830495" data-name="Trazado 830495" d="M162.4,154.16l3.2-20.986s6.4-10.26,14.191-6.1c9.393,5.022.8,27.136-17.391,27.082" transform="translate(-92.845 -69.802)" fill="#bedaf7"/>
            <path id="Trazado_830496" data-name="Trazado 830496" d="M181.557,127.079c-7.79-4.164-14.191,6.1-14.191,6.1l-.939,6.157c2.6-2.245,7.867-6.114,12.931-5.757a8.737,8.737,0,0,1,5.909,2.671c.523-3.977-.606-7.506-3.711-9.166" transform="translate(-94.608 -69.802)" fill="#deecfb"/>
            <path id="Trazado_830497" data-name="Trazado 830497" d="M309.78,36.087c9.428-.088,14.876,8.195,16.532,16.189s3.854,12.991,14.248,14.99,34.177,11.578,38.575,21.878-3.4,23.892,6,30.188,20.786,16.289,13.991,30.48S379.734,165.4,370.14,167.2s-10.593,6.8-6.4,14.191,6.995,23.385-4.2,29.381-38.575-20.986-53.365-17.788-12.7,9.993-25.937,13.591-34.354-32.092-35.088-81.2,43.237-89.085,64.623-89.285" transform="translate(-129.093 -30.377)" fill="#fa2286"/>
            <path id="Trazado_830498" data-name="Trazado 830498" d="M383.935,61.519s-1.487,9.893,9.728,11.093S442.2,83.645,445.8,96.941s-6.774,27.645,4.2,38.779" transform="translate(-189.862 -41.518)" fill="none" stroke="#f45ca2" stroke-linecap="round" stroke-linejoin="round" stroke-width="1.5"/>
            <path id="Trazado_830499" data-name="Trazado 830499" d="M444.888,259.745s-14.091,7.183-8.994,16.777,7.046,28.481.6,32.379-20.986-6.939-31.779-12.464" transform="translate(-198.993 -128.354)" fill="none" stroke="#f45ca2" stroke-linecap="round" stroke-linejoin="round" stroke-width="1.5"/>
            <path id="Trazado_830500" data-name="Trazado 830500" d="M418.215,236.048s-12.647-6.6-16.645-24.985-10.993-33.477-30.38-47.019" transform="translate(-184.308 -86.432)" fill="none" stroke="#f27cb2" stroke-linecap="round" stroke-linejoin="round" stroke-width="1.5"/>
            <path id="Trazado_830501" data-name="Trazado 830501" d="M447.814,243.049s-14.522.959-20.917-6.436-8.939-15.326-13.863-25.651" transform="translate(-202.638 -106.984)" fill="none" stroke="#f27cb2" stroke-linecap="round" stroke-linejoin="round" stroke-width="1.5"/>
            <path id="Trazado_830502" data-name="Trazado 830502" d="M376.512,219.269s12.35,34.222,2.182,57.083" transform="translate(-186.639 -110.623)" fill="none" stroke="#f27cb2" stroke-linecap="round" stroke-linejoin="round" stroke-width="1.5"/>
            <path id="Trazado_830503" data-name="Trazado 830503" d="M362.3,224.267a63.776,63.776,0,0,1,14.184,30.367" transform="translate(-180.413 -112.813)" fill="none" stroke="#f27cb2" stroke-linecap="round" stroke-linejoin="round" stroke-width="1.5"/>
            <path id="Trazado_830504" data-name="Trazado 830504" d="M393.218,135.94s3.281.294,4.54-3.921" transform="translate(-193.957 -72.402)" fill="none" stroke="#662766" stroke-linecap="round" stroke-linejoin="round" stroke-width="2"/>
            <path id="Trazado_830505" data-name="Trazado 830505" d="M309.258,123.136c2.8-1.4,6.8-4.4,6-6.4s-4.4-4.4-6.6-8.594-2-10.993-2-16.389-1.6-12.592-9.993-23.185S264.31,51.42,247.5,54.581c-11.692,2.2-26.682,5.9-36.276,25.383s-1.5,33.578,6.3,47.069a52.618,52.618,0,0,1,3.3,44.371c-5.4,13.491-24.884,42.272-26.982,61.459s3.6,95.389,3.6,95.389H300.264s.41-9.22-.058-27.126h0s14.024-17.395,12.525-32.535-36.337-52.964-36.337-52.964c-4.883-8.94-8.939-16.049-9.859-18.44-2.248-5.846-2.1-15.29.15-22.635s4.2-15.44,10.194-18.038,21.386-.8,24.984-4.8,5-15.39,5.2-19.587-.6-7.6,2.2-8.994" transform="translate(-106.411 -38.13)" fill="#ffe2f0"/>
            <path id="Trazado_830506" data-name="Trazado 830506" d="M226.732,336.7c11.558-.523,22.509,6.431,28.316,16.225,3.073,4.843,4.843,10.347,6.4,15.809a126.823,126.823,0,0,1,3.592,16.67c1.766,11.226.46,22.7,1.674,33.937a136.515,136.515,0,0,0,8.132,32.833,123.1,123.1,0,0,1-9.073-32.725c-1.267-11.295-.094-22.654-1.827-33.9a125.91,125.91,0,0,0-3.467-16.548c-1.525-5.421-3.222-10.811-6.148-15.651-5.57-9.745-16.215-16.739-27.6-16.657" transform="translate(-121.025 -162.055)" fill="#f27cb2"/>
            <path id="Trazado_830507" data-name="Trazado 830507" d="M313.533,237.376c1.9-6.236,4.081-12.3,9.117-14.477,3.881-1.682,11.694-1.523,17.7-2.284a56.765,56.765,0,0,1-19.743-1.648c-10.7-2.862-15.733-4.016-17.875-6.433a52.963,52.963,0,0,1-4.816-7.211s-1.935,16.724,15.617,32.053" transform="translate(-152.181 -104.514)" fill="#ffbedc"/>
            <path id="Trazado_830508" data-name="Trazado 830508" d="M294.675,195.875c1.479,4.629,3.482,9.46,7.253,12.673,4,2.829,9.091,3.887,13.754,5.234,3.206.833,6.435,1.576,9.673,2.28-3.283-.475-6.54-1.116-9.776-1.86-4.764-1.262-9.913-2.285-13.972-5.257-3.83-3.3-5.749-8.295-6.932-13.069" transform="translate(-150.789 -100.375)" fill="#f27cb2"/>
            <path id="Trazado_830509" data-name="Trazado 830509" d="M393.9,171.541s-2.5.2-3.3,1.9c0,0-1,.6-2.3-.95s0-3.648,0-3.648" transform="translate(-191.551 -88.533)" fill="none" stroke="#f27cb2" stroke-linecap="round" stroke-miterlimit="10" stroke-width="1"/>
            <path id="Trazado_830510" data-name="Trazado 830510" d="M386.434,194.842a13.311,13.311,0,0,1-11.553-2.347" transform="translate(-185.925 -98.894)" fill="none" stroke="#f27cb2" stroke-linecap="round" stroke-miterlimit="10" stroke-width="1"/>
            <path id="Trazado_830511" data-name="Trazado 830511" d="M364.69,118.273s4.762-4.9,10.493-5.059,1.331-3.921-1.558-3.6a11.049,11.049,0,0,0-8.935,8.663" transform="translate(-181.46 -62.577)" fill="#f45ca2"/>
            <path id="Trazado_830512" data-name="Trazado 830512" d="M376.126,134.458c0,2.029,1.074,3.673,2.4,3.673s2.4-1.644,2.4-3.673-1.074-3.673-2.4-3.673-2.4,1.645-2.4,3.673" transform="translate(-186.47 -71.861)" fill="#662766"/>
            <path id="Trazado_830513" data-name="Trazado 830513" d="M381.506,131.288s3.281.294,4.54-3.921" transform="translate(-188.827 -70.364)" fill="none" stroke="#662766" stroke-linecap="round" stroke-linejoin="round" stroke-width="2"/>
            <path id="Trazado_830514" data-name="Trazado 830514" d="M361.52,155.411c0,5.172-5.079,9.365-11.345,9.365s-11.345-4.193-11.345-9.365,5.079-9.365,11.345-9.365,11.345,4.193,11.345,9.365" transform="translate(-170.131 -78.547)" fill="#ffbedc"/>
            <path id="Trazado_830515" data-name="Trazado 830515" d="M293.691,35.766s2.8,27.982-11.592,46.669-30.406,17.537-30.406,17.537-3.823,24.525,0,37.022,16.814,24.49,28.207,33.284,7,19.587,2,24.384-7.073,11.258-7.2,18.588c-.2,11.992-14.2,16.183-25.583,7s-13.591-19.877-25.583-22.985-17.388-14.39-11.193-27.382,5.4-32.8,2.5-49.977-10.441-32.233-3.7-45.035,16.185-21.409,33.131-29.157c29.428-13.454,49.415-9.944,49.415-9.944" transform="translate(-113.004 -30.056)" fill="#fa2286"/>
            <path id="Trazado_830516" data-name="Trazado 830516" d="M326.015,43.723s3.2,35.184-9.594,49.724-31.932,13.341-31.932,13.341" transform="translate(-146.327 -33.723)" fill="none" stroke="#f27cb2" stroke-miterlimit="10" stroke-width="1.5"/>
            <path id="Trazado_830517" data-name="Trazado 830517" d="M263.122,164.045s-3.6,26.432,1.2,47.019,35.641,36.526,33.61,60.535" transform="translate(-136.399 -86.432)" fill="none" stroke="#f45ca2" stroke-linecap="round" stroke-linejoin="round" stroke-width="1.5"/>
            <path id="Trazado_830518" data-name="Trazado 830518" d="M287.883,313.1s3.4-20.176-5.4-35.966-17.228-26.425-18.43-41.2" transform="translate(-137.376 -117.926)" fill="none" stroke="#f45ca2" stroke-linecap="round" stroke-linejoin="round" stroke-width="1.5"/>
            <path id="Trazado_830519" data-name="Trazado 830519" d="M272.228,182.67s.293,20.49,19.88,38.177" transform="translate(-140.956 -94.59)" fill="none" stroke="#f45ca2" stroke-linecap="round" stroke-linejoin="round" stroke-width="1.5"/>
            <path id="Trazado_830520" data-name="Trazado 830520" d="M274.569,165.806l-3.2-20.986s-6.4-10.26-14.191-6.1c-9.394,5.022-.8,27.136,17.391,27.082" transform="translate(-132.679 -74.904)" fill="#ffbedc"/>
            <path id="Trazado_830521" data-name="Trazado 830521" d="M272.315,150.976l-.939-6.157s-6.4-10.26-14.191-6.1c-3.1,1.66-4.234,5.189-3.711,9.166a8.737,8.737,0,0,1,5.909-2.671c5.065-.357,10.33,3.512,12.931,5.757" transform="translate(-132.687 -74.903)" fill="#ffe2f0"/>
            <g id="Grupo_1075959" data-name="Grupo 1075959" transform="translate(86.959 25.047)" style="mix-blend-mode: multiply;isolation: isolate">
              <g id="Grupo_1075958" data-name="Grupo 1075958">
                <g id="Grupo_1075957" data-name="Grupo 1075957" clip-path="url(#clip-path-2)">
                  <path id="Trazado_830522" data-name="Trazado 830522" d="M211.145,90.263c-6.106,11.592-.5,25.031,2.768,40.221,4.332-7.548,9.617-15.568,12.023-19.061,4.2-6.1,9.294-19.287,7.3-23.385s-8.095-8.994-8.095-8.994a20.473,20.473,0,0,0,2.805-8.545,56.463,56.463,0,0,0-16.8,19.764" transform="translate(-199.963 -70.499)" fill="#c0a5f2"/>
                  <path id="Trazado_830523" data-name="Trazado 830523" d="M230.435,319.609c-1.722-15.749-15.155-37.954-22.9-52.87a38.135,38.135,0,0,1-1.784,4.5c-3.92,8.219-3.2,15.75.9,20.965-6.019,11.592-11.733,24.046-12.817,33.948-1.739,15.9,1.876,75.46,3.165,95.389h29.839s5.7-82.746,3.6-101.933" transform="translate(-193.369 -156.465)" fill="#c0a5f2"/>
                </g>
              </g>
            </g>
            <g id="Grupo_1075968" data-name="Grupo 1075968" transform="translate(2.5 -12.224)">
              <path id="Trazado_830524" data-name="Trazado 830524" d="M81.678,276.575A22.692,22.692,0,0,0,57.395,280.3l-4.959-4.82,4.054-.088-.13-6-3.573-1.248-14.166.308.094,14.169,3.573,1.249,6-.04-.012-1.816,4.32,4.2a22.748,22.748,0,0,0,14.164,33.211,22.768,22.768,0,1,0,14.923-42.854m-22.449,22.29a16.765,16.765,0,0,1,20.471-16.6,16.771,16.771,0,0,1-10.966,31.474,16.792,16.792,0,0,1-9.5-14.874" transform="translate(-38.62 -132.036)" fill="#13386d"/>
              <path id="Trazado_830525" data-name="Trazado 830525" d="M72.6,274.481A22.7,22.7,0,0,0,56.63,281.04l-7.265-7.265,4.055-.031-.046-6-14.169.107L39.1,282.025l6,.046.03-4.055,7.8,7.8A22.765,22.765,0,1,0,72.6,274.481m0,39.549a16.776,16.776,0,1,1,16.777-16.776A16.8,16.8,0,0,1,72.6,314.03" transform="translate(-38.83 -131.861)" fill="#368ce7"/>
            </g>
            <g id="Grupo_1075967" data-name="Grupo 1075967" transform="translate(-10.664 0.251)">
              <path id="Trazado_830526" data-name="Trazado 830526" d="M413.173,315.04a22.761,22.761,0,1,0-14.739,32.921l3.74,6.955-4.684,2.519,2.841,5.281,3.813,1.171,2.214-1.191.809,1.5,3.813,1.171,5.281-2.84-2.153-4,4.684-2.519-2.84-5.281-3.814-1.171-2.214,1.191-3.477-6.464a22.8,22.8,0,0,0,6.725-29.244m-34.831,18.733a12.571,12.571,0,1,1,7.982,7.381,16.8,16.8,0,0,1-7.982-7.381" transform="translate(-179.651 -159.009)" fill="#cc3b84"/>
              <path id="Trazado_830527" data-name="Trazado 830527" d="M409.359,313.868a22.772,22.772,0,1,0-12.006,32.084l4.821,8.963-4.684,2.519,2.84,5.281,4.684-2.519,2.153,4,5.281-2.84-2.153-4,4.684-2.519-2.84-5.281-4.684,2.519-4.821-8.963a22.8,22.8,0,0,0,6.725-29.244M374.528,332.6a16.776,16.776,0,1,1,22.722,6.829,16.8,16.8,0,0,1-22.722-6.829" transform="translate(-179.651 -159.009)" fill="#fba1ca"/>
            </g>
          </g>
        </g>
      </g>
    </g>
  </g>
</svg>
