<svg xmlns="http://www.w3.org/2000/svg" xmlns:xlink="http://www.w3.org/1999/xlink" width="213.824" height="341.189" viewBox="0 0 213.824 341.189">
  <defs>
    <clipPath id="clip-path">
      <rect id="Rectángulo_397174" data-name="Rectángulo 397174" width="213.824" height="341.19" transform="translate(1184.356 12518.551)" fill="#fff" stroke="#707070" stroke-width="1" opacity="0.84"/>
    </clipPath>
    <clipPath id="clip-path-2">
      <rect id="Rectángulo_397186" data-name="Rectángulo 397186" width="219.922" height="515.853" fill="none"/>
    </clipPath>
    <clipPath id="clip-path-4">
      <rect id="Rectángulo_397183" data-name="Rectángulo 397183" width="19.196" height="19.197" fill="none"/>
    </clipPath>
  </defs>
  <g id="c4" transform="translate(-1184.356 -12518.551)" clip-path="url(#clip-path)">
    <g id="Grupo_1088022" data-name="Grupo 1088022" transform="matrix(0.996, 0.087, -0.087, 0.996, 1189.964, 12511.271)">
      <g id="Grupo_1088040" data-name="Grupo 1088040" clip-path="url(#clip-path-2)">
        <g id="Grupo_1088039" data-name="Grupo 1088039">
          <g id="Grupo_1088038" data-name="Grupo 1088038" clip-path="url(#clip-path-2)">
            <path id="Trazado_861901" data-name="Trazado 861901" d="M111.41,441.636S100.141,354,95.968,318.941,84.7,223.373,84.7,223.373l80.544-8.764s-6.678,88.475-9.6,120.191S147.3,439.968,147.3,439.968l-7.929.417s-7.929-71.362-5.425-103.5,2.921-95.988,1.669-96.822-12.1.834-12.52,2.5-4.591,81.8-4.591,90.562,2.922,35.056,2.922,63.017-1.252,45.489-1.252,45.489Z" transform="translate(21.344 54.08)" fill="#303457"/>
            <path id="Trazado_861902" data-name="Trazado 861902" d="M108.938,418.943H117.7s1.252-17.528,1.252-45.489c0-24.279-2.2-47.29-2.783-58.67-7.575-1.737-14.712-5.58-21.659-10.117,4.735,38.9,14.427,114.276,14.427,114.276" transform="translate(23.816 76.774)" fill="#222943"/>
            <path id="Trazado_861903" data-name="Trazado 861903" d="M124.063,314.982c-2.281,32.566,5.494,102.549,5.494,102.549l7.929-.417s5.426-73.451,8.347-105.167c.184-2,.383-4.233.595-6.649a53.281,53.281,0,0,1-22.364,9.684" transform="translate(31.157 76.933)" fill="#222943"/>
            <path id="Trazado_861904" data-name="Trazado 861904" d="M77.284,416.247h45.385c1.565,0-1.878-20.971-1.878-20.971h-6.26S97.942,407.17,95.125,408.422,84.17,412.8,77.284,416.247" transform="translate(19.475 99.606)" fill="#12131e"/>
            <path id="Trazado_861905" data-name="Trazado 861905" d="M128.646,394.026s-1.252,21.284,0,21.284h44.133s-23.162-11.268-25.04-12.52-12.52-8.451-12.52-8.451Z" transform="translate(32.278 99.291)" fill="#12131e"/>
            <path id="Trazado_861906" data-name="Trazado 861906" d="M104.367,319.957a24.4,24.4,0,0,1,4.591-8.347" transform="translate(26.3 78.523)" fill="none" stroke="#000" stroke-linecap="round" stroke-linejoin="round" stroke-width="0.5"/>
            <path id="Trazado_861907" data-name="Trazado 861907" d="M128.7,312.61c.93,2.229,1.914,4.478,2.922,6.678" transform="translate(32.431 78.775)" fill="none" stroke="#000" stroke-linecap="round" stroke-linejoin="round" stroke-width="0.5"/>
            <path id="Trazado_861908" data-name="Trazado 861908" d="M106.034,391.694a25.631,25.631,0,0,0,7.094-.417" transform="translate(26.72 98.599)" fill="none" stroke="#000" stroke-linecap="round" stroke-linejoin="round" stroke-width="0.5"/>
            <line id="Línea_642" data-name="Línea 642" x2="5.426" transform="translate(161.132 488.207)" fill="none" stroke="#000" stroke-linecap="round" stroke-linejoin="round" stroke-width="0.5"/>
            <path id="Trazado_861909" data-name="Trazado 861909" d="M105.7,234.277a34.066,34.066,0,0,1,8.764,2.5" transform="translate(26.636 59.036)" fill="none" stroke="#000" stroke-linecap="round" stroke-linejoin="round" stroke-width="0.5"/>
            <path id="Trazado_861910" data-name="Trazado 861910" d="M126.367,235.456a73.782,73.782,0,0,1,9.6-7.512" transform="translate(31.843 57.44)" fill="none" stroke="#000" stroke-linecap="round" stroke-linejoin="round" stroke-width="0.5"/>
            <path id="Trazado_861911" data-name="Trazado 861911" d="M149.715,149.311a195.465,195.465,0,0,0,3.558,23.888c2.618,11.757,8.8,17.912,11.228,17.823,6.684-.243,7.7-39.46,7.553-49.9s-23.034,2.743-22.339,8.189" transform="translate(37.723 34.577)" fill="#a85c3c"/>
            <path id="Trazado_861912" data-name="Trazado 861912" d="M160.03,245.841s-4.351-57.723-2.893-65.618,9.694-19.788,11.288-16.824,11.11,22.413,10.808,34.1-11.277,48.553-12.154,50.2-7.1.232-7.049-1.853" transform="translate(39.522 41.058)" fill="#a85c3c"/>
            <path id="Trazado_861913" data-name="Trazado 861913" d="M152.523,260.858c-2.927-.076-.611-16.715-.161-17.955s9.122-13.749,9.122-13.749l7.928.205s12.731,25.794,12.439,29.126-22.557,17.021-23.606,15.254c-5.161-8.693,5.134-12.809,4.2-17.008s-1.363-11.164-2-11.324c-1.865-.464-2.072,15.6-7.914,15.451" transform="translate(38.068 57.745)" fill="#a85c3c"/>
            <path id="Trazado_861914" data-name="Trazado 861914" d="M146.77,162.052s12.772-.829,17.435-1.867S179,148.4,179,148.4s-21.854-51.273-23.278-52.179-8.948,65.833-8.948,65.833" transform="translate(36.985 24.244)" fill="#e04e1b"/>
            <path id="Trazado_861915" data-name="Trazado 861915" d="M150.5,143.881A47.468,47.468,0,0,0,172,135.67" transform="translate(37.925 34.188)" fill="none" stroke="#000" stroke-linecap="round" stroke-linejoin="round" stroke-width="0.5"/>
            <path id="Trazado_861916" data-name="Trazado 861916" d="M157.376,266.46c4.088-5.273,8.476-10.387,10.658-16.631" transform="translate(39.658 62.955)" fill="none" stroke="#000" stroke-linecap="round" stroke-linejoin="round" stroke-width="0.5"/>
            <path id="Trazado_861917" data-name="Trazado 861917" d="M161.562,265.345c4.758-4.589,9.665-9.162,13.113-14.69" transform="translate(40.712 63.163)" fill="none" stroke="#000" stroke-linecap="round" stroke-linejoin="round" stroke-width="0.5"/>
            <path id="Trazado_861918" data-name="Trazado 861918" d="M36.98,82.227s-5.837-16.432,1.449-19.689,9.688,12.775,9.688,12.775Z" transform="translate(8.761 15.649)" fill="#8c3e26"/>
            <path id="Trazado_861919" data-name="Trazado 861919" d="M2.357,23.081A12.769,12.769,0,0,0,.095,28.815l27.888-8.2c-8.586-5.188-18.5-7.64-25.626,2.468" transform="translate(0.024 4.06)" fill="#f24452"/>
            <path id="Trazado_861920" data-name="Trazado 861920" d="M27.291,63.681l46.239-14.8a147.271,147.271,0,0,0,5.057-15.026L13.851,53.182a139.656,139.656,0,0,0,13.44,10.5" transform="translate(3.49 8.532)" fill="#04bf33"/>
            <path id="Trazado_861921" data-name="Trazado 861921" d="M51.835,72.582c.585.09,4.014-5.238,8.085-13.26L37.763,67.195c5.762,2.94,10.772,4.876,14.072,5.387" transform="translate(9.516 14.949)" fill="#8326db"/>
            <path id="Trazado_861922" data-name="Trazado 861922" d="M41.083,70.585l22.158-7.871c2.456-4.836,5.143-10.651,7.583-16.852l-46.239,14.8a147.775,147.775,0,0,0,16.5,9.927" transform="translate(6.195 11.557)" fill="#246ddc"/>
            <path id="Trazado_861923" data-name="Trazado 861923" d="M28.007,19.707.12,27.909C-.546,32.865,1.605,38.349,5.5,43.878L43.646,32.139c-3.125-2.737-8.981-8.407-15.639-12.432" transform="translate(0 4.966)" fill="#f27405"/>
            <path id="Trazado_861924" data-name="Trazado 861924" d="M45.684,31.228c-.316,1.564-.582,2.515-.874,2.567s-1.089-.565-2.271-1.6L4.39,43.934A78.262,78.262,0,0,0,16.234,56.806L80.971,37.482a74.082,74.082,0,0,0,2.887-18Z" transform="translate(1.106 4.91)" fill="#f2b705"/>
            <path id="Trazado_861925" data-name="Trazado 861925" d="M75.546,22.557c.081-6.086-1.082-11.416-4.075-15.273L41.635,16.059C39.206,23,38.143,30.481,37.373,34.3Z" transform="translate(9.418 1.836)" fill="#f27405"/>
            <path id="Trazado_861926" data-name="Trazado 861926" d="M65.323,4.325C51.387-2.55,44.486,6.795,40.778,17.4L70.614,8.623a14.983,14.983,0,0,0-5.291-4.3" transform="translate(10.276 0.497)" fill="#f24452"/>
            <path id="Trazado_861927" data-name="Trazado 861927" d="M54.762,3.565c9.2,2.214,14.2,9.182,14.393,18.725" transform="translate(13.8 0.898)" fill="none" stroke="#fff" stroke-linecap="round" stroke-linejoin="round" stroke-width="0.8"/>
            <path id="Trazado_861928" data-name="Trazado 861928" d="M73.484,196.051s8.654-19.815,6.131-43.363-20.735-9.3-20.735-9.3-.444,41.318,14.6,52.666" transform="translate(14.837 35.056)" fill="#8c3e26"/>
            <path id="Trazado_861929" data-name="Trazado 861929" d="M51.288,146s11.6,11.572,16.853,14.213,16.19,3.551,16.19,3.551L70.066,97.952S50.736,143.165,51.288,146" transform="translate(12.921 24.683)" fill="#e04e1b"/>
            <path id="Trazado_861930" data-name="Trazado 861930" d="M54.4,132.072a56.884,56.884,0,0,0,24.236,15.239" transform="translate(13.708 33.281)" fill="none" stroke="#000" stroke-linecap="round" stroke-linejoin="round" stroke-width="0.5"/>
            <path id="Trazado_861931" data-name="Trazado 861931" d="M33.527,83.387c2.51-5.613,21.458-18.545,24.562-17.525S69.7,89.02,68.658,93.062s-16.412,17.108-21.4,16.354S31.865,87.1,33.527,83.387" transform="translate(8.404 16.582)" fill="#a85c3c"/>
            <path id="Trazado_861932" data-name="Trazado 861932" d="M44.929,94.242s-8.8,37.657-7.6,63.989,36.556,51.355,41.619,49.295S74.459,175.16,69.3,156.866s-13.7-63.288-13.7-63.288Z" transform="translate(9.377 23.581)" fill="#a85c3c"/>
            <path id="Trazado_861933" data-name="Trazado 861933" d="M36.818,86.372c3.418-2.172,13.547-9.8,19.337-14.206" transform="translate(9.278 18.185)" fill="none" stroke="#000" stroke-linecap="round" stroke-linejoin="round" stroke-width="0.5"/>
            <path id="Trazado_861934" data-name="Trazado 861934" d="M39.854,91.664C43.316,89.393,54.3,81.21,59.471,77.115" transform="translate(10.043 19.432)" fill="none" stroke="#000" stroke-linecap="round" stroke-linejoin="round" stroke-width="0.5"/>
            <path id="Trazado_861935" data-name="Trazado 861935" d="M43.935,97.16c5.635-4.416,11.343-9.222,16.533-13.926" transform="translate(11.071 20.974)" fill="none" stroke="#000" stroke-linecap="round" stroke-linejoin="round" stroke-width="0.5"/>
            <path id="Trazado_861936" data-name="Trazado 861936" d="M84.548,49.936s-6.08-23.222-2.773-30.025,7.836-4.389,8.912-5.614S94.343,2.075,103.565.644s25.443.868,27.545.3,7.776-2.1,8.751.642-.656,9.168-.656,9.168,6.045.366,6.22,9.762-2.832,28.733-2.832,28.733Z" transform="translate(20.359 0)" fill="#303457"/>
            <path id="Trazado_861937" data-name="Trazado 861937" d="M108.639,29.49c-9.5-.864-19.594-3.517-27.821-9.188-.383,9.361,3.73,25.079,3.73,25.079l58.045-.69s2.6-16.71,2.822-26.612c-10.662,8.057-24.266,12.246-36.776,11.412" transform="translate(20.359 4.556)" fill="#222943"/>
            <path id="Trazado_861938" data-name="Trazado 861938" d="M102.265,66.965l.76,19.014,14.8.592L116.669,66.92Z" transform="translate(25.77 16.863)" fill="#8c3e26"/>
            <path id="Trazado_861939" data-name="Trazado 861939" d="M87.085,40.773s-3.221-12.608-8.292-10.234-6.144,19.67-2.272,23.32,12.5.949,12.531-.3-1.967-12.783-1.967-12.783" transform="translate(18.695 7.621)" fill="#8c3e26"/>
            <path id="Trazado_861940" data-name="Trazado 861940" d="M129.906,41.858s3.87-12.424,8.812-9.791,5.118,19.962,1.064,23.406-12.532.3-12.5-.95,2.625-12.665,2.625-12.665" transform="translate(32.074 7.989)" fill="#8c3e26"/>
            <path id="Trazado_861941" data-name="Trazado 861941" d="M78.792,33.337c2.118,2.15,3.6,5.947,4.552,8.838-5.981,4.448-1.891,4.393-.774,6.5" transform="translate(19.855 8.401)" fill="none" stroke="#000" stroke-linecap="round" stroke-linejoin="round" stroke-width="0.5"/>
            <path id="Trazado_861942" data-name="Trazado 861942" d="M141.478,44.982c-.944-19.922-8.236-29.036-15.887-33.227.91,2.239,1.342,4.982-1.358,5.958-3.8,1.375-10.964-6.195-13.878-9.525A18.985,18.985,0,0,0,102,10.71c-1.551,2.533-4.117,6.612-6.219,9.4s-5.877,5.535-8.267,7.119a49.374,49.374,0,0,0-3.722,20.645c.515,28.505,13.148,36.347,29.106,36.76,15.019.388,30.2-5.48,28.578-39.651" transform="translate(21.113 2.063)" fill="#a85c3c"/>
            <g id="Grupo_1088034" data-name="Grupo 1088034" transform="translate(106.423 46.148)" opacity="0.6">
              <g id="Grupo_1088033" data-name="Grupo 1088033">
                <g id="Grupo_1088032" data-name="Grupo 1088032" clip-path="url(#clip-path-4)">
                  <path id="Trazado_861943" data-name="Trazado 861943" d="M104.2,46.458a9.6,9.6,0,1,1-9.6-9.6,9.6,9.6,0,0,1,9.6,9.6" transform="translate(-85.003 -36.86)" fill="#8c3e26"/>
                </g>
              </g>
            </g>
            <g id="Grupo_1088037" data-name="Grupo 1088037" transform="translate(141.729 46.148)" opacity="0.6">
              <g id="Grupo_1088036" data-name="Grupo 1088036">
                <g id="Grupo_1088035" data-name="Grupo 1088035" clip-path="url(#clip-path-4)">
                  <path id="Trazado_861944" data-name="Trazado 861944" d="M132.4,46.458a9.6,9.6,0,1,1-9.6-9.6,9.6,9.6,0,0,1,9.6,9.6" transform="translate(-113.203 -36.86)" fill="#8c3e26"/>
                </g>
              </g>
            </g>
            <path id="Trazado_861945" data-name="Trazado 861945" d="M92.833,29.693a76.629,76.629,0,0,1,8.778-.4c2.342.218,5.306.607,5.318.138s-2.081-4.281-3.171-4.465-8.7,3.218-10.925,4.726" transform="translate(23.393 6.29)" fill="#222943"/>
            <path id="Trazado_861946" data-name="Trazado 861946" d="M100.635,36.494a1.2,1.2,0,1,1-2.4-.061l.051-1.982a1.2,1.2,0,1,1,2.4.063Z" transform="translate(24.755 8.387)"/>
            <path id="Trazado_861947" data-name="Trazado 861947" d="M136.35,34.8c-2.227,2.037-3.906,5.753-5,8.59,5.742,4.751,1.659,4.486.437,6.529" transform="translate(33.099 8.769)" fill="none" stroke="#000" stroke-linecap="round" stroke-linejoin="round" stroke-width="0.5"/>
            <path id="Trazado_861948" data-name="Trazado 861948" d="M124.39,30.547a76.951,76.951,0,0,0-8.744-.853c-2.352.1-5.333.333-5.32-.135s2.3-4.17,3.4-4.3,8.516,3.665,10.667,5.285" transform="translate(27.801 6.365)" fill="#222943"/>
            <path id="Trazado_861949" data-name="Trazado 861949" d="M113.881,36.838a1.2,1.2,0,0,0,2.4.063l.051-1.982a1.2,1.2,0,0,0-2.4-.061Z" transform="translate(28.697 8.489)"/>
            <path id="Trazado_861950" data-name="Trazado 861950" d="M103.8,43.237a21.382,21.382,0,0,0,3.7,2.287" transform="translate(26.156 10.895)" fill="none" stroke="#000" stroke-linecap="round" stroke-linejoin="round" stroke-width="0.5"/>
            <path id="Trazado_861951" data-name="Trazado 861951" d="M108.247,45.735c1.146-.84,2.515-1.872,3.618-2.724" transform="translate(27.277 10.838)" fill="none" stroke="#000" stroke-linecap="round" stroke-linejoin="round" stroke-width="0.5"/>
            <path id="Trazado_861952" data-name="Trazado 861952" d="M97.106,47.232c3.766,2.057,8.486,4.748,12.5,6.9" transform="translate(24.47 11.902)" fill="none" stroke="#000" stroke-linecap="round" stroke-linejoin="round" stroke-width="0.5"/>
            <path id="Trazado_861953" data-name="Trazado 861953" d="M109.216,54.652a48.279,48.279,0,0,0,12.919-9.215" transform="translate(27.522 11.45)" fill="none" stroke="#000" stroke-linecap="round" stroke-linejoin="round" stroke-width="0.5"/>
            <path id="Trazado_861954" data-name="Trazado 861954" d="M82.272,48.056s-.431.19-1.192.485c-.386.14-.8.389-1.288.6a12.26,12.26,0,0,0-1.5.953,6.483,6.483,0,0,0-1.36,1.383,4.8,4.8,0,0,0-.724,1.842,6.531,6.531,0,0,0,1.111,4.251,8.517,8.517,0,0,0,1.506,1.84,7.541,7.541,0,0,0,1.849,1.328,5.7,5.7,0,0,0,1.969.6,4.562,4.562,0,0,0,1.844-.212,3.774,3.774,0,0,0,.8-.344,3.634,3.634,0,0,0,.7-.428,10.062,10.062,0,0,0,1.079-.889l.873-.925-.115.316c-.081.2-.173.522-.353.9a7.041,7.041,0,0,1-.823,1.292,5.6,5.6,0,0,1-4,2.16,6.42,6.42,0,0,1-2.848-.439,9.44,9.44,0,0,1-4.61-3.871,8.943,8.943,0,0,1-1.188-2.9,7.192,7.192,0,0,1,.05-3.139,5.875,5.875,0,0,1,1.446-2.573,6.421,6.421,0,0,1,2.061-1.421,8.6,8.6,0,0,1,1.913-.622,12.394,12.394,0,0,1,1.5-.183c.816-.014,1.287,0,1.287,0" transform="translate(18.613 12.108)" fill="#f2b705"/>
            <path id="Trazado_861955" data-name="Trazado 861955" d="M121.284,2.571c1.492-.634,2.881-1.228,4.382-1.878" transform="translate(30.563 0.175)" fill="none" stroke="#fff" stroke-linecap="round" stroke-linejoin="round" stroke-width="0.8"/>
            <path id="Trazado_861956" data-name="Trazado 861956" d="M128.034,10.693a11.855,11.855,0,0,1,4.069,3.13" transform="translate(32.264 2.695)" fill="none" stroke="#fff" stroke-linecap="round" stroke-linejoin="round" stroke-width="0.8"/>
            <path id="Trazado_861957" data-name="Trazado 861957" d="M105.784,42.193a4.34,4.34,0,0,0,4.382,0" transform="translate(26.657 10.632)" fill="none" stroke="#fff" stroke-linecap="round" stroke-linejoin="round" stroke-width="0.8"/>
            <path id="Trazado_861958" data-name="Trazado 861958" d="M123.034,4.758c.527-.427,1.255-1.033,1.878-1.565" transform="translate(31.004 0.805)" fill="none" stroke="#fff" stroke-linecap="round" stroke-linejoin="round" stroke-width="0.8"/>
            <path id="Trazado_861959" data-name="Trazado 861959" d="M106.722,77.78c1.6.041,8.655,4.294,12.723,4.4s12.3-3.438,13.865-3.4,15.922,9.91,18.1,10.279,23.167,8.114,24.354,10.649-8.053,77.337-8.127,80.153,10.165,66.954,8.825,70.363-21.255,10.722-42.589,12.361-50.985-1.944-51.265-3.2-.3-72.961-.239-75.465-17.706-78.107-16.067-80.882S86.341,91.029,88.25,89.827,105.157,77.74,106.722,77.78" transform="translate(16.682 19.6)" fill="#f27405"/>
            <path id="Trazado_861960" data-name="Trazado 861960" d="M79.093,177.21c0,21.776.068,59.54.27,60.452.279,1.26,29.931,4.843,51.265,3.205s41.248-8.953,42.589-12.361c1.119-2.85-5.842-48.08-8.12-64.531a131.323,131.323,0,0,1-33.495,17.8c-16.242,5.734-34.673,1.983-52.51-4.566" transform="translate(19.931 41.32)" fill="#e04e1b"/>
            <path id="Trazado_861961" data-name="Trazado 861961" d="M98.213,81.772c7.891,7.357,19.769,8.51,29.949,4.219" transform="translate(24.749 20.606)" fill="none" stroke="#000" stroke-linecap="round" stroke-linejoin="round" stroke-width="0.5"/>
            <path id="Trazado_861962" data-name="Trazado 861962" d="M88.121,104.519c12.689,9.379,26.939,16.829,40.695,24.535" transform="translate(22.206 26.338)" fill="none" stroke="#000" stroke-linecap="round" stroke-linejoin="round" stroke-width="0.5"/>
            <path id="Trazado_861963" data-name="Trazado 861963" d="M111.965,112.67c2.763-2.835,5.8-5.931,8.683-8.855" transform="translate(28.214 26.161)" fill="none" stroke="#000" stroke-linecap="round" stroke-linejoin="round" stroke-width="0.5"/>
          </g>
        </g>
      </g>
    </g>
  </g>
</svg>
