<svg xmlns="http://www.w3.org/2000/svg" xmlns:xlink="http://www.w3.org/1999/xlink" width="259.911" height="462.19" viewBox="0 0 259.911 462.19">
  <defs>
    <clipPath id="clip-path">
      <rect id="Rectángulo_396130" data-name="Rectángulo 396130" width="259.911" height="462.19" fill="#fff" stroke="#707070" stroke-width="1" opacity="0.84"/>
    </clipPath>
    <clipPath id="clip-path-2">
      <path id="Trazado_857949" data-name="Trazado 857949" d="M653.006,304.59c17.432,6.649,35.355,13.587,49.029,26.422,9.193,8.615,16.015,19.513,22.26,30.556,16.651,29.545,30.007,63.946,22.433,97.133-2.573,11.332-9.54,23.56-20.9,24.717-9.742.983-18.3-6.88-23.156-15.495-4.857-8.644-7.43-18.53-13.009-26.711q-7.285,26.365-14.57,52.7c-.694,2.457-1.416,5.03-3.18,6.88-2.284,2.4-5.782,3.064-9.048,3.469-38.246,4.741-63.079-.347-98.174-16.536,1.59-24.2-1.937-65.8-2.63-90.021-7.834,9.251-24.659,28.735-31.424,38.8-13.587-4.134-28.562-13.3-40.819-20.554,16.218-30.73,42.727-51.168,60.939-79.99,3.267-5.146,6.533-10.436,11.072-14.454,9.106-8.066,21.884-10.06,33.939-10.638s20.265-1.359,31.51-5.84l25.671-.434Z" transform="translate(-489.818 -304.59)" fill="none"/>
    </clipPath>
  </defs>
  <g id="f1" clip-path="url(#clip-path)">
    <g id="Grupo_1085963" data-name="Grupo 1085963" transform="translate(0.156 6.82)">
      <path id="Trazado_857939" data-name="Trazado 857939" d="M550.158,281.73c1.185,2.342.434,5.261-.983,7.487-1.416,2.2-3.44,3.96-5.059,6.013-1.648,2.052-2.92,4.625-2.515,7.227.607,3.845,4.741,6.447,5.146,10.32a5.91,5.91,0,0,1-4.539,6.215c2.92.809,6.129-1.272,7.227-4.163a10.027,10.027,0,0,0-1.359-8.817c-1.041-1.59-2.486-3.151-2.428-5.088.029-1.85,1.445-3.325,2.659-4.683a17.188,17.188,0,0,0,3.961-6.794,8.665,8.665,0,0,0-1.3-7.574l-.81-.144Z" transform="translate(-441.866 -233.709)" fill="#5e340e"/>
      <path id="Trazado_857940" data-name="Trazado 857940" d="M653.006,304.59c17.432,6.649,35.355,13.587,49.029,26.422,9.193,8.615,16.015,19.513,22.26,30.556,16.651,29.545,30.007,63.946,22.433,97.133-2.573,11.332-9.54,23.56-20.9,24.717-9.742.983-18.3-6.88-23.156-15.495-4.857-8.644-7.43-18.53-13.009-26.711q-7.285,26.365-14.57,52.7c-.694,2.457-1.416,5.03-3.18,6.88-2.284,2.4-5.782,3.064-9.048,3.469-38.246,4.741-63.079-.347-98.174-16.536,1.59-24.2-1.937-65.8-2.63-90.021-7.834,9.251-24.659,28.735-31.424,38.8-13.587-4.134-28.562-13.3-40.819-20.554,14.31-32.7,42.727-51.168,60.939-79.99,3.267-5.146,6.533-10.436,11.072-14.454,9.106-8.066,21.884-10.06,33.939-10.638s20.265-1.359,31.51-5.84l25.671-.434Z" transform="translate(-488.689 -190.484)" fill="#c23f37"/>
      <g id="Grupo_1085962" data-name="Grupo 1085962" transform="translate(1.128 114.106)" clip-path="url(#clip-path-2)">
        <path id="Trazado_857941" data-name="Trazado 857941" d="M513.655,345.848a43.79,43.79,0,0,1-16.565-10.031,18.373,18.373,0,0,1,13.558,1.908,39.116,39.116,0,0,1-5.117-5.146,15.427,15.427,0,0,1,11.332,5.146c-5.522-6.707-11.1-14.339-10.581-22.982a58.42,58.42,0,0,1,14.8,23.445c-2.4-8.673-4.828-17.49-4.481-26.48a108.021,108.021,0,0,1,7.805,25.613c-.058-10.2-.058-20.7,3.642-30.209.26,7.256.52,14.483.781,21.739a61.1,61.1,0,0,1,8.99-17.605c.925,0,1.185,1.3,1.07,2.226-.838,7.458-6.042,13.529-9.4,20.236a3.009,3.009,0,0,0-.376,2.024,37.679,37.679,0,0,1,16.073-13.992,39.472,39.472,0,0,1-12.344,16.276,63.869,63.869,0,0,1,20.756-6.88c-1.648,4.336-5.579,7.43-9.829,9.106s-8.875,2.139-13.414,2.573a33.015,33.015,0,0,1,16.911,6.678c.463,1.937-2.486,2.6-4.394,2.11a36.56,36.56,0,0,1-13.009-6.215c4.683,7.747,14.628,12.489,15.871,21.508a51.961,51.961,0,0,1-16.391-18.212c1.879,8.008,3.787,16.218,2.92,24.428a104.3,104.3,0,0,1-7.14-21.1,22.463,22.463,0,0,1-3.556,16.044c-.521.752-1.214,1.561-2.11,1.561-1.619,0-2.11-2.226-1.966-3.845a36.744,36.744,0,0,1,3.989-13.847,23.506,23.506,0,0,1-14.454,11.419c2.833-4.857,5.7-9.742,8.528-14.6A18.656,18.656,0,0,1,500.53,351.2a11.861,11.861,0,0,1,13.153-5.261Z" transform="translate(-315.545 -299.825)" fill="#6b1212"/>
        <path id="Trazado_857942" data-name="Trazado 857942" d="M538.474,358.308a43.79,43.79,0,0,1-16.564-10.031,18.372,18.372,0,0,1,13.558,1.908,39.11,39.11,0,0,1-5.117-5.146,15.427,15.427,0,0,1,11.332,5.146c-5.521-6.707-11.1-14.339-10.58-22.982a58.422,58.422,0,0,1,14.8,23.445c-2.4-8.673-4.828-17.49-4.481-26.48a108.025,108.025,0,0,1,7.805,25.613c-.058-10.2-.058-20.7,3.643-30.21.26,7.256.52,14.483.781,21.739a61.1,61.1,0,0,1,8.99-17.605c.925,0,1.185,1.3,1.07,2.226-.838,7.458-6.042,13.529-9.4,20.236a3.01,3.01,0,0,0-.376,2.024A37.679,37.679,0,0,1,570.014,334.2a39.474,39.474,0,0,1-12.344,16.276,63.868,63.868,0,0,1,20.756-6.88c-1.648,4.336-5.579,7.43-9.829,9.106s-8.875,2.139-13.414,2.573a33.015,33.015,0,0,1,16.911,6.678c.463,1.937-2.486,2.6-4.394,2.11a36.56,36.56,0,0,1-13.009-6.215c4.683,7.748,14.628,12.489,15.871,21.508a51.961,51.961,0,0,1-16.391-18.212c1.879,8.008,3.787,16.218,2.92,24.428a104.293,104.293,0,0,1-7.14-21.1,22.463,22.463,0,0,1-3.556,16.044c-.52.752-1.214,1.561-2.11,1.561-1.619,0-2.11-2.226-1.966-3.845a36.745,36.745,0,0,1,3.989-13.847A23.507,23.507,0,0,1,531.854,375.8c2.862-4.857,5.695-9.742,8.528-14.6a18.656,18.656,0,0,1-15.032,2.457,11.861,11.861,0,0,1,13.153-5.261Z" transform="translate(-412.115 -276.265)" fill="#6b1212"/>
        <path id="Trazado_857943" data-name="Trazado 857943" d="M546.255,331.038a43.791,43.791,0,0,1-16.565-10.031,18.372,18.372,0,0,1,13.558,1.908,39.123,39.123,0,0,1-5.117-5.146,15.426,15.426,0,0,1,11.332,5.146c-5.521-6.707-11.1-14.339-10.58-22.982a58.421,58.421,0,0,1,14.8,23.445c-2.4-8.672-4.828-17.49-4.481-26.48a108.021,108.021,0,0,1,7.805,25.613c-.058-10.2-.058-20.7,3.643-30.209.26,7.256.52,14.483.781,21.739a61.092,61.092,0,0,1,8.991-17.605c.925,0,1.185,1.3,1.069,2.226-.838,7.458-6.042,13.529-9.4,20.236a3.011,3.011,0,0,0-.376,2.024,37.487,37.487,0,0,1,16.073-13.992A39.469,39.469,0,0,1,565.45,323.2a63.87,63.87,0,0,1,20.756-6.88c-1.648,4.336-5.579,7.43-9.829,9.106S567.5,327.568,562.964,328a33.015,33.015,0,0,1,16.911,6.678c.463,1.937-2.486,2.6-4.394,2.11a36.561,36.561,0,0,1-13.009-6.215c4.683,7.747,14.628,12.488,15.871,21.508a51.96,51.96,0,0,1-16.391-18.212c1.879,8.008,3.787,16.218,2.92,24.428a104.3,104.3,0,0,1-7.14-21.1,22.463,22.463,0,0,1-3.556,16.044c-.52.752-1.214,1.561-2.11,1.561-1.619,0-2.11-2.226-1.966-3.845a36.746,36.746,0,0,1,3.989-13.847,23.507,23.507,0,0,1-14.454,11.419c2.833-4.857,5.695-9.742,8.528-14.6a18.674,18.674,0,0,1-15.032,2.457,11.861,11.861,0,0,1,13.153-5.261Z" transform="translate(-442.386 -327.829)" fill="#6b1212"/>
        <path id="Trazado_857944" data-name="Trazado 857944" d="M562.964,344.668A43.789,43.789,0,0,1,546.4,334.636a18.372,18.372,0,0,1,13.558,1.908,39.126,39.126,0,0,1-5.117-5.146,15.427,15.427,0,0,1,11.332,5.146c-5.522-6.707-11.1-14.339-10.58-22.982a58.421,58.421,0,0,1,14.8,23.445c-2.4-8.673-4.828-17.49-4.481-26.48a108.028,108.028,0,0,1,7.805,25.613c-.058-10.2-.058-20.7,3.643-30.209.26,7.256.52,14.483.781,21.739a61.1,61.1,0,0,1,8.99-17.605c.925,0,1.185,1.3,1.07,2.226-.838,7.458-6.042,13.529-9.4,20.236a3.011,3.011,0,0,0-.376,2.024A37.68,37.68,0,0,1,594.5,320.558a39.471,39.471,0,0,1-12.344,16.276,63.868,63.868,0,0,1,20.756-6.88c-1.648,4.336-5.579,7.429-9.829,9.106s-8.875,2.139-13.414,2.573a33.016,33.016,0,0,1,16.911,6.678c.462,1.937-2.486,2.6-4.394,2.11a36.562,36.562,0,0,1-13.009-6.215c4.683,7.747,14.628,12.488,15.871,21.508A51.96,51.96,0,0,1,578.662,347.5c1.879,8.008,3.787,16.218,2.92,24.428a104.3,104.3,0,0,1-7.14-21.1,22.462,22.462,0,0,1-3.556,16.044c-.52.752-1.214,1.561-2.11,1.561-1.619,0-2.11-2.226-1.966-3.845a36.752,36.752,0,0,1,3.99-13.847,23.507,23.507,0,0,1-14.454,11.419c2.833-4.857,5.695-9.742,8.528-14.6a18.656,18.656,0,0,1-15.032,2.457,11.861,11.861,0,0,1,13.153-5.261Z" transform="translate(-507.402 -302.056)" fill="#6b1212"/>
        <path id="Trazado_857945" data-name="Trazado 857945" d="M568.764,372.788A43.79,43.79,0,0,1,552.2,362.756a18.372,18.372,0,0,1,13.558,1.908,39.117,39.117,0,0,1-5.117-5.146,15.427,15.427,0,0,1,11.332,5.146c-5.521-6.707-11.1-14.339-10.58-22.982a58.422,58.422,0,0,1,14.8,23.445c-2.4-8.673-4.828-17.49-4.481-26.48a108.026,108.026,0,0,1,7.805,25.613c-.058-10.2-.058-20.7,3.642-30.21.26,7.256.52,14.483.781,21.739a61.1,61.1,0,0,1,8.991-17.605c.925,0,1.185,1.3,1.07,2.226-.838,7.458-6.042,13.529-9.4,20.236a3.011,3.011,0,0,0-.376,2.024A37.489,37.489,0,0,1,600.3,348.678a39.471,39.471,0,0,1-12.344,16.276,63.872,63.872,0,0,1,20.756-6.88c-1.648,4.336-5.579,7.43-9.829,9.106s-8.875,2.139-13.414,2.573a33.015,33.015,0,0,1,16.911,6.678c.462,1.937-2.486,2.6-4.394,2.11a36.561,36.561,0,0,1-13.009-6.215c4.683,7.747,14.628,12.489,15.871,21.508a51.961,51.961,0,0,1-16.391-18.212c1.879,8.008,3.787,16.218,2.92,24.428a104.305,104.305,0,0,1-7.14-21.1,22.463,22.463,0,0,1-3.556,16.044c-.52.752-1.214,1.561-2.11,1.561-1.619,0-2.11-2.226-1.966-3.845a36.748,36.748,0,0,1,3.989-13.847,23.506,23.506,0,0,1-14.454,11.419c2.833-4.857,5.695-9.742,8.528-14.6a18.674,18.674,0,0,1-15.032,2.457,11.862,11.862,0,0,1,13.153-5.261Z" transform="translate(-529.969 -248.885)" fill="#6b1212"/>
        <path id="Trazado_857946" data-name="Trazado 857946" d="M546.754,390.468a43.793,43.793,0,0,1-16.565-10.031,18.372,18.372,0,0,1,13.558,1.908,39.115,39.115,0,0,1-5.117-5.146,15.427,15.427,0,0,1,11.332,5.146c-5.521-6.707-11.1-14.339-10.581-22.982a58.419,58.419,0,0,1,14.8,23.445c-2.4-8.673-4.828-17.49-4.481-26.48a108.021,108.021,0,0,1,7.805,25.613c-.058-10.2-.058-20.7,3.642-30.209.26,7.256.52,14.483.781,21.739a61.1,61.1,0,0,1,8.99-17.605c.925,0,1.185,1.3,1.07,2.226-.838,7.458-6.042,13.529-9.4,20.236a3.009,3.009,0,0,0-.376,2.024,37.488,37.488,0,0,1,16.073-13.992,39.472,39.472,0,0,1-12.344,16.276,63.868,63.868,0,0,1,20.756-6.88c-1.648,4.336-5.579,7.429-9.829,9.106S568,387,563.464,387.432a33.015,33.015,0,0,1,16.911,6.678c.463,1.937-2.486,2.6-4.394,2.11A36.562,36.562,0,0,1,562.972,390c4.683,7.747,14.628,12.489,15.871,21.508A51.962,51.962,0,0,1,562.452,393.3c1.879,8.008,3.787,16.218,2.92,24.428a104.292,104.292,0,0,1-7.14-21.1,22.463,22.463,0,0,1-3.556,16.044c-.52.752-1.214,1.561-2.11,1.561-1.619,0-2.11-2.226-1.966-3.845a36.744,36.744,0,0,1,3.989-13.847,23.508,23.508,0,0,1-14.454,11.419c2.862-4.857,5.695-9.742,8.528-14.6a18.674,18.674,0,0,1-15.033,2.457,11.861,11.861,0,0,1,13.153-5.261Z" transform="translate(-444.332 -215.455)" fill="#6b1212"/>
        <path id="Trazado_857947" data-name="Trazado 857947" d="M521.114,385.248a43.792,43.792,0,0,1-16.564-10.031,18.372,18.372,0,0,1,13.558,1.908,39.125,39.125,0,0,1-5.117-5.146,15.427,15.427,0,0,1,11.332,5.146c-5.521-6.707-11.1-14.339-10.581-22.982a58.419,58.419,0,0,1,14.8,23.445c-2.4-8.673-4.828-17.49-4.481-26.48a108.018,108.018,0,0,1,7.805,25.613c-.058-10.2-.058-20.7,3.643-30.209.26,7.256.52,14.483.781,21.739a61.749,61.749,0,0,1,8.962-17.605c.925,0,1.185,1.3,1.07,2.226-.838,7.458-6.042,13.529-9.4,20.236a3.011,3.011,0,0,0-.376,2.024,37.488,37.488,0,0,1,16.073-13.992,39.47,39.47,0,0,1-12.344,16.276,63.868,63.868,0,0,1,20.756-6.88c-1.648,4.336-5.579,7.429-9.829,9.106s-8.875,2.139-13.414,2.573a33.015,33.015,0,0,1,16.912,6.678c.463,1.937-2.486,2.6-4.394,2.11a36.562,36.562,0,0,1-13.009-6.215c4.683,7.747,14.628,12.489,15.871,21.508a51.961,51.961,0,0,1-16.391-18.212c1.879,8.008,3.787,16.218,2.92,24.428a104.292,104.292,0,0,1-7.14-21.1,22.463,22.463,0,0,1-3.556,16.044c-.52.752-1.214,1.561-2.11,1.561-1.619,0-2.11-2.226-1.966-3.845a36.747,36.747,0,0,1,3.989-13.847,23.507,23.507,0,0,1-14.454,11.419c2.833-4.857,5.695-9.742,8.528-14.6a18.655,18.655,0,0,1-15.032,2.457,11.861,11.861,0,0,1,13.153-5.261Z" transform="translate(-344.541 -225.325)" fill="#6b1212"/>
        <path id="Trazado_857948" data-name="Trazado 857948" d="M497.935,378.008a43.792,43.792,0,0,1-16.565-10.031,18.372,18.372,0,0,1,13.558,1.908,39.118,39.118,0,0,1-5.117-5.146,15.427,15.427,0,0,1,11.332,5.146c-5.522-6.707-11.1-14.339-10.581-22.982a58.421,58.421,0,0,1,14.8,23.445c-2.4-8.673-4.828-17.49-4.481-26.48a108.014,108.014,0,0,1,7.805,25.613c-.058-10.2-.058-20.7,3.642-30.21.26,7.256.52,14.483.781,21.739A61.09,61.09,0,0,1,522.1,343.4c.925,0,1.185,1.3,1.07,2.226-.838,7.458-6.042,13.529-9.4,20.236a3.011,3.011,0,0,0-.376,2.024A37.488,37.488,0,0,1,529.474,353.9a39.473,39.473,0,0,1-12.344,16.276,63.87,63.87,0,0,1,20.756-6.88c-1.648,4.336-5.579,7.43-9.829,9.106s-8.875,2.139-13.414,2.573a33.015,33.015,0,0,1,16.912,6.678c.463,1.937-2.486,2.6-4.394,2.11a36.56,36.56,0,0,1-13.009-6.215c4.683,7.747,14.628,12.488,15.871,21.508a51.962,51.962,0,0,1-16.391-18.212c1.879,8.008,3.787,16.218,2.92,24.428a104.307,104.307,0,0,1-7.14-21.1,22.462,22.462,0,0,1-3.556,16.044c-.52.752-1.214,1.561-2.11,1.561-1.619,0-2.11-2.226-1.966-3.845a36.746,36.746,0,0,1,3.989-13.847A23.507,23.507,0,0,1,491.314,395.5c2.833-4.857,5.695-9.742,8.528-14.6a18.656,18.656,0,0,1-15.032,2.457,11.861,11.861,0,0,1,13.153-5.261Z" transform="translate(-254.38 -239.015)" fill="#6b1212"/>
      </g>
      <path id="Trazado_857950" data-name="Trazado 857950" d="M564.12,283.679c3.787,4.914,3.989,12.431,2.92,18.993-.867,5.29-2.544,10.7-6.071,14.05-2.284,2.168-5.088,3.267-7.661,4.914-2.544,1.648-5.03,4.134-5.55,7.545s1.908,7.458,4.741,6.736a10.235,10.235,0,0,1-14.281-.491c-3.5-3.585-4.828-9.222-7.372-13.789-3.816-6.794-10.609-11.072-17.461-10.956L564.15,283.65Z" transform="translate(-375.52 -230.078)" fill="#5e340e"/>
      <path id="Trazado_857951" data-name="Trazado 857951" d="M521.188,273.55c-2.313,15.929-5.666,39.4-6.1,55.5-.115,4.105-.115,8.412,1.764,12.084,3.671,7.169,12.806,8.962,20.7,9.916,0,10.378.9,13.182.9,23.56a10.291,10.291,0,0,0,.983,5.377c1.185,1.995,3.5,2.891,5.695,3.556,10.638,3.093,17,3.556,27.376-.376a6.006,6.006,0,0,0,2.775-1.706,6.617,6.617,0,0,0,.983-3.816c.925-17.172.954-26.769,1.879-43.941a12.185,12.185,0,0,0,14.917-2.66,12.753,12.753,0,0,0,.376-15.408,12.191,12.191,0,0,0-14.772-3.411c-.665-11.534-2.486-26.191-3.151-37.726-17.23.723-54.29-.9-54.29-.9Z" transform="translate(-408.56 -249.176)" fill="#f6a472"/>
      <path id="Trazado_857952" data-name="Trazado 857952" d="M520.1,443.57c-1.3-18.848,1.5-37.928-1.879-56.487-.752-4.192-1.648-8.5-4.076-11.968-1.59-2.226-3.729-3.989-5.551-6.013-2.891-3.238-4.886-7.169-6.851-11.072-4.423-8.73-8.962-18.1-7.6-27.926a2.2,2.2,0,0,1,1.474-1.879c.9-.289,1.5.318,1.995.9,2.2,2.688,3.267,6.129,5.117,9.077,2.081,3.267,5.9,6.1,9.626,4.279a6.27,6.27,0,0,0,3.122-7.111c-1.243-5.261-7.025-7.2-11.708-5.984-1.358.347-2.688.925-4.1.578a2.484,2.484,0,0,1-1.532-1.156,2.223,2.223,0,0,1,.434-2.486c5.464-7.458,18.01-7.776,23.821-.578-.434-9.916-.867-19.8-1.272-29.718-.087-2.11-.144-4.394,1.388-6.042a2.851,2.851,0,0,1,3.007-.867c1.359.434,1.705,1.735,1.995,2.92,1.59,6.475,3.209,12.951,4.8,19.427.925-3.613,1.821-7.2,2.746-10.812.463-1.792.954-3.671,2.6-4.712a2.612,2.612,0,0,1,2.631-.173c1.359.723,1.417,2.313,1.417,3.7a305.055,305.055,0,0,1-2.255,34.835l15-15.958a1.782,1.782,0,0,1,1.735-.52c1.359.4,1.041,2.284.491,3.5a93.106,93.106,0,0,1-13.385,21.306c-1.619,1.908-3.353,3.874-3.932,6.331-.463,1.966-1.532,15.726-1.735,18.588-.347,4.51,13.587,54.435,19.889,70.826a36.24,36.24,0,0,1-30.152,6.822l-7.227-1.59Z" transform="translate(-309.1 -220.016)" fill="#f6a472"/>
      <path id="Trazado_857953" data-name="Trazado 857953" d="M595.3,330.613c1.33.491,2.746-.636,3.527-1.821,3.122-4.683,2.284-11.014.434-16.362-1.821-5.348-4.539-10.523-4.857-16.189-.2-3.758.607-7.863-1.445-10.985-1.185-1.821-3.151-2.949-5.03-4.018q-10.1-5.637-20.207-11.3a35.492,35.492,0,0,0-7.372-3.411,26.138,26.138,0,0,0-9.829-.607c-4.972.463-10,1.677-14.05,4.654-3.527,2.6-6.042,6.418-9.569,9.02-2.139,1.59-4.6,2.688-6.707,4.336A17.4,17.4,0,0,0,513.6,298.09c.231,6.707,4.307,13.009,3.642,19.658l9.713-16.3a15.708,15.708,0,0,1,3.671-4.683c3.151-2.37,7.459-1.879,11.39-1.995,3.9-.087,8.557-1.532,9.569-5.377,1.185,6.591,10.9,7.169,14.483,12.806,2.053,3.238,1.59,7.4,2.053,11.245.694,5.9,4.423,11.968,10.176,13.067,2.6.491,5.377-.029,8.037-.231a9.854,9.854,0,0,1,8.933,4.307h0Z" transform="translate(-409.413 -263.974)" fill="#5e340e"/>
      <path id="Trazado_857954" data-name="Trazado 857954" d="M511.041,301.519c5.868,2.891,4.77,12.026,11.3,12.315,3.527.144,6.851-1.763,9.54-4.105,6.736-5.868,10.754-15.033,9.8-23.994s-7.169-17.316-15.639-19.976a9.635,9.635,0,0,0-8.846.983,21.033,21.033,0,0,0-10.147,17.894l3.96,16.883Z" transform="translate(-331.432 -265.119)" fill="#5e340e"/>
      <path id="Trazado_857955" data-name="Trazado 857955" d="M569.446,300.974c-2.746,3.816-6.447,7.776-11.1,7.632-4.1-.145-7.343-3.469-9.974-6.707a41.111,41.111,0,0,1-6.5-10.118,17.851,17.851,0,0,1-1.012-11.853c1.648-5.493,6.533-9.366,11.679-11.737a20.025,20.025,0,0,1,8.9-2.168,13.639,13.639,0,0,1,10.725,5.9,14.324,14.324,0,0,1,1.792,12.286l-4.481,16.767Z" transform="translate(-460.199 -263.418)" fill="#5e340e"/>
      <path id="Trazado_857956" data-name="Trazado 857956" d="M524.834,274.117c-1.388,2.775-3.151,6.649-1.243,9.6,1.474,2.284,4.568,2.862,6.851,3.989a8.3,8.3,0,0,1,3.122,2.515,9.844,9.844,0,0,1,1.5,4.654,21.657,21.657,0,0,0,.867,4.885,10.748,10.748,0,0,0,2.66,4.018c2.978,2.92,7.169,4.047,11.216,4.278.925.058.954,1.5,0,1.474a19.6,19.6,0,0,1-10.9-3.556,13.881,13.881,0,0,1-3.44-3.787,12.734,12.734,0,0,1-1.619-5,20.468,20.468,0,0,0-.925-5.117,5.925,5.925,0,0,0-3.036-3.007c-2.544-1.33-5.608-1.908-7.372-4.336-2.515-3.44-.607-7.979,1.07-11.332.4-.838,1.677-.116,1.272.723h0Z" transform="translate(-381.331 -250.176)" fill="#351a04"/>
      <path id="Trazado_857957" data-name="Trazado 857957" d="M516.739,281.182c3.989,7.863,2.544,17-.145,25.006-.838,2.457-1.763,4.886-2.717,7.285-.347.867-1.763.491-1.416-.376,3.035-7.805,6.3-16.131,5.03-24.688a21.545,21.545,0,0,0-2.024-6.5c-.434-.838.838-1.59,1.272-.723h0Z" transform="translate(-324.294 -235.473)" fill="#351a04"/>
      <path id="Trazado_857958" data-name="Trazado 857958" d="M557.564,280.7a6.921,6.921,0,0,0,.318-4.047,7.551,7.551,0,0,0-2.284-3.671c-1.879-1.821-4.51-3.96-7.314-3.44-2.313.462-3.874,2.6-4.423,4.8a9.492,9.492,0,0,0,1.706,7.372,16.181,16.181,0,0,0,2.66,3.122c.954.9,2.11,1.908,3.527,1.792,1.532-.116,1.908-1.474,2.052-2.775a4.948,4.948,0,0,0-.665-3.787,4.345,4.345,0,0,0-5.869-.636,7.105,7.105,0,0,0-2.37,7c.549,2.891,2.284,6.1,4.886,7.661a4.746,4.746,0,0,0,3.787.607,3.477,3.477,0,0,0,2.515-2.371.734.734,0,0,1,1.416.376c-.752,2.8-4.047,4.163-6.707,3.382-3.18-.9-5.348-3.96-6.562-6.851-1.272-3.093-1.359-6.794.752-9.54a6.036,6.036,0,0,1,7.6-1.937,4.955,4.955,0,0,1,2.573,3.122,7.277,7.277,0,0,1,.145,2.631,8.31,8.31,0,0,1-.521,2.544,3.493,3.493,0,0,1-3.816,1.966,7.671,7.671,0,0,1-4.163-2.6,14.35,14.35,0,0,1-4.51-8.673,8.643,8.643,0,0,1,3.382-7.661c2.8-2.024,6.273-.983,8.817.925a15.829,15.829,0,0,1,3.816,3.787,7.885,7.885,0,0,1,1.272,4.741,9.308,9.308,0,0,1-.52,2.486c-.347.867-1.734.492-1.417-.376h0Z" transform="translate(-451.006 -259.709)" fill="#351a04"/>
      <path id="Trazado_857959" data-name="Trazado 857959" d="M509.742,280.52c.145-3.845,1.272-7.863,4.134-10.581a9.451,9.451,0,0,1,9.916-2.284c3.238,1.3,5.55,4.307,6.967,7.4a19.632,19.632,0,0,1,1.734,10.812c-.491,3.382-2.457,7.545-6.042,8.528-3.643.983-7.719-2.168-8.412-5.724a5.431,5.431,0,0,1,1.33-4.77,4.252,4.252,0,0,1,4.741-.925c3.18,1.3,5,4.857,5.435,8.123a10.672,10.672,0,0,1-2.631,8.817,9.365,9.365,0,0,1-9.4,2.2,8.842,8.842,0,0,1-2.284-1.128c-.781-.52-.029-1.792.752-1.272a7.868,7.868,0,0,0,8.181.434,8.1,8.1,0,0,0,3.96-6.5,10.377,10.377,0,0,0-2.4-7.719c-.954-1.07-2.37-2.11-3.874-1.821a3.334,3.334,0,0,0-2.486,3.007c-.347,3.122,3.093,6.389,6.186,5.955,3.122-.434,4.857-4.163,5.377-6.88a17.5,17.5,0,0,0-.954-9.193,14.4,14.4,0,0,0-5.233-7.2,7.745,7.745,0,0,0-9.28.665c-2.978,2.428-4.134,6.36-4.25,10.06-.029.925-1.5.954-1.474,0h0Z" transform="translate(-330.046 -261.436)" fill="#351a04"/>
      <path id="Trazado_857960" data-name="Trazado 857960" d="M536.012,267.605a29.037,29.037,0,0,0-5.579,17.634.738.738,0,0,1-1.475,0,30.357,30.357,0,0,1,5.782-18.386c.549-.752,1.821,0,1.272.752h0Z" transform="translate(-389.069 -262.426)" fill="#351a04"/>
      <path id="Trazado_857961" data-name="Trazado 857961" d="M517.894,272.565a16.276,16.276,0,0,1,17.345,12.806,17.521,17.521,0,0,1,.26,6.013,16.831,16.831,0,0,1-.694,2.949,7.571,7.571,0,0,0-.636,3.267,5.728,5.728,0,0,0,3.122,4.018,19.642,19.642,0,0,0,6.129,1.763,12.743,12.743,0,0,1,6.36,2.746,6.114,6.114,0,0,1,2.081,5.724c-.2.925-1.619.52-1.417-.376a4.79,4.79,0,0,0-2.053-4.6,12.559,12.559,0,0,0-5.666-2.139c-3.585-.694-7.863-1.59-9.511-5.29-.867-1.937-.318-3.758.289-5.695a15.463,15.463,0,0,0-3.989-15.784,15.014,15.014,0,0,0-11.592-3.96c-.925.087-.925-1.388,0-1.474h0Z" transform="translate(-371.009 -251.168)" fill="#351a04"/>
      <path id="Trazado_857962" data-name="Trazado 857962" d="M520.453,271.672c3.006,2.371,6.1,4.857,8.008,8.239a13.359,13.359,0,0,1,1.706,5.348,15.639,15.639,0,0,1-.81,5.406c-.549,1.879-1.243,4.018-.376,5.9.376.838-.867,1.59-1.272.752-1.619-3.527.694-6.909.983-10.407.347-3.816-1.734-7.285-4.307-9.916a49.167,49.167,0,0,0-4.943-4.25c-.752-.578.289-1.619,1.041-1.041h0Z" transform="translate(-354.864 -252.993)" fill="#351a04"/>
      <path id="Trazado_857963" data-name="Trazado 857963" d="M522.447,276.243a8.9,8.9,0,0,1,.578,3.238.734.734,0,0,1-.723.723.716.716,0,0,1-.723-.723,7.069,7.069,0,0,0-.029-.78v-.173a1.961,1.961,0,0,0-.058-.434,9.343,9.343,0,0,0-.4-1.474.725.725,0,0,1,.52-.9.748.748,0,0,1,.9.52h0Z" transform="translate(-353.1 -245.104)" fill="#84211f"/>
      <path id="Trazado_857964" data-name="Trazado 857964" d="M556.473,273c-3.642.723-5.753,4.336-8.788,6.158-1.792,1.1-3.845,1.388-5.869,1.85a7.989,7.989,0,0,0-5.03,3.035,20.457,20.457,0,0,0-2.6,5.984c-.289.9-1.677.52-1.416-.376,1.214-3.9,2.775-8.037,6.938-9.54,2.11-.781,4.481-.809,6.5-1.792a19.982,19.982,0,0,0,4.452-3.5,11.721,11.721,0,0,1,5.406-3.238c.925-.173,1.3,1.214.376,1.416h0Z" transform="translate(-420.833 -252.929)" fill="#351a04"/>
      <path id="Trazado_857965" data-name="Trazado 857965" d="M545.549,271.167c-3.874,1.417-9.106,3.614-9.222,8.5a.738.738,0,0,1-1.474,0,8.726,8.726,0,0,1,3.238-6.3,22.976,22.976,0,0,1,7.054-3.614c.9-.318,1.272,1.1.376,1.416h0Z" transform="translate(-416.009 -256.448)" fill="#351a04"/>
      <path id="Trazado_857966" data-name="Trazado 857966" d="M544.609,274.11a2.532,2.532,0,0,0-.607.347,2.2,2.2,0,0,0-.318.231c-.116.087.116-.116-.058.029-.058.029-.087.087-.145.116-.173.144-.347.318-.52.492-.087.087-.173.2-.26.289a1.229,1.229,0,0,1-.144.2,6.966,6.966,0,0,0-.376.607,1.548,1.548,0,0,0-.145.318l-.058.116c.029-.058-.029.087-.029.116a5.263,5.263,0,0,0-.231.723c0,.116-.058.231-.058.347a.641.641,0,0,1-.029.26.734.734,0,0,1-.723.723.7.7,0,0,1-.723-.723,6.673,6.673,0,0,1,3.7-5.435.739.739,0,1,1,.751,1.272h0Z" transform="translate(-430.362 -250.632)" fill="#84211f"/>
      <path id="Trazado_857967" data-name="Trazado 857967" d="M516.134,277.185c.231,2.313.434,4.625.665,6.938.2,2.081.347,4.192,1.734,5.868,1.185,1.417,2.717,2.457,3.787,3.989a9.329,9.329,0,0,1,1.677,5,9.8,9.8,0,0,1-1.416,5.695c-.491.809-1.763.058-1.272-.723a8.412,8.412,0,0,0-.549-9.569c-1.128-1.359-2.6-2.4-3.672-3.845a10.424,10.424,0,0,1-1.677-5.55c-.26-2.6-.491-5.175-.723-7.776-.087-.925,1.359-.925,1.474,0h0Z" transform="translate(-335.686 -243.56)" fill="#351a04"/>
      <path id="Trazado_857968" data-name="Trazado 857968" d="M530.745,269.822s-.145-.058-.2-.087c-.087-.029-.2-.058-.289-.087-.116,0-.231-.058-.318-.058H529.1a1.691,1.691,0,0,0-.549.058,3.834,3.834,0,0,0-2.081,1.156.736.736,0,0,1-1.041-1.041,5.453,5.453,0,0,1,6.1-1.185.767.767,0,0,1,.26,1.012.747.747,0,0,1-1.012.26h0Z" transform="translate(-374.002 -259.44)" fill="#351a04"/>
      <path id="Trazado_857969" data-name="Trazado 857969" d="M524.513,290.04a34.283,34.283,0,0,0-5.55,7.921c-.434.838-1.677.087-1.272-.752a34.8,34.8,0,0,1,5.782-8.21c.636-.694,1.677.347,1.041,1.041h0Z" transform="translate(-344.846 -220.395)" fill="#7f4924"/>
      <path id="Trazado_857970" data-name="Trazado 857970" d="M520.621,292.746c-.867-.26-1.706-.491-2.573-.752a.748.748,0,0,1-.52-.9.734.734,0,0,1,.9-.52c.867.26,1.706.491,2.573.752a.748.748,0,0,1,.52.9.735.735,0,0,1-.9.52Z" transform="translate(-341.359 -217.03)" fill="#7f4924"/>
      <path id="Trazado_857971" data-name="Trazado 857971" d="M525.59,300.35l27.81,1.619-27.521,6.591Z" transform="translate(-396.599 -198.501)" fill="#7f4924" opacity="0.58"/>
      <path id="Trazado_857972" data-name="Trazado 857972" d="M545.463,285.84a13.448,13.448,0,0,1-12.286,9.655c.2-.376.434-.723.636-1.1a59.96,59.96,0,0,0,3.122,5.261c.52.78-.752,1.5-1.272.723a59.993,59.993,0,0,1-3.122-5.261.74.74,0,0,1,.636-1.1,11.965,11.965,0,0,0,10.9-8.586c.26-.9,1.677-.52,1.416.376h0Z" transform="translate(-408.551 -227.672)" fill="#7f4924"/>
      <path id="Trazado_857973" data-name="Trazado 857973" d="M541.852,291.213a6.641,6.641,0,0,1-9.366,3.267.739.739,0,0,1,.752-1.272,5.184,5.184,0,0,0,7.227-2.4.748.748,0,0,1,.9-.52.735.735,0,0,1,.521.9h0Z" transform="translate(-404.044 -217.579)" fill="#7f4924"/>
      <path id="Trazado_857974" data-name="Trazado 857974" d="M536.706,291.195c-.81-1.937-2.6-3.874-4.828-4.047C530,287,527.86,288.3,527.629,290.27a.754.754,0,0,1-.723.723c-.376,0-.781-.347-.723-.723a5.368,5.368,0,0,1,5.579-4.6c2.978.116,5.29,2.515,6.389,5.117a.733.733,0,1,1-1.416.376h0Z" transform="translate(-383.085 -226.262)"/>
      <path id="Trazado_857975" data-name="Trazado 857975" d="M547.046,290.945c-.81-1.937-2.6-3.874-4.828-4.047-1.879-.145-4.018,1.156-4.25,3.122a.754.754,0,0,1-.723.723c-.376,0-.781-.347-.723-.723a5.368,5.368,0,0,1,5.579-4.6c3.006.116,5.29,2.515,6.389,5.117a.733.733,0,0,1-1.417.376h0Z" transform="translate(-423.317 -226.734)"/>
      <path id="Trazado_857976" data-name="Trazado 857976" d="M528.093,285.84c1.966.52,2.8,3.093,2.168,5.059s-2.313,3.353-3.989,4.51a20.254,20.254,0,0,0-4.77,3.787,7.99,7.99,0,0,0-1.417,6.822,7.848,7.848,0,0,0,4.539,5.232c-1.937-.867-2.544-3.556-1.763-5.551a9.9,9.9,0,0,1,4.394-4.51,27.409,27.409,0,0,0,5.319-3.527,10.072,10.072,0,0,0,1.243-12.344l-5.695.52Z" transform="translate(-361.954 -226.92)" fill="#5e340e"/>
      <path id="Trazado_857977" data-name="Trazado 857977" d="M548.764,281.891c.087,2.11-.26,4.828-2.255,5.319a6.545,6.545,0,0,1-2.775-.318c-2.313-.4-4.625.491-6.793,1.359a16.044,16.044,0,0,1,5-5.232,8.055,8.055,0,0,1,6.967-.838l-.116-.318Z" transform="translate(-424.919 -233.725)" fill="#5e340e"/>
      <path id="Trazado_857978" data-name="Trazado 857978" d="M526.184,282.061c-.087,2.11.26,4.828,2.255,5.319a6.544,6.544,0,0,0,2.775-.318c2.313-.4,4.625.491,6.793,1.359a16.044,16.044,0,0,0-5-5.232,8.055,8.055,0,0,0-6.967-.838l.116-.318Z" transform="translate(-382.508 -233.403)" fill="#5e340e"/>
      <path id="Trazado_857979" data-name="Trazado 857979" d="M566.605,316.891A97.827,97.827,0,0,0,554.839,340.8a101.441,101.441,0,0,0-5.059,26.249A98.131,98.131,0,0,0,550.1,382.2c.087.925-1.359.925-1.474,0a101.486,101.486,0,0,1,1.07-27.116,103.292,103.292,0,0,1,8.123-25.729,98.923,98.923,0,0,1,7.487-13.211c.52-.78,1.792-.058,1.272.723h0Z" transform="translate(-475.167 -169.28)" fill="#5e340e"/>
      <path id="Trazado_857980" data-name="Trazado 857980" d="M562.212,313.484a20.388,20.388,0,0,1-7.574,5.464,22.681,22.681,0,0,1-10,1.561,63.9,63.9,0,0,1-10.667-1.648c-1.734-.376-3.5-.752-5.232-1.243a9.951,9.951,0,0,1-4.105-2.024,12.676,12.676,0,0,1-2.544-3.122c-.607-1.041-1.1-2.486-.318-3.585.549-.752,1.821-.029,1.272.723-.549.78.145,1.85.549,2.515a12.515,12.515,0,0,0,2.052,2.4,9.353,9.353,0,0,0,3.845,1.763c1.532.4,3.064.752,4.625,1.07,6.244,1.359,13.009,2.717,19.224.463a19.077,19.077,0,0,0,7.834-5.464c.607-.723,1.648.318,1.041,1.041h0Z" transform="translate(-393.385 -182.958)" fill="#5e340e"/>
      <path id="Trazado_857981" data-name="Trazado 857981" d="M521.786,310.644c.983,1.243,1.966,2.486,2.949,3.7a.736.736,0,0,1-1.041,1.041l-2.949-3.729a.736.736,0,1,1,1.041-1.041h0Z" transform="translate(-353.538 -179.482)" fill="#5e340e"/>
      <path id="Trazado_857982" data-name="Trazado 857982" d="M523.2,311.665l2.862,4.51a.739.739,0,1,1-1.272.752l-2.862-4.51a.739.739,0,1,1,1.272-.752Z" transform="translate(-358.476 -177.786)" fill="#5e340e"/>
      <path id="Trazado_857983" data-name="Trazado 857983" d="M524.933,312.461c.665,1.359,1.3,2.688,1.966,4.047a.739.739,0,1,1-1.272.752c-.665-1.359-1.3-2.688-1.966-4.047a.739.739,0,0,1,1.272-.752Z" transform="translate(-364.345 -176.269)" fill="#5e340e"/>
      <path id="Trazado_857984" data-name="Trazado 857984" d="M526.681,312.893c.607,1.619,1.243,3.238,1.85,4.828a.725.725,0,0,1-.52.9.748.748,0,0,1-.9-.52c-.607-1.619-1.243-3.238-1.85-4.828a.725.725,0,0,1,.52-.9.748.748,0,0,1,.9.52Z" transform="translate(-370.719 -175.805)" fill="#5e340e"/>
      <path id="Trazado_857985" data-name="Trazado 857985" d="M529.057,313.013l.462,2.978a.727.727,0,0,1-.087.549.867.867,0,0,1-.434.347.735.735,0,0,1-.9-.52l-.462-2.978a.727.727,0,0,1,.087-.549.866.866,0,0,1,.434-.347.735.735,0,0,1,.9.52Z" transform="translate(-378.616 -175.578)" fill="#5e340e"/>
      <path id="Trazado_857986" data-name="Trazado 857986" d="M531.365,312.814v3.353a.734.734,0,0,1-.723.723.716.716,0,0,1-.723-.723v-3.353a.734.734,0,0,1,.723-.723.716.716,0,0,1,.723.723Z" transform="translate(-387.082 -176.303)" fill="#5e340e"/>
      <path id="Trazado_857987" data-name="Trazado 857987" d="M534.146,312.624c-.231,1.359-.491,2.746-.723,4.105a.735.735,0,0,1-.9.52.774.774,0,0,1-.52-.9c.231-1.359.492-2.746.723-4.105a.735.735,0,0,1,.9-.52.774.774,0,0,1,.52.9Z" transform="translate(-395.876 -177.039)" fill="#5e340e"/>
      <path id="Trazado_857988" data-name="Trazado 857988" d="M536.6,312.305a3.1,3.1,0,0,0-.318.318c-.058.058-.087.116-.144.173a3.828,3.828,0,0,0-.491.867c-.058.144-.087.2-.116.289a2.4,2.4,0,0,0-.116.434.538.538,0,0,1-.058.2,2.072,2.072,0,0,0-.058.549.723.723,0,0,1-1.445,0,5.631,5.631,0,0,1,1.706-3.874.736.736,0,0,1,1.041,1.041h0Z" transform="translate(-403.876 -178.252)" fill="#5e340e"/>
      <path id="Trazado_857989" data-name="Trazado 857989" d="M539.856,310.875a12.246,12.246,0,0,1-3.932,2.486.725.725,0,0,1-.9-.52.735.735,0,0,1,.52-.9c.087-.029.144-.058.231-.087h0a5.284,5.284,0,0,0,.578-.289,5.561,5.561,0,0,0,.9-.52c.144-.087.289-.173.4-.26.087-.058.145-.116.231-.173a9.313,9.313,0,0,0,.925-.78.736.736,0,0,1,1.041,1.041h0Z" transform="translate(-410.49 -180.956)" fill="#5e340e"/>
      <path id="Trazado_857990" data-name="Trazado 857990" d="M601.624,361.39a27.435,27.435,0,0,0-9.54-16.362,24.3,24.3,0,0,0-17.258-5.464,22.933,22.933,0,0,0-10.2,3.44c-.81.491-1.532-.752-.723-1.272a24.517,24.517,0,0,1,19.513-2.833,27.31,27.31,0,0,1,15.379,11.419,29.015,29.015,0,0,1,4.25,10.667c.173.925-1.243,1.3-1.417.376h0Z" transform="translate(-555.977 -127.284)" fill="#5e340e"/>
      <path id="Trazado_857991" data-name="Trazado 857991" d="M531.24,343.834a50.552,50.552,0,0,1-29.2,7.256,49.864,49.864,0,0,1-8.5-1.272c-.925-.231-.52-1.619.376-1.416a49.085,49.085,0,0,0,29.024-2.081,45.9,45.9,0,0,0,7.545-3.758c.809-.491,1.532.781.723,1.272h0Z" transform="translate(-280.602 -118.893)" fill="#5e340e"/>
      <path id="Trazado_857992" data-name="Trazado 857992" d="M507.725,343.111a265.3,265.3,0,0,0,1.185,35.211c.347,3.353.752,6.707,1.214,10.031a.733.733,0,0,1-1.417.376,266.408,266.408,0,0,1-2.6-35.557c0-3.353.029-6.707.145-10.06.029-.925,1.5-.954,1.474,0Z" transform="translate(-297.009 -118.979)" fill="#5e340e"/>
      <path id="Trazado_857993" data-name="Trazado 857993" d="M510.8,353.618c-.838,2.371-1.648,4.741-2.486,7.111a.733.733,0,0,1-1.417-.376c.839-2.37,1.648-4.741,2.486-7.111a.759.759,0,0,1,.9-.52.735.735,0,0,1,.52.9Z" transform="translate(-299.91 -99.507)" fill="#5e340e"/>
      <path id="Trazado_857994" data-name="Trazado 857994" d="M492.3,341.129c.925,4.018,3.064,7.574,4.481,11.39a56.656,56.656,0,0,1,2.746,12.17c.318,2.371.52,4.77.752,7.169.087.925-1.388.925-1.474,0a111.932,111.932,0,0,0-1.619-12.4,47.192,47.192,0,0,0-1.59-5.926c-.665-1.908-1.532-3.758-2.371-5.608a36.268,36.268,0,0,1-2.342-6.418.733.733,0,0,1,1.416-.376Z" transform="translate(-243.074 -122.403)" fill="#5e340e"/>
      <path id="Trazado_857995" data-name="Trazado 857995" d="M508.987,408.428a230.434,230.434,0,0,0,3.411-33.65c.4-11.332.174-22.693-.289-34.025-.26-6.36-.578-12.72-.9-19.08-.058-.925,1.417-.925,1.474,0,.578,11.39,1.157,22.751,1.33,34.141a326.6,326.6,0,0,1-1.07,34.054c-.578,6.331-1.416,12.662-2.544,18.935-.174.925-1.59.52-1.417-.376h0Z" transform="translate(-309.228 -159.493)" fill="#5e340e"/>
      <path id="Trazado_857996" data-name="Trazado 857996" d="M511.917,323.117c-.752,1.59-1.532,3.209-2.284,4.8a.739.739,0,0,1-1.272-.752c.752-1.59,1.532-3.209,2.284-4.8a.739.739,0,1,1,1.272.752Z" transform="translate(-305.133 -157.553)" fill="#5e340e"/>
      <path id="Trazado_857997" data-name="Trazado 857997" d="M551.009,316.563c.289,2.486.578,4.972.867,7.43.058.4-.376.723-.723.723a.734.734,0,0,1-.723-.723c-.289-2.486-.578-4.972-.867-7.43-.058-.4.376-.723.723-.723a.734.734,0,0,1,.723.723Z" transform="translate(-464.369 -169.211)" fill="#5e340e"/>
      <path id="Trazado_857998" data-name="Trazado 857998" d="M586.316,368.458q-11.968-6.071-24.138-11.65-12.142-5.55-24.543-10.61c-4.654-1.908-9.337-3.729-14.05-5.522-.867-.318-.491-1.735.376-1.417q12.575,4.77,24.919,10.06t24.514,11.13c4.568,2.2,9.135,4.452,13.645,6.736.838.434.087,1.677-.723,1.272Z" transform="translate(-423.387 -125.015)" fill="#5e340e"/>
      <path id="Trazado_857999" data-name="Trazado 857999" d="M575.591,366.467q-18.95-9.41-38.448-17.576c-3.7-1.532-7.4-3.064-11.13-4.539-.867-.347-.492-1.763.376-1.416q19.817,7.849,39.084,17c3.614,1.706,7.227,3.469,10.812,5.261.838.4.116,1.677-.723,1.272h0Z" transform="translate(-419.658 -118.08)" fill="#5e340e"/>
      <path id="Trazado_858000" data-name="Trazado 858000" d="M527.694,370.284a13.935,13.935,0,0,0-2.284,5.868.735.735,0,0,1-.9.52.774.774,0,0,1-.52-.9,14.669,14.669,0,0,1,2.428-6.215.775.775,0,0,1,1.012-.26.747.747,0,0,1,.26,1.012h0Z" transform="translate(-366.355 -68.301)" fill="#5e340e"/>
      <path id="Trazado_858001" data-name="Trazado 858001" d="M527.556,370.524c-.231,1.359-.491,2.746-.723,4.105a.735.735,0,0,1-.9.52.774.774,0,0,1-.52-.9c.231-1.359.491-2.746.723-4.105a.735.735,0,0,1,.9-.52.774.774,0,0,1,.52.9Z" transform="translate(-370.235 -67.558)" fill="#5e340e"/>
      <path id="Trazado_858002" data-name="Trazado 858002" d="M545.315,368.043a2.6,2.6,0,0,0-.231.809c0,.058-.087.289,0,.087v.809a.571.571,0,0,0,.029.26.679.679,0,0,0,.058.231,1.88,1.88,0,0,0,.116.376c0,.029.087.26.029.087a.611.611,0,0,0,.087.2.739.739,0,0,1-1.272.752,4.855,4.855,0,0,1-.2-3.96.836.836,0,0,1,.347-.434.727.727,0,0,1,.549-.087.748.748,0,0,1,.52.9h0Z" transform="translate(-440.752 -72.188)" fill="#5e340e"/>
      <path id="Trazado_858003" data-name="Trazado 858003" d="M546.706,367.884c.058.752.087,1.474.144,2.226a.723.723,0,1,1-1.445,0c-.058-.752-.087-1.474-.145-2.226a.723.723,0,0,1,1.445,0Z" transform="translate(-446.912 -72.174)" fill="#5e340e"/>
      <path id="Trazado_858004" data-name="Trazado 858004" d="M536.469,370.334a5.126,5.126,0,0,0-.4.665v.058c0,.058-.029.087-.058.145-.029.116-.087.26-.116.376s-.058.26-.087.376h0v.2a7.038,7.038,0,0,0,.029.78.832.832,0,0,1-.2.52.77.77,0,0,1-1.041,0,.832.832,0,0,1-.2-.52,4.931,4.931,0,0,1,.838-3.353.865.865,0,0,1,.434-.347.727.727,0,0,1,.549.087.747.747,0,0,1,.26,1.012Z" transform="translate(-405.108 -68.293)" fill="#5e340e"/>
      <path id="Trazado_858005" data-name="Trazado 858005" d="M537.785,370.591l-.115.116a1.938,1.938,0,0,0-.2.318c-.058.087-.116.2-.173.289a1.412,1.412,0,0,1-.087.2c-.029.116-.058.231-.087.318a.366.366,0,0,1-.029.173c0,.029-.029.231,0,.087s0,.058,0,.087v.549a.723.723,0,1,1-1.445,0,4.3,4.3,0,0,1,1.156-3.209.736.736,0,0,1,1.041,1.041h0Z" transform="translate(-410.298 -68.117)" fill="#5e340e"/>
      <path id="Trazado_858006" data-name="Trazado 858006" d="M521.25,371.353c-.491.636-.983,1.243-1.474,1.85a.7.7,0,0,1-.52.2.831.831,0,0,1-.52-.2.7.7,0,0,1-.2-.52v-.2a1.679,1.679,0,0,1,.2-.318c.491-.607.983-1.243,1.474-1.85a.7.7,0,0,1,.52-.2.831.831,0,0,1,.52.2.7.7,0,0,1,.2.52v.2a1.68,1.68,0,0,1-.2.318Z" transform="translate(-344.242 -66.595)" fill="#5e340e"/>
      <path id="Trazado_858007" data-name="Trazado 858007" d="M506.686,306.871c-.058,1.012,1.156,1.706,1.908,2.2a17.146,17.146,0,0,0,2.8,1.445c1.908.838,3.932,1.474,5.84,2.284a17.359,17.359,0,0,1,8.817,7.805,16.677,16.677,0,0,1,1.908,6.418c.087.925-1.359.925-1.474,0a15.5,15.5,0,0,0-5.348-10.2c-3.209-2.746-7.487-3.585-11.217-5.348a16.475,16.475,0,0,1-3.064-1.821,3.4,3.4,0,0,1-1.648-2.775c.058-.925,1.5-.954,1.474,0h0Z" transform="translate(-312.247 -187.503)" fill="#7f4924"/>
      <path id="Trazado_858008" data-name="Trazado 858008" d="M515.641,305.642c-2.081,2.515-5.088,3.9-7.805,5.579a14.859,14.859,0,0,0-3.556,2.891,10.029,10.029,0,0,0-1.995,4.972,43.214,43.214,0,0,1-1.07,6.707c-.289.9-1.706.52-1.417-.376,1.214-3.758.434-8.094,2.8-11.477,1.879-2.746,4.972-4.192,7.747-5.868a15.769,15.769,0,0,0,4.25-3.44c.607-.723,1.619.318,1.041,1.041h0Z" transform="translate(-284.343 -190.87)" fill="#7f4924"/>
      <path id="Trazado_858009" data-name="Trazado 858009" d="M510.471,292.532c-4.539,7.14-5.579,15.929-7.083,24.081-.463,2.6-.954,5.232-1.446,7.834-.173.925-1.59.52-1.416-.376l2.515-13.789a73.165,73.165,0,0,1,3.064-12.2,33.173,33.173,0,0,1,3.064-6.273c.492-.78,1.763-.058,1.272.723h0Z" transform="translate(-281.254 -215.284)" fill="#7f4924"/>
      <path id="Trazado_858010" data-name="Trazado 858010" d="M520.53,307.048a193.284,193.284,0,0,0-19.947-2.313c-.925-.058-.954-1.532,0-1.474a200.278,200.278,0,0,1,20.352,2.371c.925.145.52,1.561-.376,1.416h0Z" transform="translate(-290.33 -193)" fill="#7f4924"/>
      <path id="Trazado_858011" data-name="Trazado 858011" d="M526.169,288.508a74.085,74.085,0,0,0-6.678-20.352c.376.058.752.087,1.156.145a7.044,7.044,0,0,0-1.734,5.839,14.593,14.593,0,0,0,2.862,6.533c1.474,2.139,3.122,4.134,4.539,6.331a60.945,60.945,0,0,1,3.816,6.851,62.007,62.007,0,0,1,2.92,7.372,21.772,21.772,0,0,1,1.416,8.008,4.135,4.135,0,0,1-1.07,3.035,2.034,2.034,0,0,1-2.862-.491c-1.677-1.879-2.342-4.452-2.891-6.851a82.635,82.635,0,0,1-1.966-19.4c.491.058.954.116,1.445.2a79.161,79.161,0,0,1-11.245,22.809c-.549.752-1.821.029-1.272-.723a77.587,77.587,0,0,0,11.1-22.462.739.739,0,0,1,1.445.2,81.959,81.959,0,0,0,1.416,16.593,25.974,25.974,0,0,0,2.053,7.2c.26.491,1.359,2.573,2.024,1.619a5.954,5.954,0,0,0,.376-3.411,28.857,28.857,0,0,0-1.908-7.574,58.39,58.39,0,0,0-6.88-13.471c-1.388-2.024-2.949-3.874-4.279-5.926a14.469,14.469,0,0,1-2.544-6.938,8.293,8.293,0,0,1,2.2-6.36.74.74,0,0,1,1.156.144,74.913,74.913,0,0,1,6.822,20.727c.174.925-1.243,1.3-1.416.376h0Z" transform="translate(-345.548 -261.417)" fill="#6da8c6"/>
      <path id="Trazado_858012" data-name="Trazado 858012" d="M529.475,275.8a34.577,34.577,0,0,1-11.188,4.365c-.925.173-1.3-1.214-.376-1.417a34,34,0,0,0,10.841-4.221c.81-.491,1.532.78.723,1.272h0Z" transform="translate(-349.287 -247.528)" fill="#6da8c6"/>
      <path id="Trazado_858013" data-name="Trazado 858013" d="M550.843,288.135c2.053-3.267,4.307-6.447,6.042-9.887a16.551,16.551,0,0,0,1.763-5.03,10.207,10.207,0,0,0,.058-2.486c-.029-.318-.289-1.995-.665-1.937-.2.029-.491.723-.578.867-.173.289-.347.607-.52.9-.376.665-.694,1.33-1.012,2.024a35.041,35.041,0,0,0-1.532,4.105c-.9,2.862-1.532,5.782-2.139,8.7-1.185,5.637-2.284,11.477-5.175,16.565a24.835,24.835,0,0,1-2.457,3.527,5.468,5.468,0,0,1-3.469,2.226c-1.619.145-2.486-1.243-2.515-2.717a9.7,9.7,0,0,1,1.417-4.943,41.572,41.572,0,0,1,7.227-9.251,29.691,29.691,0,0,1,4.423-3.874c.491-.347.867-.145,1.416.029s1.07.347,1.619.549c1.07.347,2.139.723,3.238,1.07.9.289.52,1.706-.376,1.417-1.85-.607-3.7-1.243-5.55-1.85.231-.058.462-.116.723-.173a48.293,48.293,0,0,0-7.14,6.822,46.493,46.493,0,0,0-3.064,4.047,14.955,14.955,0,0,0-2.2,4.336c-.26.954-.694,3.585,1.07,3.035a6.277,6.277,0,0,0,2.833-2.515,26.89,26.89,0,0,0,3.7-7.111c1.879-5.261,2.66-10.841,3.961-16.276a47.8,47.8,0,0,1,2.573-7.921,25.9,25.9,0,0,1,1.85-3.556c.347-.549.694-1.185,1.359-1.388a1.654,1.654,0,0,1,1.763.723c.983,1.33.954,3.527.752,5.088a16.621,16.621,0,0,1-1.677,5.2,48.912,48.912,0,0,1-2.862,4.943c-1.156,1.85-2.313,3.671-3.469,5.522-.491.78-1.763.058-1.272-.752h0Z" transform="translate(-441.279 -260.841)" fill="#6da8c6"/>
      <path id="Trazado_858014" data-name="Trazado 858014" d="M541.225,274.653l4.336,7.111c.491.81-.781,1.532-1.272.752l-4.336-7.111c-.492-.809.78-1.532,1.272-.723h0Z" transform="translate(-430.07 -247.706)" fill="#6da8c6"/>
      <path id="Trazado_858015" data-name="Trazado 858015" d="M539.148,291.615h-.376a.7.7,0,0,1-.289-.058.605.605,0,0,1-.376-.376.474.474,0,0,1-.058-.289v-.2a.691.691,0,0,1,.173-.318c.058-.029.087-.087.145-.116a.8.8,0,0,1,.376-.087h.376a.693.693,0,0,1,.289.058.606.606,0,0,1,.376.376.476.476,0,0,1,.058.289v.2a1.686,1.686,0,0,1-.2.318c-.058.029-.087.087-.145.116a.8.8,0,0,1-.376.087h0Z" transform="translate(-419.061 -217.75)" fill="#7f4924"/>
      <path id="Trazado_858016" data-name="Trazado 858016" d="M541.939,289.863a4.307,4.307,0,0,1-.376.376.63.63,0,0,1-.231.144.476.476,0,0,1-.289.058.521.521,0,0,1-.289-.058.632.632,0,0,1-.231-.144c-.029-.058-.087-.087-.116-.145a.8.8,0,0,1-.087-.376v-.2a1.683,1.683,0,0,1,.2-.318,4.618,4.618,0,0,1,.376-.376.629.629,0,0,1,.231-.145.475.475,0,0,1,.289-.058.521.521,0,0,1,.289.058.632.632,0,0,1,.231.145c.029.058.087.087.115.145a.8.8,0,0,1,.087.376v.2a.69.69,0,0,1-.174.318h0Z" transform="translate(-427.923 -220.68)" fill="#7f4924"/>
      <path id="Trazado_858017" data-name="Trazado 858017" d="M526.792,290.43h.231a.694.694,0,0,1,.289.058.606.606,0,0,1,.376.376.476.476,0,0,1,.058.289v.2a1.676,1.676,0,0,1-.2.318c-.058.029-.087.087-.144.116a.8.8,0,0,1-.376.087h-.231a.7.7,0,0,1-.289-.058.606.606,0,0,1-.376-.376.474.474,0,0,1-.058-.289v-.2a.69.69,0,0,1,.174-.318c.058-.029.087-.087.144-.116a.8.8,0,0,1,.376-.087h.231a.694.694,0,0,1,.289.058.606.606,0,0,1,.376.376.475.475,0,0,1,.058.289v.2a1.678,1.678,0,0,1-.2.318c-.058.029-.087.087-.144.116a.8.8,0,0,1-.376.087h-.231a.7.7,0,0,1-.289-.058.607.607,0,0,1-.376-.376.475.475,0,0,1-.058-.289v-.2a.69.69,0,0,1,.174-.318c.058-.029.087-.087.144-.116a.8.8,0,0,1,.376-.087h0Z" transform="translate(-372.246 -217.258)" fill="#7f4924"/>
      <path id="Trazado_858018" data-name="Trazado 858018" d="M529.55,290.368v-.376a.694.694,0,0,1,.058-.289.605.605,0,0,1,.376-.376.475.475,0,0,1,.289-.058h.2a.549.549,0,0,1,.318.2c.029.058.087.087.116.144a.8.8,0,0,1,.087.376v.376a.694.694,0,0,1-.058.289.607.607,0,0,1-.376.376.475.475,0,0,1-.289.058h-.2a1.687,1.687,0,0,1-.318-.2c-.029-.058-.087-.087-.115-.145a.8.8,0,0,1-.087-.376Z" transform="translate(-385.642 -219.451)" fill="#7f4924"/>
      <path id="Trazado_858019" data-name="Trazado 858019" d="M529.715,292.684v.376a.693.693,0,0,1-.058.289.606.606,0,0,1-.376.376.476.476,0,0,1-.289.058h-.2a.687.687,0,0,1-.318-.173c-.029-.058-.087-.087-.116-.145a.8.8,0,0,1-.087-.376v-.376a.7.7,0,0,1,.058-.289.606.606,0,0,1,.376-.376.475.475,0,0,1,.289-.058h.2a1.68,1.68,0,0,1,.318.2c.029.058.087.087.116.145a.8.8,0,0,1,.087.376h0Z" transform="translate(-380.662 -214.308)" fill="#7f4924"/>
      <path id="Trazado_858020" data-name="Trazado 858020" d="M598.153,533.123a11.755,11.755,0,0,1-11.65-11.3c-1.359-28.5-2.371-63.339-2.284-69.987-.9,14.425-1.648,44.721-2.342,69.756A11.767,11.767,0,0,1,570.2,533.123H521.372a11.744,11.744,0,0,1-11.65-11.448c-.318-8.962-.636-19.889-.925-24.486A224.564,224.564,0,0,1,525.679,395.4l11.014-27.463c25.96,1.735,43.8,11.361,69.756,13.1,14.049.954,27.2,2.862,39.981-3.151.607,18.357,20.727,72.185,21.045,90.513.087,5-1.214,32.031-2.833,53.741a11.762,11.762,0,0,1-11.65,10.985Z" transform="translate(-460.663 -70.698)" fill="#b7772f"/>
      <path id="Trazado_858021" data-name="Trazado 858021" d="M587.4,360.644c8.123,28.446,9.684,67.993,17.807,96.439,1.879,6.533,16.8-.289,21.277,4.741,2.833,3.18,15.495,16.594,16.709,18.877.867,1.648-3.585,3.44-5.2,2.515-5.059-2.862-15.668-8.181-20.352-11.65l-16.651,27.319c-15.813-22.693-46.08-115.547-51.746-133.153-2.139-6.649-5.232-13.356-.462-18.357,2.11-2.226,6.938-4.857,9.829-5.753,8.008-2.4,17.836-2.631,23.5,3.614l5.261,15.408Z" transform="translate(-546.262 -123.416)" fill="#f6a472"/>
      <path id="Trazado_858022" data-name="Trazado 858022" d="M574.464,386.433q-7.025,11.838-14.078,23.705c-1.359,2.255-2.688,4.539-4.047,6.794a.739.739,0,0,1-1.272-.752q7.025-11.838,14.078-23.705c1.359-2.255,2.688-4.539,4.018-6.794a.739.739,0,0,1,1.272.752h0Z" transform="translate(-502.654 -37.82)" fill="#6d331f"/>
      <path id="Trazado_858023" data-name="Trazado 858023" d="M511.93,381.087a153.831,153.831,0,0,0,20.583,24.6c2.168,2.081,4.394,4.134,6.678,6.1.723.607-.318,1.648-1.041,1.041A155.1,155.1,0,0,1,516.006,389.3c-1.85-2.428-3.642-4.915-5.348-7.458-.52-.78.752-1.5,1.272-.752h0Z" transform="translate(-339.114 -46.437)" fill="#6d331f"/>
      <path id="Trazado_858024" data-name="Trazado 858024" d="M545.993,371.843c-.318,2.978-.636,5.955-.954,8.962a.734.734,0,0,1-.723.723c-.376,0-.781-.347-.723-.723l.954-8.962a.734.734,0,0,1,.723-.723c.376,0,.781.347.723.723Z" transform="translate(-441.228 -64.685)" fill="#6d331f"/>
      <path id="Trazado_858025" data-name="Trazado 858025" d="M546.717,370.929a35.186,35.186,0,0,1,.636,12.171c-.116.925-1.59.925-1.474,0A33.736,33.736,0,0,0,545.3,371.3a.733.733,0,0,1,1.416-.376h0Z" transform="translate(-447.733 -66.055)" fill="#6d331f"/>
      <path id="Trazado_858026" data-name="Trazado 858026" d="M524.844,374.928v8.933a.737.737,0,0,1-1.474,0v-8.933a.737.737,0,0,1,1.474,0Z" transform="translate(-361.626 -58.838)" fill="#6d331f"/>
      <path id="Trazado_858027" data-name="Trazado 858027" d="M526.534,374.578v11.939a.738.738,0,0,1-1.474,0V374.578a.738.738,0,0,1,1.474,0Z" transform="translate(-368.202 -59.499)" fill="#6d331f"/>
      <path id="Trazado_858028" data-name="Trazado 858028" d="M615.987,386.184a.286.286,0,0,1-.173-.058c-.116-.029.173,0-.029,0H615c-.087,0-.434.058-.174,0-.231.029-.491.087-.723.116-1.387.26-2.746.578-4.134.867a107.743,107.743,0,0,1-13.876,2.024,102.793,102.793,0,0,1-21.074-.694,129.121,129.121,0,0,1-13.182-2.515c-4.654-1.156-9.28-2.255-13.992-3.093-9.4-1.648-18.906-2.6-28.33-4.018-1.156-.173-2.313-.347-3.469-.549-.925-.145-.52-1.561.376-1.417,9.424,1.532,18.935,2.486,28.359,3.989,4.712.752,9.4,1.619,14.021,2.775,4.51,1.127,8.962,2.226,13.558,2.949a102.34,102.34,0,0,0,21.855,1.214,97.491,97.491,0,0,0,14.454-1.908c1.5-.318,2.978-.636,4.481-.925a9.9,9.9,0,0,1,2.746-.318,1.638,1.638,0,0,1,.52.087c.9.289.491,1.706-.376,1.417h0Z" transform="translate(-431.03 -53.876)" fill="#6d331f"/>
      <path id="Trazado_858029" data-name="Trazado 858029" d="M538.794,380.6a161.4,161.4,0,0,0-2.949,22.346c-.231,3.787-.318,7.574-.289,11.361,0,1.908.058,3.787.145,5.695.029.867.087,1.734.144,2.6a9.416,9.416,0,0,0,.347,2.371,3.18,3.18,0,0,0,1.85,1.763c.867.434,1.763.78,2.66,1.185,1.966.867,3.96,1.735,5.926,2.6-.376.2-.723.434-1.1.636q.217-17.085,1.85-34.083c.318-3.18.665-6.389,1.041-9.569.116-.925,1.561-.925,1.474,0q-2.081,16.955-2.688,34.025c-.116,3.209-.2,6.418-.231,9.627a.745.745,0,0,1-1.1.636c-1.821-.809-3.672-1.619-5.493-2.428l-2.6-1.128a6.591,6.591,0,0,1-2.053-1.272c-1.214-1.214-1.3-2.978-1.416-4.6-.116-1.908-.2-3.787-.231-5.695a158.225,158.225,0,0,1,1.128-23.416c.52-4.365,1.243-8.73,2.11-13.067.173-.925,1.59-.52,1.417.376h0Z" transform="translate(-417.493 -48.522)" fill="#6d331f"/>
      <path id="Trazado_858030" data-name="Trazado 858030" d="M575.82,407.247q-18.126-3.252-35.875-8.21c-3.325-.925-6.649-1.908-9.974-2.92-.9-.289-.52-1.677.376-1.417q17.605,5.377,35.644,9.164c3.382.694,6.793,1.359,10.176,1.966.925.173.52,1.561-.376,1.416h0Z" transform="translate(-431.074 -20.158)" fill="#6d331f"/>
      <ellipse id="Elipse_5491" data-name="Elipse 5491" cx="4.77" cy="4.857" rx="4.77" ry="4.857" transform="translate(123.556 315.454)" fill="#6d331f"/>
      <path id="Trazado_858031" data-name="Trazado 858031" d="M578.8,345.041a7.342,7.342,0,0,0,2.573,5.811.736.736,0,0,1-1.041,1.041,8.752,8.752,0,0,1-3.006-6.851c.029-.925,1.5-.954,1.474,0h0Z" transform="translate(-574.316 -115.329)" fill="#7f4924"/>
    </g>
  </g>
</svg>
